G04 #@! TF.GenerationSoftware,KiCad,Pcbnew,(5.1.6)-1*
G04 #@! TF.CreationDate,2020-11-06T20:37:43+01:00*
G04 #@! TF.ProjectId,DynOSSAT-EDU-EPS,44796e4f-5353-4415-942d-4544552d4550,rev?*
G04 #@! TF.SameCoordinates,Original*
G04 #@! TF.FileFunction,Other,Fab,Top*
%FSLAX46Y46*%
G04 Gerber Fmt 4.6, Leading zero omitted, Abs format (unit mm)*
G04 Created by KiCad (PCBNEW (5.1.6)-1) date 2020-11-06 20:37:43*
%MOMM*%
%LPD*%
G01*
G04 APERTURE LIST*
%ADD10C,0.100000*%
%ADD11C,0.120000*%
%ADD12C,0.150000*%
%ADD13C,0.110000*%
%ADD14C,0.060000*%
%ADD15C,0.040000*%
%ADD16C,0.075000*%
G04 APERTURE END LIST*
D10*
X208268000Y-76582400D02*
X206018000Y-76582400D01*
X206018000Y-76582400D02*
X206018000Y-73582400D01*
X206018000Y-73582400D02*
X209018000Y-73582400D01*
X209018000Y-73582400D02*
X209018000Y-75832400D01*
X209018000Y-75832400D02*
X208268000Y-76582400D01*
X211520967Y-61529453D02*
X209753200Y-63297220D01*
X209753200Y-63297220D02*
X207004252Y-60548272D01*
X207004252Y-60548272D02*
X209125572Y-58426952D01*
X209125572Y-58426952D02*
X211520967Y-60822347D01*
X211520967Y-61529453D02*
X211520967Y-60822347D01*
D11*
X227558600Y-63779400D02*
X226796600Y-63779400D01*
X227558600Y-64541400D02*
X227558600Y-63779400D01*
X226796600Y-57429400D02*
X226796600Y-64541400D01*
X228701600Y-57429400D02*
X226796600Y-57429400D01*
X228701600Y-57556400D02*
X228701600Y-57429400D01*
X228701600Y-64541400D02*
X228701600Y-57556400D01*
X226796600Y-64541400D02*
X228701600Y-64541400D01*
D10*
X215929800Y-80465800D02*
X219579800Y-80465800D01*
X219579800Y-80465800D02*
X219579800Y-83465800D01*
X219579800Y-83465800D02*
X215179800Y-83465800D01*
X215179800Y-83465800D02*
X215179800Y-81215800D01*
X215179800Y-81215800D02*
X215929800Y-80465800D01*
X198430200Y-73482000D02*
X195930200Y-73482000D01*
X195930200Y-73482000D02*
X195930200Y-70282000D01*
X195930200Y-70282000D02*
X198430200Y-70282000D01*
X198430200Y-70282000D02*
X198430200Y-73482000D01*
X204424600Y-64922200D02*
X201924600Y-64922200D01*
X201924600Y-64922200D02*
X201924600Y-61722200D01*
X201924600Y-61722200D02*
X204424600Y-61722200D01*
X204424600Y-61722200D02*
X204424600Y-64922200D01*
X201876000Y-59994800D02*
X202126000Y-59994800D01*
X201876000Y-60344800D02*
X201376000Y-59994800D01*
X201876000Y-59644800D02*
X201876000Y-60344800D01*
X201376000Y-59994800D02*
X201876000Y-59644800D01*
X201376000Y-59994800D02*
X201176000Y-59994800D01*
X201376000Y-59644800D02*
X201376000Y-60344800D01*
X200776000Y-60694800D02*
X200776000Y-59294800D01*
X202576000Y-60694800D02*
X200776000Y-60694800D01*
X202576000Y-59294800D02*
X202576000Y-60694800D01*
X200776000Y-59294800D02*
X202576000Y-59294800D01*
X222389600Y-75558600D02*
X220789600Y-75558600D01*
X222389600Y-74758600D02*
X222389600Y-75558600D01*
X220789600Y-74758600D02*
X222389600Y-74758600D01*
X220789600Y-75558600D02*
X220789600Y-74758600D01*
X200291800Y-73463200D02*
X201891800Y-73463200D01*
X200291800Y-74263200D02*
X200291800Y-73463200D01*
X201891800Y-74263200D02*
X200291800Y-74263200D01*
X201891800Y-73463200D02*
X201891800Y-74263200D01*
X200469400Y-65386000D02*
X200469400Y-66186000D01*
X200469400Y-66186000D02*
X198869400Y-66186000D01*
X198869400Y-66186000D02*
X198869400Y-65386000D01*
X198869400Y-65386000D02*
X200469400Y-65386000D01*
X214338000Y-88195200D02*
X214338000Y-88995200D01*
X215938000Y-88195200D02*
X214338000Y-88195200D01*
X215938000Y-88695200D02*
X215938000Y-88195200D01*
X215638000Y-88995200D02*
X215938000Y-88695200D01*
X214338000Y-88995200D02*
X215638000Y-88995200D01*
X206514800Y-80765600D02*
X206514800Y-79965600D01*
X206514800Y-79965600D02*
X208114800Y-79965600D01*
X208114800Y-79965600D02*
X208114800Y-80765600D01*
X208114800Y-80765600D02*
X206514800Y-80765600D01*
X212921800Y-83172400D02*
X212921800Y-84772400D01*
X212121800Y-83172400D02*
X212921800Y-83172400D01*
X212121800Y-84772400D02*
X212121800Y-83172400D01*
X212921800Y-84772400D02*
X212121800Y-84772400D01*
X207893000Y-85325000D02*
X209493000Y-85325000D01*
X207893000Y-86125000D02*
X207893000Y-85325000D01*
X209493000Y-86125000D02*
X207893000Y-86125000D01*
X209493000Y-85325000D02*
X209493000Y-86125000D01*
X194367200Y-70320000D02*
X195167200Y-70320000D01*
X195167200Y-70320000D02*
X195167200Y-71920000D01*
X195167200Y-71920000D02*
X194367200Y-71920000D01*
X194367200Y-71920000D02*
X194367200Y-70320000D01*
X192868600Y-71920000D02*
X192868600Y-70320000D01*
X193668600Y-71920000D02*
X192868600Y-71920000D01*
X193668600Y-70320000D02*
X193668600Y-71920000D01*
X192868600Y-70320000D02*
X193668600Y-70320000D01*
X213214200Y-75724000D02*
X217214200Y-75724000D01*
X217214200Y-79724000D02*
X213214200Y-79724000D01*
X217214200Y-79724000D02*
X217214200Y-75724000D01*
X213214200Y-79724000D02*
X213214200Y-75724000D01*
X216020800Y-85109000D02*
X214420800Y-85109000D01*
X216020800Y-84309000D02*
X216020800Y-85109000D01*
X214420800Y-84309000D02*
X216020800Y-84309000D01*
X214420800Y-85109000D02*
X214420800Y-84309000D01*
X203873200Y-88195200D02*
X203873200Y-88995200D01*
X205473200Y-88195200D02*
X203873200Y-88195200D01*
X205473200Y-88695200D02*
X205473200Y-88195200D01*
X205173200Y-88995200D02*
X205473200Y-88695200D01*
X203873200Y-88995200D02*
X205173200Y-88995200D01*
X214314200Y-85837800D02*
X216114200Y-85837800D01*
X216114200Y-85837800D02*
X216114200Y-87237800D01*
X216114200Y-87237800D02*
X214314200Y-87237800D01*
X214314200Y-87237800D02*
X214314200Y-85837800D01*
X214914200Y-86187800D02*
X214914200Y-86887800D01*
X214914200Y-86537800D02*
X214714200Y-86537800D01*
X214914200Y-86537800D02*
X215414200Y-86187800D01*
X215414200Y-86187800D02*
X215414200Y-86887800D01*
X215414200Y-86887800D02*
X214914200Y-86537800D01*
X215414200Y-86537800D02*
X215664200Y-86537800D01*
X220824400Y-49847600D02*
X220824400Y-50892600D01*
X220424400Y-49847600D02*
X220824400Y-49847600D01*
X220424400Y-50892600D02*
X220424400Y-49847600D01*
X220824400Y-55347600D02*
X220824400Y-54302600D01*
X220424400Y-55347600D02*
X220824400Y-55347600D01*
X220424400Y-54302600D02*
X220424400Y-55347600D01*
X219554400Y-49847600D02*
X219554400Y-50892600D01*
X219154400Y-49847600D02*
X219554400Y-49847600D01*
X219154400Y-50892600D02*
X219154400Y-49847600D01*
X219554400Y-55347600D02*
X219554400Y-54302600D01*
X219154400Y-55347600D02*
X219554400Y-55347600D01*
X219154400Y-54302600D02*
X219154400Y-55347600D01*
X218284400Y-49847600D02*
X218284400Y-50892600D01*
X217884400Y-49847600D02*
X218284400Y-49847600D01*
X217884400Y-50892600D02*
X217884400Y-49847600D01*
X218284400Y-55347600D02*
X218284400Y-54302600D01*
X217884400Y-55347600D02*
X218284400Y-55347600D01*
X217884400Y-54302600D02*
X217884400Y-55347600D01*
X217014400Y-49847600D02*
X217014400Y-50892600D01*
X216614400Y-49847600D02*
X217014400Y-49847600D01*
X216614400Y-50892600D02*
X216614400Y-49847600D01*
X217014400Y-55347600D02*
X217014400Y-54302600D01*
X216614400Y-55347600D02*
X217014400Y-55347600D01*
X216614400Y-54302600D02*
X216614400Y-55347600D01*
X215744400Y-49847600D02*
X215744400Y-50892600D01*
X215344400Y-49847600D02*
X215744400Y-49847600D01*
X215344400Y-50892600D02*
X215344400Y-49847600D01*
X215744400Y-55347600D02*
X215744400Y-54302600D01*
X215344400Y-55347600D02*
X215744400Y-55347600D01*
X215344400Y-54302600D02*
X215344400Y-55347600D01*
X214474400Y-49847600D02*
X214474400Y-50892600D01*
X214074400Y-49847600D02*
X214474400Y-49847600D01*
X214074400Y-50892600D02*
X214074400Y-49847600D01*
X214474400Y-55347600D02*
X214474400Y-54302600D01*
X214074400Y-55347600D02*
X214474400Y-55347600D01*
X214074400Y-54302600D02*
X214074400Y-55347600D01*
X213204400Y-49847600D02*
X213204400Y-50892600D01*
X212804400Y-49847600D02*
X213204400Y-49847600D01*
X212804400Y-50892600D02*
X212804400Y-49847600D01*
X213204400Y-55347600D02*
X213204400Y-54302600D01*
X212804400Y-55347600D02*
X213204400Y-55347600D01*
X212804400Y-54302600D02*
X212804400Y-55347600D01*
X211934400Y-49847600D02*
X211934400Y-50892600D01*
X211534400Y-49847600D02*
X211934400Y-49847600D01*
X211534400Y-50892600D02*
X211534400Y-49847600D01*
X211934400Y-55347600D02*
X211934400Y-54302600D01*
X211534400Y-55347600D02*
X211934400Y-55347600D01*
X211534400Y-54302600D02*
X211534400Y-55347600D01*
X210664400Y-49847600D02*
X210664400Y-50892600D01*
X210264400Y-49847600D02*
X210664400Y-49847600D01*
X210264400Y-50892600D02*
X210264400Y-49847600D01*
X210664400Y-55347600D02*
X210664400Y-54302600D01*
X210264400Y-55347600D02*
X210664400Y-55347600D01*
X210264400Y-54302600D02*
X210264400Y-55347600D01*
X209394400Y-49847600D02*
X209394400Y-50892600D01*
X208994400Y-49847600D02*
X209394400Y-49847600D01*
X208994400Y-50892600D02*
X208994400Y-49847600D01*
X209394400Y-55347600D02*
X209394400Y-54302600D01*
X208994400Y-55347600D02*
X209394400Y-55347600D01*
X208994400Y-54302600D02*
X208994400Y-55347600D01*
X208124400Y-49847600D02*
X208124400Y-50892600D01*
X207724400Y-49847600D02*
X208124400Y-49847600D01*
X207724400Y-50892600D02*
X207724400Y-49847600D01*
X208124400Y-55347600D02*
X208124400Y-54302600D01*
X207724400Y-55347600D02*
X208124400Y-55347600D01*
X207724400Y-54302600D02*
X207724400Y-55347600D01*
X206854400Y-49847600D02*
X206854400Y-50892600D01*
X206454400Y-49847600D02*
X206854400Y-49847600D01*
X206454400Y-50892600D02*
X206454400Y-49847600D01*
X206854400Y-55347600D02*
X206854400Y-54302600D01*
X206454400Y-55347600D02*
X206854400Y-55347600D01*
X206454400Y-54302600D02*
X206454400Y-55347600D01*
X205584400Y-49847600D02*
X205584400Y-50892600D01*
X205184400Y-49847600D02*
X205584400Y-49847600D01*
X205184400Y-50892600D02*
X205184400Y-49847600D01*
X205584400Y-55347600D02*
X205584400Y-54302600D01*
X205184400Y-55347600D02*
X205584400Y-55347600D01*
X205184400Y-54302600D02*
X205184400Y-55347600D01*
X204314400Y-49847600D02*
X204314400Y-50892600D01*
X203914400Y-49847600D02*
X204314400Y-49847600D01*
X203914400Y-50892600D02*
X203914400Y-49847600D01*
X204314400Y-55347600D02*
X204314400Y-54302600D01*
X203914400Y-55347600D02*
X204314400Y-55347600D01*
X203914400Y-54302600D02*
X203914400Y-55347600D01*
X203044400Y-49847600D02*
X203044400Y-50892600D01*
X202644400Y-49847600D02*
X203044400Y-49847600D01*
X202644400Y-50892600D02*
X202644400Y-49847600D01*
X203044400Y-55347600D02*
X203044400Y-54302600D01*
X202644400Y-55347600D02*
X203044400Y-55347600D01*
X202644400Y-54302600D02*
X202644400Y-55347600D01*
X201774400Y-49847600D02*
X201774400Y-50892600D01*
X201374400Y-49847600D02*
X201774400Y-49847600D01*
X201374400Y-50892600D02*
X201374400Y-49847600D01*
X201774400Y-55347600D02*
X201774400Y-54302600D01*
X201374400Y-55347600D02*
X201774400Y-55347600D01*
X201374400Y-54302600D02*
X201374400Y-55347600D01*
X200504400Y-49847600D02*
X200504400Y-50892600D01*
X200104400Y-49847600D02*
X200504400Y-49847600D01*
X200104400Y-50892600D02*
X200104400Y-49847600D01*
X200504400Y-55347600D02*
X200504400Y-54302600D01*
X200104400Y-55347600D02*
X200504400Y-55347600D01*
X200104400Y-54302600D02*
X200104400Y-55347600D01*
X199234400Y-49847600D02*
X199234400Y-50892600D01*
X198834400Y-49847600D02*
X199234400Y-49847600D01*
X198834400Y-50892600D02*
X198834400Y-49847600D01*
X199234400Y-55347600D02*
X199234400Y-54302600D01*
X198834400Y-55347600D02*
X199234400Y-55347600D01*
X198834400Y-54302600D02*
X198834400Y-55347600D01*
X197964400Y-49847600D02*
X197964400Y-50892600D01*
X197564400Y-49847600D02*
X197964400Y-49847600D01*
X197564400Y-50892600D02*
X197564400Y-49847600D01*
X197964400Y-55347600D02*
X197964400Y-54302600D01*
X197564400Y-55347600D02*
X197964400Y-55347600D01*
X197564400Y-54302600D02*
X197564400Y-55347600D01*
X196694400Y-49847600D02*
X196694400Y-50892600D01*
X196294400Y-49847600D02*
X196694400Y-49847600D01*
X196294400Y-50892600D02*
X196294400Y-49847600D01*
X196694400Y-55347600D02*
X196694400Y-54302600D01*
X196294400Y-55347600D02*
X196694400Y-55347600D01*
X196294400Y-54302600D02*
X196294400Y-55347600D01*
X195859400Y-50892600D02*
X221259400Y-50892600D01*
X196294400Y-54302600D02*
X195859400Y-53867600D01*
X221259400Y-54302600D02*
X196294400Y-54302600D01*
X195859400Y-53867600D02*
X195859400Y-50892600D01*
X221259400Y-50892600D02*
X221259400Y-54302600D01*
X200099800Y-81047400D02*
X200099800Y-80547400D01*
X200099800Y-80547400D02*
X201099800Y-80547400D01*
X201099800Y-80547400D02*
X201099800Y-81047400D01*
X201099800Y-81047400D02*
X200099800Y-81047400D01*
X194664200Y-80547400D02*
X195664200Y-80547400D01*
X194664200Y-81047400D02*
X194664200Y-80547400D01*
X195664200Y-81047400D02*
X194664200Y-81047400D01*
X195664200Y-80547400D02*
X195664200Y-81047400D01*
X204995000Y-84429600D02*
X203420000Y-84429600D01*
X203420000Y-84429600D02*
X203420000Y-81889600D01*
X203420000Y-81889600D02*
X205520000Y-81889600D01*
X205520000Y-81889600D02*
X205520000Y-83904600D01*
X205520000Y-83904600D02*
X204995000Y-84429600D01*
X199637600Y-58432800D02*
X199637600Y-60032800D01*
X198837600Y-58432800D02*
X199637600Y-58432800D01*
X198837600Y-60032800D02*
X198837600Y-58432800D01*
X199637600Y-60032800D02*
X198837600Y-60032800D01*
X193765400Y-65409000D02*
X192365400Y-65409000D01*
X192365400Y-68449000D02*
X192365400Y-65409000D01*
X193765400Y-67879000D02*
X193215400Y-68449000D01*
X193215400Y-68449000D02*
X192365400Y-68449000D01*
X193765400Y-67879000D02*
X193765400Y-65429000D01*
X190254600Y-70595000D02*
X189729600Y-71120000D01*
X190254600Y-64770000D02*
X190254600Y-70595000D01*
X188154600Y-64770000D02*
X190254600Y-64770000D01*
X188154600Y-71120000D02*
X188154600Y-64770000D01*
X189729600Y-71120000D02*
X188154600Y-71120000D01*
X198918400Y-76061800D02*
X197118400Y-76061800D01*
X197118400Y-76061800D02*
X197118400Y-74661800D01*
X197118400Y-74661800D02*
X198918400Y-74661800D01*
X198918400Y-74661800D02*
X198918400Y-76061800D01*
X198318400Y-75711800D02*
X198318400Y-75011800D01*
X198318400Y-75361800D02*
X198518400Y-75361800D01*
X198318400Y-75361800D02*
X197818400Y-75711800D01*
X197818400Y-75711800D02*
X197818400Y-75011800D01*
X197818400Y-75011800D02*
X198318400Y-75361800D01*
X197818400Y-75361800D02*
X197568400Y-75361800D01*
X195772000Y-77179600D02*
X195772000Y-78979600D01*
X195772000Y-78979600D02*
X194372000Y-78979600D01*
X194372000Y-78979600D02*
X194372000Y-77179600D01*
X194372000Y-77179600D02*
X195772000Y-77179600D01*
X195422000Y-77779600D02*
X194722000Y-77779600D01*
X195072000Y-77779600D02*
X195072000Y-77579600D01*
X195072000Y-77779600D02*
X195422000Y-78279600D01*
X195422000Y-78279600D02*
X194722000Y-78279600D01*
X194722000Y-78279600D02*
X195072000Y-77779600D01*
X195072000Y-78279600D02*
X195072000Y-78529600D01*
X214634000Y-71991600D02*
X215134000Y-71991600D01*
X215134000Y-71991600D02*
X215134000Y-72991600D01*
X215134000Y-72991600D02*
X214634000Y-72991600D01*
X214634000Y-72991600D02*
X214634000Y-71991600D01*
X218444000Y-71991600D02*
X218944000Y-71991600D01*
X218944000Y-71991600D02*
X218944000Y-72991600D01*
X218944000Y-72991600D02*
X218444000Y-72991600D01*
X218444000Y-72991600D02*
X218444000Y-71991600D01*
X211197930Y-68705977D02*
X210844377Y-69059530D01*
X210844377Y-69059530D02*
X210137270Y-68352423D01*
X210137270Y-68352423D02*
X210490823Y-67998870D01*
X210490823Y-67998870D02*
X211197930Y-68705977D01*
X217856823Y-61420270D02*
X218563930Y-62127377D01*
X217503270Y-61773823D02*
X217856823Y-61420270D01*
X218210377Y-62480930D02*
X217503270Y-61773823D01*
X218563930Y-62127377D02*
X218210377Y-62480930D01*
X217575377Y-68354470D02*
X217928930Y-68708023D01*
X217928930Y-68708023D02*
X217221823Y-69415130D01*
X217221823Y-69415130D02*
X216868270Y-69061577D01*
X216868270Y-69061577D02*
X217575377Y-68354470D01*
X208812377Y-67027530D02*
X208105270Y-66320423D01*
X209165930Y-66673977D02*
X208812377Y-67027530D01*
X208458823Y-65966870D02*
X209165930Y-66673977D01*
X208105270Y-66320423D02*
X208458823Y-65966870D01*
X207785723Y-62410870D02*
X208492830Y-63117977D01*
X207432170Y-62764423D02*
X207785723Y-62410870D01*
X208139277Y-63471530D02*
X207432170Y-62764423D01*
X208492830Y-63117977D02*
X208139277Y-63471530D01*
X219965023Y-69364330D02*
X219611470Y-69010777D01*
X219611470Y-69010777D02*
X220318577Y-68303670D01*
X220318577Y-68303670D02*
X220672130Y-68657223D01*
X220672130Y-68657223D02*
X219965023Y-69364330D01*
X196287200Y-58859800D02*
X196287200Y-59859800D01*
X195787200Y-58859800D02*
X196287200Y-58859800D01*
X195787200Y-59859800D02*
X195787200Y-58859800D01*
X196287200Y-59859800D02*
X195787200Y-59859800D01*
X213257377Y-71472530D02*
X212550270Y-70765423D01*
X213610930Y-71118977D02*
X213257377Y-71472530D01*
X212903823Y-70411870D02*
X213610930Y-71118977D01*
X212550270Y-70765423D02*
X212903823Y-70411870D01*
X221822200Y-82338800D02*
X221822200Y-81338800D01*
X222322200Y-82338800D02*
X221822200Y-82338800D01*
X222322200Y-81338800D02*
X222322200Y-82338800D01*
X221822200Y-81338800D02*
X222322200Y-81338800D01*
X218239870Y-61062623D02*
X218593423Y-60709070D01*
X218593423Y-60709070D02*
X219300530Y-61416177D01*
X219300530Y-61416177D02*
X218946977Y-61769730D01*
X218946977Y-61769730D02*
X218239870Y-61062623D01*
X222613600Y-63935800D02*
X223613600Y-63935800D01*
X222613600Y-64435800D02*
X222613600Y-63935800D01*
X223613600Y-64435800D02*
X222613600Y-64435800D01*
X223613600Y-63935800D02*
X223613600Y-64435800D01*
X225073400Y-62111000D02*
X225573400Y-62111000D01*
X225573400Y-62111000D02*
X225573400Y-63111000D01*
X225573400Y-63111000D02*
X225073400Y-63111000D01*
X225073400Y-63111000D02*
X225073400Y-62111000D01*
X224667000Y-67495800D02*
X225167000Y-67495800D01*
X225167000Y-67495800D02*
X225167000Y-68495800D01*
X225167000Y-68495800D02*
X224667000Y-68495800D01*
X224667000Y-68495800D02*
X224667000Y-67495800D01*
X210294600Y-80869600D02*
X210294600Y-80369600D01*
X210294600Y-80369600D02*
X211294600Y-80369600D01*
X211294600Y-80369600D02*
X211294600Y-80869600D01*
X211294600Y-80869600D02*
X210294600Y-80869600D01*
X211294600Y-79879000D02*
X210294600Y-79879000D01*
X211294600Y-79379000D02*
X211294600Y-79879000D01*
X210294600Y-79379000D02*
X211294600Y-79379000D01*
X210294600Y-79879000D02*
X210294600Y-79379000D01*
X221004377Y-68989470D02*
X221357930Y-69343023D01*
X221357930Y-69343023D02*
X220650823Y-70050130D01*
X220650823Y-70050130D02*
X220297270Y-69696577D01*
X220297270Y-69696577D02*
X221004377Y-68989470D01*
X190288800Y-73198800D02*
X189288800Y-73198800D01*
X190288800Y-72698800D02*
X190288800Y-73198800D01*
X189288800Y-72698800D02*
X190288800Y-72698800D01*
X189288800Y-73198800D02*
X189288800Y-72698800D01*
X213148800Y-88599200D02*
X213148800Y-89099200D01*
X213148800Y-89099200D02*
X212148800Y-89099200D01*
X212148800Y-89099200D02*
X212148800Y-88599200D01*
X212148800Y-88599200D02*
X213148800Y-88599200D01*
X205630400Y-87422800D02*
X204630400Y-87422800D01*
X205630400Y-86922800D02*
X205630400Y-87422800D01*
X204630400Y-86922800D02*
X205630400Y-86922800D01*
X204630400Y-87422800D02*
X204630400Y-86922800D01*
X219121800Y-75522200D02*
X219121800Y-76522200D01*
X218621800Y-75522200D02*
X219121800Y-75522200D01*
X218621800Y-76522200D02*
X218621800Y-75522200D01*
X219121800Y-76522200D02*
X218621800Y-76522200D01*
X222322200Y-83320000D02*
X222322200Y-84320000D01*
X221822200Y-83320000D02*
X222322200Y-83320000D01*
X221822200Y-84320000D02*
X221822200Y-83320000D01*
X222322200Y-84320000D02*
X221822200Y-84320000D01*
X218381200Y-85856000D02*
X218381200Y-86356000D01*
X218381200Y-86356000D02*
X217381200Y-86356000D01*
X217381200Y-86356000D02*
X217381200Y-85856000D01*
X217381200Y-85856000D02*
X218381200Y-85856000D01*
X203500800Y-70883400D02*
X203000800Y-70883400D01*
X203000800Y-70883400D02*
X203000800Y-69883400D01*
X203000800Y-69883400D02*
X203500800Y-69883400D01*
X203500800Y-69883400D02*
X203500800Y-70883400D01*
X203500800Y-71763000D02*
X203500800Y-72763000D01*
X203000800Y-71763000D02*
X203500800Y-71763000D01*
X203000800Y-72763000D02*
X203000800Y-71763000D01*
X203500800Y-72763000D02*
X203000800Y-72763000D01*
X219334600Y-85856000D02*
X220334600Y-85856000D01*
X219334600Y-86356000D02*
X219334600Y-85856000D01*
X220334600Y-86356000D02*
X219334600Y-86356000D01*
X220334600Y-85856000D02*
X220334600Y-86356000D01*
X222322200Y-86301200D02*
X221822200Y-86301200D01*
X221822200Y-86301200D02*
X221822200Y-85301200D01*
X221822200Y-85301200D02*
X222322200Y-85301200D01*
X222322200Y-85301200D02*
X222322200Y-86301200D01*
X219986330Y-67971423D02*
X219279223Y-68678530D01*
X219632777Y-67617870D02*
X219986330Y-67971423D01*
X218925670Y-68324977D02*
X219632777Y-67617870D01*
X219279223Y-68678530D02*
X218925670Y-68324977D01*
X211532223Y-71783470D02*
X212239330Y-72490577D01*
X211178670Y-72137023D02*
X211532223Y-71783470D01*
X211885777Y-72844130D02*
X211178670Y-72137023D01*
X212239330Y-72490577D02*
X211885777Y-72844130D01*
X211864470Y-71451223D02*
X212218023Y-71097670D01*
X212218023Y-71097670D02*
X212925130Y-71804777D01*
X212925130Y-71804777D02*
X212571577Y-72158330D01*
X212571577Y-72158330D02*
X211864470Y-71451223D01*
X203233400Y-81047400D02*
X203233400Y-80547400D01*
X203233400Y-80547400D02*
X204233400Y-80547400D01*
X204233400Y-80547400D02*
X204233400Y-81047400D01*
X204233400Y-81047400D02*
X203233400Y-81047400D01*
X205558200Y-65168400D02*
X205058200Y-65168400D01*
X205058200Y-65168400D02*
X205058200Y-64168400D01*
X205058200Y-64168400D02*
X205558200Y-64168400D01*
X205558200Y-64168400D02*
X205558200Y-65168400D01*
X195888800Y-63355600D02*
X196388800Y-63355600D01*
X196388800Y-63355600D02*
X196388800Y-64355600D01*
X196388800Y-64355600D02*
X195888800Y-64355600D01*
X195888800Y-64355600D02*
X195888800Y-63355600D01*
X197430200Y-63355600D02*
X197430200Y-64355600D01*
X196930200Y-63355600D02*
X197430200Y-63355600D01*
X196930200Y-64355600D02*
X196930200Y-63355600D01*
X197430200Y-64355600D02*
X196930200Y-64355600D01*
X205050200Y-74134600D02*
X204550200Y-74134600D01*
X204550200Y-74134600D02*
X204550200Y-73134600D01*
X204550200Y-73134600D02*
X205050200Y-73134600D01*
X205050200Y-73134600D02*
X205050200Y-74134600D01*
X204757400Y-71860600D02*
X205757400Y-71860600D01*
X204757400Y-72360600D02*
X204757400Y-71860600D01*
X205757400Y-72360600D02*
X204757400Y-72360600D01*
X205757400Y-71860600D02*
X205757400Y-72360600D01*
X208934800Y-77999400D02*
X207934800Y-77999400D01*
X208934800Y-77499400D02*
X208934800Y-77999400D01*
X207934800Y-77499400D02*
X208934800Y-77499400D01*
X207934800Y-77999400D02*
X207934800Y-77499400D01*
X207027400Y-77499400D02*
X207027400Y-77999400D01*
X207027400Y-77999400D02*
X206027400Y-77999400D01*
X206027400Y-77999400D02*
X206027400Y-77499400D01*
X206027400Y-77499400D02*
X207027400Y-77499400D01*
X209805023Y-68684670D02*
X210512130Y-69391777D01*
X209451470Y-69038223D02*
X209805023Y-68684670D01*
X210158577Y-69745330D02*
X209451470Y-69038223D01*
X210512130Y-69391777D02*
X210158577Y-69745330D01*
X203000800Y-77180200D02*
X203000800Y-76180200D01*
X203500800Y-77180200D02*
X203000800Y-77180200D01*
X203500800Y-76180200D02*
X203500800Y-77180200D01*
X203000800Y-76180200D02*
X203500800Y-76180200D01*
X212121800Y-87668000D02*
X212121800Y-86068000D01*
X212921800Y-87668000D02*
X212121800Y-87668000D01*
X212921800Y-86068000D02*
X212921800Y-87668000D01*
X212121800Y-86068000D02*
X212921800Y-86068000D01*
X218621800Y-79062200D02*
X218621800Y-78062200D01*
X219121800Y-79062200D02*
X218621800Y-79062200D01*
X219121800Y-78062200D02*
X219121800Y-79062200D01*
X218621800Y-78062200D02*
X219121800Y-78062200D01*
X220038800Y-84484400D02*
X220038800Y-84984400D01*
X220038800Y-84984400D02*
X219038800Y-84984400D01*
X219038800Y-84984400D02*
X219038800Y-84484400D01*
X219038800Y-84484400D02*
X220038800Y-84484400D01*
X199550400Y-66831400D02*
X200550400Y-66831400D01*
X199550400Y-67331400D02*
X199550400Y-66831400D01*
X200550400Y-67331400D02*
X199550400Y-67331400D01*
X200550400Y-66831400D02*
X200550400Y-67331400D01*
X200591800Y-58771600D02*
X200591800Y-58271600D01*
X200591800Y-58271600D02*
X201591800Y-58271600D01*
X201591800Y-58271600D02*
X201591800Y-58771600D01*
X201591800Y-58771600D02*
X200591800Y-58771600D01*
X210163600Y-77131800D02*
X210163600Y-76131800D01*
X210663600Y-77131800D02*
X210163600Y-77131800D01*
X210663600Y-76131800D02*
X210663600Y-77131800D01*
X210163600Y-76131800D02*
X210663600Y-76131800D01*
X208653000Y-71911400D02*
X208653000Y-72411400D01*
X208653000Y-72411400D02*
X207653000Y-72411400D01*
X207653000Y-72411400D02*
X207653000Y-71911400D01*
X207653000Y-71911400D02*
X208653000Y-71911400D01*
X204146200Y-76898400D02*
X204146200Y-75298400D01*
X204946200Y-76898400D02*
X204146200Y-76898400D01*
X204946200Y-75298400D02*
X204946200Y-76898400D01*
X204146200Y-75298400D02*
X204946200Y-75298400D01*
X205494700Y-79776700D02*
X205494700Y-80776700D01*
X204994700Y-79776700D02*
X205494700Y-79776700D01*
X204994700Y-80776700D02*
X204994700Y-79776700D01*
X205494700Y-80776700D02*
X204994700Y-80776700D01*
X225446400Y-57818400D02*
X225446400Y-58818400D01*
X224946400Y-57818400D02*
X225446400Y-57818400D01*
X224946400Y-58818400D02*
X224946400Y-57818400D01*
X225446400Y-58818400D02*
X224946400Y-58818400D01*
X197369000Y-65783000D02*
X197369000Y-68583000D01*
X197369000Y-68583000D02*
X195569000Y-68583000D01*
X195569000Y-68583000D02*
X195569000Y-65783000D01*
X195569000Y-65783000D02*
X197369000Y-65783000D01*
X196469000Y-66433000D02*
X196469000Y-66833000D01*
X196469000Y-66833000D02*
X197019000Y-66833000D01*
X196469000Y-66833000D02*
X195919000Y-66833000D01*
X196469000Y-66833000D02*
X196869000Y-67433000D01*
X196869000Y-67433000D02*
X196069000Y-67433000D01*
X196069000Y-67433000D02*
X196469000Y-66833000D01*
X196469000Y-67433000D02*
X196469000Y-67933000D01*
X220613400Y-76312800D02*
X222413400Y-76312800D01*
X222413400Y-76312800D02*
X222413400Y-77712800D01*
X222413400Y-77712800D02*
X220613400Y-77712800D01*
X220613400Y-77712800D02*
X220613400Y-76312800D01*
X221213400Y-76662800D02*
X221213400Y-77362800D01*
X221213400Y-77012800D02*
X221013400Y-77012800D01*
X221213400Y-77012800D02*
X221713400Y-76662800D01*
X221713400Y-76662800D02*
X221713400Y-77362800D01*
X221713400Y-77362800D02*
X221213400Y-77012800D01*
X221713400Y-77012800D02*
X221963400Y-77012800D01*
X221713400Y-79222600D02*
X221963400Y-79222600D01*
X221713400Y-79572600D02*
X221213400Y-79222600D01*
X221713400Y-78872600D02*
X221713400Y-79572600D01*
X221213400Y-79222600D02*
X221713400Y-78872600D01*
X221213400Y-79222600D02*
X221013400Y-79222600D01*
X221213400Y-78872600D02*
X221213400Y-79572600D01*
X220613400Y-79922600D02*
X220613400Y-78522600D01*
X222413400Y-79922600D02*
X220613400Y-79922600D01*
X222413400Y-78522600D02*
X222413400Y-79922600D01*
X220613400Y-78522600D02*
X222413400Y-78522600D01*
X215789000Y-72591600D02*
X216289001Y-73091600D01*
X217789000Y-71891600D02*
X215789000Y-71891600D01*
X217789000Y-73091600D02*
X217789000Y-71891600D01*
X215789000Y-73091600D02*
X217789000Y-73091600D01*
X215789000Y-71891600D02*
X215789000Y-73091600D01*
X191071400Y-59995000D02*
X191071400Y-63195000D01*
X189471400Y-59995000D02*
X191071400Y-59995000D01*
X189471400Y-63195000D02*
X189471400Y-59995000D01*
X191071400Y-63195000D02*
X189471400Y-63195000D01*
X221081800Y-66687600D02*
X221081800Y-65087600D01*
X221081800Y-65087600D02*
X224281800Y-65087600D01*
X224281800Y-65087600D02*
X224281800Y-66687600D01*
X224281800Y-66687600D02*
X221081800Y-66687600D01*
X198918400Y-76529600D02*
X198918400Y-79629600D01*
X198918400Y-79629600D02*
X197118400Y-79629600D01*
X197118400Y-77179600D02*
X197118400Y-79629600D01*
X198918400Y-76529600D02*
X197768400Y-76529600D01*
X197118400Y-77179600D02*
X197768400Y-76529600D01*
D12*
X209288000Y-84481800D02*
X207288000Y-84481800D01*
X207288000Y-84481800D02*
X207288000Y-81481800D01*
X207288000Y-81481800D02*
X210288000Y-81481800D01*
X210288000Y-81481800D02*
X210288000Y-83481800D01*
X210288000Y-83481800D02*
X209288000Y-84481800D01*
D10*
X201244800Y-63841200D02*
X198144800Y-63841200D01*
X198144800Y-63841200D02*
X198144800Y-62041200D01*
X200594800Y-62041200D02*
X198144800Y-62041200D01*
X201244800Y-63841200D02*
X201244800Y-62691200D01*
X200594800Y-62041200D02*
X201244800Y-62691200D01*
X191845600Y-61965000D02*
X194945600Y-61965000D01*
X194945600Y-61965000D02*
X194945600Y-63765000D01*
X192495600Y-63765000D02*
X194945600Y-63765000D01*
X191845600Y-61965000D02*
X191845600Y-63115000D01*
X192495600Y-63765000D02*
X191845600Y-63115000D01*
X199810800Y-70372400D02*
X200460800Y-69722400D01*
X201610800Y-69722400D02*
X200460800Y-69722400D01*
X199810800Y-70372400D02*
X199810800Y-72822400D01*
X201610800Y-72822400D02*
X199810800Y-72822400D01*
X201610800Y-69722400D02*
X201610800Y-72822400D01*
X221756400Y-62647400D02*
X221106400Y-61997400D01*
X221106400Y-60847400D02*
X221106400Y-61997400D01*
X221756400Y-62647400D02*
X224206400Y-62647400D01*
X224206400Y-60847400D02*
X224206400Y-62647400D01*
X221106400Y-60847400D02*
X224206400Y-60847400D01*
X194422600Y-59802600D02*
X193772600Y-60452600D01*
X192622600Y-60452600D02*
X193772600Y-60452600D01*
X194422600Y-59802600D02*
X194422600Y-57352600D01*
X192622600Y-57352600D02*
X194422600Y-57352600D01*
X192622600Y-60452600D02*
X192622600Y-57352600D01*
X223581800Y-58761200D02*
X222931800Y-59411200D01*
X221781800Y-59411200D02*
X222931800Y-59411200D01*
X223581800Y-58761200D02*
X223581800Y-56311200D01*
X221781800Y-56311200D02*
X223581800Y-56311200D01*
X221781800Y-59411200D02*
X221781800Y-56311200D01*
X219184600Y-56646000D02*
X220184600Y-56646000D01*
X219184600Y-57146000D02*
X219184600Y-56646000D01*
X220184600Y-57146000D02*
X219184600Y-57146000D01*
X220184600Y-56646000D02*
X220184600Y-57146000D01*
X220184600Y-57636600D02*
X220184600Y-58136600D01*
X220184600Y-58136600D02*
X219184600Y-58136600D01*
X219184600Y-58136600D02*
X219184600Y-57636600D01*
X219184600Y-57636600D02*
X220184600Y-57636600D01*
X228308600Y-67084000D02*
X229308600Y-68084000D01*
X225808600Y-70584000D02*
X229308600Y-70584000D01*
X229308600Y-70584000D02*
X229308600Y-67084000D01*
X229308600Y-67084000D02*
X225808600Y-67084000D01*
X225808600Y-67084000D02*
X225808600Y-70584000D01*
X229058600Y-68834000D02*
G75*
G03*
X229058600Y-68834000I-1500000J0D01*
G01*
X213491093Y-69622241D02*
X209248453Y-65379600D01*
X209248453Y-65379600D02*
X214198200Y-60429853D01*
X214198200Y-60429853D02*
X219147947Y-65379600D01*
X219147947Y-65379600D02*
X214905307Y-69622241D01*
X214905307Y-69622241D02*
X213491093Y-69622241D01*
X229290800Y-79342800D02*
X229290800Y-81467800D01*
X223790800Y-79342800D02*
X229290800Y-79342800D01*
X223790800Y-80192800D02*
X223790800Y-79342800D01*
X224090800Y-80192800D02*
X223790800Y-80192800D01*
X224090800Y-81467800D02*
X224090800Y-80192800D01*
X229290800Y-83592800D02*
X229290800Y-81467800D01*
X223790800Y-83592800D02*
X229290800Y-83592800D01*
X223790800Y-82742800D02*
X223790800Y-83592800D01*
X224090800Y-82742800D02*
X223790800Y-82742800D01*
X224090800Y-81467800D02*
X224090800Y-82742800D01*
X224797907Y-82092800D02*
X224090800Y-81592800D01*
X224090800Y-82592800D02*
X224797907Y-82092800D01*
X224090800Y-77030200D02*
X224797907Y-76530200D01*
X224797907Y-76530200D02*
X224090800Y-76030200D01*
X224090800Y-75905200D02*
X224090800Y-77180200D01*
X224090800Y-77180200D02*
X223790800Y-77180200D01*
X223790800Y-77180200D02*
X223790800Y-78030200D01*
X223790800Y-78030200D02*
X229290800Y-78030200D01*
X229290800Y-78030200D02*
X229290800Y-75905200D01*
X224090800Y-75905200D02*
X224090800Y-74630200D01*
X224090800Y-74630200D02*
X223790800Y-74630200D01*
X223790800Y-74630200D02*
X223790800Y-73780200D01*
X223790800Y-73780200D02*
X229290800Y-73780200D01*
X229290800Y-73780200D02*
X229290800Y-75905200D01*
D13*
X206946571Y-74671685D02*
X206946571Y-75278828D01*
X206982285Y-75350257D01*
X207018000Y-75385971D01*
X207089428Y-75421685D01*
X207232285Y-75421685D01*
X207303714Y-75385971D01*
X207339428Y-75350257D01*
X207375142Y-75278828D01*
X207375142Y-74671685D01*
X207839428Y-74993114D02*
X207768000Y-74957400D01*
X207732285Y-74921685D01*
X207696571Y-74850257D01*
X207696571Y-74814542D01*
X207732285Y-74743114D01*
X207768000Y-74707400D01*
X207839428Y-74671685D01*
X207982285Y-74671685D01*
X208053714Y-74707400D01*
X208089428Y-74743114D01*
X208125142Y-74814542D01*
X208125142Y-74850257D01*
X208089428Y-74921685D01*
X208053714Y-74957400D01*
X207982285Y-74993114D01*
X207839428Y-74993114D01*
X207768000Y-75028828D01*
X207732285Y-75064542D01*
X207696571Y-75135971D01*
X207696571Y-75278828D01*
X207732285Y-75350257D01*
X207768000Y-75385971D01*
X207839428Y-75421685D01*
X207982285Y-75421685D01*
X208053714Y-75385971D01*
X208089428Y-75350257D01*
X208125142Y-75278828D01*
X208125142Y-75135971D01*
X208089428Y-75064542D01*
X208053714Y-75028828D01*
X207982285Y-74993114D01*
D10*
X209105018Y-61281966D02*
X209505712Y-61682659D01*
X209576423Y-61706230D01*
X209623563Y-61706230D01*
X209694274Y-61682659D01*
X209788555Y-61588378D01*
X209812125Y-61517668D01*
X209812125Y-61470527D01*
X209788555Y-61399817D01*
X209387861Y-60999123D01*
X209647133Y-60834131D02*
X209647133Y-60786991D01*
X209670704Y-60716280D01*
X209788555Y-60598429D01*
X209859266Y-60574859D01*
X209906406Y-60574859D01*
X209977117Y-60598429D01*
X210024257Y-60645569D01*
X210071398Y-60739850D01*
X210071398Y-61305536D01*
X210377810Y-60999123D01*
X228055457Y-61531400D02*
X228084028Y-61445685D01*
X228084028Y-61302828D01*
X228055457Y-61245685D01*
X228026885Y-61217114D01*
X227969742Y-61188542D01*
X227912600Y-61188542D01*
X227855457Y-61217114D01*
X227826885Y-61245685D01*
X227798314Y-61302828D01*
X227769742Y-61417114D01*
X227741171Y-61474257D01*
X227712600Y-61502828D01*
X227655457Y-61531400D01*
X227598314Y-61531400D01*
X227541171Y-61502828D01*
X227512600Y-61474257D01*
X227484028Y-61417114D01*
X227484028Y-61274257D01*
X227512600Y-61188542D01*
X227484028Y-60988542D02*
X228084028Y-60845685D01*
X227655457Y-60731400D01*
X228084028Y-60617114D01*
X227484028Y-60474257D01*
X228084028Y-59931400D02*
X228084028Y-60274257D01*
X228084028Y-60102828D02*
X227484028Y-60102828D01*
X227569742Y-60159971D01*
X227626885Y-60217114D01*
X227655457Y-60274257D01*
D12*
X214260752Y-84820561D02*
X214403609Y-84868180D01*
X214641704Y-84868180D01*
X214736942Y-84820561D01*
X214784561Y-84772942D01*
X214832180Y-84677704D01*
X214832180Y-84582466D01*
X214784561Y-84487228D01*
X214736942Y-84439609D01*
X214641704Y-84391990D01*
X214451228Y-84344371D01*
X214355990Y-84296752D01*
X214308371Y-84249133D01*
X214260752Y-84153895D01*
X214260752Y-84058657D01*
X214308371Y-83963419D01*
X214355990Y-83915800D01*
X214451228Y-83868180D01*
X214689323Y-83868180D01*
X214832180Y-83915800D01*
X215260752Y-84868180D02*
X215260752Y-83868180D01*
X215641704Y-83868180D01*
X215736942Y-83915800D01*
X215784561Y-83963419D01*
X215832180Y-84058657D01*
X215832180Y-84201514D01*
X215784561Y-84296752D01*
X215736942Y-84344371D01*
X215641704Y-84391990D01*
X215260752Y-84391990D01*
X216117895Y-83868180D02*
X216451228Y-84868180D01*
X216784561Y-83868180D01*
X217641704Y-84868180D02*
X217070276Y-84868180D01*
X217355990Y-84868180D02*
X217355990Y-83868180D01*
X217260752Y-84011038D01*
X217165514Y-84106276D01*
X217070276Y-84153895D01*
X218260752Y-83868180D02*
X218355990Y-83868180D01*
X218451228Y-83915800D01*
X218498847Y-83963419D01*
X218546466Y-84058657D01*
X218594085Y-84249133D01*
X218594085Y-84487228D01*
X218546466Y-84677704D01*
X218498847Y-84772942D01*
X218451228Y-84820561D01*
X218355990Y-84868180D01*
X218260752Y-84868180D01*
X218165514Y-84820561D01*
X218117895Y-84772942D01*
X218070276Y-84677704D01*
X218022657Y-84487228D01*
X218022657Y-84249133D01*
X218070276Y-84058657D01*
X218117895Y-83963419D01*
X218165514Y-83915800D01*
X218260752Y-83868180D01*
X219451228Y-84201514D02*
X219451228Y-84868180D01*
X219213133Y-83820561D02*
X218975038Y-84534847D01*
X219594085Y-84534847D01*
X220165514Y-83868180D02*
X220260752Y-83868180D01*
X220355990Y-83915800D01*
X220403609Y-83963419D01*
X220451228Y-84058657D01*
X220498847Y-84249133D01*
X220498847Y-84487228D01*
X220451228Y-84677704D01*
X220403609Y-84772942D01*
X220355990Y-84820561D01*
X220260752Y-84868180D01*
X220165514Y-84868180D01*
X220070276Y-84820561D01*
X220022657Y-84772942D01*
X219975038Y-84677704D01*
X219927419Y-84487228D01*
X219927419Y-84249133D01*
X219975038Y-84058657D01*
X220022657Y-83963419D01*
X220070276Y-83915800D01*
X220165514Y-83868180D01*
X216617895Y-81418180D02*
X216617895Y-82227704D01*
X216665514Y-82322942D01*
X216713133Y-82370561D01*
X216808371Y-82418180D01*
X216998847Y-82418180D01*
X217094085Y-82370561D01*
X217141704Y-82322942D01*
X217189323Y-82227704D01*
X217189323Y-81418180D01*
X218094085Y-81418180D02*
X217903609Y-81418180D01*
X217808371Y-81465800D01*
X217760752Y-81513419D01*
X217665514Y-81656276D01*
X217617895Y-81846752D01*
X217617895Y-82227704D01*
X217665514Y-82322942D01*
X217713133Y-82370561D01*
X217808371Y-82418180D01*
X217998847Y-82418180D01*
X218094085Y-82370561D01*
X218141704Y-82322942D01*
X218189323Y-82227704D01*
X218189323Y-81989609D01*
X218141704Y-81894371D01*
X218094085Y-81846752D01*
X217998847Y-81799133D01*
X217808371Y-81799133D01*
X217713133Y-81846752D01*
X217665514Y-81894371D01*
X217617895Y-81989609D01*
D11*
X197542104Y-72015333D02*
X197542104Y-72396285D01*
X196742104Y-72396285D01*
X196818295Y-71786761D02*
X196780200Y-71748666D01*
X196742104Y-71672476D01*
X196742104Y-71482000D01*
X196780200Y-71405809D01*
X196818295Y-71367714D01*
X196894485Y-71329619D01*
X196970676Y-71329619D01*
X197084961Y-71367714D01*
X197542104Y-71824857D01*
X197542104Y-71329619D01*
X203536504Y-63455533D02*
X203536504Y-63836485D01*
X202736504Y-63836485D01*
X202736504Y-63265057D02*
X202736504Y-62769819D01*
X203041266Y-63036485D01*
X203041266Y-62922200D01*
X203079361Y-62846009D01*
X203117457Y-62807914D01*
X203193647Y-62769819D01*
X203384123Y-62769819D01*
X203460314Y-62807914D01*
X203498409Y-62846009D01*
X203536504Y-62922200D01*
X203536504Y-63150771D01*
X203498409Y-63226961D01*
X203460314Y-63265057D01*
D12*
X202919104Y-60497980D02*
X202919104Y-59497980D01*
X203157200Y-59497980D01*
X203300057Y-59545600D01*
X203395295Y-59640838D01*
X203442914Y-59736076D01*
X203490533Y-59926552D01*
X203490533Y-60069409D01*
X203442914Y-60259885D01*
X203395295Y-60355123D01*
X203300057Y-60450361D01*
X203157200Y-60497980D01*
X202919104Y-60497980D01*
X203823866Y-59497980D02*
X204490533Y-59497980D01*
X204061961Y-60497980D01*
X225500666Y-88048380D02*
X225167333Y-87572190D01*
X224929238Y-88048380D02*
X224929238Y-87048380D01*
X225310190Y-87048380D01*
X225405428Y-87096000D01*
X225453047Y-87143619D01*
X225500666Y-87238857D01*
X225500666Y-87381714D01*
X225453047Y-87476952D01*
X225405428Y-87524571D01*
X225310190Y-87572190D01*
X224929238Y-87572190D01*
X225929238Y-87524571D02*
X226262571Y-87524571D01*
X226405428Y-88048380D02*
X225929238Y-88048380D01*
X225929238Y-87048380D01*
X226405428Y-87048380D01*
X227167333Y-87524571D02*
X226834000Y-87524571D01*
X226834000Y-88048380D02*
X226834000Y-87048380D01*
X227310190Y-87048380D01*
X227834000Y-87048380D02*
X227834000Y-87286476D01*
X227595904Y-87191238D02*
X227834000Y-87286476D01*
X228072095Y-87191238D01*
X227691142Y-87476952D02*
X227834000Y-87286476D01*
X227976857Y-87476952D01*
X228595904Y-87048380D02*
X228595904Y-87286476D01*
X228357809Y-87191238D02*
X228595904Y-87286476D01*
X228834000Y-87191238D01*
X228453047Y-87476952D02*
X228595904Y-87286476D01*
X228738761Y-87476952D01*
X189500666Y-52048380D02*
X189167333Y-51572190D01*
X188929238Y-52048380D02*
X188929238Y-51048380D01*
X189310190Y-51048380D01*
X189405428Y-51096000D01*
X189453047Y-51143619D01*
X189500666Y-51238857D01*
X189500666Y-51381714D01*
X189453047Y-51476952D01*
X189405428Y-51524571D01*
X189310190Y-51572190D01*
X188929238Y-51572190D01*
X189929238Y-51524571D02*
X190262571Y-51524571D01*
X190405428Y-52048380D02*
X189929238Y-52048380D01*
X189929238Y-51048380D01*
X190405428Y-51048380D01*
X191167333Y-51524571D02*
X190834000Y-51524571D01*
X190834000Y-52048380D02*
X190834000Y-51048380D01*
X191310190Y-51048380D01*
X191834000Y-51048380D02*
X191834000Y-51286476D01*
X191595904Y-51191238D02*
X191834000Y-51286476D01*
X192072095Y-51191238D01*
X191691142Y-51476952D02*
X191834000Y-51286476D01*
X191976857Y-51476952D01*
X192595904Y-51048380D02*
X192595904Y-51286476D01*
X192357809Y-51191238D02*
X192595904Y-51286476D01*
X192834000Y-51191238D01*
X192453047Y-51476952D02*
X192595904Y-51286476D01*
X192738761Y-51476952D01*
X225500666Y-52048380D02*
X225167333Y-51572190D01*
X224929238Y-52048380D02*
X224929238Y-51048380D01*
X225310190Y-51048380D01*
X225405428Y-51096000D01*
X225453047Y-51143619D01*
X225500666Y-51238857D01*
X225500666Y-51381714D01*
X225453047Y-51476952D01*
X225405428Y-51524571D01*
X225310190Y-51572190D01*
X224929238Y-51572190D01*
X225929238Y-51524571D02*
X226262571Y-51524571D01*
X226405428Y-52048380D02*
X225929238Y-52048380D01*
X225929238Y-51048380D01*
X226405428Y-51048380D01*
X227167333Y-51524571D02*
X226834000Y-51524571D01*
X226834000Y-52048380D02*
X226834000Y-51048380D01*
X227310190Y-51048380D01*
X227834000Y-51048380D02*
X227834000Y-51286476D01*
X227595904Y-51191238D02*
X227834000Y-51286476D01*
X228072095Y-51191238D01*
X227691142Y-51476952D02*
X227834000Y-51286476D01*
X227976857Y-51476952D01*
X228595904Y-51048380D02*
X228595904Y-51286476D01*
X228357809Y-51191238D02*
X228595904Y-51286476D01*
X228834000Y-51191238D01*
X228453047Y-51476952D02*
X228595904Y-51286476D01*
X228738761Y-51476952D01*
X189500666Y-88048380D02*
X189167333Y-87572190D01*
X188929238Y-88048380D02*
X188929238Y-87048380D01*
X189310190Y-87048380D01*
X189405428Y-87096000D01*
X189453047Y-87143619D01*
X189500666Y-87238857D01*
X189500666Y-87381714D01*
X189453047Y-87476952D01*
X189405428Y-87524571D01*
X189310190Y-87572190D01*
X188929238Y-87572190D01*
X189929238Y-87524571D02*
X190262571Y-87524571D01*
X190405428Y-88048380D02*
X189929238Y-88048380D01*
X189929238Y-87048380D01*
X190405428Y-87048380D01*
X191167333Y-87524571D02*
X190834000Y-87524571D01*
X190834000Y-88048380D02*
X190834000Y-87048380D01*
X191310190Y-87048380D01*
X191834000Y-87048380D02*
X191834000Y-87286476D01*
X191595904Y-87191238D02*
X191834000Y-87286476D01*
X192072095Y-87191238D01*
X191691142Y-87476952D02*
X191834000Y-87286476D01*
X191976857Y-87476952D01*
X192595904Y-87048380D02*
X192595904Y-87286476D01*
X192357809Y-87191238D02*
X192595904Y-87286476D01*
X192834000Y-87191238D01*
X192453047Y-87476952D02*
X192595904Y-87286476D01*
X192738761Y-87476952D01*
D14*
X221332457Y-75301457D02*
X221313409Y-75320504D01*
X221256266Y-75339552D01*
X221218171Y-75339552D01*
X221161028Y-75320504D01*
X221122933Y-75282409D01*
X221103885Y-75244314D01*
X221084838Y-75168123D01*
X221084838Y-75110980D01*
X221103885Y-75034790D01*
X221122933Y-74996695D01*
X221161028Y-74958600D01*
X221218171Y-74939552D01*
X221256266Y-74939552D01*
X221313409Y-74958600D01*
X221332457Y-74977647D01*
X221713409Y-75339552D02*
X221484838Y-75339552D01*
X221599123Y-75339552D02*
X221599123Y-74939552D01*
X221561028Y-74996695D01*
X221522933Y-75034790D01*
X221484838Y-75053838D01*
X221846742Y-74939552D02*
X222094361Y-74939552D01*
X221961028Y-75091933D01*
X222018171Y-75091933D01*
X222056266Y-75110980D01*
X222075314Y-75130028D01*
X222094361Y-75168123D01*
X222094361Y-75263361D01*
X222075314Y-75301457D01*
X222056266Y-75320504D01*
X222018171Y-75339552D01*
X221903885Y-75339552D01*
X221865790Y-75320504D01*
X221846742Y-75301457D01*
X200834657Y-74006057D02*
X200815609Y-74025104D01*
X200758466Y-74044152D01*
X200720371Y-74044152D01*
X200663228Y-74025104D01*
X200625133Y-73987009D01*
X200606085Y-73948914D01*
X200587038Y-73872723D01*
X200587038Y-73815580D01*
X200606085Y-73739390D01*
X200625133Y-73701295D01*
X200663228Y-73663200D01*
X200720371Y-73644152D01*
X200758466Y-73644152D01*
X200815609Y-73663200D01*
X200834657Y-73682247D01*
X201215609Y-74044152D02*
X200987038Y-74044152D01*
X201101323Y-74044152D02*
X201101323Y-73644152D01*
X201063228Y-73701295D01*
X201025133Y-73739390D01*
X200987038Y-73758438D01*
X201577514Y-73644152D02*
X201387038Y-73644152D01*
X201367990Y-73834628D01*
X201387038Y-73815580D01*
X201425133Y-73796533D01*
X201520371Y-73796533D01*
X201558466Y-73815580D01*
X201577514Y-73834628D01*
X201596561Y-73872723D01*
X201596561Y-73967961D01*
X201577514Y-74006057D01*
X201558466Y-74025104D01*
X201520371Y-74044152D01*
X201425133Y-74044152D01*
X201387038Y-74025104D01*
X201367990Y-74006057D01*
X199412257Y-65928857D02*
X199393209Y-65947904D01*
X199336066Y-65966952D01*
X199297971Y-65966952D01*
X199240828Y-65947904D01*
X199202733Y-65909809D01*
X199183685Y-65871714D01*
X199164638Y-65795523D01*
X199164638Y-65738380D01*
X199183685Y-65662190D01*
X199202733Y-65624095D01*
X199240828Y-65586000D01*
X199297971Y-65566952D01*
X199336066Y-65566952D01*
X199393209Y-65586000D01*
X199412257Y-65605047D01*
X199793209Y-65966952D02*
X199564638Y-65966952D01*
X199678923Y-65966952D02*
X199678923Y-65566952D01*
X199640828Y-65624095D01*
X199602733Y-65662190D01*
X199564638Y-65681238D01*
X200136066Y-65566952D02*
X200059876Y-65566952D01*
X200021780Y-65586000D01*
X200002733Y-65605047D01*
X199964638Y-65662190D01*
X199945590Y-65738380D01*
X199945590Y-65890761D01*
X199964638Y-65928857D01*
X199983685Y-65947904D01*
X200021780Y-65966952D01*
X200097971Y-65966952D01*
X200136066Y-65947904D01*
X200155114Y-65928857D01*
X200174161Y-65890761D01*
X200174161Y-65795523D01*
X200155114Y-65757428D01*
X200136066Y-65738380D01*
X200097971Y-65719333D01*
X200021780Y-65719333D01*
X199983685Y-65738380D01*
X199964638Y-65757428D01*
X199945590Y-65795523D01*
X214817361Y-88776152D02*
X214817361Y-88376152D01*
X214912600Y-88376152D01*
X214969742Y-88395200D01*
X215007838Y-88433295D01*
X215026885Y-88471390D01*
X215045933Y-88547580D01*
X215045933Y-88604723D01*
X215026885Y-88680914D01*
X215007838Y-88719009D01*
X214969742Y-88757104D01*
X214912600Y-88776152D01*
X214817361Y-88776152D01*
X215198314Y-88414247D02*
X215217361Y-88395200D01*
X215255457Y-88376152D01*
X215350695Y-88376152D01*
X215388790Y-88395200D01*
X215407838Y-88414247D01*
X215426885Y-88452342D01*
X215426885Y-88490438D01*
X215407838Y-88547580D01*
X215179266Y-88776152D01*
X215426885Y-88776152D01*
X207248133Y-80546552D02*
X207114800Y-80356076D01*
X207019561Y-80546552D02*
X207019561Y-80146552D01*
X207171942Y-80146552D01*
X207210038Y-80165600D01*
X207229085Y-80184647D01*
X207248133Y-80222742D01*
X207248133Y-80279885D01*
X207229085Y-80317980D01*
X207210038Y-80337028D01*
X207171942Y-80356076D01*
X207019561Y-80356076D01*
X207381466Y-80146552D02*
X207648133Y-80146552D01*
X207476704Y-80546552D01*
X212702752Y-84229542D02*
X212512276Y-84362876D01*
X212702752Y-84458114D02*
X212302752Y-84458114D01*
X212302752Y-84305733D01*
X212321800Y-84267638D01*
X212340847Y-84248590D01*
X212378942Y-84229542D01*
X212436085Y-84229542D01*
X212474180Y-84248590D01*
X212493228Y-84267638D01*
X212512276Y-84305733D01*
X212512276Y-84458114D01*
X212702752Y-83848590D02*
X212702752Y-84077161D01*
X212702752Y-83962876D02*
X212302752Y-83962876D01*
X212359895Y-84000971D01*
X212397990Y-84039066D01*
X212417038Y-84077161D01*
X212302752Y-83715257D02*
X212302752Y-83448590D01*
X212702752Y-83620019D01*
X208559666Y-85696428D02*
X208426333Y-85696428D01*
X208426333Y-85905952D02*
X208426333Y-85505952D01*
X208616809Y-85505952D01*
X208978714Y-85905952D02*
X208750142Y-85905952D01*
X208864428Y-85905952D02*
X208864428Y-85505952D01*
X208826333Y-85563095D01*
X208788238Y-85601190D01*
X208750142Y-85620238D01*
X194910057Y-71377142D02*
X194929104Y-71396190D01*
X194948152Y-71453333D01*
X194948152Y-71491428D01*
X194929104Y-71548571D01*
X194891009Y-71586666D01*
X194852914Y-71605714D01*
X194776723Y-71624761D01*
X194719580Y-71624761D01*
X194643390Y-71605714D01*
X194605295Y-71586666D01*
X194567200Y-71548571D01*
X194548152Y-71491428D01*
X194548152Y-71453333D01*
X194567200Y-71396190D01*
X194586247Y-71377142D01*
X194586247Y-71224761D02*
X194567200Y-71205714D01*
X194548152Y-71167619D01*
X194548152Y-71072380D01*
X194567200Y-71034285D01*
X194586247Y-71015238D01*
X194624342Y-70996190D01*
X194662438Y-70996190D01*
X194719580Y-71015238D01*
X194948152Y-71243809D01*
X194948152Y-70996190D01*
X194548152Y-70748571D02*
X194548152Y-70710476D01*
X194567200Y-70672380D01*
X194586247Y-70653333D01*
X194624342Y-70634285D01*
X194700533Y-70615238D01*
X194795771Y-70615238D01*
X194871961Y-70634285D01*
X194910057Y-70653333D01*
X194929104Y-70672380D01*
X194948152Y-70710476D01*
X194948152Y-70748571D01*
X194929104Y-70786666D01*
X194910057Y-70805714D01*
X194871961Y-70824761D01*
X194795771Y-70843809D01*
X194700533Y-70843809D01*
X194624342Y-70824761D01*
X194586247Y-70805714D01*
X194567200Y-70786666D01*
X194548152Y-70748571D01*
X193411457Y-71377142D02*
X193430504Y-71396190D01*
X193449552Y-71453333D01*
X193449552Y-71491428D01*
X193430504Y-71548571D01*
X193392409Y-71586666D01*
X193354314Y-71605714D01*
X193278123Y-71624761D01*
X193220980Y-71624761D01*
X193144790Y-71605714D01*
X193106695Y-71586666D01*
X193068600Y-71548571D01*
X193049552Y-71491428D01*
X193049552Y-71453333D01*
X193068600Y-71396190D01*
X193087647Y-71377142D01*
X193087647Y-71224761D02*
X193068600Y-71205714D01*
X193049552Y-71167619D01*
X193049552Y-71072380D01*
X193068600Y-71034285D01*
X193087647Y-71015238D01*
X193125742Y-70996190D01*
X193163838Y-70996190D01*
X193220980Y-71015238D01*
X193449552Y-71243809D01*
X193449552Y-70996190D01*
X193087647Y-70843809D02*
X193068600Y-70824761D01*
X193049552Y-70786666D01*
X193049552Y-70691428D01*
X193068600Y-70653333D01*
X193087647Y-70634285D01*
X193125742Y-70615238D01*
X193163838Y-70615238D01*
X193220980Y-70634285D01*
X193449552Y-70862857D01*
X193449552Y-70615238D01*
D12*
X215047533Y-78176380D02*
X214571342Y-78176380D01*
X214571342Y-77176380D01*
X215904676Y-78176380D02*
X215333247Y-78176380D01*
X215618961Y-78176380D02*
X215618961Y-77176380D01*
X215523723Y-77319238D01*
X215428485Y-77414476D01*
X215333247Y-77462095D01*
D14*
X214963657Y-84851857D02*
X214944609Y-84870904D01*
X214887466Y-84889952D01*
X214849371Y-84889952D01*
X214792228Y-84870904D01*
X214754133Y-84832809D01*
X214735085Y-84794714D01*
X214716038Y-84718523D01*
X214716038Y-84661380D01*
X214735085Y-84585190D01*
X214754133Y-84547095D01*
X214792228Y-84509000D01*
X214849371Y-84489952D01*
X214887466Y-84489952D01*
X214944609Y-84509000D01*
X214963657Y-84528047D01*
X215116038Y-84528047D02*
X215135085Y-84509000D01*
X215173180Y-84489952D01*
X215268419Y-84489952D01*
X215306514Y-84509000D01*
X215325561Y-84528047D01*
X215344609Y-84566142D01*
X215344609Y-84604238D01*
X215325561Y-84661380D01*
X215096990Y-84889952D01*
X215344609Y-84889952D01*
X215725561Y-84889952D02*
X215496990Y-84889952D01*
X215611276Y-84889952D02*
X215611276Y-84489952D01*
X215573180Y-84547095D01*
X215535085Y-84585190D01*
X215496990Y-84604238D01*
X204377961Y-88776152D02*
X204377961Y-88376152D01*
X204473200Y-88376152D01*
X204530342Y-88395200D01*
X204568438Y-88433295D01*
X204587485Y-88471390D01*
X204606533Y-88547580D01*
X204606533Y-88604723D01*
X204587485Y-88680914D01*
X204568438Y-88719009D01*
X204530342Y-88757104D01*
X204473200Y-88776152D01*
X204377961Y-88776152D01*
X204739866Y-88376152D02*
X204987485Y-88376152D01*
X204854152Y-88528533D01*
X204911295Y-88528533D01*
X204949390Y-88547580D01*
X204968438Y-88566628D01*
X204987485Y-88604723D01*
X204987485Y-88699961D01*
X204968438Y-88738057D01*
X204949390Y-88757104D01*
X204911295Y-88776152D01*
X204797009Y-88776152D01*
X204758914Y-88757104D01*
X204739866Y-88738057D01*
D12*
X214142580Y-87225095D02*
X213142580Y-87225095D01*
X213142580Y-86987000D01*
X213190200Y-86844142D01*
X213285438Y-86748904D01*
X213380676Y-86701285D01*
X213571152Y-86653666D01*
X213714009Y-86653666D01*
X213904485Y-86701285D01*
X213999723Y-86748904D01*
X214094961Y-86844142D01*
X214142580Y-86987000D01*
X214142580Y-87225095D01*
X213475914Y-85796523D02*
X214142580Y-85796523D01*
X213094961Y-86034619D02*
X213809247Y-86272714D01*
X213809247Y-85653666D01*
X208226066Y-52049980D02*
X208226066Y-52764266D01*
X208178447Y-52907123D01*
X208083209Y-53002361D01*
X207940352Y-53049980D01*
X207845114Y-53049980D01*
X208607019Y-52049980D02*
X209273685Y-52049980D01*
X208845114Y-53049980D01*
D15*
X200439085Y-80910495D02*
X200355752Y-80791447D01*
X200296228Y-80910495D02*
X200296228Y-80660495D01*
X200391466Y-80660495D01*
X200415276Y-80672400D01*
X200427180Y-80684304D01*
X200439085Y-80708114D01*
X200439085Y-80743828D01*
X200427180Y-80767638D01*
X200415276Y-80779542D01*
X200391466Y-80791447D01*
X200296228Y-80791447D01*
X200534323Y-80684304D02*
X200546228Y-80672400D01*
X200570038Y-80660495D01*
X200629561Y-80660495D01*
X200653371Y-80672400D01*
X200665276Y-80684304D01*
X200677180Y-80708114D01*
X200677180Y-80731923D01*
X200665276Y-80767638D01*
X200522419Y-80910495D01*
X200677180Y-80910495D01*
X200772419Y-80684304D02*
X200784323Y-80672400D01*
X200808133Y-80660495D01*
X200867657Y-80660495D01*
X200891466Y-80672400D01*
X200903371Y-80684304D01*
X200915276Y-80708114D01*
X200915276Y-80731923D01*
X200903371Y-80767638D01*
X200760514Y-80910495D01*
X200915276Y-80910495D01*
X195003485Y-80910495D02*
X194920152Y-80791447D01*
X194860628Y-80910495D02*
X194860628Y-80660495D01*
X194955866Y-80660495D01*
X194979676Y-80672400D01*
X194991580Y-80684304D01*
X195003485Y-80708114D01*
X195003485Y-80743828D01*
X194991580Y-80767638D01*
X194979676Y-80779542D01*
X194955866Y-80791447D01*
X194860628Y-80791447D01*
X195098723Y-80684304D02*
X195110628Y-80672400D01*
X195134438Y-80660495D01*
X195193961Y-80660495D01*
X195217771Y-80672400D01*
X195229676Y-80684304D01*
X195241580Y-80708114D01*
X195241580Y-80731923D01*
X195229676Y-80767638D01*
X195086819Y-80910495D01*
X195241580Y-80910495D01*
X195324914Y-80660495D02*
X195479676Y-80660495D01*
X195396342Y-80755733D01*
X195432057Y-80755733D01*
X195455866Y-80767638D01*
X195467771Y-80779542D01*
X195479676Y-80803352D01*
X195479676Y-80862876D01*
X195467771Y-80886685D01*
X195455866Y-80898590D01*
X195432057Y-80910495D01*
X195360628Y-80910495D01*
X195336819Y-80898590D01*
X195324914Y-80886685D01*
D12*
X203922380Y-83992933D02*
X204636666Y-83992933D01*
X204779523Y-84040552D01*
X204874761Y-84135790D01*
X204922380Y-84278647D01*
X204922380Y-84373885D01*
X204922380Y-83516742D02*
X203922380Y-83516742D01*
X203922380Y-83135790D01*
X203970000Y-83040552D01*
X204017619Y-82992933D01*
X204112857Y-82945314D01*
X204255714Y-82945314D01*
X204350952Y-82992933D01*
X204398571Y-83040552D01*
X204446190Y-83135790D01*
X204446190Y-83516742D01*
X204922380Y-81992933D02*
X204922380Y-82564361D01*
X204922380Y-82278647D02*
X203922380Y-82278647D01*
X204065238Y-82373885D01*
X204160476Y-82469123D01*
X204208095Y-82564361D01*
D14*
X199380457Y-59489942D02*
X199399504Y-59508990D01*
X199418552Y-59566133D01*
X199418552Y-59604228D01*
X199399504Y-59661371D01*
X199361409Y-59699466D01*
X199323314Y-59718514D01*
X199247123Y-59737561D01*
X199189980Y-59737561D01*
X199113790Y-59718514D01*
X199075695Y-59699466D01*
X199037600Y-59661371D01*
X199018552Y-59604228D01*
X199018552Y-59566133D01*
X199037600Y-59508990D01*
X199056647Y-59489942D01*
X199056647Y-59337561D02*
X199037600Y-59318514D01*
X199018552Y-59280419D01*
X199018552Y-59185180D01*
X199037600Y-59147085D01*
X199056647Y-59128038D01*
X199094742Y-59108990D01*
X199132838Y-59108990D01*
X199189980Y-59128038D01*
X199418552Y-59356609D01*
X199418552Y-59108990D01*
X199151885Y-58766133D02*
X199418552Y-58766133D01*
X198999504Y-58861371D02*
X199285219Y-58956609D01*
X199285219Y-58708990D01*
D16*
X193339209Y-66976619D02*
X193315400Y-67024238D01*
X193267780Y-67071857D01*
X193196352Y-67143285D01*
X193172542Y-67190904D01*
X193172542Y-67238523D01*
X193291590Y-67214714D02*
X193267780Y-67262333D01*
X193220161Y-67309952D01*
X193124923Y-67333761D01*
X192958257Y-67333761D01*
X192863019Y-67309952D01*
X192815400Y-67262333D01*
X192791590Y-67214714D01*
X192791590Y-67119476D01*
X192815400Y-67071857D01*
X192863019Y-67024238D01*
X192958257Y-67000428D01*
X193124923Y-67000428D01*
X193220161Y-67024238D01*
X193267780Y-67071857D01*
X193291590Y-67119476D01*
X193291590Y-67214714D01*
X192839209Y-66809952D02*
X192815400Y-66786142D01*
X192791590Y-66738523D01*
X192791590Y-66619476D01*
X192815400Y-66571857D01*
X192839209Y-66548047D01*
X192886828Y-66524238D01*
X192934447Y-66524238D01*
X193005876Y-66548047D01*
X193291590Y-66833761D01*
X193291590Y-66524238D01*
D12*
X188656980Y-68278333D02*
X189371266Y-68278333D01*
X189514123Y-68325952D01*
X189609361Y-68421190D01*
X189656980Y-68564047D01*
X189656980Y-68659285D01*
X189656980Y-67278333D02*
X189656980Y-67849761D01*
X189656980Y-67564047D02*
X188656980Y-67564047D01*
X188799838Y-67659285D01*
X188895076Y-67754523D01*
X188942695Y-67849761D01*
X195299104Y-75864980D02*
X195299104Y-74864980D01*
X195537200Y-74864980D01*
X195680057Y-74912600D01*
X195775295Y-75007838D01*
X195822914Y-75103076D01*
X195870533Y-75293552D01*
X195870533Y-75436409D01*
X195822914Y-75626885D01*
X195775295Y-75722123D01*
X195680057Y-75817361D01*
X195537200Y-75864980D01*
X195299104Y-75864980D01*
X196775295Y-74864980D02*
X196299104Y-74864980D01*
X196251485Y-75341171D01*
X196299104Y-75293552D01*
X196394342Y-75245933D01*
X196632438Y-75245933D01*
X196727676Y-75293552D01*
X196775295Y-75341171D01*
X196822914Y-75436409D01*
X196822914Y-75674504D01*
X196775295Y-75769742D01*
X196727676Y-75817361D01*
X196632438Y-75864980D01*
X196394342Y-75864980D01*
X196299104Y-75817361D01*
X196251485Y-75769742D01*
X194025780Y-78843095D02*
X193025780Y-78843095D01*
X193025780Y-78605000D01*
X193073400Y-78462142D01*
X193168638Y-78366904D01*
X193263876Y-78319285D01*
X193454352Y-78271666D01*
X193597209Y-78271666D01*
X193787685Y-78319285D01*
X193882923Y-78366904D01*
X193978161Y-78462142D01*
X194025780Y-78605000D01*
X194025780Y-78843095D01*
X193454352Y-77700238D02*
X193406733Y-77795476D01*
X193359114Y-77843095D01*
X193263876Y-77890714D01*
X193216257Y-77890714D01*
X193121019Y-77843095D01*
X193073400Y-77795476D01*
X193025780Y-77700238D01*
X193025780Y-77509761D01*
X193073400Y-77414523D01*
X193121019Y-77366904D01*
X193216257Y-77319285D01*
X193263876Y-77319285D01*
X193359114Y-77366904D01*
X193406733Y-77414523D01*
X193454352Y-77509761D01*
X193454352Y-77700238D01*
X193501971Y-77795476D01*
X193549590Y-77843095D01*
X193644828Y-77890714D01*
X193835304Y-77890714D01*
X193930542Y-77843095D01*
X193978161Y-77795476D01*
X194025780Y-77700238D01*
X194025780Y-77509761D01*
X193978161Y-77414523D01*
X193930542Y-77366904D01*
X193835304Y-77319285D01*
X193644828Y-77319285D01*
X193549590Y-77366904D01*
X193501971Y-77414523D01*
X193454352Y-77509761D01*
D15*
X214973285Y-72533266D02*
X214985190Y-72545171D01*
X214997095Y-72580885D01*
X214997095Y-72604695D01*
X214985190Y-72640409D01*
X214961380Y-72664219D01*
X214937571Y-72676123D01*
X214889952Y-72688028D01*
X214854238Y-72688028D01*
X214806619Y-72676123D01*
X214782809Y-72664219D01*
X214759000Y-72640409D01*
X214747095Y-72604695D01*
X214747095Y-72580885D01*
X214759000Y-72545171D01*
X214770904Y-72533266D01*
X214997095Y-72295171D02*
X214997095Y-72438028D01*
X214997095Y-72366600D02*
X214747095Y-72366600D01*
X214782809Y-72390409D01*
X214806619Y-72414219D01*
X214818523Y-72438028D01*
X218783285Y-72533266D02*
X218795190Y-72545171D01*
X218807095Y-72580885D01*
X218807095Y-72604695D01*
X218795190Y-72640409D01*
X218771380Y-72664219D01*
X218747571Y-72676123D01*
X218699952Y-72688028D01*
X218664238Y-72688028D01*
X218616619Y-72676123D01*
X218592809Y-72664219D01*
X218569000Y-72640409D01*
X218557095Y-72604695D01*
X218557095Y-72580885D01*
X218569000Y-72545171D01*
X218580904Y-72533266D01*
X218580904Y-72438028D02*
X218569000Y-72426123D01*
X218557095Y-72402314D01*
X218557095Y-72342790D01*
X218569000Y-72318980D01*
X218580904Y-72307076D01*
X218604714Y-72295171D01*
X218628523Y-72295171D01*
X218664238Y-72307076D01*
X218807095Y-72449933D01*
X218807095Y-72295171D01*
X210575002Y-68562871D02*
X210558166Y-68562871D01*
X210524495Y-68546035D01*
X210507659Y-68529200D01*
X210490823Y-68495528D01*
X210490823Y-68461856D01*
X210499241Y-68436602D01*
X210524495Y-68394512D01*
X210549748Y-68369259D01*
X210591838Y-68344005D01*
X210617092Y-68335587D01*
X210650764Y-68335587D01*
X210684435Y-68352423D01*
X210701271Y-68369259D01*
X210718107Y-68402930D01*
X210718107Y-68419766D01*
X210827540Y-68613379D02*
X210709689Y-68731230D01*
X210852794Y-68503946D02*
X210684435Y-68588125D01*
X210793869Y-68697558D01*
X217941002Y-61984271D02*
X217924166Y-61984271D01*
X217890495Y-61967435D01*
X217873659Y-61950600D01*
X217856823Y-61916928D01*
X217856823Y-61883256D01*
X217865241Y-61858002D01*
X217890495Y-61815912D01*
X217915748Y-61790659D01*
X217957838Y-61765405D01*
X217983092Y-61756987D01*
X218016764Y-61756987D01*
X218050435Y-61773823D01*
X218067271Y-61790659D01*
X218084107Y-61824330D01*
X218084107Y-61841166D01*
X218260884Y-61984271D02*
X218176704Y-61900092D01*
X218084107Y-61975853D01*
X218100943Y-61975853D01*
X218126197Y-61984271D01*
X218168287Y-62026361D01*
X218176704Y-62051615D01*
X218176704Y-62068451D01*
X218168287Y-62093704D01*
X218126197Y-62135794D01*
X218100943Y-62144212D01*
X218084107Y-62144212D01*
X218058853Y-62135794D01*
X218016764Y-62093704D01*
X218008346Y-62068451D01*
X218008346Y-62051615D01*
X217432271Y-68977397D02*
X217432271Y-68994233D01*
X217415435Y-69027904D01*
X217398600Y-69044740D01*
X217364928Y-69061576D01*
X217331256Y-69061576D01*
X217306002Y-69053158D01*
X217263912Y-69027904D01*
X217238659Y-69002651D01*
X217213405Y-68960561D01*
X217204987Y-68935307D01*
X217204987Y-68901635D01*
X217221823Y-68867964D01*
X217238659Y-68851128D01*
X217272330Y-68834292D01*
X217289166Y-68834292D01*
X217423853Y-68665933D02*
X217390182Y-68699605D01*
X217381764Y-68724859D01*
X217381764Y-68741695D01*
X217390182Y-68783784D01*
X217415435Y-68825874D01*
X217482779Y-68893217D01*
X217508033Y-68901635D01*
X217524869Y-68901635D01*
X217550122Y-68893217D01*
X217583794Y-68859546D01*
X217592212Y-68834292D01*
X217592212Y-68817456D01*
X217583794Y-68792202D01*
X217541704Y-68750112D01*
X217516451Y-68741695D01*
X217499615Y-68741695D01*
X217474361Y-68750112D01*
X217440689Y-68783784D01*
X217432271Y-68809038D01*
X217432271Y-68825874D01*
X217440689Y-68851128D01*
X208543002Y-66530871D02*
X208526166Y-66530871D01*
X208492495Y-66514035D01*
X208475659Y-66497200D01*
X208458823Y-66463528D01*
X208458823Y-66429856D01*
X208467241Y-66404602D01*
X208492495Y-66362512D01*
X208517748Y-66337259D01*
X208559838Y-66312005D01*
X208585092Y-66303587D01*
X208618764Y-66303587D01*
X208652435Y-66320423D01*
X208669271Y-66337259D01*
X208686107Y-66370930D01*
X208686107Y-66387766D01*
X208761869Y-66429856D02*
X208879720Y-66547707D01*
X208627182Y-66648722D01*
X207869902Y-62974871D02*
X207853066Y-62974871D01*
X207819395Y-62958035D01*
X207802559Y-62941200D01*
X207785723Y-62907528D01*
X207785723Y-62873856D01*
X207794141Y-62848602D01*
X207819395Y-62806512D01*
X207844648Y-62781259D01*
X207886738Y-62756005D01*
X207911992Y-62747587D01*
X207945664Y-62747587D01*
X207979335Y-62764423D01*
X207996171Y-62781259D01*
X208013007Y-62814930D01*
X208013007Y-62831766D01*
X208055097Y-62991707D02*
X208046679Y-62966453D01*
X208046679Y-62949617D01*
X208055097Y-62924364D01*
X208063515Y-62915946D01*
X208088769Y-62907528D01*
X208105604Y-62907528D01*
X208130858Y-62915946D01*
X208164530Y-62949617D01*
X208172948Y-62974871D01*
X208172948Y-62991707D01*
X208164530Y-63016961D01*
X208156112Y-63025379D01*
X208130858Y-63033797D01*
X208114022Y-63033797D01*
X208088769Y-63025379D01*
X208055097Y-62991707D01*
X208029843Y-62983289D01*
X208013007Y-62983289D01*
X207987753Y-62991707D01*
X207954082Y-63025379D01*
X207945664Y-63050633D01*
X207945664Y-63067469D01*
X207954082Y-63092722D01*
X207987753Y-63126394D01*
X208013007Y-63134812D01*
X208029843Y-63134812D01*
X208055097Y-63126394D01*
X208088769Y-63092722D01*
X208097187Y-63067469D01*
X208097187Y-63050633D01*
X208088769Y-63025379D01*
X220091292Y-69010776D02*
X220091292Y-69027612D01*
X220074456Y-69061284D01*
X220057620Y-69078120D01*
X220023948Y-69094956D01*
X219990277Y-69094956D01*
X219965023Y-69086538D01*
X219922933Y-69061284D01*
X219897679Y-69036030D01*
X219872425Y-68993940D01*
X219864008Y-68968687D01*
X219864008Y-68935015D01*
X219880843Y-68901343D01*
X219897679Y-68884507D01*
X219931351Y-68867671D01*
X219948187Y-68867671D01*
X220276487Y-68859253D02*
X220175471Y-68960269D01*
X220225979Y-68909761D02*
X220049202Y-68732984D01*
X220057620Y-68775074D01*
X220057620Y-68808746D01*
X220049202Y-68833999D01*
X220209143Y-68573043D02*
X220225979Y-68556208D01*
X220251233Y-68547790D01*
X220268069Y-68547790D01*
X220293322Y-68556208D01*
X220335412Y-68581461D01*
X220377502Y-68623551D01*
X220402756Y-68665641D01*
X220411174Y-68690895D01*
X220411174Y-68707730D01*
X220402756Y-68732984D01*
X220385920Y-68749820D01*
X220360666Y-68758238D01*
X220343830Y-68758238D01*
X220318576Y-68749820D01*
X220276487Y-68724566D01*
X220234397Y-68682477D01*
X220209143Y-68640387D01*
X220200725Y-68615133D01*
X220200725Y-68598297D01*
X220209143Y-68573043D01*
X196126485Y-59520514D02*
X196138390Y-59532419D01*
X196150295Y-59568133D01*
X196150295Y-59591942D01*
X196138390Y-59627657D01*
X196114580Y-59651466D01*
X196090771Y-59663371D01*
X196043152Y-59675276D01*
X196007438Y-59675276D01*
X195959819Y-59663371D01*
X195936009Y-59651466D01*
X195912200Y-59627657D01*
X195900295Y-59591942D01*
X195900295Y-59568133D01*
X195912200Y-59532419D01*
X195924104Y-59520514D01*
X196150295Y-59282419D02*
X196150295Y-59425276D01*
X196150295Y-59353847D02*
X195900295Y-59353847D01*
X195936009Y-59377657D01*
X195959819Y-59401466D01*
X195971723Y-59425276D01*
X196150295Y-59044323D02*
X196150295Y-59187180D01*
X196150295Y-59115752D02*
X195900295Y-59115752D01*
X195936009Y-59139561D01*
X195959819Y-59163371D01*
X195971723Y-59187180D01*
X212903823Y-70891692D02*
X212886987Y-70891692D01*
X212853315Y-70874856D01*
X212836479Y-70858020D01*
X212819643Y-70824348D01*
X212819643Y-70790677D01*
X212828061Y-70765423D01*
X212853315Y-70723333D01*
X212878569Y-70698079D01*
X212920659Y-70672825D01*
X212945912Y-70664408D01*
X212979584Y-70664408D01*
X213013256Y-70681243D01*
X213030092Y-70698079D01*
X213046928Y-70731751D01*
X213046928Y-70748587D01*
X213055346Y-71076887D02*
X212954330Y-70975871D01*
X213004838Y-71026379D02*
X213181615Y-70849602D01*
X213139525Y-70858020D01*
X213105853Y-70858020D01*
X213080600Y-70849602D01*
X213282630Y-70984289D02*
X213299466Y-70984289D01*
X213324720Y-70992707D01*
X213366809Y-71034797D01*
X213375227Y-71060051D01*
X213375227Y-71076887D01*
X213366809Y-71102140D01*
X213349974Y-71118976D01*
X213316302Y-71135812D01*
X213114271Y-71135812D01*
X213223704Y-71245245D01*
X222161485Y-81999514D02*
X222173390Y-82011419D01*
X222185295Y-82047133D01*
X222185295Y-82070942D01*
X222173390Y-82106657D01*
X222149580Y-82130466D01*
X222125771Y-82142371D01*
X222078152Y-82154276D01*
X222042438Y-82154276D01*
X221994819Y-82142371D01*
X221971009Y-82130466D01*
X221947200Y-82106657D01*
X221935295Y-82070942D01*
X221935295Y-82047133D01*
X221947200Y-82011419D01*
X221959104Y-81999514D01*
X222185295Y-81761419D02*
X222185295Y-81904276D01*
X222185295Y-81832847D02*
X221935295Y-81832847D01*
X221971009Y-81856657D01*
X221994819Y-81880466D01*
X222006723Y-81904276D01*
X222042438Y-81618561D02*
X222030533Y-81642371D01*
X222018628Y-81654276D01*
X221994819Y-81666180D01*
X221982914Y-81666180D01*
X221959104Y-81654276D01*
X221947200Y-81642371D01*
X221935295Y-81618561D01*
X221935295Y-81570942D01*
X221947200Y-81547133D01*
X221959104Y-81535228D01*
X221982914Y-81523323D01*
X221994819Y-81523323D01*
X222018628Y-81535228D01*
X222030533Y-81547133D01*
X222042438Y-81570942D01*
X222042438Y-81618561D01*
X222054342Y-81642371D01*
X222066247Y-81654276D01*
X222090057Y-81666180D01*
X222137676Y-81666180D01*
X222161485Y-81654276D01*
X222173390Y-81642371D01*
X222185295Y-81618561D01*
X222185295Y-81570942D01*
X222173390Y-81547133D01*
X222161485Y-81535228D01*
X222137676Y-81523323D01*
X222090057Y-81523323D01*
X222066247Y-81535228D01*
X222054342Y-81547133D01*
X222042438Y-81570942D01*
X218660766Y-61289907D02*
X218686020Y-61146802D01*
X218559751Y-61188892D02*
X218736528Y-61012115D01*
X218803871Y-61079459D01*
X218812289Y-61104712D01*
X218812289Y-61121548D01*
X218803871Y-61146802D01*
X218778617Y-61172056D01*
X218753364Y-61180474D01*
X218736528Y-61180474D01*
X218711274Y-61172056D01*
X218643930Y-61104712D01*
X218829125Y-61458266D02*
X218728110Y-61357251D01*
X218778617Y-61407758D02*
X218955394Y-61230982D01*
X218913304Y-61239400D01*
X218879633Y-61239400D01*
X218854379Y-61230982D01*
X223071933Y-64298895D02*
X222988600Y-64179847D01*
X222929076Y-64298895D02*
X222929076Y-64048895D01*
X223024314Y-64048895D01*
X223048123Y-64060800D01*
X223060028Y-64072704D01*
X223071933Y-64096514D01*
X223071933Y-64132228D01*
X223060028Y-64156038D01*
X223048123Y-64167942D01*
X223024314Y-64179847D01*
X222929076Y-64179847D01*
X223167171Y-64072704D02*
X223179076Y-64060800D01*
X223202885Y-64048895D01*
X223262409Y-64048895D01*
X223286219Y-64060800D01*
X223298123Y-64072704D01*
X223310028Y-64096514D01*
X223310028Y-64120323D01*
X223298123Y-64156038D01*
X223155266Y-64298895D01*
X223310028Y-64298895D01*
X225436495Y-62652666D02*
X225317447Y-62736000D01*
X225436495Y-62795523D02*
X225186495Y-62795523D01*
X225186495Y-62700285D01*
X225198400Y-62676476D01*
X225210304Y-62664571D01*
X225234114Y-62652666D01*
X225269828Y-62652666D01*
X225293638Y-62664571D01*
X225305542Y-62676476D01*
X225317447Y-62700285D01*
X225317447Y-62795523D01*
X225186495Y-62569333D02*
X225186495Y-62414571D01*
X225281733Y-62497904D01*
X225281733Y-62462190D01*
X225293638Y-62438380D01*
X225305542Y-62426476D01*
X225329352Y-62414571D01*
X225388876Y-62414571D01*
X225412685Y-62426476D01*
X225424590Y-62438380D01*
X225436495Y-62462190D01*
X225436495Y-62533619D01*
X225424590Y-62557428D01*
X225412685Y-62569333D01*
X225030095Y-68037466D02*
X224911047Y-68120800D01*
X225030095Y-68180323D02*
X224780095Y-68180323D01*
X224780095Y-68085085D01*
X224792000Y-68061276D01*
X224803904Y-68049371D01*
X224827714Y-68037466D01*
X224863428Y-68037466D01*
X224887238Y-68049371D01*
X224899142Y-68061276D01*
X224911047Y-68085085D01*
X224911047Y-68180323D01*
X224863428Y-67823180D02*
X225030095Y-67823180D01*
X224768190Y-67882704D02*
X224946761Y-67942228D01*
X224946761Y-67787466D01*
X210752933Y-80732695D02*
X210669600Y-80613647D01*
X210610076Y-80732695D02*
X210610076Y-80482695D01*
X210705314Y-80482695D01*
X210729123Y-80494600D01*
X210741028Y-80506504D01*
X210752933Y-80530314D01*
X210752933Y-80566028D01*
X210741028Y-80589838D01*
X210729123Y-80601742D01*
X210705314Y-80613647D01*
X210610076Y-80613647D01*
X210979123Y-80482695D02*
X210860076Y-80482695D01*
X210848171Y-80601742D01*
X210860076Y-80589838D01*
X210883885Y-80577933D01*
X210943409Y-80577933D01*
X210967219Y-80589838D01*
X210979123Y-80601742D01*
X210991028Y-80625552D01*
X210991028Y-80685076D01*
X210979123Y-80708885D01*
X210967219Y-80720790D01*
X210943409Y-80732695D01*
X210883885Y-80732695D01*
X210860076Y-80720790D01*
X210848171Y-80708885D01*
X210752933Y-79742095D02*
X210669600Y-79623047D01*
X210610076Y-79742095D02*
X210610076Y-79492095D01*
X210705314Y-79492095D01*
X210729123Y-79504000D01*
X210741028Y-79515904D01*
X210752933Y-79539714D01*
X210752933Y-79575428D01*
X210741028Y-79599238D01*
X210729123Y-79611142D01*
X210705314Y-79623047D01*
X210610076Y-79623047D01*
X210967219Y-79492095D02*
X210919600Y-79492095D01*
X210895790Y-79504000D01*
X210883885Y-79515904D01*
X210860076Y-79551619D01*
X210848171Y-79599238D01*
X210848171Y-79694476D01*
X210860076Y-79718285D01*
X210871980Y-79730190D01*
X210895790Y-79742095D01*
X210943409Y-79742095D01*
X210967219Y-79730190D01*
X210979123Y-79718285D01*
X210991028Y-79694476D01*
X210991028Y-79634952D01*
X210979123Y-79611142D01*
X210967219Y-79599238D01*
X210943409Y-79587333D01*
X210895790Y-79587333D01*
X210871980Y-79599238D01*
X210860076Y-79611142D01*
X210848171Y-79634952D01*
X220793928Y-69713412D02*
X220650823Y-69688158D01*
X220692912Y-69814427D02*
X220516136Y-69637651D01*
X220583479Y-69570307D01*
X220608733Y-69561889D01*
X220625569Y-69561889D01*
X220650823Y-69570307D01*
X220676077Y-69595561D01*
X220684495Y-69620815D01*
X220684495Y-69637651D01*
X220676077Y-69662904D01*
X220608733Y-69730248D01*
X220962287Y-69545053D02*
X220861271Y-69646069D01*
X220911779Y-69595561D02*
X220735002Y-69418784D01*
X220743420Y-69460874D01*
X220743420Y-69494546D01*
X220735002Y-69519799D01*
X220894943Y-69258843D02*
X220911779Y-69242008D01*
X220937033Y-69233590D01*
X220953869Y-69233590D01*
X220979122Y-69242008D01*
X221021212Y-69267261D01*
X221063302Y-69309351D01*
X221088556Y-69351441D01*
X221096974Y-69376695D01*
X221096974Y-69393530D01*
X221088556Y-69418784D01*
X221071720Y-69435620D01*
X221046466Y-69444038D01*
X221029630Y-69444038D01*
X221004376Y-69435620D01*
X220962287Y-69410366D01*
X220920197Y-69368277D01*
X220894943Y-69326187D01*
X220886525Y-69300933D01*
X220886525Y-69284097D01*
X220894943Y-69258843D01*
X189628085Y-73061895D02*
X189544752Y-72942847D01*
X189485228Y-73061895D02*
X189485228Y-72811895D01*
X189580466Y-72811895D01*
X189604276Y-72823800D01*
X189616180Y-72835704D01*
X189628085Y-72859514D01*
X189628085Y-72895228D01*
X189616180Y-72919038D01*
X189604276Y-72930942D01*
X189580466Y-72942847D01*
X189485228Y-72942847D01*
X189866180Y-73061895D02*
X189723323Y-73061895D01*
X189794752Y-73061895D02*
X189794752Y-72811895D01*
X189770942Y-72847609D01*
X189747133Y-72871419D01*
X189723323Y-72883323D01*
X190104276Y-73061895D02*
X189961419Y-73061895D01*
X190032847Y-73061895D02*
X190032847Y-72811895D01*
X190009038Y-72847609D01*
X189985228Y-72871419D01*
X189961419Y-72883323D01*
X212488085Y-88962295D02*
X212404752Y-88843247D01*
X212345228Y-88962295D02*
X212345228Y-88712295D01*
X212440466Y-88712295D01*
X212464276Y-88724200D01*
X212476180Y-88736104D01*
X212488085Y-88759914D01*
X212488085Y-88795628D01*
X212476180Y-88819438D01*
X212464276Y-88831342D01*
X212440466Y-88843247D01*
X212345228Y-88843247D01*
X212726180Y-88962295D02*
X212583323Y-88962295D01*
X212654752Y-88962295D02*
X212654752Y-88712295D01*
X212630942Y-88748009D01*
X212607133Y-88771819D01*
X212583323Y-88783723D01*
X212821419Y-88736104D02*
X212833323Y-88724200D01*
X212857133Y-88712295D01*
X212916657Y-88712295D01*
X212940466Y-88724200D01*
X212952371Y-88736104D01*
X212964276Y-88759914D01*
X212964276Y-88783723D01*
X212952371Y-88819438D01*
X212809514Y-88962295D01*
X212964276Y-88962295D01*
X204969685Y-87285895D02*
X204886352Y-87166847D01*
X204826828Y-87285895D02*
X204826828Y-87035895D01*
X204922066Y-87035895D01*
X204945876Y-87047800D01*
X204957780Y-87059704D01*
X204969685Y-87083514D01*
X204969685Y-87119228D01*
X204957780Y-87143038D01*
X204945876Y-87154942D01*
X204922066Y-87166847D01*
X204826828Y-87166847D01*
X205207780Y-87285895D02*
X205064923Y-87285895D01*
X205136352Y-87285895D02*
X205136352Y-87035895D01*
X205112542Y-87071609D01*
X205088733Y-87095419D01*
X205064923Y-87107323D01*
X205291114Y-87035895D02*
X205445876Y-87035895D01*
X205362542Y-87131133D01*
X205398257Y-87131133D01*
X205422066Y-87143038D01*
X205433971Y-87154942D01*
X205445876Y-87178752D01*
X205445876Y-87238276D01*
X205433971Y-87262085D01*
X205422066Y-87273990D01*
X205398257Y-87285895D01*
X205326828Y-87285895D01*
X205303019Y-87273990D01*
X205291114Y-87262085D01*
X218984895Y-76182914D02*
X218865847Y-76266247D01*
X218984895Y-76325771D02*
X218734895Y-76325771D01*
X218734895Y-76230533D01*
X218746800Y-76206723D01*
X218758704Y-76194819D01*
X218782514Y-76182914D01*
X218818228Y-76182914D01*
X218842038Y-76194819D01*
X218853942Y-76206723D01*
X218865847Y-76230533D01*
X218865847Y-76325771D01*
X218984895Y-75944819D02*
X218984895Y-76087676D01*
X218984895Y-76016247D02*
X218734895Y-76016247D01*
X218770609Y-76040057D01*
X218794419Y-76063866D01*
X218806323Y-76087676D01*
X218818228Y-75730533D02*
X218984895Y-75730533D01*
X218722990Y-75790057D02*
X218901561Y-75849580D01*
X218901561Y-75694819D01*
X222185295Y-83980714D02*
X222066247Y-84064047D01*
X222185295Y-84123571D02*
X221935295Y-84123571D01*
X221935295Y-84028333D01*
X221947200Y-84004523D01*
X221959104Y-83992619D01*
X221982914Y-83980714D01*
X222018628Y-83980714D01*
X222042438Y-83992619D01*
X222054342Y-84004523D01*
X222066247Y-84028333D01*
X222066247Y-84123571D01*
X222185295Y-83742619D02*
X222185295Y-83885476D01*
X222185295Y-83814047D02*
X221935295Y-83814047D01*
X221971009Y-83837857D01*
X221994819Y-83861666D01*
X222006723Y-83885476D01*
X221935295Y-83516428D02*
X221935295Y-83635476D01*
X222054342Y-83647380D01*
X222042438Y-83635476D01*
X222030533Y-83611666D01*
X222030533Y-83552142D01*
X222042438Y-83528333D01*
X222054342Y-83516428D01*
X222078152Y-83504523D01*
X222137676Y-83504523D01*
X222161485Y-83516428D01*
X222173390Y-83528333D01*
X222185295Y-83552142D01*
X222185295Y-83611666D01*
X222173390Y-83635476D01*
X222161485Y-83647380D01*
X217720485Y-86219095D02*
X217637152Y-86100047D01*
X217577628Y-86219095D02*
X217577628Y-85969095D01*
X217672866Y-85969095D01*
X217696676Y-85981000D01*
X217708580Y-85992904D01*
X217720485Y-86016714D01*
X217720485Y-86052428D01*
X217708580Y-86076238D01*
X217696676Y-86088142D01*
X217672866Y-86100047D01*
X217577628Y-86100047D01*
X217958580Y-86219095D02*
X217815723Y-86219095D01*
X217887152Y-86219095D02*
X217887152Y-85969095D01*
X217863342Y-86004809D01*
X217839533Y-86028619D01*
X217815723Y-86040523D01*
X218172866Y-85969095D02*
X218125247Y-85969095D01*
X218101438Y-85981000D01*
X218089533Y-85992904D01*
X218065723Y-86028619D01*
X218053819Y-86076238D01*
X218053819Y-86171476D01*
X218065723Y-86195285D01*
X218077628Y-86207190D01*
X218101438Y-86219095D01*
X218149057Y-86219095D01*
X218172866Y-86207190D01*
X218184771Y-86195285D01*
X218196676Y-86171476D01*
X218196676Y-86111952D01*
X218184771Y-86088142D01*
X218172866Y-86076238D01*
X218149057Y-86064333D01*
X218101438Y-86064333D01*
X218077628Y-86076238D01*
X218065723Y-86088142D01*
X218053819Y-86111952D01*
X203363895Y-70544114D02*
X203244847Y-70627447D01*
X203363895Y-70686971D02*
X203113895Y-70686971D01*
X203113895Y-70591733D01*
X203125800Y-70567923D01*
X203137704Y-70556019D01*
X203161514Y-70544114D01*
X203197228Y-70544114D01*
X203221038Y-70556019D01*
X203232942Y-70567923D01*
X203244847Y-70591733D01*
X203244847Y-70686971D01*
X203363895Y-70306019D02*
X203363895Y-70448876D01*
X203363895Y-70377447D02*
X203113895Y-70377447D01*
X203149609Y-70401257D01*
X203173419Y-70425066D01*
X203185323Y-70448876D01*
X203221038Y-70163161D02*
X203209133Y-70186971D01*
X203197228Y-70198876D01*
X203173419Y-70210780D01*
X203161514Y-70210780D01*
X203137704Y-70198876D01*
X203125800Y-70186971D01*
X203113895Y-70163161D01*
X203113895Y-70115542D01*
X203125800Y-70091733D01*
X203137704Y-70079828D01*
X203161514Y-70067923D01*
X203173419Y-70067923D01*
X203197228Y-70079828D01*
X203209133Y-70091733D01*
X203221038Y-70115542D01*
X203221038Y-70163161D01*
X203232942Y-70186971D01*
X203244847Y-70198876D01*
X203268657Y-70210780D01*
X203316276Y-70210780D01*
X203340085Y-70198876D01*
X203351990Y-70186971D01*
X203363895Y-70163161D01*
X203363895Y-70115542D01*
X203351990Y-70091733D01*
X203340085Y-70079828D01*
X203316276Y-70067923D01*
X203268657Y-70067923D01*
X203244847Y-70079828D01*
X203232942Y-70091733D01*
X203221038Y-70115542D01*
X203363895Y-72423714D02*
X203244847Y-72507047D01*
X203363895Y-72566571D02*
X203113895Y-72566571D01*
X203113895Y-72471333D01*
X203125800Y-72447523D01*
X203137704Y-72435619D01*
X203161514Y-72423714D01*
X203197228Y-72423714D01*
X203221038Y-72435619D01*
X203232942Y-72447523D01*
X203244847Y-72471333D01*
X203244847Y-72566571D01*
X203363895Y-72185619D02*
X203363895Y-72328476D01*
X203363895Y-72257047D02*
X203113895Y-72257047D01*
X203149609Y-72280857D01*
X203173419Y-72304666D01*
X203185323Y-72328476D01*
X203363895Y-72066571D02*
X203363895Y-72018952D01*
X203351990Y-71995142D01*
X203340085Y-71983238D01*
X203304371Y-71959428D01*
X203256752Y-71947523D01*
X203161514Y-71947523D01*
X203137704Y-71959428D01*
X203125800Y-71971333D01*
X203113895Y-71995142D01*
X203113895Y-72042761D01*
X203125800Y-72066571D01*
X203137704Y-72078476D01*
X203161514Y-72090380D01*
X203221038Y-72090380D01*
X203244847Y-72078476D01*
X203256752Y-72066571D01*
X203268657Y-72042761D01*
X203268657Y-71995142D01*
X203256752Y-71971333D01*
X203244847Y-71959428D01*
X203221038Y-71947523D01*
X219673885Y-86219095D02*
X219590552Y-86100047D01*
X219531028Y-86219095D02*
X219531028Y-85969095D01*
X219626266Y-85969095D01*
X219650076Y-85981000D01*
X219661980Y-85992904D01*
X219673885Y-86016714D01*
X219673885Y-86052428D01*
X219661980Y-86076238D01*
X219650076Y-86088142D01*
X219626266Y-86100047D01*
X219531028Y-86100047D01*
X219769123Y-85992904D02*
X219781028Y-85981000D01*
X219804838Y-85969095D01*
X219864361Y-85969095D01*
X219888171Y-85981000D01*
X219900076Y-85992904D01*
X219911980Y-86016714D01*
X219911980Y-86040523D01*
X219900076Y-86076238D01*
X219757219Y-86219095D01*
X219911980Y-86219095D01*
X220066742Y-85969095D02*
X220090552Y-85969095D01*
X220114361Y-85981000D01*
X220126266Y-85992904D01*
X220138171Y-86016714D01*
X220150076Y-86064333D01*
X220150076Y-86123857D01*
X220138171Y-86171476D01*
X220126266Y-86195285D01*
X220114361Y-86207190D01*
X220090552Y-86219095D01*
X220066742Y-86219095D01*
X220042933Y-86207190D01*
X220031028Y-86195285D01*
X220019123Y-86171476D01*
X220007219Y-86123857D01*
X220007219Y-86064333D01*
X220019123Y-86016714D01*
X220031028Y-85992904D01*
X220042933Y-85981000D01*
X220066742Y-85969095D01*
X222185295Y-85961914D02*
X222066247Y-86045247D01*
X222185295Y-86104771D02*
X221935295Y-86104771D01*
X221935295Y-86009533D01*
X221947200Y-85985723D01*
X221959104Y-85973819D01*
X221982914Y-85961914D01*
X222018628Y-85961914D01*
X222042438Y-85973819D01*
X222054342Y-85985723D01*
X222066247Y-86009533D01*
X222066247Y-86104771D01*
X221959104Y-85866676D02*
X221947200Y-85854771D01*
X221935295Y-85830961D01*
X221935295Y-85771438D01*
X221947200Y-85747628D01*
X221959104Y-85735723D01*
X221982914Y-85723819D01*
X222006723Y-85723819D01*
X222042438Y-85735723D01*
X222185295Y-85878580D01*
X222185295Y-85723819D01*
X222185295Y-85485723D02*
X222185295Y-85628580D01*
X222185295Y-85557152D02*
X221935295Y-85557152D01*
X221971009Y-85580961D01*
X221994819Y-85604771D01*
X222006723Y-85628580D01*
X219422328Y-68341812D02*
X219279223Y-68316558D01*
X219321312Y-68442827D02*
X219144536Y-68266051D01*
X219211879Y-68198707D01*
X219237133Y-68190289D01*
X219253969Y-68190289D01*
X219279223Y-68198707D01*
X219304477Y-68223961D01*
X219312895Y-68249215D01*
X219312895Y-68266051D01*
X219304477Y-68291304D01*
X219237133Y-68358648D01*
X219329730Y-68114528D02*
X219329730Y-68097692D01*
X219338148Y-68072438D01*
X219380238Y-68030348D01*
X219405492Y-68021930D01*
X219422328Y-68021930D01*
X219447582Y-68030348D01*
X219464417Y-68047184D01*
X219481253Y-68080856D01*
X219481253Y-68282887D01*
X219590687Y-68173453D01*
X219624358Y-67904079D02*
X219742209Y-68021930D01*
X219514925Y-67878825D02*
X219599104Y-68047184D01*
X219708538Y-67937751D01*
X211515387Y-72280128D02*
X211540641Y-72137023D01*
X211414372Y-72179112D02*
X211591148Y-72002336D01*
X211658492Y-72069679D01*
X211666910Y-72094933D01*
X211666910Y-72111769D01*
X211658492Y-72137023D01*
X211633238Y-72162277D01*
X211607984Y-72170695D01*
X211591148Y-72170695D01*
X211565895Y-72162277D01*
X211498551Y-72094933D01*
X211742671Y-72187530D02*
X211759507Y-72187530D01*
X211784761Y-72195948D01*
X211826851Y-72238038D01*
X211835269Y-72263292D01*
X211835269Y-72280128D01*
X211826851Y-72305382D01*
X211810015Y-72322217D01*
X211776343Y-72339053D01*
X211574312Y-72339053D01*
X211683746Y-72448487D01*
X212020463Y-72431651D02*
X211936284Y-72347471D01*
X211843687Y-72423233D01*
X211860522Y-72423233D01*
X211885776Y-72431651D01*
X211927866Y-72473740D01*
X211936284Y-72498994D01*
X211936284Y-72515830D01*
X211927866Y-72541084D01*
X211885776Y-72583174D01*
X211860522Y-72591591D01*
X211843687Y-72591591D01*
X211818433Y-72583174D01*
X211776343Y-72541084D01*
X211767925Y-72515830D01*
X211767925Y-72498994D01*
X212201187Y-71594328D02*
X212226441Y-71451223D01*
X212100172Y-71493312D02*
X212276948Y-71316536D01*
X212344292Y-71383879D01*
X212352710Y-71409133D01*
X212352710Y-71425969D01*
X212344292Y-71451223D01*
X212319038Y-71476477D01*
X212293784Y-71484895D01*
X212276948Y-71484895D01*
X212251695Y-71476477D01*
X212184351Y-71409133D01*
X212428471Y-71501730D02*
X212445307Y-71501730D01*
X212470561Y-71510148D01*
X212512651Y-71552238D01*
X212521069Y-71577492D01*
X212521069Y-71594328D01*
X212512651Y-71619582D01*
X212495815Y-71636417D01*
X212462143Y-71653253D01*
X212260112Y-71653253D01*
X212369546Y-71762687D01*
X212697845Y-71737433D02*
X212664174Y-71703761D01*
X212638920Y-71695343D01*
X212622084Y-71695343D01*
X212579994Y-71703761D01*
X212537904Y-71729015D01*
X212470561Y-71796358D01*
X212462143Y-71821612D01*
X212462143Y-71838448D01*
X212470561Y-71863702D01*
X212504233Y-71897374D01*
X212529487Y-71905791D01*
X212546322Y-71905791D01*
X212571576Y-71897374D01*
X212613666Y-71855284D01*
X212622084Y-71830030D01*
X212622084Y-71813194D01*
X212613666Y-71787940D01*
X212579994Y-71754269D01*
X212554740Y-71745851D01*
X212537904Y-71745851D01*
X212512651Y-71754269D01*
X203572685Y-80910495D02*
X203489352Y-80791447D01*
X203429828Y-80910495D02*
X203429828Y-80660495D01*
X203525066Y-80660495D01*
X203548876Y-80672400D01*
X203560780Y-80684304D01*
X203572685Y-80708114D01*
X203572685Y-80743828D01*
X203560780Y-80767638D01*
X203548876Y-80779542D01*
X203525066Y-80791447D01*
X203429828Y-80791447D01*
X203667923Y-80684304D02*
X203679828Y-80672400D01*
X203703638Y-80660495D01*
X203763161Y-80660495D01*
X203786971Y-80672400D01*
X203798876Y-80684304D01*
X203810780Y-80708114D01*
X203810780Y-80731923D01*
X203798876Y-80767638D01*
X203656019Y-80910495D01*
X203810780Y-80910495D01*
X203894114Y-80660495D02*
X204060780Y-80660495D01*
X203953638Y-80910495D01*
X205421295Y-64829114D02*
X205302247Y-64912447D01*
X205421295Y-64971971D02*
X205171295Y-64971971D01*
X205171295Y-64876733D01*
X205183200Y-64852923D01*
X205195104Y-64841019D01*
X205218914Y-64829114D01*
X205254628Y-64829114D01*
X205278438Y-64841019D01*
X205290342Y-64852923D01*
X205302247Y-64876733D01*
X205302247Y-64971971D01*
X205195104Y-64733876D02*
X205183200Y-64721971D01*
X205171295Y-64698161D01*
X205171295Y-64638638D01*
X205183200Y-64614828D01*
X205195104Y-64602923D01*
X205218914Y-64591019D01*
X205242723Y-64591019D01*
X205278438Y-64602923D01*
X205421295Y-64745780D01*
X205421295Y-64591019D01*
X205421295Y-64471971D02*
X205421295Y-64424352D01*
X205409390Y-64400542D01*
X205397485Y-64388638D01*
X205361771Y-64364828D01*
X205314152Y-64352923D01*
X205218914Y-64352923D01*
X205195104Y-64364828D01*
X205183200Y-64376733D01*
X205171295Y-64400542D01*
X205171295Y-64448161D01*
X205183200Y-64471971D01*
X205195104Y-64483876D01*
X205218914Y-64495780D01*
X205278438Y-64495780D01*
X205302247Y-64483876D01*
X205314152Y-64471971D01*
X205326057Y-64448161D01*
X205326057Y-64400542D01*
X205314152Y-64376733D01*
X205302247Y-64364828D01*
X205278438Y-64352923D01*
X196251895Y-64016314D02*
X196132847Y-64099647D01*
X196251895Y-64159171D02*
X196001895Y-64159171D01*
X196001895Y-64063933D01*
X196013800Y-64040123D01*
X196025704Y-64028219D01*
X196049514Y-64016314D01*
X196085228Y-64016314D01*
X196109038Y-64028219D01*
X196120942Y-64040123D01*
X196132847Y-64063933D01*
X196132847Y-64159171D01*
X196001895Y-63932980D02*
X196001895Y-63778219D01*
X196097133Y-63861552D01*
X196097133Y-63825838D01*
X196109038Y-63802028D01*
X196120942Y-63790123D01*
X196144752Y-63778219D01*
X196204276Y-63778219D01*
X196228085Y-63790123D01*
X196239990Y-63802028D01*
X196251895Y-63825838D01*
X196251895Y-63897266D01*
X196239990Y-63921076D01*
X196228085Y-63932980D01*
X196001895Y-63623457D02*
X196001895Y-63599647D01*
X196013800Y-63575838D01*
X196025704Y-63563933D01*
X196049514Y-63552028D01*
X196097133Y-63540123D01*
X196156657Y-63540123D01*
X196204276Y-63552028D01*
X196228085Y-63563933D01*
X196239990Y-63575838D01*
X196251895Y-63599647D01*
X196251895Y-63623457D01*
X196239990Y-63647266D01*
X196228085Y-63659171D01*
X196204276Y-63671076D01*
X196156657Y-63682980D01*
X196097133Y-63682980D01*
X196049514Y-63671076D01*
X196025704Y-63659171D01*
X196013800Y-63647266D01*
X196001895Y-63623457D01*
X197293295Y-64016314D02*
X197174247Y-64099647D01*
X197293295Y-64159171D02*
X197043295Y-64159171D01*
X197043295Y-64063933D01*
X197055200Y-64040123D01*
X197067104Y-64028219D01*
X197090914Y-64016314D01*
X197126628Y-64016314D01*
X197150438Y-64028219D01*
X197162342Y-64040123D01*
X197174247Y-64063933D01*
X197174247Y-64159171D01*
X197043295Y-63932980D02*
X197043295Y-63778219D01*
X197138533Y-63861552D01*
X197138533Y-63825838D01*
X197150438Y-63802028D01*
X197162342Y-63790123D01*
X197186152Y-63778219D01*
X197245676Y-63778219D01*
X197269485Y-63790123D01*
X197281390Y-63802028D01*
X197293295Y-63825838D01*
X197293295Y-63897266D01*
X197281390Y-63921076D01*
X197269485Y-63932980D01*
X197293295Y-63540123D02*
X197293295Y-63682980D01*
X197293295Y-63611552D02*
X197043295Y-63611552D01*
X197079009Y-63635361D01*
X197102819Y-63659171D01*
X197114723Y-63682980D01*
X204913295Y-73795314D02*
X204794247Y-73878647D01*
X204913295Y-73938171D02*
X204663295Y-73938171D01*
X204663295Y-73842933D01*
X204675200Y-73819123D01*
X204687104Y-73807219D01*
X204710914Y-73795314D01*
X204746628Y-73795314D01*
X204770438Y-73807219D01*
X204782342Y-73819123D01*
X204794247Y-73842933D01*
X204794247Y-73938171D01*
X204663295Y-73711980D02*
X204663295Y-73557219D01*
X204758533Y-73640552D01*
X204758533Y-73604838D01*
X204770438Y-73581028D01*
X204782342Y-73569123D01*
X204806152Y-73557219D01*
X204865676Y-73557219D01*
X204889485Y-73569123D01*
X204901390Y-73581028D01*
X204913295Y-73604838D01*
X204913295Y-73676266D01*
X204901390Y-73700076D01*
X204889485Y-73711980D01*
X204687104Y-73461980D02*
X204675200Y-73450076D01*
X204663295Y-73426266D01*
X204663295Y-73366742D01*
X204675200Y-73342933D01*
X204687104Y-73331028D01*
X204710914Y-73319123D01*
X204734723Y-73319123D01*
X204770438Y-73331028D01*
X204913295Y-73473885D01*
X204913295Y-73319123D01*
X205096685Y-72223695D02*
X205013352Y-72104647D01*
X204953828Y-72223695D02*
X204953828Y-71973695D01*
X205049066Y-71973695D01*
X205072876Y-71985600D01*
X205084780Y-71997504D01*
X205096685Y-72021314D01*
X205096685Y-72057028D01*
X205084780Y-72080838D01*
X205072876Y-72092742D01*
X205049066Y-72104647D01*
X204953828Y-72104647D01*
X205180019Y-71973695D02*
X205334780Y-71973695D01*
X205251447Y-72068933D01*
X205287161Y-72068933D01*
X205310971Y-72080838D01*
X205322876Y-72092742D01*
X205334780Y-72116552D01*
X205334780Y-72176076D01*
X205322876Y-72199885D01*
X205310971Y-72211790D01*
X205287161Y-72223695D01*
X205215733Y-72223695D01*
X205191923Y-72211790D01*
X205180019Y-72199885D01*
X205418114Y-71973695D02*
X205572876Y-71973695D01*
X205489542Y-72068933D01*
X205525257Y-72068933D01*
X205549066Y-72080838D01*
X205560971Y-72092742D01*
X205572876Y-72116552D01*
X205572876Y-72176076D01*
X205560971Y-72199885D01*
X205549066Y-72211790D01*
X205525257Y-72223695D01*
X205453828Y-72223695D01*
X205430019Y-72211790D01*
X205418114Y-72199885D01*
X208274085Y-77862495D02*
X208190752Y-77743447D01*
X208131228Y-77862495D02*
X208131228Y-77612495D01*
X208226466Y-77612495D01*
X208250276Y-77624400D01*
X208262180Y-77636304D01*
X208274085Y-77660114D01*
X208274085Y-77695828D01*
X208262180Y-77719638D01*
X208250276Y-77731542D01*
X208226466Y-77743447D01*
X208131228Y-77743447D01*
X208357419Y-77612495D02*
X208512180Y-77612495D01*
X208428847Y-77707733D01*
X208464561Y-77707733D01*
X208488371Y-77719638D01*
X208500276Y-77731542D01*
X208512180Y-77755352D01*
X208512180Y-77814876D01*
X208500276Y-77838685D01*
X208488371Y-77850590D01*
X208464561Y-77862495D01*
X208393133Y-77862495D01*
X208369323Y-77850590D01*
X208357419Y-77838685D01*
X208738371Y-77612495D02*
X208619323Y-77612495D01*
X208607419Y-77731542D01*
X208619323Y-77719638D01*
X208643133Y-77707733D01*
X208702657Y-77707733D01*
X208726466Y-77719638D01*
X208738371Y-77731542D01*
X208750276Y-77755352D01*
X208750276Y-77814876D01*
X208738371Y-77838685D01*
X208726466Y-77850590D01*
X208702657Y-77862495D01*
X208643133Y-77862495D01*
X208619323Y-77850590D01*
X208607419Y-77838685D01*
X206366685Y-77862495D02*
X206283352Y-77743447D01*
X206223828Y-77862495D02*
X206223828Y-77612495D01*
X206319066Y-77612495D01*
X206342876Y-77624400D01*
X206354780Y-77636304D01*
X206366685Y-77660114D01*
X206366685Y-77695828D01*
X206354780Y-77719638D01*
X206342876Y-77731542D01*
X206319066Y-77743447D01*
X206223828Y-77743447D01*
X206450019Y-77612495D02*
X206604780Y-77612495D01*
X206521447Y-77707733D01*
X206557161Y-77707733D01*
X206580971Y-77719638D01*
X206592876Y-77731542D01*
X206604780Y-77755352D01*
X206604780Y-77814876D01*
X206592876Y-77838685D01*
X206580971Y-77850590D01*
X206557161Y-77862495D01*
X206485733Y-77862495D01*
X206461923Y-77850590D01*
X206450019Y-77838685D01*
X206819066Y-77612495D02*
X206771447Y-77612495D01*
X206747638Y-77624400D01*
X206735733Y-77636304D01*
X206711923Y-77672019D01*
X206700019Y-77719638D01*
X206700019Y-77814876D01*
X206711923Y-77838685D01*
X206723828Y-77850590D01*
X206747638Y-77862495D01*
X206795257Y-77862495D01*
X206819066Y-77850590D01*
X206830971Y-77838685D01*
X206842876Y-77814876D01*
X206842876Y-77755352D01*
X206830971Y-77731542D01*
X206819066Y-77719638D01*
X206795257Y-77707733D01*
X206747638Y-77707733D01*
X206723828Y-77719638D01*
X206711923Y-77731542D01*
X206700019Y-77755352D01*
X209889202Y-69248671D02*
X209872366Y-69248671D01*
X209838695Y-69231835D01*
X209821859Y-69215000D01*
X209805023Y-69181328D01*
X209805023Y-69147656D01*
X209813441Y-69122402D01*
X209838695Y-69080312D01*
X209863948Y-69055059D01*
X209906038Y-69029805D01*
X209931292Y-69021387D01*
X209964964Y-69021387D01*
X209998635Y-69038223D01*
X210015471Y-69055059D01*
X210032307Y-69088730D01*
X210032307Y-69105566D01*
X209956546Y-69349687D02*
X209990217Y-69383358D01*
X210015471Y-69391776D01*
X210032307Y-69391776D01*
X210074397Y-69383358D01*
X210116487Y-69358104D01*
X210183830Y-69290761D01*
X210192248Y-69265507D01*
X210192248Y-69248671D01*
X210183830Y-69223417D01*
X210150158Y-69189746D01*
X210124904Y-69181328D01*
X210108069Y-69181328D01*
X210082815Y-69189746D01*
X210040725Y-69231835D01*
X210032307Y-69257089D01*
X210032307Y-69273925D01*
X210040725Y-69299179D01*
X210074397Y-69332851D01*
X210099651Y-69341269D01*
X210116487Y-69341269D01*
X210141740Y-69332851D01*
X203340085Y-76721866D02*
X203351990Y-76733771D01*
X203363895Y-76769485D01*
X203363895Y-76793295D01*
X203351990Y-76829009D01*
X203328180Y-76852819D01*
X203304371Y-76864723D01*
X203256752Y-76876628D01*
X203221038Y-76876628D01*
X203173419Y-76864723D01*
X203149609Y-76852819D01*
X203125800Y-76829009D01*
X203113895Y-76793295D01*
X203113895Y-76769485D01*
X203125800Y-76733771D01*
X203137704Y-76721866D01*
X203113895Y-76638533D02*
X203113895Y-76483771D01*
X203209133Y-76567104D01*
X203209133Y-76531390D01*
X203221038Y-76507580D01*
X203232942Y-76495676D01*
X203256752Y-76483771D01*
X203316276Y-76483771D01*
X203340085Y-76495676D01*
X203351990Y-76507580D01*
X203363895Y-76531390D01*
X203363895Y-76602819D01*
X203351990Y-76626628D01*
X203340085Y-76638533D01*
D14*
X212664657Y-87125142D02*
X212683704Y-87144190D01*
X212702752Y-87201333D01*
X212702752Y-87239428D01*
X212683704Y-87296571D01*
X212645609Y-87334666D01*
X212607514Y-87353714D01*
X212531323Y-87372761D01*
X212474180Y-87372761D01*
X212397990Y-87353714D01*
X212359895Y-87334666D01*
X212321800Y-87296571D01*
X212302752Y-87239428D01*
X212302752Y-87201333D01*
X212321800Y-87144190D01*
X212340847Y-87125142D01*
X212302752Y-86991809D02*
X212302752Y-86744190D01*
X212455133Y-86877523D01*
X212455133Y-86820380D01*
X212474180Y-86782285D01*
X212493228Y-86763238D01*
X212531323Y-86744190D01*
X212626561Y-86744190D01*
X212664657Y-86763238D01*
X212683704Y-86782285D01*
X212702752Y-86820380D01*
X212702752Y-86934666D01*
X212683704Y-86972761D01*
X212664657Y-86991809D01*
X212302752Y-86496571D02*
X212302752Y-86458476D01*
X212321800Y-86420380D01*
X212340847Y-86401333D01*
X212378942Y-86382285D01*
X212455133Y-86363238D01*
X212550371Y-86363238D01*
X212626561Y-86382285D01*
X212664657Y-86401333D01*
X212683704Y-86420380D01*
X212702752Y-86458476D01*
X212702752Y-86496571D01*
X212683704Y-86534666D01*
X212664657Y-86553714D01*
X212626561Y-86572761D01*
X212550371Y-86591809D01*
X212455133Y-86591809D01*
X212378942Y-86572761D01*
X212340847Y-86553714D01*
X212321800Y-86534666D01*
X212302752Y-86496571D01*
D15*
X218961085Y-78722914D02*
X218972990Y-78734819D01*
X218984895Y-78770533D01*
X218984895Y-78794342D01*
X218972990Y-78830057D01*
X218949180Y-78853866D01*
X218925371Y-78865771D01*
X218877752Y-78877676D01*
X218842038Y-78877676D01*
X218794419Y-78865771D01*
X218770609Y-78853866D01*
X218746800Y-78830057D01*
X218734895Y-78794342D01*
X218734895Y-78770533D01*
X218746800Y-78734819D01*
X218758704Y-78722914D01*
X218984895Y-78484819D02*
X218984895Y-78627676D01*
X218984895Y-78556247D02*
X218734895Y-78556247D01*
X218770609Y-78580057D01*
X218794419Y-78603866D01*
X218806323Y-78627676D01*
X218818228Y-78270533D02*
X218984895Y-78270533D01*
X218722990Y-78330057D02*
X218901561Y-78389580D01*
X218901561Y-78234819D01*
X219378085Y-84823685D02*
X219366180Y-84835590D01*
X219330466Y-84847495D01*
X219306657Y-84847495D01*
X219270942Y-84835590D01*
X219247133Y-84811780D01*
X219235228Y-84787971D01*
X219223323Y-84740352D01*
X219223323Y-84704638D01*
X219235228Y-84657019D01*
X219247133Y-84633209D01*
X219270942Y-84609400D01*
X219306657Y-84597495D01*
X219330466Y-84597495D01*
X219366180Y-84609400D01*
X219378085Y-84621304D01*
X219616180Y-84847495D02*
X219473323Y-84847495D01*
X219544752Y-84847495D02*
X219544752Y-84597495D01*
X219520942Y-84633209D01*
X219497133Y-84657019D01*
X219473323Y-84668923D01*
X219699514Y-84597495D02*
X219866180Y-84597495D01*
X219759038Y-84847495D01*
X199889685Y-67170685D02*
X199877780Y-67182590D01*
X199842066Y-67194495D01*
X199818257Y-67194495D01*
X199782542Y-67182590D01*
X199758733Y-67158780D01*
X199746828Y-67134971D01*
X199734923Y-67087352D01*
X199734923Y-67051638D01*
X199746828Y-67004019D01*
X199758733Y-66980209D01*
X199782542Y-66956400D01*
X199818257Y-66944495D01*
X199842066Y-66944495D01*
X199877780Y-66956400D01*
X199889685Y-66968304D01*
X200127780Y-67194495D02*
X199984923Y-67194495D01*
X200056352Y-67194495D02*
X200056352Y-66944495D01*
X200032542Y-66980209D01*
X200008733Y-67004019D01*
X199984923Y-67015923D01*
X200246828Y-67194495D02*
X200294447Y-67194495D01*
X200318257Y-67182590D01*
X200330161Y-67170685D01*
X200353971Y-67134971D01*
X200365876Y-67087352D01*
X200365876Y-66992114D01*
X200353971Y-66968304D01*
X200342066Y-66956400D01*
X200318257Y-66944495D01*
X200270638Y-66944495D01*
X200246828Y-66956400D01*
X200234923Y-66968304D01*
X200223019Y-66992114D01*
X200223019Y-67051638D01*
X200234923Y-67075447D01*
X200246828Y-67087352D01*
X200270638Y-67099257D01*
X200318257Y-67099257D01*
X200342066Y-67087352D01*
X200353971Y-67075447D01*
X200365876Y-67051638D01*
X200931085Y-58610885D02*
X200919180Y-58622790D01*
X200883466Y-58634695D01*
X200859657Y-58634695D01*
X200823942Y-58622790D01*
X200800133Y-58598980D01*
X200788228Y-58575171D01*
X200776323Y-58527552D01*
X200776323Y-58491838D01*
X200788228Y-58444219D01*
X200800133Y-58420409D01*
X200823942Y-58396600D01*
X200859657Y-58384695D01*
X200883466Y-58384695D01*
X200919180Y-58396600D01*
X200931085Y-58408504D01*
X201026323Y-58408504D02*
X201038228Y-58396600D01*
X201062038Y-58384695D01*
X201121561Y-58384695D01*
X201145371Y-58396600D01*
X201157276Y-58408504D01*
X201169180Y-58432314D01*
X201169180Y-58456123D01*
X201157276Y-58491838D01*
X201014419Y-58634695D01*
X201169180Y-58634695D01*
X201252514Y-58384695D02*
X201407276Y-58384695D01*
X201323942Y-58479933D01*
X201359657Y-58479933D01*
X201383466Y-58491838D01*
X201395371Y-58503742D01*
X201407276Y-58527552D01*
X201407276Y-58587076D01*
X201395371Y-58610885D01*
X201383466Y-58622790D01*
X201359657Y-58634695D01*
X201288228Y-58634695D01*
X201264419Y-58622790D01*
X201252514Y-58610885D01*
X210502885Y-76792514D02*
X210514790Y-76804419D01*
X210526695Y-76840133D01*
X210526695Y-76863942D01*
X210514790Y-76899657D01*
X210490980Y-76923466D01*
X210467171Y-76935371D01*
X210419552Y-76947276D01*
X210383838Y-76947276D01*
X210336219Y-76935371D01*
X210312409Y-76923466D01*
X210288600Y-76899657D01*
X210276695Y-76863942D01*
X210276695Y-76840133D01*
X210288600Y-76804419D01*
X210300504Y-76792514D01*
X210300504Y-76697276D02*
X210288600Y-76685371D01*
X210276695Y-76661561D01*
X210276695Y-76602038D01*
X210288600Y-76578228D01*
X210300504Y-76566323D01*
X210324314Y-76554419D01*
X210348123Y-76554419D01*
X210383838Y-76566323D01*
X210526695Y-76709180D01*
X210526695Y-76554419D01*
X210276695Y-76328228D02*
X210276695Y-76447276D01*
X210395742Y-76459180D01*
X210383838Y-76447276D01*
X210371933Y-76423466D01*
X210371933Y-76363942D01*
X210383838Y-76340133D01*
X210395742Y-76328228D01*
X210419552Y-76316323D01*
X210479076Y-76316323D01*
X210502885Y-76328228D01*
X210514790Y-76340133D01*
X210526695Y-76363942D01*
X210526695Y-76423466D01*
X210514790Y-76447276D01*
X210502885Y-76459180D01*
X207992285Y-72250685D02*
X207980380Y-72262590D01*
X207944666Y-72274495D01*
X207920857Y-72274495D01*
X207885142Y-72262590D01*
X207861333Y-72238780D01*
X207849428Y-72214971D01*
X207837523Y-72167352D01*
X207837523Y-72131638D01*
X207849428Y-72084019D01*
X207861333Y-72060209D01*
X207885142Y-72036400D01*
X207920857Y-72024495D01*
X207944666Y-72024495D01*
X207980380Y-72036400D01*
X207992285Y-72048304D01*
X208087523Y-72048304D02*
X208099428Y-72036400D01*
X208123238Y-72024495D01*
X208182761Y-72024495D01*
X208206571Y-72036400D01*
X208218476Y-72048304D01*
X208230380Y-72072114D01*
X208230380Y-72095923D01*
X208218476Y-72131638D01*
X208075619Y-72274495D01*
X208230380Y-72274495D01*
X208444666Y-72024495D02*
X208397047Y-72024495D01*
X208373238Y-72036400D01*
X208361333Y-72048304D01*
X208337523Y-72084019D01*
X208325619Y-72131638D01*
X208325619Y-72226876D01*
X208337523Y-72250685D01*
X208349428Y-72262590D01*
X208373238Y-72274495D01*
X208420857Y-72274495D01*
X208444666Y-72262590D01*
X208456571Y-72250685D01*
X208468476Y-72226876D01*
X208468476Y-72167352D01*
X208456571Y-72143542D01*
X208444666Y-72131638D01*
X208420857Y-72119733D01*
X208373238Y-72119733D01*
X208349428Y-72131638D01*
X208337523Y-72143542D01*
X208325619Y-72167352D01*
D14*
X204689057Y-76355542D02*
X204708104Y-76374590D01*
X204727152Y-76431733D01*
X204727152Y-76469828D01*
X204708104Y-76526971D01*
X204670009Y-76565066D01*
X204631914Y-76584114D01*
X204555723Y-76603161D01*
X204498580Y-76603161D01*
X204422390Y-76584114D01*
X204384295Y-76565066D01*
X204346200Y-76526971D01*
X204327152Y-76469828D01*
X204327152Y-76431733D01*
X204346200Y-76374590D01*
X204365247Y-76355542D01*
X204365247Y-76203161D02*
X204346200Y-76184114D01*
X204327152Y-76146019D01*
X204327152Y-76050780D01*
X204346200Y-76012685D01*
X204365247Y-75993638D01*
X204403342Y-75974590D01*
X204441438Y-75974590D01*
X204498580Y-75993638D01*
X204727152Y-76222209D01*
X204727152Y-75974590D01*
X204498580Y-75746019D02*
X204479533Y-75784114D01*
X204460485Y-75803161D01*
X204422390Y-75822209D01*
X204403342Y-75822209D01*
X204365247Y-75803161D01*
X204346200Y-75784114D01*
X204327152Y-75746019D01*
X204327152Y-75669828D01*
X204346200Y-75631733D01*
X204365247Y-75612685D01*
X204403342Y-75593638D01*
X204422390Y-75593638D01*
X204460485Y-75612685D01*
X204479533Y-75631733D01*
X204498580Y-75669828D01*
X204498580Y-75746019D01*
X204517628Y-75784114D01*
X204536676Y-75803161D01*
X204574771Y-75822209D01*
X204650961Y-75822209D01*
X204689057Y-75803161D01*
X204708104Y-75784114D01*
X204727152Y-75746019D01*
X204727152Y-75669828D01*
X204708104Y-75631733D01*
X204689057Y-75612685D01*
X204650961Y-75593638D01*
X204574771Y-75593638D01*
X204536676Y-75612685D01*
X204517628Y-75631733D01*
X204498580Y-75669828D01*
D15*
X205333985Y-80437414D02*
X205345890Y-80449319D01*
X205357795Y-80485033D01*
X205357795Y-80508842D01*
X205345890Y-80544557D01*
X205322080Y-80568366D01*
X205298271Y-80580271D01*
X205250652Y-80592176D01*
X205214938Y-80592176D01*
X205167319Y-80580271D01*
X205143509Y-80568366D01*
X205119700Y-80544557D01*
X205107795Y-80508842D01*
X205107795Y-80485033D01*
X205119700Y-80449319D01*
X205131604Y-80437414D01*
X205131604Y-80342176D02*
X205119700Y-80330271D01*
X205107795Y-80306461D01*
X205107795Y-80246938D01*
X205119700Y-80223128D01*
X205131604Y-80211223D01*
X205155414Y-80199319D01*
X205179223Y-80199319D01*
X205214938Y-80211223D01*
X205357795Y-80354080D01*
X205357795Y-80199319D01*
X205357795Y-80080271D02*
X205357795Y-80032652D01*
X205345890Y-80008842D01*
X205333985Y-79996938D01*
X205298271Y-79973128D01*
X205250652Y-79961223D01*
X205155414Y-79961223D01*
X205131604Y-79973128D01*
X205119700Y-79985033D01*
X205107795Y-80008842D01*
X205107795Y-80056461D01*
X205119700Y-80080271D01*
X205131604Y-80092176D01*
X205155414Y-80104080D01*
X205214938Y-80104080D01*
X205238747Y-80092176D01*
X205250652Y-80080271D01*
X205262557Y-80056461D01*
X205262557Y-80008842D01*
X205250652Y-79985033D01*
X205238747Y-79973128D01*
X205214938Y-79961223D01*
X225285685Y-58479114D02*
X225297590Y-58491019D01*
X225309495Y-58526733D01*
X225309495Y-58550542D01*
X225297590Y-58586257D01*
X225273780Y-58610066D01*
X225249971Y-58621971D01*
X225202352Y-58633876D01*
X225166638Y-58633876D01*
X225119019Y-58621971D01*
X225095209Y-58610066D01*
X225071400Y-58586257D01*
X225059495Y-58550542D01*
X225059495Y-58526733D01*
X225071400Y-58491019D01*
X225083304Y-58479114D01*
X225083304Y-58383876D02*
X225071400Y-58371971D01*
X225059495Y-58348161D01*
X225059495Y-58288638D01*
X225071400Y-58264828D01*
X225083304Y-58252923D01*
X225107114Y-58241019D01*
X225130923Y-58241019D01*
X225166638Y-58252923D01*
X225309495Y-58395780D01*
X225309495Y-58241019D01*
X225059495Y-58157685D02*
X225059495Y-57991019D01*
X225309495Y-58098161D01*
D12*
X198921380Y-67921095D02*
X197921380Y-67921095D01*
X197921380Y-67683000D01*
X197969000Y-67540142D01*
X198064238Y-67444904D01*
X198159476Y-67397285D01*
X198349952Y-67349666D01*
X198492809Y-67349666D01*
X198683285Y-67397285D01*
X198778523Y-67444904D01*
X198873761Y-67540142D01*
X198921380Y-67683000D01*
X198921380Y-67921095D01*
X197921380Y-66492523D02*
X197921380Y-66683000D01*
X197969000Y-66778238D01*
X198016619Y-66825857D01*
X198159476Y-66921095D01*
X198349952Y-66968714D01*
X198730904Y-66968714D01*
X198826142Y-66921095D01*
X198873761Y-66873476D01*
X198921380Y-66778238D01*
X198921380Y-66587761D01*
X198873761Y-66492523D01*
X198826142Y-66444904D01*
X198730904Y-66397285D01*
X198492809Y-66397285D01*
X198397571Y-66444904D01*
X198349952Y-66492523D01*
X198302333Y-66587761D01*
X198302333Y-66778238D01*
X198349952Y-66873476D01*
X198397571Y-66921095D01*
X198492809Y-66968714D01*
X223718380Y-77420695D02*
X222718380Y-77420695D01*
X222718380Y-77182600D01*
X222766000Y-77039742D01*
X222861238Y-76944504D01*
X222956476Y-76896885D01*
X223146952Y-76849266D01*
X223289809Y-76849266D01*
X223480285Y-76896885D01*
X223575523Y-76944504D01*
X223670761Y-77039742D01*
X223718380Y-77182600D01*
X223718380Y-77420695D01*
X223718380Y-76373076D02*
X223718380Y-76182600D01*
X223670761Y-76087361D01*
X223623142Y-76039742D01*
X223480285Y-75944504D01*
X223289809Y-75896885D01*
X222908857Y-75896885D01*
X222813619Y-75944504D01*
X222766000Y-75992123D01*
X222718380Y-76087361D01*
X222718380Y-76277838D01*
X222766000Y-76373076D01*
X222813619Y-76420695D01*
X222908857Y-76468314D01*
X223146952Y-76468314D01*
X223242190Y-76420695D01*
X223289809Y-76373076D01*
X223337428Y-76277838D01*
X223337428Y-76087361D01*
X223289809Y-75992123D01*
X223242190Y-75944504D01*
X223146952Y-75896885D01*
X223718380Y-80335285D02*
X222718380Y-80335285D01*
X222718380Y-80097190D01*
X222766000Y-79954333D01*
X222861238Y-79859095D01*
X222956476Y-79811476D01*
X223146952Y-79763857D01*
X223289809Y-79763857D01*
X223480285Y-79811476D01*
X223575523Y-79859095D01*
X223670761Y-79954333D01*
X223718380Y-80097190D01*
X223718380Y-80335285D01*
X223718380Y-78811476D02*
X223718380Y-79382904D01*
X223718380Y-79097190D02*
X222718380Y-79097190D01*
X222861238Y-79192428D01*
X222956476Y-79287666D01*
X223004095Y-79382904D01*
X222718380Y-78192428D02*
X222718380Y-78097190D01*
X222766000Y-78001952D01*
X222813619Y-77954333D01*
X222908857Y-77906714D01*
X223099333Y-77859095D01*
X223337428Y-77859095D01*
X223527904Y-77906714D01*
X223623142Y-77954333D01*
X223670761Y-78001952D01*
X223718380Y-78097190D01*
X223718380Y-78192428D01*
X223670761Y-78287666D01*
X223623142Y-78335285D01*
X223527904Y-78382904D01*
X223337428Y-78430523D01*
X223099333Y-78430523D01*
X222908857Y-78382904D01*
X222813619Y-78335285D01*
X222766000Y-78287666D01*
X222718380Y-78192428D01*
D16*
X216550904Y-72479695D02*
X216550904Y-72717790D01*
X216384238Y-72217790D02*
X216550904Y-72479695D01*
X216717571Y-72217790D01*
X217146142Y-72717790D02*
X216860428Y-72717790D01*
X217003285Y-72717790D02*
X217003285Y-72217790D01*
X216955666Y-72289219D01*
X216908047Y-72336838D01*
X216860428Y-72360647D01*
D11*
X190557114Y-62109285D02*
X190595209Y-62147380D01*
X190633304Y-62261666D01*
X190633304Y-62337857D01*
X190595209Y-62452142D01*
X190519019Y-62528333D01*
X190442828Y-62566428D01*
X190290447Y-62604523D01*
X190176161Y-62604523D01*
X190023780Y-62566428D01*
X189947590Y-62528333D01*
X189871400Y-62452142D01*
X189833304Y-62337857D01*
X189833304Y-62261666D01*
X189871400Y-62147380D01*
X189909495Y-62109285D01*
X189833304Y-61842619D02*
X189833304Y-61347380D01*
X190138066Y-61614047D01*
X190138066Y-61499761D01*
X190176161Y-61423571D01*
X190214257Y-61385476D01*
X190290447Y-61347380D01*
X190480923Y-61347380D01*
X190557114Y-61385476D01*
X190595209Y-61423571D01*
X190633304Y-61499761D01*
X190633304Y-61728333D01*
X190595209Y-61804523D01*
X190557114Y-61842619D01*
X190633304Y-60585476D02*
X190633304Y-61042619D01*
X190633304Y-60814047D02*
X189833304Y-60814047D01*
X189947590Y-60890238D01*
X190023780Y-60966428D01*
X190061876Y-61042619D01*
X222167514Y-66173314D02*
X222129419Y-66211409D01*
X222015133Y-66249504D01*
X221938942Y-66249504D01*
X221824657Y-66211409D01*
X221748466Y-66135219D01*
X221710371Y-66059028D01*
X221672276Y-65906647D01*
X221672276Y-65792361D01*
X221710371Y-65639980D01*
X221748466Y-65563790D01*
X221824657Y-65487600D01*
X221938942Y-65449504D01*
X222015133Y-65449504D01*
X222129419Y-65487600D01*
X222167514Y-65525695D01*
X222434180Y-65449504D02*
X222929419Y-65449504D01*
X222662752Y-65754266D01*
X222777038Y-65754266D01*
X222853228Y-65792361D01*
X222891323Y-65830457D01*
X222929419Y-65906647D01*
X222929419Y-66097123D01*
X222891323Y-66173314D01*
X222853228Y-66211409D01*
X222777038Y-66249504D01*
X222548466Y-66249504D01*
X222472276Y-66211409D01*
X222434180Y-66173314D01*
X223234180Y-65525695D02*
X223272276Y-65487600D01*
X223348466Y-65449504D01*
X223538942Y-65449504D01*
X223615133Y-65487600D01*
X223653228Y-65525695D01*
X223691323Y-65601885D01*
X223691323Y-65678076D01*
X223653228Y-65792361D01*
X223196085Y-66249504D01*
X223691323Y-66249504D01*
D16*
X198292209Y-78127219D02*
X198268400Y-78174838D01*
X198220780Y-78222457D01*
X198149352Y-78293885D01*
X198125542Y-78341504D01*
X198125542Y-78389123D01*
X198244590Y-78365314D02*
X198220780Y-78412933D01*
X198173161Y-78460552D01*
X198077923Y-78484361D01*
X197911257Y-78484361D01*
X197816019Y-78460552D01*
X197768400Y-78412933D01*
X197744590Y-78365314D01*
X197744590Y-78270076D01*
X197768400Y-78222457D01*
X197816019Y-78174838D01*
X197911257Y-78151028D01*
X198077923Y-78151028D01*
X198173161Y-78174838D01*
X198220780Y-78222457D01*
X198244590Y-78270076D01*
X198244590Y-78365314D01*
X198244590Y-77674838D02*
X198244590Y-77960552D01*
X198244590Y-77817695D02*
X197744590Y-77817695D01*
X197816019Y-77865314D01*
X197863638Y-77912933D01*
X197887447Y-77960552D01*
D12*
X208330857Y-82653228D02*
X208330857Y-83138942D01*
X208359428Y-83196085D01*
X208388000Y-83224657D01*
X208445142Y-83253228D01*
X208559428Y-83253228D01*
X208616571Y-83224657D01*
X208645142Y-83196085D01*
X208673714Y-83138942D01*
X208673714Y-82653228D01*
X208902285Y-82653228D02*
X209273714Y-82653228D01*
X209073714Y-82881800D01*
X209159428Y-82881800D01*
X209216571Y-82910371D01*
X209245142Y-82938942D01*
X209273714Y-82996085D01*
X209273714Y-83138942D01*
X209245142Y-83196085D01*
X209216571Y-83224657D01*
X209159428Y-83253228D01*
X208988000Y-83253228D01*
X208930857Y-83224657D01*
X208902285Y-83196085D01*
D16*
X199313847Y-62667390D02*
X199313847Y-63072152D01*
X199337657Y-63119771D01*
X199361466Y-63143580D01*
X199409085Y-63167390D01*
X199504323Y-63167390D01*
X199551942Y-63143580D01*
X199575752Y-63119771D01*
X199599561Y-63072152D01*
X199599561Y-62667390D01*
X200051942Y-62834057D02*
X200051942Y-63167390D01*
X199932895Y-62643580D02*
X199813847Y-63000723D01*
X200123371Y-63000723D01*
X193014647Y-62591190D02*
X193014647Y-62995952D01*
X193038457Y-63043571D01*
X193062266Y-63067380D01*
X193109885Y-63091190D01*
X193205123Y-63091190D01*
X193252742Y-63067380D01*
X193276552Y-63043571D01*
X193300361Y-62995952D01*
X193300361Y-62591190D01*
X193776552Y-62591190D02*
X193538457Y-62591190D01*
X193514647Y-62829285D01*
X193538457Y-62805476D01*
X193586076Y-62781666D01*
X193705123Y-62781666D01*
X193752742Y-62805476D01*
X193776552Y-62829285D01*
X193800361Y-62876904D01*
X193800361Y-62995952D01*
X193776552Y-63043571D01*
X193752742Y-63067380D01*
X193705123Y-63091190D01*
X193586076Y-63091190D01*
X193538457Y-63067380D01*
X193514647Y-63043571D01*
X200436990Y-71653352D02*
X200841752Y-71653352D01*
X200889371Y-71629542D01*
X200913180Y-71605733D01*
X200936990Y-71558114D01*
X200936990Y-71462876D01*
X200913180Y-71415257D01*
X200889371Y-71391447D01*
X200841752Y-71367638D01*
X200436990Y-71367638D01*
X200436990Y-71177161D02*
X200436990Y-70843828D01*
X200936990Y-71058114D01*
X222275447Y-61473590D02*
X222275447Y-61878352D01*
X222299257Y-61925971D01*
X222323066Y-61949780D01*
X222370685Y-61973590D01*
X222465923Y-61973590D01*
X222513542Y-61949780D01*
X222537352Y-61925971D01*
X222561161Y-61878352D01*
X222561161Y-61473590D01*
X222823066Y-61973590D02*
X222918304Y-61973590D01*
X222965923Y-61949780D01*
X222989733Y-61925971D01*
X223037352Y-61854542D01*
X223061161Y-61759304D01*
X223061161Y-61568828D01*
X223037352Y-61521209D01*
X223013542Y-61497400D01*
X222965923Y-61473590D01*
X222870685Y-61473590D01*
X222823066Y-61497400D01*
X222799257Y-61521209D01*
X222775447Y-61568828D01*
X222775447Y-61687876D01*
X222799257Y-61735495D01*
X222823066Y-61759304D01*
X222870685Y-61783114D01*
X222965923Y-61783114D01*
X223013542Y-61759304D01*
X223037352Y-61735495D01*
X223061161Y-61687876D01*
X193248790Y-59521647D02*
X193653552Y-59521647D01*
X193701171Y-59497838D01*
X193724980Y-59474028D01*
X193748790Y-59426409D01*
X193748790Y-59331171D01*
X193724980Y-59283552D01*
X193701171Y-59259742D01*
X193653552Y-59235933D01*
X193248790Y-59235933D01*
X193748790Y-58735933D02*
X193748790Y-59021647D01*
X193748790Y-58878790D02*
X193248790Y-58878790D01*
X193320219Y-58926409D01*
X193367838Y-58974028D01*
X193391647Y-59021647D01*
X193248790Y-58426409D02*
X193248790Y-58378790D01*
X193272600Y-58331171D01*
X193296409Y-58307361D01*
X193344028Y-58283552D01*
X193439266Y-58259742D01*
X193558314Y-58259742D01*
X193653552Y-58283552D01*
X193701171Y-58307361D01*
X193724980Y-58331171D01*
X193748790Y-58378790D01*
X193748790Y-58426409D01*
X193724980Y-58474028D01*
X193701171Y-58497838D01*
X193653552Y-58521647D01*
X193558314Y-58545457D01*
X193439266Y-58545457D01*
X193344028Y-58521647D01*
X193296409Y-58497838D01*
X193272600Y-58474028D01*
X193248790Y-58426409D01*
X222407990Y-58480247D02*
X222812752Y-58480247D01*
X222860371Y-58456438D01*
X222884180Y-58432628D01*
X222907990Y-58385009D01*
X222907990Y-58289771D01*
X222884180Y-58242152D01*
X222860371Y-58218342D01*
X222812752Y-58194533D01*
X222407990Y-58194533D01*
X222907990Y-57694533D02*
X222907990Y-57980247D01*
X222907990Y-57837390D02*
X222407990Y-57837390D01*
X222479419Y-57885009D01*
X222527038Y-57932628D01*
X222550847Y-57980247D01*
X222907990Y-57218342D02*
X222907990Y-57504057D01*
X222907990Y-57361200D02*
X222407990Y-57361200D01*
X222479419Y-57408819D01*
X222527038Y-57456438D01*
X222550847Y-57504057D01*
D12*
X218994123Y-55511714D02*
X218994123Y-56178380D01*
X218756028Y-55130761D02*
X218517933Y-55845047D01*
X219136980Y-55845047D01*
X219422695Y-55178380D02*
X220089361Y-55178380D01*
X219660790Y-56178380D01*
X220470314Y-56178380D02*
X220470314Y-55178380D01*
X220565552Y-55797428D02*
X220851266Y-56178380D01*
X220851266Y-55511714D02*
X220470314Y-55892666D01*
D15*
X219642933Y-57009095D02*
X219559600Y-56890047D01*
X219500076Y-57009095D02*
X219500076Y-56759095D01*
X219595314Y-56759095D01*
X219619123Y-56771000D01*
X219631028Y-56782904D01*
X219642933Y-56806714D01*
X219642933Y-56842428D01*
X219631028Y-56866238D01*
X219619123Y-56878142D01*
X219595314Y-56890047D01*
X219500076Y-56890047D01*
X219785790Y-56866238D02*
X219761980Y-56854333D01*
X219750076Y-56842428D01*
X219738171Y-56818619D01*
X219738171Y-56806714D01*
X219750076Y-56782904D01*
X219761980Y-56771000D01*
X219785790Y-56759095D01*
X219833409Y-56759095D01*
X219857219Y-56771000D01*
X219869123Y-56782904D01*
X219881028Y-56806714D01*
X219881028Y-56818619D01*
X219869123Y-56842428D01*
X219857219Y-56854333D01*
X219833409Y-56866238D01*
X219785790Y-56866238D01*
X219761980Y-56878142D01*
X219750076Y-56890047D01*
X219738171Y-56913857D01*
X219738171Y-56961476D01*
X219750076Y-56985285D01*
X219761980Y-56997190D01*
X219785790Y-57009095D01*
X219833409Y-57009095D01*
X219857219Y-56997190D01*
X219869123Y-56985285D01*
X219881028Y-56961476D01*
X219881028Y-56913857D01*
X219869123Y-56890047D01*
X219857219Y-56878142D01*
X219833409Y-56866238D01*
D12*
X218994123Y-56502314D02*
X218994123Y-57168980D01*
X218756028Y-56121361D02*
X218517933Y-56835647D01*
X219136980Y-56835647D01*
X219422695Y-56168980D02*
X220089361Y-56168980D01*
X219660790Y-57168980D01*
X220470314Y-57168980D02*
X220470314Y-56168980D01*
X220565552Y-56788028D02*
X220851266Y-57168980D01*
X220851266Y-56502314D02*
X220470314Y-56883266D01*
D15*
X219642933Y-57999695D02*
X219559600Y-57880647D01*
X219500076Y-57999695D02*
X219500076Y-57749695D01*
X219595314Y-57749695D01*
X219619123Y-57761600D01*
X219631028Y-57773504D01*
X219642933Y-57797314D01*
X219642933Y-57833028D01*
X219631028Y-57856838D01*
X219619123Y-57868742D01*
X219595314Y-57880647D01*
X219500076Y-57880647D01*
X219761980Y-57999695D02*
X219809600Y-57999695D01*
X219833409Y-57987790D01*
X219845314Y-57975885D01*
X219869123Y-57940171D01*
X219881028Y-57892552D01*
X219881028Y-57797314D01*
X219869123Y-57773504D01*
X219857219Y-57761600D01*
X219833409Y-57749695D01*
X219785790Y-57749695D01*
X219761980Y-57761600D01*
X219750076Y-57773504D01*
X219738171Y-57797314D01*
X219738171Y-57856838D01*
X219750076Y-57880647D01*
X219761980Y-57892552D01*
X219785790Y-57904457D01*
X219833409Y-57904457D01*
X219857219Y-57892552D01*
X219869123Y-57880647D01*
X219881028Y-57856838D01*
D10*
X227784790Y-69203047D02*
X227284790Y-69203047D01*
X227284790Y-69084000D01*
X227308600Y-69012571D01*
X227356219Y-68964952D01*
X227403838Y-68941142D01*
X227499076Y-68917333D01*
X227570504Y-68917333D01*
X227665742Y-68941142D01*
X227713361Y-68964952D01*
X227760980Y-69012571D01*
X227784790Y-69084000D01*
X227784790Y-69203047D01*
X227784790Y-68441142D02*
X227784790Y-68726857D01*
X227784790Y-68584000D02*
X227284790Y-68584000D01*
X227356219Y-68631619D01*
X227403838Y-68679238D01*
X227427647Y-68726857D01*
D12*
X213635882Y-58264758D02*
X213972599Y-58601475D01*
X213366508Y-58399445D02*
X214309317Y-57928040D01*
X213837912Y-58870849D01*
X214679706Y-58298430D02*
X215083767Y-58702491D01*
X214174630Y-59207567D02*
X214881737Y-58500460D01*
X214612362Y-59577956D02*
X214679706Y-59712643D01*
X214848065Y-59881002D01*
X214949080Y-59914674D01*
X215016424Y-59914674D01*
X215117439Y-59881002D01*
X215184782Y-59813659D01*
X215218454Y-59712643D01*
X215218454Y-59645300D01*
X215184782Y-59544285D01*
X215083767Y-59375926D01*
X215050095Y-59274911D01*
X215050095Y-59207567D01*
X215083767Y-59106552D01*
X215151111Y-59039208D01*
X215252126Y-59005536D01*
X215319469Y-59005536D01*
X215420485Y-59039208D01*
X215588843Y-59207567D01*
X215656187Y-59342254D01*
X215454156Y-60083033D02*
X215790874Y-60419750D01*
X215184782Y-60217720D02*
X216127591Y-59746315D01*
X215656187Y-60689124D01*
X215891889Y-60924826D02*
X216598996Y-60217720D01*
X216329622Y-60958498D01*
X217070400Y-60689124D01*
X216363294Y-61396231D01*
X216700011Y-61732948D02*
X217407118Y-61025842D01*
X217575477Y-61194200D01*
X217642820Y-61328887D01*
X217642820Y-61463574D01*
X217609148Y-61564590D01*
X217508133Y-61732948D01*
X217407118Y-61833964D01*
X217238759Y-61934979D01*
X217137744Y-61968651D01*
X217003057Y-61968651D01*
X216868370Y-61901307D01*
X216700011Y-61732948D01*
X218013209Y-61766620D02*
X218080553Y-61766620D01*
X218181568Y-61800292D01*
X218349927Y-61968651D01*
X218383599Y-62069666D01*
X218383599Y-62137009D01*
X218349927Y-62238025D01*
X218282583Y-62305368D01*
X218147896Y-62372712D01*
X217339774Y-62372712D01*
X217777507Y-62810444D01*
X218450942Y-63483879D02*
X218046881Y-63079818D01*
X218248912Y-63281849D02*
X218956018Y-62574742D01*
X218787660Y-62608414D01*
X218652973Y-62608414D01*
X218551957Y-62574742D01*
X219797812Y-63483879D02*
X219764140Y-63382864D01*
X219663125Y-63281849D01*
X219528438Y-63214505D01*
X219393751Y-63214505D01*
X219292736Y-63248177D01*
X219124377Y-63349192D01*
X219023362Y-63450208D01*
X218922347Y-63618566D01*
X218888675Y-63719582D01*
X218888675Y-63854269D01*
X218956018Y-63988956D01*
X219023362Y-64056299D01*
X219158049Y-64123643D01*
X219225392Y-64123643D01*
X219461095Y-63887940D01*
X219326408Y-63753253D01*
X219831484Y-64864421D02*
X219427423Y-64460360D01*
X219629453Y-64662391D02*
X220336560Y-63955284D01*
X220168201Y-63988956D01*
X220033514Y-63988956D01*
X219932499Y-63955284D01*
X220639606Y-64864421D02*
X220605934Y-64763406D01*
X220605934Y-64696062D01*
X220639606Y-64595047D01*
X220673278Y-64561375D01*
X220774293Y-64527704D01*
X220841637Y-64527704D01*
X220942652Y-64561375D01*
X221077339Y-64696062D01*
X221111011Y-64797078D01*
X221111011Y-64864421D01*
X221077339Y-64965437D01*
X221043667Y-64999108D01*
X220942652Y-65032780D01*
X220875308Y-65032780D01*
X220774293Y-64999108D01*
X220639606Y-64864421D01*
X220538591Y-64830750D01*
X220471247Y-64830750D01*
X220370232Y-64864421D01*
X220235545Y-64999108D01*
X220201873Y-65100124D01*
X220201873Y-65167467D01*
X220235545Y-65268482D01*
X220370232Y-65403169D01*
X220471247Y-65436841D01*
X220538591Y-65436841D01*
X220639606Y-65403169D01*
X220774293Y-65268482D01*
X220807965Y-65167467D01*
X220807965Y-65100124D01*
X220774293Y-64999108D01*
X220976324Y-65605200D02*
X221313041Y-65941917D01*
X220706950Y-65739887D02*
X221649759Y-65268482D01*
X221178354Y-66211291D01*
X214046677Y-64453626D02*
X213474257Y-65026046D01*
X213440585Y-65127061D01*
X213440585Y-65194405D01*
X213474257Y-65295420D01*
X213608944Y-65430107D01*
X213709959Y-65463779D01*
X213777303Y-65463779D01*
X213878318Y-65430107D01*
X214450738Y-64857687D01*
X214450738Y-66271901D02*
X214046677Y-65867840D01*
X214248707Y-66069870D02*
X214955814Y-65362764D01*
X214787455Y-65396435D01*
X214652768Y-65396435D01*
X214551753Y-65362764D01*
X228043180Y-81806133D02*
X228757466Y-81806133D01*
X228900323Y-81853752D01*
X228995561Y-81948990D01*
X229043180Y-82091847D01*
X229043180Y-82187085D01*
X228376514Y-80901371D02*
X229043180Y-80901371D01*
X227995561Y-81139466D02*
X228709847Y-81377561D01*
X228709847Y-80758514D01*
X228043180Y-76243533D02*
X228757466Y-76243533D01*
X228900323Y-76291152D01*
X228995561Y-76386390D01*
X229043180Y-76529247D01*
X229043180Y-76624485D01*
X228043180Y-75291152D02*
X228043180Y-75767342D01*
X228519371Y-75814961D01*
X228471752Y-75767342D01*
X228424133Y-75672104D01*
X228424133Y-75434009D01*
X228471752Y-75338771D01*
X228519371Y-75291152D01*
X228614609Y-75243533D01*
X228852704Y-75243533D01*
X228947942Y-75291152D01*
X228995561Y-75338771D01*
X229043180Y-75434009D01*
X229043180Y-75672104D01*
X228995561Y-75767342D01*
X228947942Y-75814961D01*
M02*
