M48
; DRILL file {KiCad (5.1.6)-1} date 10/15/20 10:09:21
; FORMAT={3:3/ absolute / metric / suppress leading zeros}
; #@! TF.CreationDate,2020-10-15T10:09:21+02:00
; #@! TF.GenerationSoftware,Kicad,Pcbnew,(5.1.6)-1
; #@! TF.FileFunction,Plated,1,4,PTH
FMAT,2
METRIC,TZ
T1C0.300
T2C0.500
T3C0.600
T4C0.650
T5C0.800
T6C1.500
T7C2.500
%
G90
G05
T1
X191498Y-69875
X191498Y-72161
X192065Y-65919
X193269Y-69317
X193548Y-57963
X193904Y-55793
X194310Y-75946
X194335Y-63068
X194462Y-77038
X194698Y-73355
X194767Y-69266
X195072Y-78181
X195097Y-64821
X195809Y-60884
X195834Y-74422
X196494Y-50800
X196494Y-54548
X196850Y-66700
X196952Y-59461
X197104Y-80823
X197340Y-83490
X197619Y-80245
X197714Y-69240
X197721Y-57175
X197764Y-50800
X197764Y-54548
X197891Y-74549
X198247Y-71907
X198272Y-80874
X198737Y-83490
X199034Y-50800
X199034Y-54400
X199568Y-69088
X200304Y-50800
X200355Y-54369
X200457Y-78080
X200482Y-75986
X200482Y-79070
X200609Y-70307
X200660Y-71298
X200787Y-74930
X201574Y-50800
X201574Y-54400
X202159Y-69190
X202159Y-75387
X202166Y-66700
X202844Y-50800
X202844Y-54400
X202971Y-68470
X203251Y-69190
X203327Y-74930
X204114Y-50800
X204114Y-54400
X204140Y-74117
X204140Y-68605
X204165Y-74955
X204198Y-66700
X204775Y-70663
X205156Y-67081
X205188Y-81648
X205384Y-50800
X205384Y-54400
X205638Y-83490
X205969Y-86081
X206045Y-76810
X206096Y-79248
X206484Y-58572
X206484Y-60477
X206484Y-62509
X206484Y-64668
X206654Y-50800
X206654Y-54400
X207137Y-74676
X207137Y-75438
X207515Y-65377
X207518Y-69469
X207594Y-64097
X207670Y-79324
X207899Y-74676
X207899Y-75438
X207924Y-50800
X207924Y-54400
X208305Y-64694
X208483Y-68580
X208610Y-64008
X208686Y-78816
X208763Y-81890
X208915Y-83947
X209194Y-50800
X209194Y-54400
X209296Y-76835
X209423Y-78689
X210058Y-81509
X210312Y-72771
X210464Y-50800
X210464Y-54400
X210731Y-58953
X210947Y-78715
X210947Y-85344
X211136Y-69799
X211183Y-65405
X211582Y-81331
X211587Y-78831
X211658Y-75844
X211734Y-50800
X211734Y-54400
X212471Y-79883
X212474Y-56791
X212522Y-60985
X212547Y-73127
X212598Y-74295
X213004Y-50800
X213004Y-54400
X213335Y-56820
X213462Y-85446
X213805Y-59703
X214147Y-56845
X214173Y-70434
X214180Y-62255
X214180Y-65405
X214180Y-68224
X214274Y-50800
X214274Y-54400
X214478Y-60071
X214655Y-56337
X214884Y-74295
X215062Y-87655
X215417Y-57201
X215544Y-50800
X215544Y-54400
X215570Y-80975
X215621Y-83744
X215849Y-82906
X216179Y-57887
X216459Y-69825
X216814Y-50800
X216814Y-54400
X217094Y-56566
X217152Y-65405
X217297Y-81915
X217424Y-88392
X217805Y-62840
X217932Y-60350
X217932Y-74295
X218034Y-77775
X218084Y-50800
X218084Y-54381
X218288Y-87020
X218313Y-69037
X218313Y-70485
X218415Y-56667
X218557Y-67454
X218745Y-83210
X219024Y-63525
X219126Y-67045
X219354Y-50800
X219354Y-54400
X220063Y-56162
X220228Y-67376
X220548Y-59030
X220599Y-88392
X220624Y-50800
X220624Y-54400
X221024Y-63940
X221234Y-84099
X221666Y-63830
X221666Y-68682
X221717Y-61849
X222707Y-56921
X224358Y-64160
X225196Y-59639
X225323Y-64135
X225958Y-61366
X226684Y-72122
T2
X224659Y-87596
X225208Y-86270
X225208Y-88922
X226534Y-85721
X226534Y-89471
X227860Y-86270
X227860Y-88922
X228409Y-87596
X188659Y-87596
X189208Y-86270
X189208Y-88922
X190534Y-85721
X190534Y-89471
X191860Y-86270
X191860Y-88922
X192409Y-87596
X224841Y-75280
X224841Y-76530
X224659Y-51596
X225208Y-50270
X225208Y-52922
X226534Y-49721
X226534Y-53471
X227860Y-50270
X227860Y-52922
X228409Y-51596
X188659Y-51596
X189208Y-50270
X189208Y-52922
X190534Y-49721
X190534Y-53471
X191860Y-50270
X191860Y-52922
X192409Y-51596
X208083Y-87884
X209333Y-87884
X224841Y-80843
X224841Y-82093
T4
X204470Y-82525
X204470Y-83795
X189205Y-65405
X189205Y-66675
X189205Y-67945
X189205Y-69215
X189205Y-70485
T5
X189738Y-77284
X189738Y-79284
X189738Y-81284
T6
X189738Y-75184
X189738Y-83384
T7
X226534Y-87596
X190534Y-87596
X226534Y-51596
X190534Y-51596
T3
G00X193836Y-86671
M15
G01X193836Y-87271
M16
G05
G00X193840Y-82241
M15
G01X193840Y-83341
M16
G05
G00X202476Y-86671
M15
G01X202476Y-87271
M16
G05
G00X202480Y-82241
M15
G01X202480Y-83341
M16
G05
T0
M30
