G04 #@! TF.GenerationSoftware,KiCad,Pcbnew,(5.1.6)-1*
G04 #@! TF.CreationDate,2020-11-06T20:37:42+01:00*
G04 #@! TF.ProjectId,DynOSSAT-EDU-EPS,44796e4f-5353-4415-942d-4544552d4550,rev?*
G04 #@! TF.SameCoordinates,Original*
G04 #@! TF.FileFunction,Legend,Top*
G04 #@! TF.FilePolarity,Positive*
%FSLAX46Y46*%
G04 Gerber Fmt 4.6, Leading zero omitted, Abs format (unit mm)*
G04 Created by KiCad (PCBNEW (5.1.6)-1) date 2020-11-06 20:37:42*
%MOMM*%
%LPD*%
G01*
G04 APERTURE LIST*
%ADD10C,0.125000*%
%ADD11C,0.150000*%
%ADD12C,0.120000*%
%ADD13C,0.100000*%
G04 APERTURE END LIST*
D10*
X189042895Y-55353733D02*
X189280990Y-55353733D01*
X188995276Y-55496590D02*
X189161942Y-54996590D01*
X189328609Y-55496590D01*
X189780990Y-55496590D02*
X189614323Y-55258495D01*
X189495276Y-55496590D02*
X189495276Y-54996590D01*
X189685752Y-54996590D01*
X189733371Y-55020400D01*
X189757180Y-55044209D01*
X189780990Y-55091828D01*
X189780990Y-55163257D01*
X189757180Y-55210876D01*
X189733371Y-55234685D01*
X189685752Y-55258495D01*
X189495276Y-55258495D01*
X189995276Y-55234685D02*
X190161942Y-55234685D01*
X190233371Y-55496590D02*
X189995276Y-55496590D01*
X189995276Y-54996590D01*
X190233371Y-54996590D01*
X190614323Y-55234685D02*
X190447657Y-55234685D01*
X190447657Y-55496590D02*
X190447657Y-54996590D01*
X190685752Y-54996590D01*
X190757180Y-55544209D02*
X191138133Y-55544209D01*
X191352419Y-54996590D02*
X191447657Y-54996590D01*
X191495276Y-55020400D01*
X191542895Y-55068019D01*
X191566704Y-55163257D01*
X191566704Y-55329923D01*
X191542895Y-55425161D01*
X191495276Y-55472780D01*
X191447657Y-55496590D01*
X191352419Y-55496590D01*
X191304800Y-55472780D01*
X191257180Y-55425161D01*
X191233371Y-55329923D01*
X191233371Y-55163257D01*
X191257180Y-55068019D01*
X191304800Y-55020400D01*
X191352419Y-54996590D01*
X191947657Y-55234685D02*
X192019085Y-55258495D01*
X192042895Y-55282304D01*
X192066704Y-55329923D01*
X192066704Y-55401352D01*
X192042895Y-55448971D01*
X192019085Y-55472780D01*
X191971466Y-55496590D01*
X191780990Y-55496590D01*
X191780990Y-54996590D01*
X191947657Y-54996590D01*
X191995276Y-55020400D01*
X192019085Y-55044209D01*
X192042895Y-55091828D01*
X192042895Y-55139447D01*
X192019085Y-55187066D01*
X191995276Y-55210876D01*
X191947657Y-55234685D01*
X191780990Y-55234685D01*
X192566704Y-55448971D02*
X192542895Y-55472780D01*
X192471466Y-55496590D01*
X192423847Y-55496590D01*
X192352419Y-55472780D01*
X192304800Y-55425161D01*
X192280990Y-55377542D01*
X192257180Y-55282304D01*
X192257180Y-55210876D01*
X192280990Y-55115638D01*
X192304800Y-55068019D01*
X192352419Y-55020400D01*
X192423847Y-54996590D01*
X192471466Y-54996590D01*
X192542895Y-55020400D01*
X192566704Y-55044209D01*
X217325628Y-89292085D02*
X217297057Y-89320657D01*
X217211342Y-89349228D01*
X217154200Y-89349228D01*
X217068485Y-89320657D01*
X217011342Y-89263514D01*
X216982771Y-89206371D01*
X216954200Y-89092085D01*
X216954200Y-89006371D01*
X216982771Y-88892085D01*
X217011342Y-88834942D01*
X217068485Y-88777800D01*
X217154200Y-88749228D01*
X217211342Y-88749228D01*
X217297057Y-88777800D01*
X217325628Y-88806371D01*
X217582771Y-89349228D02*
X217582771Y-88749228D01*
X217582771Y-89034942D02*
X217925628Y-89034942D01*
X217925628Y-89349228D02*
X217925628Y-88749228D01*
X218525628Y-88777800D02*
X218468485Y-88749228D01*
X218382771Y-88749228D01*
X218297057Y-88777800D01*
X218239914Y-88834942D01*
X218211342Y-88892085D01*
X218182771Y-89006371D01*
X218182771Y-89092085D01*
X218211342Y-89206371D01*
X218239914Y-89263514D01*
X218297057Y-89320657D01*
X218382771Y-89349228D01*
X218439914Y-89349228D01*
X218525628Y-89320657D01*
X218554200Y-89292085D01*
X218554200Y-89092085D01*
X218439914Y-89092085D01*
X206413200Y-89323828D02*
X206413200Y-88723828D01*
X206641771Y-88723828D01*
X206698914Y-88752400D01*
X206727485Y-88780971D01*
X206756057Y-88838114D01*
X206756057Y-88923828D01*
X206727485Y-88980971D01*
X206698914Y-89009542D01*
X206641771Y-89038114D01*
X206413200Y-89038114D01*
X206956057Y-88723828D02*
X207098914Y-89323828D01*
X207213200Y-88895257D01*
X207327485Y-89323828D01*
X207470342Y-88723828D01*
X208041771Y-89323828D02*
X207841771Y-89038114D01*
X207698914Y-89323828D02*
X207698914Y-88723828D01*
X207927485Y-88723828D01*
X207984628Y-88752400D01*
X208013200Y-88780971D01*
X208041771Y-88838114D01*
X208041771Y-88923828D01*
X208013200Y-88980971D01*
X207984628Y-89009542D01*
X207927485Y-89038114D01*
X207698914Y-89038114D01*
D11*
X211556914Y-58642257D02*
X211823580Y-58642257D01*
X211937866Y-59061304D02*
X211556914Y-59061304D01*
X211556914Y-58261304D01*
X211937866Y-58261304D01*
X212280723Y-59061304D02*
X212280723Y-58261304D01*
X212585485Y-58261304D01*
X212661676Y-58299400D01*
X212699771Y-58337495D01*
X212737866Y-58413685D01*
X212737866Y-58527971D01*
X212699771Y-58604161D01*
X212661676Y-58642257D01*
X212585485Y-58680352D01*
X212280723Y-58680352D01*
X213042628Y-59023209D02*
X213156914Y-59061304D01*
X213347390Y-59061304D01*
X213423580Y-59023209D01*
X213461676Y-58985114D01*
X213499771Y-58908923D01*
X213499771Y-58832733D01*
X213461676Y-58756542D01*
X213423580Y-58718447D01*
X213347390Y-58680352D01*
X213195009Y-58642257D01*
X213118819Y-58604161D01*
X213080723Y-58566066D01*
X213042628Y-58489876D01*
X213042628Y-58413685D01*
X213080723Y-58337495D01*
X213118819Y-58299400D01*
X213195009Y-58261304D01*
X213385485Y-58261304D01*
X213499771Y-58299400D01*
X214375961Y-58527971D02*
X214566438Y-59061304D01*
X214756914Y-58527971D01*
X215480723Y-59061304D02*
X215023580Y-59061304D01*
X215252152Y-59061304D02*
X215252152Y-58261304D01*
X215175961Y-58375590D01*
X215099771Y-58451780D01*
X215023580Y-58489876D01*
X215823580Y-58985114D02*
X215861676Y-59023209D01*
X215823580Y-59061304D01*
X215785485Y-59023209D01*
X215823580Y-58985114D01*
X215823580Y-59061304D01*
X216356914Y-58261304D02*
X216433104Y-58261304D01*
X216509295Y-58299400D01*
X216547390Y-58337495D01*
X216585485Y-58413685D01*
X216623580Y-58566066D01*
X216623580Y-58756542D01*
X216585485Y-58908923D01*
X216547390Y-58985114D01*
X216509295Y-59023209D01*
X216433104Y-59061304D01*
X216356914Y-59061304D01*
X216280723Y-59023209D01*
X216242628Y-58985114D01*
X216204533Y-58908923D01*
X216166438Y-58756542D01*
X216166438Y-58566066D01*
X216204533Y-58413685D01*
X216242628Y-58337495D01*
X216280723Y-58299400D01*
X216356914Y-58261304D01*
X203210209Y-57615080D02*
X203210209Y-56615080D01*
X203448304Y-56615080D01*
X203591161Y-56662700D01*
X203686400Y-56757938D01*
X203734019Y-56853176D01*
X203781638Y-57043652D01*
X203781638Y-57186509D01*
X203734019Y-57376985D01*
X203686400Y-57472223D01*
X203591161Y-57567461D01*
X203448304Y-57615080D01*
X203210209Y-57615080D01*
X204114971Y-56948414D02*
X204353066Y-57615080D01*
X204591161Y-56948414D02*
X204353066Y-57615080D01*
X204257828Y-57853176D01*
X204210209Y-57900795D01*
X204114971Y-57948414D01*
X204972114Y-56948414D02*
X204972114Y-57615080D01*
X204972114Y-57043652D02*
X205019733Y-56996033D01*
X205114971Y-56948414D01*
X205257828Y-56948414D01*
X205353066Y-56996033D01*
X205400685Y-57091271D01*
X205400685Y-57615080D01*
X206067352Y-56615080D02*
X206257828Y-56615080D01*
X206353066Y-56662700D01*
X206448304Y-56757938D01*
X206495923Y-56948414D01*
X206495923Y-57281747D01*
X206448304Y-57472223D01*
X206353066Y-57567461D01*
X206257828Y-57615080D01*
X206067352Y-57615080D01*
X205972114Y-57567461D01*
X205876876Y-57472223D01*
X205829257Y-57281747D01*
X205829257Y-56948414D01*
X205876876Y-56757938D01*
X205972114Y-56662700D01*
X206067352Y-56615080D01*
X206876876Y-57567461D02*
X207019733Y-57615080D01*
X207257828Y-57615080D01*
X207353066Y-57567461D01*
X207400685Y-57519842D01*
X207448304Y-57424604D01*
X207448304Y-57329366D01*
X207400685Y-57234128D01*
X207353066Y-57186509D01*
X207257828Y-57138890D01*
X207067352Y-57091271D01*
X206972114Y-57043652D01*
X206924495Y-56996033D01*
X206876876Y-56900795D01*
X206876876Y-56805557D01*
X206924495Y-56710319D01*
X206972114Y-56662700D01*
X207067352Y-56615080D01*
X207305447Y-56615080D01*
X207448304Y-56662700D01*
X207829257Y-57567461D02*
X207972114Y-57615080D01*
X208210209Y-57615080D01*
X208305447Y-57567461D01*
X208353066Y-57519842D01*
X208400685Y-57424604D01*
X208400685Y-57329366D01*
X208353066Y-57234128D01*
X208305447Y-57186509D01*
X208210209Y-57138890D01*
X208019733Y-57091271D01*
X207924495Y-57043652D01*
X207876876Y-56996033D01*
X207829257Y-56900795D01*
X207829257Y-56805557D01*
X207876876Y-56710319D01*
X207924495Y-56662700D01*
X208019733Y-56615080D01*
X208257828Y-56615080D01*
X208400685Y-56662700D01*
X208781638Y-57329366D02*
X209257828Y-57329366D01*
X208686400Y-57615080D02*
X209019733Y-56615080D01*
X209353066Y-57615080D01*
X209543542Y-56615080D02*
X210114971Y-56615080D01*
X209829257Y-57615080D02*
X209829257Y-56615080D01*
X210448304Y-57234128D02*
X211210209Y-57234128D01*
X211686400Y-57091271D02*
X212019733Y-57091271D01*
X212162590Y-57615080D02*
X211686400Y-57615080D01*
X211686400Y-56615080D01*
X212162590Y-56615080D01*
X212591161Y-57615080D02*
X212591161Y-56615080D01*
X212829257Y-56615080D01*
X212972114Y-56662700D01*
X213067352Y-56757938D01*
X213114971Y-56853176D01*
X213162590Y-57043652D01*
X213162590Y-57186509D01*
X213114971Y-57376985D01*
X213067352Y-57472223D01*
X212972114Y-57567461D01*
X212829257Y-57615080D01*
X212591161Y-57615080D01*
X213591161Y-56615080D02*
X213591161Y-57424604D01*
X213638780Y-57519842D01*
X213686400Y-57567461D01*
X213781638Y-57615080D01*
X213972114Y-57615080D01*
X214067352Y-57567461D01*
X214114971Y-57519842D01*
X214162590Y-57424604D01*
X214162590Y-56615080D01*
X226295095Y-56343504D02*
X226028428Y-55962552D01*
X225837952Y-56343504D02*
X225837952Y-55543504D01*
X226142714Y-55543504D01*
X226218904Y-55581600D01*
X226257000Y-55619695D01*
X226295095Y-55695885D01*
X226295095Y-55810171D01*
X226257000Y-55886361D01*
X226218904Y-55924457D01*
X226142714Y-55962552D01*
X225837952Y-55962552D01*
X226637952Y-55924457D02*
X226904619Y-55924457D01*
X227018904Y-56343504D02*
X226637952Y-56343504D01*
X226637952Y-55543504D01*
X227018904Y-55543504D01*
X227323666Y-56305409D02*
X227437952Y-56343504D01*
X227628428Y-56343504D01*
X227704619Y-56305409D01*
X227742714Y-56267314D01*
X227780809Y-56191123D01*
X227780809Y-56114933D01*
X227742714Y-56038742D01*
X227704619Y-56000647D01*
X227628428Y-55962552D01*
X227476047Y-55924457D01*
X227399857Y-55886361D01*
X227361761Y-55848266D01*
X227323666Y-55772076D01*
X227323666Y-55695885D01*
X227361761Y-55619695D01*
X227399857Y-55581600D01*
X227476047Y-55543504D01*
X227666523Y-55543504D01*
X227780809Y-55581600D01*
X228123666Y-55924457D02*
X228390333Y-55924457D01*
X228504619Y-56343504D02*
X228123666Y-56343504D01*
X228123666Y-55543504D01*
X228504619Y-55543504D01*
X228733190Y-55543504D02*
X229190333Y-55543504D01*
X228961761Y-56343504D02*
X228961761Y-55543504D01*
D10*
X203527933Y-84917790D02*
X203694600Y-85417790D01*
X203861266Y-84917790D01*
X204194600Y-85155885D02*
X204266028Y-85179695D01*
X204289838Y-85203504D01*
X204313647Y-85251123D01*
X204313647Y-85322552D01*
X204289838Y-85370171D01*
X204266028Y-85393980D01*
X204218409Y-85417790D01*
X204027933Y-85417790D01*
X204027933Y-84917790D01*
X204194600Y-84917790D01*
X204242219Y-84941600D01*
X204266028Y-84965409D01*
X204289838Y-85013028D01*
X204289838Y-85060647D01*
X204266028Y-85108266D01*
X204242219Y-85132076D01*
X204194600Y-85155885D01*
X204027933Y-85155885D01*
X204527933Y-84917790D02*
X204527933Y-85322552D01*
X204551742Y-85370171D01*
X204575552Y-85393980D01*
X204623171Y-85417790D01*
X204718409Y-85417790D01*
X204766028Y-85393980D01*
X204789838Y-85370171D01*
X204813647Y-85322552D01*
X204813647Y-84917790D01*
X205027933Y-85393980D02*
X205099361Y-85417790D01*
X205218409Y-85417790D01*
X205266028Y-85393980D01*
X205289838Y-85370171D01*
X205313647Y-85322552D01*
X205313647Y-85274933D01*
X205289838Y-85227314D01*
X205266028Y-85203504D01*
X205218409Y-85179695D01*
X205123171Y-85155885D01*
X205075552Y-85132076D01*
X205051742Y-85108266D01*
X205027933Y-85060647D01*
X205027933Y-85013028D01*
X205051742Y-84965409D01*
X205075552Y-84941600D01*
X205123171Y-84917790D01*
X205242219Y-84917790D01*
X205313647Y-84941600D01*
D11*
X223718523Y-73045580D02*
X223718523Y-72045580D01*
X224099476Y-72045580D01*
X224194714Y-72093200D01*
X224242333Y-72140819D01*
X224289952Y-72236057D01*
X224289952Y-72378914D01*
X224242333Y-72474152D01*
X224194714Y-72521771D01*
X224099476Y-72569390D01*
X223718523Y-72569390D01*
X224575666Y-72045580D02*
X224909000Y-73045580D01*
X225242333Y-72045580D01*
X192347904Y-81445038D02*
X192347904Y-81292657D01*
X192386000Y-81216466D01*
X192462190Y-81140276D01*
X192614571Y-81102180D01*
X192881238Y-81102180D01*
X193033619Y-81140276D01*
X193109809Y-81216466D01*
X193147904Y-81292657D01*
X193147904Y-81445038D01*
X193109809Y-81521228D01*
X193033619Y-81597419D01*
X192881238Y-81635514D01*
X192614571Y-81635514D01*
X192462190Y-81597419D01*
X192386000Y-81521228D01*
X192347904Y-81445038D01*
X193147904Y-80759323D02*
X192347904Y-80759323D01*
X193147904Y-80302180D01*
X192347904Y-80302180D01*
X192347904Y-77977904D02*
X192347904Y-77825523D01*
X192386000Y-77749333D01*
X192462190Y-77673142D01*
X192614571Y-77635047D01*
X192881238Y-77635047D01*
X193033619Y-77673142D01*
X193109809Y-77749333D01*
X193147904Y-77825523D01*
X193147904Y-77977904D01*
X193109809Y-78054095D01*
X193033619Y-78130285D01*
X192881238Y-78168380D01*
X192614571Y-78168380D01*
X192462190Y-78130285D01*
X192386000Y-78054095D01*
X192347904Y-77977904D01*
X192728857Y-77025523D02*
X192728857Y-77292190D01*
X193147904Y-77292190D02*
X192347904Y-77292190D01*
X192347904Y-76911238D01*
X192728857Y-76339809D02*
X192728857Y-76606476D01*
X193147904Y-76606476D02*
X192347904Y-76606476D01*
X192347904Y-76225523D01*
D12*
X206383000Y-76692400D02*
X205908000Y-76692400D01*
X205908000Y-76692400D02*
X205908000Y-76217400D01*
X208653000Y-73472400D02*
X209128000Y-73472400D01*
X209128000Y-73472400D02*
X209128000Y-73947400D01*
X206383000Y-73472400D02*
X205908000Y-73472400D01*
X205908000Y-73472400D02*
X205908000Y-73947400D01*
X208653000Y-76692400D02*
X209128000Y-76692400D01*
D13*
X211946362Y-61245762D02*
X209825042Y-63367082D01*
X211946362Y-61245762D02*
X211533271Y-60832670D01*
X229844600Y-62509400D02*
X229717600Y-62509400D01*
X229844600Y-59461400D02*
X229844600Y-62509400D01*
X228955600Y-59461400D02*
X229844600Y-59461400D01*
X228955600Y-62509400D02*
X229717600Y-62509400D01*
X228955600Y-63525400D02*
X228955600Y-58445400D01*
X226542600Y-62509400D02*
X226542600Y-59461400D01*
X226542600Y-57048400D02*
X226542600Y-58318400D01*
X228193600Y-57048400D02*
X226542600Y-57048400D01*
X226542600Y-64922400D02*
X226542600Y-63652400D01*
X228193600Y-64922400D02*
X226542600Y-64922400D01*
D12*
X217379800Y-83575800D02*
X219579800Y-83575800D01*
X217379800Y-83575800D02*
X215179800Y-83575800D01*
X217379800Y-80355800D02*
X219579800Y-80355800D01*
X217379800Y-80355800D02*
X213779800Y-80355800D01*
X195820200Y-72484064D02*
X195820200Y-71279936D01*
X198540200Y-72484064D02*
X198540200Y-71279936D01*
X201814600Y-63924264D02*
X201814600Y-62720136D01*
X204534600Y-63924264D02*
X204534600Y-62720136D01*
X200176000Y-59144800D02*
X200176000Y-60844800D01*
X200176000Y-60844800D02*
X202726000Y-60844800D01*
X200176000Y-59144800D02*
X202726000Y-59144800D01*
X221426821Y-75668600D02*
X221752379Y-75668600D01*
X221426821Y-74648600D02*
X221752379Y-74648600D01*
X201254579Y-73353200D02*
X200929021Y-73353200D01*
X201254579Y-74373200D02*
X200929021Y-74373200D01*
X199832179Y-66296000D02*
X199506621Y-66296000D01*
X199832179Y-65276000D02*
X199506621Y-65276000D01*
X216623000Y-87860200D02*
X214338000Y-87860200D01*
X216623000Y-89330200D02*
X216623000Y-87860200D01*
X214338000Y-89330200D02*
X216623000Y-89330200D01*
X207152021Y-79855600D02*
X207477579Y-79855600D01*
X207152021Y-80875600D02*
X207477579Y-80875600D01*
X213031800Y-84135179D02*
X213031800Y-83809621D01*
X212011800Y-84135179D02*
X212011800Y-83809621D01*
X208855779Y-85215000D02*
X208530221Y-85215000D01*
X208855779Y-86235000D02*
X208530221Y-86235000D01*
X195277200Y-70957221D02*
X195277200Y-71282779D01*
X194257200Y-70957221D02*
X194257200Y-71282779D01*
X192758600Y-70957221D02*
X192758600Y-71282779D01*
X193778600Y-70957221D02*
X193778600Y-71282779D01*
X217599200Y-79834000D02*
X217599200Y-78809000D01*
X217599200Y-79834000D02*
X216574200Y-79834000D01*
X212829200Y-79834000D02*
X213854200Y-79834000D01*
X212829200Y-79834000D02*
X212829200Y-78809000D01*
X212829200Y-75614000D02*
X212829200Y-76639000D01*
X217599200Y-75614000D02*
X217599200Y-76639000D01*
X212829200Y-75614000D02*
X213854200Y-75614000D01*
X217599200Y-75614000D02*
X216574200Y-75614000D01*
X215058021Y-85219000D02*
X215383579Y-85219000D01*
X215058021Y-84199000D02*
X215383579Y-84199000D01*
X206158200Y-87860200D02*
X203873200Y-87860200D01*
X206158200Y-89330200D02*
X206158200Y-87860200D01*
X203873200Y-89330200D02*
X206158200Y-89330200D01*
X213714200Y-85687800D02*
X216264200Y-85687800D01*
X213714200Y-87387800D02*
X216264200Y-87387800D01*
X213714200Y-85687800D02*
X213714200Y-87387800D01*
X221254400Y-50832600D02*
X221319400Y-50832600D01*
X221254400Y-54362600D02*
X221319400Y-54362600D01*
X195799400Y-50832600D02*
X195864400Y-50832600D01*
X195799400Y-54362600D02*
X195864400Y-54362600D01*
X195864400Y-55687600D02*
X195864400Y-54362600D01*
X221319400Y-54362600D02*
X221319400Y-50832600D01*
X195799400Y-54362600D02*
X195799400Y-50832600D01*
X205580000Y-81829600D02*
X204777530Y-81829600D01*
X204162470Y-81829600D02*
X203360000Y-81829600D01*
X205580000Y-83034600D02*
X205580000Y-81829600D01*
X203360000Y-83034600D02*
X203360000Y-81829600D01*
X205580000Y-83034600D02*
X205033471Y-83034600D01*
X203906529Y-83034600D02*
X203360000Y-83034600D01*
X205580000Y-83794600D02*
X205580000Y-84554600D01*
X205580000Y-84554600D02*
X204470000Y-84554600D01*
X199747600Y-59395579D02*
X199747600Y-59070021D01*
X198727600Y-59395579D02*
X198727600Y-59070021D01*
X192305400Y-65349000D02*
X193765400Y-65349000D01*
X192305400Y-68509000D02*
X194465400Y-68509000D01*
X192305400Y-68509000D02*
X192305400Y-67579000D01*
X192305400Y-65349000D02*
X192305400Y-66279000D01*
X190314600Y-71245000D02*
X189204600Y-71245000D01*
X190314600Y-70485000D02*
X190314600Y-71245000D01*
X188641129Y-69725000D02*
X188094600Y-69725000D01*
X190314600Y-69725000D02*
X189768071Y-69725000D01*
X188094600Y-69725000D02*
X188094600Y-64710000D01*
X190314600Y-69725000D02*
X190314600Y-64710000D01*
X188897070Y-64710000D02*
X188094600Y-64710000D01*
X190314600Y-64710000D02*
X189512130Y-64710000D01*
X199518400Y-76211800D02*
X196968400Y-76211800D01*
X199518400Y-74511800D02*
X196968400Y-74511800D01*
X199518400Y-76211800D02*
X199518400Y-74511800D01*
X195922000Y-76579600D02*
X195922000Y-79129600D01*
X194222000Y-76579600D02*
X194222000Y-79129600D01*
X195922000Y-76579600D02*
X194222000Y-76579600D01*
X192903600Y-55843400D02*
X192903600Y-54443400D01*
X193603600Y-53743400D02*
X194203600Y-53743400D01*
X194903600Y-54443400D02*
X194903600Y-55843400D01*
X194203600Y-56543400D02*
X193603600Y-56543400D01*
X192903600Y-54443400D02*
G75*
G02*
X193603600Y-53743400I700000J0D01*
G01*
X194203600Y-53743400D02*
G75*
G02*
X194903600Y-54443400I0J-700000D01*
G01*
X194903600Y-55843400D02*
G75*
G02*
X194203600Y-56543400I-700000J0D01*
G01*
X193603600Y-56543400D02*
G75*
G02*
X192903600Y-55843400I0J700000D01*
G01*
X212011800Y-86705221D02*
X212011800Y-87030779D01*
X213031800Y-86705221D02*
X213031800Y-87030779D01*
X204036200Y-75935621D02*
X204036200Y-76261179D01*
X205056200Y-75935621D02*
X205056200Y-76261179D01*
X197469000Y-64933000D02*
X197469000Y-68833000D01*
X195469000Y-64933000D02*
X195469000Y-68833000D01*
X197469000Y-64933000D02*
X195469000Y-64933000D01*
X220013400Y-76162800D02*
X222563400Y-76162800D01*
X220013400Y-77862800D02*
X222563400Y-77862800D01*
X220013400Y-76162800D02*
X220013400Y-77862800D01*
X220013400Y-78372600D02*
X220013400Y-80072600D01*
X220013400Y-80072600D02*
X222563400Y-80072600D01*
X220013400Y-78372600D02*
X222563400Y-78372600D01*
D13*
X188531500Y-78105000D02*
X187579000Y-78105000D01*
X188531500Y-76390500D02*
X188531500Y-78105000D01*
X187579000Y-76390500D02*
X188531500Y-76390500D01*
X188404500Y-74902500D02*
X187579000Y-74902500D01*
X191979000Y-74902500D02*
X190944500Y-74902500D01*
X188404500Y-83502500D02*
X187579000Y-83502500D01*
X191979000Y-83502500D02*
X190944500Y-83502500D01*
X191979000Y-74902500D02*
X191979000Y-83502500D01*
X187579000Y-74902500D02*
X187579000Y-83502500D01*
D12*
X215588999Y-73291600D02*
X217989001Y-73291600D01*
X215588999Y-71691600D02*
X215588999Y-73291600D01*
X217989001Y-71691600D02*
X215588999Y-71691600D01*
X191181400Y-62197064D02*
X191181400Y-60992936D01*
X189361400Y-62197064D02*
X189361400Y-60992936D01*
X222079736Y-64977600D02*
X223283864Y-64977600D01*
X222079736Y-66797600D02*
X223283864Y-66797600D01*
X198918400Y-76469600D02*
X196468400Y-76469600D01*
X197118400Y-79689600D02*
X198918400Y-79689600D01*
D11*
X210413000Y-84606800D02*
X210413000Y-84431800D01*
X207163000Y-84606800D02*
X207163000Y-84331800D01*
X207163000Y-81356800D02*
X207163000Y-81631800D01*
X210413000Y-81356800D02*
X210413000Y-81631800D01*
X210413000Y-84606800D02*
X207163000Y-84606800D01*
X210413000Y-81356800D02*
X207163000Y-81356800D01*
X210413000Y-84431800D02*
X211488000Y-84431800D01*
D12*
X201304800Y-63841200D02*
X201304800Y-61391200D01*
X198084800Y-62041200D02*
X198084800Y-63841200D01*
X191785600Y-61965000D02*
X191785600Y-64415000D01*
X195005600Y-63765000D02*
X195005600Y-61965000D01*
X199810800Y-72882400D02*
X201610800Y-72882400D01*
X201610800Y-69662400D02*
X199160800Y-69662400D01*
X224266400Y-62647400D02*
X224266400Y-60847400D01*
X221046400Y-60847400D02*
X221046400Y-63297400D01*
X194422600Y-57292600D02*
X192622600Y-57292600D01*
X192622600Y-60512600D02*
X195072600Y-60512600D01*
X223581800Y-56251200D02*
X221781800Y-56251200D01*
X221781800Y-59471200D02*
X224231800Y-59471200D01*
X225608600Y-71784000D02*
X225608600Y-65884000D01*
X229508600Y-71784000D02*
X229508600Y-65884000D01*
X229508600Y-65884000D02*
X228433600Y-65884000D01*
X209428765Y-65715476D02*
X209092889Y-65379600D01*
X209092889Y-65379600D02*
X209428765Y-65043724D01*
X218967635Y-65043724D02*
X219303511Y-65379600D01*
X219303511Y-65379600D02*
X218967635Y-65715476D01*
X214534076Y-60610165D02*
X214198200Y-60274289D01*
X214198200Y-60274289D02*
X213862324Y-60610165D01*
X213862324Y-70149035D02*
X214198200Y-70484911D01*
X229400800Y-79232800D02*
X229400800Y-81467800D01*
X223680800Y-79232800D02*
X229400800Y-79232800D01*
X223680800Y-80302800D02*
X223680800Y-79232800D01*
X223980800Y-80302800D02*
X223680800Y-80302800D01*
X223980800Y-81467800D02*
X223980800Y-80302800D01*
X229400800Y-83702800D02*
X229400800Y-81467800D01*
X223680800Y-83702800D02*
X229400800Y-83702800D01*
X223680800Y-82632800D02*
X223680800Y-83702800D01*
X223980800Y-82632800D02*
X223680800Y-82632800D01*
X223980800Y-81467800D02*
X223980800Y-82632800D01*
X223390800Y-82342800D02*
X223390800Y-82842800D01*
X223690800Y-82342800D02*
X223390800Y-82342800D01*
X223690800Y-76780200D02*
X223390800Y-76780200D01*
X223390800Y-76780200D02*
X223390800Y-77280200D01*
X223980800Y-75905200D02*
X223980800Y-77070200D01*
X223980800Y-77070200D02*
X223680800Y-77070200D01*
X223680800Y-77070200D02*
X223680800Y-78140200D01*
X223680800Y-78140200D02*
X229400800Y-78140200D01*
X229400800Y-78140200D02*
X229400800Y-75905200D01*
X223980800Y-75905200D02*
X223980800Y-74740200D01*
X223980800Y-74740200D02*
X223680800Y-74740200D01*
X223680800Y-74740200D02*
X223680800Y-73670200D01*
X223680800Y-73670200D02*
X229400800Y-73670200D01*
X229400800Y-73670200D02*
X229400800Y-75905200D01*
D10*
X209831028Y-75056942D02*
X210316742Y-75056942D01*
X210373885Y-75028371D01*
X210402457Y-74999800D01*
X210431028Y-74942657D01*
X210431028Y-74828371D01*
X210402457Y-74771228D01*
X210373885Y-74742657D01*
X210316742Y-74714085D01*
X209831028Y-74714085D01*
X210088171Y-74342657D02*
X210059600Y-74399800D01*
X210031028Y-74428371D01*
X209973885Y-74456942D01*
X209945314Y-74456942D01*
X209888171Y-74428371D01*
X209859600Y-74399800D01*
X209831028Y-74342657D01*
X209831028Y-74228371D01*
X209859600Y-74171228D01*
X209888171Y-74142657D01*
X209945314Y-74114085D01*
X209973885Y-74114085D01*
X210031028Y-74142657D01*
X210059600Y-74171228D01*
X210088171Y-74228371D01*
X210088171Y-74342657D01*
X210116742Y-74399800D01*
X210145314Y-74428371D01*
X210202457Y-74456942D01*
X210316742Y-74456942D01*
X210373885Y-74428371D01*
X210402457Y-74399800D01*
X210431028Y-74342657D01*
X210431028Y-74228371D01*
X210402457Y-74171228D01*
X210373885Y-74142657D01*
X210316742Y-74114085D01*
X210202457Y-74114085D01*
X210145314Y-74142657D01*
X210116742Y-74171228D01*
X210088171Y-74228371D01*
D11*
X210312150Y-63307321D02*
X210884570Y-63879741D01*
X210985585Y-63913413D01*
X211052929Y-63913413D01*
X211153944Y-63879741D01*
X211288631Y-63745054D01*
X211322303Y-63644039D01*
X211322303Y-63576695D01*
X211288631Y-63475680D01*
X210716211Y-62903260D01*
X211086601Y-62667558D02*
X211086601Y-62600215D01*
X211120272Y-62499199D01*
X211288631Y-62330841D01*
X211389646Y-62297169D01*
X211456990Y-62297169D01*
X211558005Y-62330841D01*
X211625349Y-62398184D01*
X211692692Y-62532871D01*
X211692692Y-63340993D01*
X212130425Y-62903260D01*
X216617895Y-78968180D02*
X216617895Y-79777704D01*
X216665514Y-79872942D01*
X216713133Y-79920561D01*
X216808371Y-79968180D01*
X216998847Y-79968180D01*
X217094085Y-79920561D01*
X217141704Y-79872942D01*
X217189323Y-79777704D01*
X217189323Y-78968180D01*
X218094085Y-78968180D02*
X217903609Y-78968180D01*
X217808371Y-79015800D01*
X217760752Y-79063419D01*
X217665514Y-79206276D01*
X217617895Y-79396752D01*
X217617895Y-79777704D01*
X217665514Y-79872942D01*
X217713133Y-79920561D01*
X217808371Y-79968180D01*
X217998847Y-79968180D01*
X218094085Y-79920561D01*
X218141704Y-79872942D01*
X218189323Y-79777704D01*
X218189323Y-79539609D01*
X218141704Y-79444371D01*
X218094085Y-79396752D01*
X217998847Y-79349133D01*
X217808371Y-79349133D01*
X217713133Y-79396752D01*
X217665514Y-79444371D01*
X217617895Y-79539609D01*
D10*
X198366866Y-69441190D02*
X198128771Y-69441190D01*
X198128771Y-68941190D01*
X198509723Y-68988809D02*
X198533533Y-68965000D01*
X198581152Y-68941190D01*
X198700200Y-68941190D01*
X198747819Y-68965000D01*
X198771628Y-68988809D01*
X198795438Y-69036428D01*
X198795438Y-69084047D01*
X198771628Y-69155476D01*
X198485914Y-69441190D01*
X198795438Y-69441190D01*
X205508990Y-61779933D02*
X205508990Y-62018028D01*
X205008990Y-62018028D01*
X205008990Y-61660885D02*
X205008990Y-61351361D01*
X205199466Y-61518028D01*
X205199466Y-61446600D01*
X205223276Y-61398980D01*
X205247085Y-61375171D01*
X205294704Y-61351361D01*
X205413752Y-61351361D01*
X205461371Y-61375171D01*
X205485180Y-61398980D01*
X205508990Y-61446600D01*
X205508990Y-61589457D01*
X205485180Y-61637076D01*
X205461371Y-61660885D01*
X203959590Y-59932047D02*
X203459590Y-59932047D01*
X203459590Y-59813000D01*
X203483400Y-59741571D01*
X203531019Y-59693952D01*
X203578638Y-59670142D01*
X203673876Y-59646333D01*
X203745304Y-59646333D01*
X203840542Y-59670142D01*
X203888161Y-59693952D01*
X203935780Y-59741571D01*
X203959590Y-59813000D01*
X203959590Y-59932047D01*
X203459590Y-59479666D02*
X203459590Y-59146333D01*
X203959590Y-59360619D01*
X221293571Y-74117971D02*
X221269761Y-74141780D01*
X221198333Y-74165590D01*
X221150714Y-74165590D01*
X221079285Y-74141780D01*
X221031666Y-74094161D01*
X221007857Y-74046542D01*
X220984047Y-73951304D01*
X220984047Y-73879876D01*
X221007857Y-73784638D01*
X221031666Y-73737019D01*
X221079285Y-73689400D01*
X221150714Y-73665590D01*
X221198333Y-73665590D01*
X221269761Y-73689400D01*
X221293571Y-73713209D01*
X221769761Y-74165590D02*
X221484047Y-74165590D01*
X221626904Y-74165590D02*
X221626904Y-73665590D01*
X221579285Y-73737019D01*
X221531666Y-73784638D01*
X221484047Y-73808447D01*
X221936428Y-73665590D02*
X222245952Y-73665590D01*
X222079285Y-73856066D01*
X222150714Y-73856066D01*
X222198333Y-73879876D01*
X222222142Y-73903685D01*
X222245952Y-73951304D01*
X222245952Y-74070352D01*
X222222142Y-74117971D01*
X222198333Y-74141780D01*
X222150714Y-74165590D01*
X222007857Y-74165590D01*
X221960238Y-74141780D01*
X221936428Y-74117971D01*
X201583171Y-75235571D02*
X201559361Y-75259380D01*
X201487933Y-75283190D01*
X201440314Y-75283190D01*
X201368885Y-75259380D01*
X201321266Y-75211761D01*
X201297457Y-75164142D01*
X201273647Y-75068904D01*
X201273647Y-74997476D01*
X201297457Y-74902238D01*
X201321266Y-74854619D01*
X201368885Y-74807000D01*
X201440314Y-74783190D01*
X201487933Y-74783190D01*
X201559361Y-74807000D01*
X201583171Y-74830809D01*
X202059361Y-75283190D02*
X201773647Y-75283190D01*
X201916504Y-75283190D02*
X201916504Y-74783190D01*
X201868885Y-74854619D01*
X201821266Y-74902238D01*
X201773647Y-74926047D01*
X202511742Y-74783190D02*
X202273647Y-74783190D01*
X202249838Y-75021285D01*
X202273647Y-74997476D01*
X202321266Y-74973666D01*
X202440314Y-74973666D01*
X202487933Y-74997476D01*
X202511742Y-75021285D01*
X202535552Y-75068904D01*
X202535552Y-75187952D01*
X202511742Y-75235571D01*
X202487933Y-75259380D01*
X202440314Y-75283190D01*
X202321266Y-75283190D01*
X202273647Y-75259380D01*
X202249838Y-75235571D01*
X201608571Y-66091571D02*
X201584761Y-66115380D01*
X201513333Y-66139190D01*
X201465714Y-66139190D01*
X201394285Y-66115380D01*
X201346666Y-66067761D01*
X201322857Y-66020142D01*
X201299047Y-65924904D01*
X201299047Y-65853476D01*
X201322857Y-65758238D01*
X201346666Y-65710619D01*
X201394285Y-65663000D01*
X201465714Y-65639190D01*
X201513333Y-65639190D01*
X201584761Y-65663000D01*
X201608571Y-65686809D01*
X202084761Y-66139190D02*
X201799047Y-66139190D01*
X201941904Y-66139190D02*
X201941904Y-65639190D01*
X201894285Y-65710619D01*
X201846666Y-65758238D01*
X201799047Y-65782047D01*
X202513333Y-65639190D02*
X202418095Y-65639190D01*
X202370476Y-65663000D01*
X202346666Y-65686809D01*
X202299047Y-65758238D01*
X202275238Y-65853476D01*
X202275238Y-66043952D01*
X202299047Y-66091571D01*
X202322857Y-66115380D01*
X202370476Y-66139190D01*
X202465714Y-66139190D01*
X202513333Y-66115380D01*
X202537142Y-66091571D01*
X202560952Y-66043952D01*
X202560952Y-65924904D01*
X202537142Y-65877285D01*
X202513333Y-65853476D01*
X202465714Y-65829666D01*
X202370476Y-65829666D01*
X202322857Y-65853476D01*
X202299047Y-65877285D01*
X202275238Y-65924904D01*
X207269566Y-79563090D02*
X207102900Y-79324995D01*
X206983852Y-79563090D02*
X206983852Y-79063090D01*
X207174328Y-79063090D01*
X207221947Y-79086900D01*
X207245757Y-79110709D01*
X207269566Y-79158328D01*
X207269566Y-79229757D01*
X207245757Y-79277376D01*
X207221947Y-79301185D01*
X207174328Y-79324995D01*
X206983852Y-79324995D01*
X207436233Y-79063090D02*
X207769566Y-79063090D01*
X207555280Y-79563090D01*
X212200371Y-82420590D02*
X212033704Y-82182495D01*
X211914657Y-82420590D02*
X211914657Y-81920590D01*
X212105133Y-81920590D01*
X212152752Y-81944400D01*
X212176561Y-81968209D01*
X212200371Y-82015828D01*
X212200371Y-82087257D01*
X212176561Y-82134876D01*
X212152752Y-82158685D01*
X212105133Y-82182495D01*
X211914657Y-82182495D01*
X212676561Y-82420590D02*
X212390847Y-82420590D01*
X212533704Y-82420590D02*
X212533704Y-81920590D01*
X212486085Y-81992019D01*
X212438466Y-82039638D01*
X212390847Y-82063447D01*
X212843228Y-81920590D02*
X213176561Y-81920590D01*
X212962276Y-82420590D01*
X208621333Y-86654485D02*
X208454666Y-86654485D01*
X208454666Y-86916390D02*
X208454666Y-86416390D01*
X208692761Y-86416390D01*
X209145142Y-86916390D02*
X208859428Y-86916390D01*
X209002285Y-86916390D02*
X209002285Y-86416390D01*
X208954666Y-86487819D01*
X208907047Y-86535438D01*
X208859428Y-86559247D01*
X194945771Y-73778228D02*
X194969580Y-73802038D01*
X194993390Y-73873466D01*
X194993390Y-73921085D01*
X194969580Y-73992514D01*
X194921961Y-74040133D01*
X194874342Y-74063942D01*
X194779104Y-74087752D01*
X194707676Y-74087752D01*
X194612438Y-74063942D01*
X194564819Y-74040133D01*
X194517200Y-73992514D01*
X194493390Y-73921085D01*
X194493390Y-73873466D01*
X194517200Y-73802038D01*
X194541009Y-73778228D01*
X194541009Y-73587752D02*
X194517200Y-73563942D01*
X194493390Y-73516323D01*
X194493390Y-73397276D01*
X194517200Y-73349657D01*
X194541009Y-73325847D01*
X194588628Y-73302038D01*
X194636247Y-73302038D01*
X194707676Y-73325847D01*
X194993390Y-73611561D01*
X194993390Y-73302038D01*
X194493390Y-72992514D02*
X194493390Y-72944895D01*
X194517200Y-72897276D01*
X194541009Y-72873466D01*
X194588628Y-72849657D01*
X194683866Y-72825847D01*
X194802914Y-72825847D01*
X194898152Y-72849657D01*
X194945771Y-72873466D01*
X194969580Y-72897276D01*
X194993390Y-72944895D01*
X194993390Y-72992514D01*
X194969580Y-73040133D01*
X194945771Y-73063942D01*
X194898152Y-73087752D01*
X194802914Y-73111561D01*
X194683866Y-73111561D01*
X194588628Y-73087752D01*
X194541009Y-73063942D01*
X194517200Y-73040133D01*
X194493390Y-72992514D01*
X193447171Y-73778228D02*
X193470980Y-73802038D01*
X193494790Y-73873466D01*
X193494790Y-73921085D01*
X193470980Y-73992514D01*
X193423361Y-74040133D01*
X193375742Y-74063942D01*
X193280504Y-74087752D01*
X193209076Y-74087752D01*
X193113838Y-74063942D01*
X193066219Y-74040133D01*
X193018600Y-73992514D01*
X192994790Y-73921085D01*
X192994790Y-73873466D01*
X193018600Y-73802038D01*
X193042409Y-73778228D01*
X193042409Y-73587752D02*
X193018600Y-73563942D01*
X192994790Y-73516323D01*
X192994790Y-73397276D01*
X193018600Y-73349657D01*
X193042409Y-73325847D01*
X193090028Y-73302038D01*
X193137647Y-73302038D01*
X193209076Y-73325847D01*
X193494790Y-73611561D01*
X193494790Y-73302038D01*
X193042409Y-73111561D02*
X193018600Y-73087752D01*
X192994790Y-73040133D01*
X192994790Y-72921085D01*
X193018600Y-72873466D01*
X193042409Y-72849657D01*
X193090028Y-72825847D01*
X193137647Y-72825847D01*
X193209076Y-72849657D01*
X193494790Y-73135371D01*
X193494790Y-72825847D01*
X213352866Y-75333990D02*
X213114771Y-75333990D01*
X213114771Y-74833990D01*
X213781438Y-75333990D02*
X213495723Y-75333990D01*
X213638580Y-75333990D02*
X213638580Y-74833990D01*
X213590961Y-74905419D01*
X213543342Y-74953038D01*
X213495723Y-74976847D01*
X213716371Y-84801828D02*
X213740180Y-84825638D01*
X213763990Y-84897066D01*
X213763990Y-84944685D01*
X213740180Y-85016114D01*
X213692561Y-85063733D01*
X213644942Y-85087542D01*
X213549704Y-85111352D01*
X213478276Y-85111352D01*
X213383038Y-85087542D01*
X213335419Y-85063733D01*
X213287800Y-85016114D01*
X213263990Y-84944685D01*
X213263990Y-84897066D01*
X213287800Y-84825638D01*
X213311609Y-84801828D01*
X213311609Y-84611352D02*
X213287800Y-84587542D01*
X213263990Y-84539923D01*
X213263990Y-84420876D01*
X213287800Y-84373257D01*
X213311609Y-84349447D01*
X213359228Y-84325638D01*
X213406847Y-84325638D01*
X213478276Y-84349447D01*
X213763990Y-84635161D01*
X213763990Y-84325638D01*
X213763990Y-83849447D02*
X213763990Y-84135161D01*
X213763990Y-83992304D02*
X213263990Y-83992304D01*
X213335419Y-84039923D01*
X213383038Y-84087542D01*
X213406847Y-84135161D01*
X213662390Y-86881447D02*
X213162390Y-86881447D01*
X213162390Y-86762400D01*
X213186200Y-86690971D01*
X213233819Y-86643352D01*
X213281438Y-86619542D01*
X213376676Y-86595733D01*
X213448104Y-86595733D01*
X213543342Y-86619542D01*
X213590961Y-86643352D01*
X213638580Y-86690971D01*
X213662390Y-86762400D01*
X213662390Y-86881447D01*
X213329057Y-86167161D02*
X213662390Y-86167161D01*
X213138580Y-86286209D02*
X213495723Y-86405257D01*
X213495723Y-86095733D01*
X198509771Y-80998190D02*
X198343104Y-80760095D01*
X198224057Y-80998190D02*
X198224057Y-80498190D01*
X198414533Y-80498190D01*
X198462152Y-80522000D01*
X198485961Y-80545809D01*
X198509771Y-80593428D01*
X198509771Y-80664857D01*
X198485961Y-80712476D01*
X198462152Y-80736285D01*
X198414533Y-80760095D01*
X198224057Y-80760095D01*
X198700247Y-80545809D02*
X198724057Y-80522000D01*
X198771676Y-80498190D01*
X198890723Y-80498190D01*
X198938342Y-80522000D01*
X198962152Y-80545809D01*
X198985961Y-80593428D01*
X198985961Y-80641047D01*
X198962152Y-80712476D01*
X198676438Y-80998190D01*
X198985961Y-80998190D01*
X199176438Y-80545809D02*
X199200247Y-80522000D01*
X199247866Y-80498190D01*
X199366914Y-80498190D01*
X199414533Y-80522000D01*
X199438342Y-80545809D01*
X199462152Y-80593428D01*
X199462152Y-80641047D01*
X199438342Y-80712476D01*
X199152628Y-80998190D01*
X199462152Y-80998190D01*
X196604771Y-80998190D02*
X196438104Y-80760095D01*
X196319057Y-80998190D02*
X196319057Y-80498190D01*
X196509533Y-80498190D01*
X196557152Y-80522000D01*
X196580961Y-80545809D01*
X196604771Y-80593428D01*
X196604771Y-80664857D01*
X196580961Y-80712476D01*
X196557152Y-80736285D01*
X196509533Y-80760095D01*
X196319057Y-80760095D01*
X196795247Y-80545809D02*
X196819057Y-80522000D01*
X196866676Y-80498190D01*
X196985723Y-80498190D01*
X197033342Y-80522000D01*
X197057152Y-80545809D01*
X197080961Y-80593428D01*
X197080961Y-80641047D01*
X197057152Y-80712476D01*
X196771438Y-80998190D01*
X197080961Y-80998190D01*
X197247628Y-80498190D02*
X197557152Y-80498190D01*
X197390485Y-80688666D01*
X197461914Y-80688666D01*
X197509533Y-80712476D01*
X197533342Y-80736285D01*
X197557152Y-80783904D01*
X197557152Y-80902952D01*
X197533342Y-80950571D01*
X197509533Y-80974380D01*
X197461914Y-80998190D01*
X197319057Y-80998190D01*
X197271438Y-80974380D01*
X197247628Y-80950571D01*
X198890771Y-57480971D02*
X198866961Y-57504780D01*
X198795533Y-57528590D01*
X198747914Y-57528590D01*
X198676485Y-57504780D01*
X198628866Y-57457161D01*
X198605057Y-57409542D01*
X198581247Y-57314304D01*
X198581247Y-57242876D01*
X198605057Y-57147638D01*
X198628866Y-57100019D01*
X198676485Y-57052400D01*
X198747914Y-57028590D01*
X198795533Y-57028590D01*
X198866961Y-57052400D01*
X198890771Y-57076209D01*
X199081247Y-57076209D02*
X199105057Y-57052400D01*
X199152676Y-57028590D01*
X199271723Y-57028590D01*
X199319342Y-57052400D01*
X199343152Y-57076209D01*
X199366961Y-57123828D01*
X199366961Y-57171447D01*
X199343152Y-57242876D01*
X199057438Y-57528590D01*
X199366961Y-57528590D01*
X199795533Y-57195257D02*
X199795533Y-57528590D01*
X199676485Y-57004780D02*
X199557438Y-57361923D01*
X199866961Y-57361923D01*
X192382780Y-69412609D02*
X192335161Y-69388800D01*
X192287542Y-69341180D01*
X192216114Y-69269752D01*
X192168495Y-69245942D01*
X192120876Y-69245942D01*
X192144685Y-69364990D02*
X192097066Y-69341180D01*
X192049447Y-69293561D01*
X192025638Y-69198323D01*
X192025638Y-69031657D01*
X192049447Y-68936419D01*
X192097066Y-68888800D01*
X192144685Y-68864990D01*
X192239923Y-68864990D01*
X192287542Y-68888800D01*
X192335161Y-68936419D01*
X192358971Y-69031657D01*
X192358971Y-69198323D01*
X192335161Y-69293561D01*
X192287542Y-69341180D01*
X192239923Y-69364990D01*
X192144685Y-69364990D01*
X192549447Y-68912609D02*
X192573257Y-68888800D01*
X192620876Y-68864990D01*
X192739923Y-68864990D01*
X192787542Y-68888800D01*
X192811352Y-68912609D01*
X192835161Y-68960228D01*
X192835161Y-69007847D01*
X192811352Y-69079276D01*
X192525638Y-69364990D01*
X192835161Y-69364990D01*
X188428333Y-63759590D02*
X188428333Y-64116733D01*
X188404523Y-64188161D01*
X188356904Y-64235780D01*
X188285476Y-64259590D01*
X188237857Y-64259590D01*
X188928333Y-64259590D02*
X188642619Y-64259590D01*
X188785476Y-64259590D02*
X188785476Y-63759590D01*
X188737857Y-63831019D01*
X188690238Y-63878638D01*
X188642619Y-63902447D01*
X195414152Y-75562590D02*
X195414152Y-75062590D01*
X195533200Y-75062590D01*
X195604628Y-75086400D01*
X195652247Y-75134019D01*
X195676057Y-75181638D01*
X195699866Y-75276876D01*
X195699866Y-75348304D01*
X195676057Y-75443542D01*
X195652247Y-75491161D01*
X195604628Y-75538780D01*
X195533200Y-75562590D01*
X195414152Y-75562590D01*
X196152247Y-75062590D02*
X195914152Y-75062590D01*
X195890342Y-75300685D01*
X195914152Y-75276876D01*
X195961771Y-75253066D01*
X196080819Y-75253066D01*
X196128438Y-75276876D01*
X196152247Y-75300685D01*
X196176057Y-75348304D01*
X196176057Y-75467352D01*
X196152247Y-75514971D01*
X196128438Y-75538780D01*
X196080819Y-75562590D01*
X195961771Y-75562590D01*
X195914152Y-75538780D01*
X195890342Y-75514971D01*
X194764790Y-76289647D02*
X194264790Y-76289647D01*
X194264790Y-76170600D01*
X194288600Y-76099171D01*
X194336219Y-76051552D01*
X194383838Y-76027742D01*
X194479076Y-76003933D01*
X194550504Y-76003933D01*
X194645742Y-76027742D01*
X194693361Y-76051552D01*
X194740980Y-76099171D01*
X194764790Y-76170600D01*
X194764790Y-76289647D01*
X194479076Y-75718219D02*
X194455266Y-75765838D01*
X194431457Y-75789647D01*
X194383838Y-75813457D01*
X194360028Y-75813457D01*
X194312409Y-75789647D01*
X194288600Y-75765838D01*
X194264790Y-75718219D01*
X194264790Y-75622980D01*
X194288600Y-75575361D01*
X194312409Y-75551552D01*
X194360028Y-75527742D01*
X194383838Y-75527742D01*
X194431457Y-75551552D01*
X194455266Y-75575361D01*
X194479076Y-75622980D01*
X194479076Y-75718219D01*
X194502885Y-75765838D01*
X194526695Y-75789647D01*
X194574314Y-75813457D01*
X194669552Y-75813457D01*
X194717171Y-75789647D01*
X194740980Y-75765838D01*
X194764790Y-75718219D01*
X194764790Y-75622980D01*
X194740980Y-75575361D01*
X194717171Y-75551552D01*
X194669552Y-75527742D01*
X194574314Y-75527742D01*
X194526695Y-75551552D01*
X194502885Y-75575361D01*
X194479076Y-75622980D01*
X214775266Y-71323971D02*
X214751457Y-71347780D01*
X214680028Y-71371590D01*
X214632409Y-71371590D01*
X214560980Y-71347780D01*
X214513361Y-71300161D01*
X214489552Y-71252542D01*
X214465742Y-71157304D01*
X214465742Y-71085876D01*
X214489552Y-70990638D01*
X214513361Y-70943019D01*
X214560980Y-70895400D01*
X214632409Y-70871590D01*
X214680028Y-70871590D01*
X214751457Y-70895400D01*
X214775266Y-70919209D01*
X215251457Y-71371590D02*
X214965742Y-71371590D01*
X215108600Y-71371590D02*
X215108600Y-70871590D01*
X215060980Y-70943019D01*
X215013361Y-70990638D01*
X214965742Y-71014447D01*
X219652066Y-72682871D02*
X219628257Y-72706680D01*
X219556828Y-72730490D01*
X219509209Y-72730490D01*
X219437780Y-72706680D01*
X219390161Y-72659061D01*
X219366352Y-72611442D01*
X219342542Y-72516204D01*
X219342542Y-72444776D01*
X219366352Y-72349538D01*
X219390161Y-72301919D01*
X219437780Y-72254300D01*
X219509209Y-72230490D01*
X219556828Y-72230490D01*
X219628257Y-72254300D01*
X219652066Y-72278109D01*
X219842542Y-72278109D02*
X219866352Y-72254300D01*
X219913971Y-72230490D01*
X220033019Y-72230490D01*
X220080638Y-72254300D01*
X220104447Y-72278109D01*
X220128257Y-72325728D01*
X220128257Y-72373347D01*
X220104447Y-72444776D01*
X219818733Y-72730490D01*
X220128257Y-72730490D01*
X209466406Y-67555143D02*
X209432734Y-67555143D01*
X209365391Y-67521471D01*
X209331719Y-67487800D01*
X209298047Y-67420456D01*
X209298047Y-67353112D01*
X209314883Y-67302605D01*
X209365391Y-67218425D01*
X209415898Y-67167918D01*
X209500078Y-67117410D01*
X209550585Y-67100574D01*
X209617929Y-67100574D01*
X209685272Y-67134246D01*
X209718944Y-67167918D01*
X209752616Y-67235261D01*
X209752616Y-67268933D01*
X209971482Y-67656158D02*
X209735780Y-67891861D01*
X210021990Y-67437292D02*
X209685272Y-67605651D01*
X209904139Y-67824517D01*
X216730804Y-60925743D02*
X216697132Y-60925743D01*
X216629789Y-60892071D01*
X216596117Y-60858400D01*
X216562445Y-60791056D01*
X216562445Y-60723712D01*
X216579281Y-60673205D01*
X216629789Y-60589025D01*
X216680296Y-60538518D01*
X216764476Y-60488010D01*
X216814983Y-60471174D01*
X216882327Y-60471174D01*
X216949670Y-60504846D01*
X216983342Y-60538518D01*
X217017014Y-60605861D01*
X217017014Y-60639533D01*
X217370567Y-60925743D02*
X217202208Y-60757384D01*
X217017014Y-60908907D01*
X217050686Y-60908907D01*
X217101193Y-60925743D01*
X217185373Y-61009922D01*
X217202208Y-61060430D01*
X217202208Y-61094102D01*
X217185373Y-61144609D01*
X217101193Y-61228789D01*
X217050686Y-61245625D01*
X217017014Y-61245625D01*
X216966506Y-61228789D01*
X216882327Y-61144609D01*
X216865491Y-61094102D01*
X216865491Y-61060430D01*
X218075543Y-69730394D02*
X218075543Y-69764066D01*
X218041871Y-69831409D01*
X218008200Y-69865081D01*
X217940856Y-69898753D01*
X217873512Y-69898753D01*
X217823005Y-69881917D01*
X217738825Y-69831409D01*
X217688318Y-69780902D01*
X217637810Y-69696722D01*
X217620974Y-69646215D01*
X217620974Y-69578871D01*
X217654646Y-69511528D01*
X217688318Y-69477856D01*
X217755661Y-69444184D01*
X217789333Y-69444184D01*
X218058707Y-69107467D02*
X217991364Y-69174810D01*
X217974528Y-69225318D01*
X217974528Y-69258990D01*
X217991364Y-69343169D01*
X218041871Y-69427348D01*
X218176558Y-69562035D01*
X218227066Y-69578871D01*
X218260738Y-69578871D01*
X218311245Y-69562035D01*
X218378589Y-69494692D01*
X218395425Y-69444184D01*
X218395425Y-69410512D01*
X218378589Y-69360005D01*
X218294409Y-69275825D01*
X218243902Y-69258990D01*
X218210230Y-69258990D01*
X218159722Y-69275825D01*
X218092379Y-69343169D01*
X218075543Y-69393677D01*
X218075543Y-69427348D01*
X218092379Y-69477856D01*
X207840805Y-67174143D02*
X207807133Y-67174143D01*
X207739790Y-67140471D01*
X207706118Y-67106800D01*
X207672446Y-67039456D01*
X207672446Y-66972112D01*
X207689282Y-66921605D01*
X207739790Y-66837425D01*
X207790297Y-66786918D01*
X207874477Y-66736410D01*
X207924984Y-66719574D01*
X207992328Y-66719574D01*
X208059671Y-66753246D01*
X208093343Y-66786918D01*
X208127015Y-66854261D01*
X208127015Y-66887933D01*
X208278538Y-66972112D02*
X208514240Y-67207815D01*
X208009164Y-67409845D01*
X207180405Y-63656243D02*
X207146733Y-63656243D01*
X207079390Y-63622571D01*
X207045718Y-63588900D01*
X207012046Y-63521556D01*
X207012046Y-63454212D01*
X207028882Y-63403705D01*
X207079390Y-63319525D01*
X207129897Y-63269018D01*
X207214077Y-63218510D01*
X207264584Y-63201674D01*
X207331928Y-63201674D01*
X207399271Y-63235346D01*
X207432943Y-63269018D01*
X207466615Y-63336361D01*
X207466615Y-63370033D01*
X207550794Y-63689915D02*
X207533958Y-63639407D01*
X207533958Y-63605735D01*
X207550794Y-63555228D01*
X207567630Y-63538392D01*
X207618138Y-63521556D01*
X207651809Y-63521556D01*
X207702317Y-63538392D01*
X207769661Y-63605735D01*
X207786496Y-63656243D01*
X207786496Y-63689915D01*
X207769661Y-63740422D01*
X207752825Y-63757258D01*
X207702317Y-63774094D01*
X207668645Y-63774094D01*
X207618138Y-63757258D01*
X207550794Y-63689915D01*
X207500287Y-63673079D01*
X207466615Y-63673079D01*
X207416107Y-63689915D01*
X207348764Y-63757258D01*
X207331928Y-63807766D01*
X207331928Y-63841438D01*
X207348764Y-63891945D01*
X207416107Y-63959289D01*
X207466615Y-63976125D01*
X207500287Y-63976125D01*
X207550794Y-63959289D01*
X207618138Y-63891945D01*
X207634974Y-63841438D01*
X207634974Y-63807766D01*
X207618138Y-63757258D01*
X221386984Y-67866753D02*
X221386984Y-67900425D01*
X221353312Y-67967768D01*
X221319641Y-68001440D01*
X221252297Y-68035112D01*
X221184954Y-68035112D01*
X221134446Y-68018276D01*
X221050267Y-67967768D01*
X220999759Y-67917261D01*
X220949251Y-67833081D01*
X220932416Y-67782574D01*
X220932416Y-67715230D01*
X220966087Y-67647887D01*
X220999759Y-67614215D01*
X221067103Y-67580543D01*
X221100774Y-67580543D01*
X221757374Y-67563707D02*
X221555343Y-67765738D01*
X221656358Y-67664722D02*
X221302805Y-67311169D01*
X221319641Y-67395348D01*
X221319641Y-67462692D01*
X221302805Y-67513200D01*
X221622687Y-66991287D02*
X221656358Y-66957616D01*
X221706866Y-66940780D01*
X221740538Y-66940780D01*
X221791045Y-66957616D01*
X221875225Y-67008123D01*
X221959404Y-67092303D01*
X222009912Y-67176482D01*
X222026748Y-67226990D01*
X222026748Y-67260661D01*
X222009912Y-67311169D01*
X221976240Y-67344841D01*
X221925732Y-67361677D01*
X221892061Y-67361677D01*
X221841553Y-67344841D01*
X221757374Y-67294333D01*
X221673194Y-67210154D01*
X221622687Y-67125974D01*
X221605851Y-67075467D01*
X221605851Y-67041795D01*
X221622687Y-66991287D01*
X197257171Y-59579628D02*
X197280980Y-59603438D01*
X197304790Y-59674866D01*
X197304790Y-59722485D01*
X197280980Y-59793914D01*
X197233361Y-59841533D01*
X197185742Y-59865342D01*
X197090504Y-59889152D01*
X197019076Y-59889152D01*
X196923838Y-59865342D01*
X196876219Y-59841533D01*
X196828600Y-59793914D01*
X196804790Y-59722485D01*
X196804790Y-59674866D01*
X196828600Y-59603438D01*
X196852409Y-59579628D01*
X197304790Y-59103438D02*
X197304790Y-59389152D01*
X197304790Y-59246295D02*
X196804790Y-59246295D01*
X196876219Y-59293914D01*
X196923838Y-59341533D01*
X196947647Y-59389152D01*
X197304790Y-58627247D02*
X197304790Y-58912961D01*
X197304790Y-58770104D02*
X196804790Y-58770104D01*
X196876219Y-58817723D01*
X196923838Y-58865342D01*
X196947647Y-58912961D01*
X211507845Y-69647384D02*
X211474173Y-69647384D01*
X211406830Y-69613712D01*
X211373158Y-69580041D01*
X211339486Y-69512697D01*
X211339486Y-69445354D01*
X211356322Y-69394846D01*
X211406830Y-69310667D01*
X211457337Y-69260159D01*
X211541517Y-69209651D01*
X211592024Y-69192816D01*
X211659368Y-69192816D01*
X211726711Y-69226487D01*
X211760383Y-69260159D01*
X211794055Y-69327503D01*
X211794055Y-69361174D01*
X211810891Y-70017774D02*
X211608860Y-69815743D01*
X211709876Y-69916758D02*
X212063429Y-69563205D01*
X211979250Y-69580041D01*
X211911906Y-69580041D01*
X211861399Y-69563205D01*
X212265460Y-69832579D02*
X212299131Y-69832579D01*
X212349639Y-69849415D01*
X212433818Y-69933594D01*
X212450654Y-69984102D01*
X212450654Y-70017774D01*
X212433818Y-70068281D01*
X212400147Y-70101953D01*
X212332803Y-70135625D01*
X211928742Y-70135625D01*
X212147608Y-70354491D01*
X223139771Y-82211028D02*
X223163580Y-82234838D01*
X223187390Y-82306266D01*
X223187390Y-82353885D01*
X223163580Y-82425314D01*
X223115961Y-82472933D01*
X223068342Y-82496742D01*
X222973104Y-82520552D01*
X222901676Y-82520552D01*
X222806438Y-82496742D01*
X222758819Y-82472933D01*
X222711200Y-82425314D01*
X222687390Y-82353885D01*
X222687390Y-82306266D01*
X222711200Y-82234838D01*
X222735009Y-82211028D01*
X223187390Y-81734838D02*
X223187390Y-82020552D01*
X223187390Y-81877695D02*
X222687390Y-81877695D01*
X222758819Y-81925314D01*
X222806438Y-81972933D01*
X222830247Y-82020552D01*
X222901676Y-81449123D02*
X222877866Y-81496742D01*
X222854057Y-81520552D01*
X222806438Y-81544361D01*
X222782628Y-81544361D01*
X222735009Y-81520552D01*
X222711200Y-81496742D01*
X222687390Y-81449123D01*
X222687390Y-81353885D01*
X222711200Y-81306266D01*
X222735009Y-81282457D01*
X222782628Y-81258647D01*
X222806438Y-81258647D01*
X222854057Y-81282457D01*
X222877866Y-81306266D01*
X222901676Y-81353885D01*
X222901676Y-81449123D01*
X222925485Y-81496742D01*
X222949295Y-81520552D01*
X222996914Y-81544361D01*
X223092152Y-81544361D01*
X223139771Y-81520552D01*
X223163580Y-81496742D01*
X223187390Y-81449123D01*
X223187390Y-81353885D01*
X223163580Y-81306266D01*
X223139771Y-81282457D01*
X223092152Y-81258647D01*
X222996914Y-81258647D01*
X222949295Y-81282457D01*
X222925485Y-81306266D01*
X222901676Y-81353885D01*
X217535334Y-60299015D02*
X217585842Y-60012805D01*
X217333304Y-60096984D02*
X217686857Y-59743431D01*
X217821544Y-59878118D01*
X217838380Y-59928625D01*
X217838380Y-59962297D01*
X217821544Y-60012805D01*
X217771036Y-60063312D01*
X217720529Y-60080148D01*
X217686857Y-60080148D01*
X217636349Y-60063312D01*
X217501662Y-59928625D01*
X217872052Y-60635732D02*
X217670021Y-60433702D01*
X217771036Y-60534717D02*
X218124590Y-60181164D01*
X218040410Y-60198000D01*
X217973067Y-60198000D01*
X217922559Y-60181164D01*
X224541566Y-64437390D02*
X224374900Y-64199295D01*
X224255852Y-64437390D02*
X224255852Y-63937390D01*
X224446328Y-63937390D01*
X224493947Y-63961200D01*
X224517757Y-63985009D01*
X224541566Y-64032628D01*
X224541566Y-64104057D01*
X224517757Y-64151676D01*
X224493947Y-64175485D01*
X224446328Y-64199295D01*
X224255852Y-64199295D01*
X224732042Y-63985009D02*
X224755852Y-63961200D01*
X224803471Y-63937390D01*
X224922519Y-63937390D01*
X224970138Y-63961200D01*
X224993947Y-63985009D01*
X225017757Y-64032628D01*
X225017757Y-64080247D01*
X224993947Y-64151676D01*
X224708233Y-64437390D01*
X225017757Y-64437390D01*
X225549590Y-61195733D02*
X225311495Y-61362400D01*
X225549590Y-61481447D02*
X225049590Y-61481447D01*
X225049590Y-61290971D01*
X225073400Y-61243352D01*
X225097209Y-61219542D01*
X225144828Y-61195733D01*
X225216257Y-61195733D01*
X225263876Y-61219542D01*
X225287685Y-61243352D01*
X225311495Y-61290971D01*
X225311495Y-61481447D01*
X225049590Y-61029066D02*
X225049590Y-60719542D01*
X225240066Y-60886209D01*
X225240066Y-60814780D01*
X225263876Y-60767161D01*
X225287685Y-60743352D01*
X225335304Y-60719542D01*
X225454352Y-60719542D01*
X225501971Y-60743352D01*
X225525780Y-60767161D01*
X225549590Y-60814780D01*
X225549590Y-60957638D01*
X225525780Y-61005257D01*
X225501971Y-61029066D01*
X224279590Y-67977533D02*
X224041495Y-68144200D01*
X224279590Y-68263247D02*
X223779590Y-68263247D01*
X223779590Y-68072771D01*
X223803400Y-68025152D01*
X223827209Y-68001342D01*
X223874828Y-67977533D01*
X223946257Y-67977533D01*
X223993876Y-68001342D01*
X224017685Y-68025152D01*
X224041495Y-68072771D01*
X224041495Y-68263247D01*
X223946257Y-67548961D02*
X224279590Y-67548961D01*
X223755780Y-67668009D02*
X224112923Y-67787057D01*
X224112923Y-67477533D01*
X209187266Y-80845790D02*
X209020600Y-80607695D01*
X208901552Y-80845790D02*
X208901552Y-80345790D01*
X209092028Y-80345790D01*
X209139647Y-80369600D01*
X209163457Y-80393409D01*
X209187266Y-80441028D01*
X209187266Y-80512457D01*
X209163457Y-80560076D01*
X209139647Y-80583885D01*
X209092028Y-80607695D01*
X208901552Y-80607695D01*
X209639647Y-80345790D02*
X209401552Y-80345790D01*
X209377742Y-80583885D01*
X209401552Y-80560076D01*
X209449171Y-80536266D01*
X209568219Y-80536266D01*
X209615838Y-80560076D01*
X209639647Y-80583885D01*
X209663457Y-80631504D01*
X209663457Y-80750552D01*
X209639647Y-80798171D01*
X209615838Y-80821980D01*
X209568219Y-80845790D01*
X209449171Y-80845790D01*
X209401552Y-80821980D01*
X209377742Y-80798171D01*
X209187266Y-79905990D02*
X209020600Y-79667895D01*
X208901552Y-79905990D02*
X208901552Y-79405990D01*
X209092028Y-79405990D01*
X209139647Y-79429800D01*
X209163457Y-79453609D01*
X209187266Y-79501228D01*
X209187266Y-79572657D01*
X209163457Y-79620276D01*
X209139647Y-79644085D01*
X209092028Y-79667895D01*
X208901552Y-79667895D01*
X209615838Y-79405990D02*
X209520600Y-79405990D01*
X209472980Y-79429800D01*
X209449171Y-79453609D01*
X209401552Y-79525038D01*
X209377742Y-79620276D01*
X209377742Y-79810752D01*
X209401552Y-79858371D01*
X209425361Y-79882180D01*
X209472980Y-79905990D01*
X209568219Y-79905990D01*
X209615838Y-79882180D01*
X209639647Y-79858371D01*
X209663457Y-79810752D01*
X209663457Y-79691704D01*
X209639647Y-79644085D01*
X209615838Y-79620276D01*
X209568219Y-79596466D01*
X209472980Y-79596466D01*
X209425361Y-79620276D01*
X209401552Y-79644085D01*
X209377742Y-79691704D01*
X222081056Y-68586225D02*
X221794846Y-68535717D01*
X221879025Y-68788255D02*
X221525472Y-68434702D01*
X221660159Y-68300015D01*
X221710667Y-68283179D01*
X221744338Y-68283179D01*
X221794846Y-68300015D01*
X221845354Y-68350522D01*
X221862190Y-68401030D01*
X221862190Y-68434702D01*
X221845354Y-68485209D01*
X221710667Y-68619896D01*
X222417774Y-68249507D02*
X222215743Y-68451538D01*
X222316758Y-68350522D02*
X221963205Y-67996969D01*
X221980041Y-68081148D01*
X221980041Y-68148492D01*
X221963205Y-68199000D01*
X222283087Y-67677087D02*
X222316758Y-67643416D01*
X222367266Y-67626580D01*
X222400938Y-67626580D01*
X222451445Y-67643416D01*
X222535625Y-67693923D01*
X222619804Y-67778103D01*
X222670312Y-67862282D01*
X222687148Y-67912790D01*
X222687148Y-67946461D01*
X222670312Y-67996969D01*
X222636640Y-68030641D01*
X222586132Y-68047477D01*
X222552461Y-68047477D01*
X222501953Y-68030641D01*
X222417774Y-67980133D01*
X222333594Y-67895954D01*
X222283087Y-67811774D01*
X222266251Y-67761267D01*
X222266251Y-67727595D01*
X222283087Y-67677087D01*
X189467371Y-72260590D02*
X189300704Y-72022495D01*
X189181657Y-72260590D02*
X189181657Y-71760590D01*
X189372133Y-71760590D01*
X189419752Y-71784400D01*
X189443561Y-71808209D01*
X189467371Y-71855828D01*
X189467371Y-71927257D01*
X189443561Y-71974876D01*
X189419752Y-71998685D01*
X189372133Y-72022495D01*
X189181657Y-72022495D01*
X189943561Y-72260590D02*
X189657847Y-72260590D01*
X189800704Y-72260590D02*
X189800704Y-71760590D01*
X189753085Y-71832019D01*
X189705466Y-71879638D01*
X189657847Y-71903447D01*
X190419752Y-72260590D02*
X190134038Y-72260590D01*
X190276895Y-72260590D02*
X190276895Y-71760590D01*
X190229276Y-71832019D01*
X190181657Y-71879638D01*
X190134038Y-71903447D01*
X210523971Y-89049990D02*
X210357304Y-88811895D01*
X210238257Y-89049990D02*
X210238257Y-88549990D01*
X210428733Y-88549990D01*
X210476352Y-88573800D01*
X210500161Y-88597609D01*
X210523971Y-88645228D01*
X210523971Y-88716657D01*
X210500161Y-88764276D01*
X210476352Y-88788085D01*
X210428733Y-88811895D01*
X210238257Y-88811895D01*
X211000161Y-89049990D02*
X210714447Y-89049990D01*
X210857304Y-89049990D02*
X210857304Y-88549990D01*
X210809685Y-88621419D01*
X210762066Y-88669038D01*
X210714447Y-88692847D01*
X211190638Y-88597609D02*
X211214447Y-88573800D01*
X211262066Y-88549990D01*
X211381114Y-88549990D01*
X211428733Y-88573800D01*
X211452542Y-88597609D01*
X211476352Y-88645228D01*
X211476352Y-88692847D01*
X211452542Y-88764276D01*
X211166828Y-89049990D01*
X211476352Y-89049990D01*
X206504171Y-87322790D02*
X206337504Y-87084695D01*
X206218457Y-87322790D02*
X206218457Y-86822790D01*
X206408933Y-86822790D01*
X206456552Y-86846600D01*
X206480361Y-86870409D01*
X206504171Y-86918028D01*
X206504171Y-86989457D01*
X206480361Y-87037076D01*
X206456552Y-87060885D01*
X206408933Y-87084695D01*
X206218457Y-87084695D01*
X206980361Y-87322790D02*
X206694647Y-87322790D01*
X206837504Y-87322790D02*
X206837504Y-86822790D01*
X206789885Y-86894219D01*
X206742266Y-86941838D01*
X206694647Y-86965647D01*
X207147028Y-86822790D02*
X207456552Y-86822790D01*
X207289885Y-87013266D01*
X207361314Y-87013266D01*
X207408933Y-87037076D01*
X207432742Y-87060885D01*
X207456552Y-87108504D01*
X207456552Y-87227552D01*
X207432742Y-87275171D01*
X207408933Y-87298980D01*
X207361314Y-87322790D01*
X207218457Y-87322790D01*
X207170838Y-87298980D01*
X207147028Y-87275171D01*
X218550371Y-74876790D02*
X218383704Y-74638695D01*
X218264657Y-74876790D02*
X218264657Y-74376790D01*
X218455133Y-74376790D01*
X218502752Y-74400600D01*
X218526561Y-74424409D01*
X218550371Y-74472028D01*
X218550371Y-74543457D01*
X218526561Y-74591076D01*
X218502752Y-74614885D01*
X218455133Y-74638695D01*
X218264657Y-74638695D01*
X219026561Y-74876790D02*
X218740847Y-74876790D01*
X218883704Y-74876790D02*
X218883704Y-74376790D01*
X218836085Y-74448219D01*
X218788466Y-74495838D01*
X218740847Y-74519647D01*
X219455133Y-74543457D02*
X219455133Y-74876790D01*
X219336085Y-74352980D02*
X219217038Y-74710123D01*
X219526561Y-74710123D01*
X223212790Y-84141428D02*
X222974695Y-84308095D01*
X223212790Y-84427142D02*
X222712790Y-84427142D01*
X222712790Y-84236666D01*
X222736600Y-84189047D01*
X222760409Y-84165238D01*
X222808028Y-84141428D01*
X222879457Y-84141428D01*
X222927076Y-84165238D01*
X222950885Y-84189047D01*
X222974695Y-84236666D01*
X222974695Y-84427142D01*
X223212790Y-83665238D02*
X223212790Y-83950952D01*
X223212790Y-83808095D02*
X222712790Y-83808095D01*
X222784219Y-83855714D01*
X222831838Y-83903333D01*
X222855647Y-83950952D01*
X222712790Y-83212857D02*
X222712790Y-83450952D01*
X222950885Y-83474761D01*
X222927076Y-83450952D01*
X222903266Y-83403333D01*
X222903266Y-83284285D01*
X222927076Y-83236666D01*
X222950885Y-83212857D01*
X222998504Y-83189047D01*
X223117552Y-83189047D01*
X223165171Y-83212857D01*
X223188980Y-83236666D01*
X223212790Y-83284285D01*
X223212790Y-83403333D01*
X223188980Y-83450952D01*
X223165171Y-83474761D01*
X217585171Y-87271990D02*
X217418504Y-87033895D01*
X217299457Y-87271990D02*
X217299457Y-86771990D01*
X217489933Y-86771990D01*
X217537552Y-86795800D01*
X217561361Y-86819609D01*
X217585171Y-86867228D01*
X217585171Y-86938657D01*
X217561361Y-86986276D01*
X217537552Y-87010085D01*
X217489933Y-87033895D01*
X217299457Y-87033895D01*
X218061361Y-87271990D02*
X217775647Y-87271990D01*
X217918504Y-87271990D02*
X217918504Y-86771990D01*
X217870885Y-86843419D01*
X217823266Y-86891038D01*
X217775647Y-86914847D01*
X218489933Y-86771990D02*
X218394695Y-86771990D01*
X218347076Y-86795800D01*
X218323266Y-86819609D01*
X218275647Y-86891038D01*
X218251838Y-86986276D01*
X218251838Y-87176752D01*
X218275647Y-87224371D01*
X218299457Y-87248180D01*
X218347076Y-87271990D01*
X218442314Y-87271990D01*
X218489933Y-87248180D01*
X218513742Y-87224371D01*
X218537552Y-87176752D01*
X218537552Y-87057704D01*
X218513742Y-87010085D01*
X218489933Y-86986276D01*
X218442314Y-86962466D01*
X218347076Y-86962466D01*
X218299457Y-86986276D01*
X218275647Y-87010085D01*
X218251838Y-87057704D01*
X204391390Y-70704828D02*
X204153295Y-70871495D01*
X204391390Y-70990542D02*
X203891390Y-70990542D01*
X203891390Y-70800066D01*
X203915200Y-70752447D01*
X203939009Y-70728638D01*
X203986628Y-70704828D01*
X204058057Y-70704828D01*
X204105676Y-70728638D01*
X204129485Y-70752447D01*
X204153295Y-70800066D01*
X204153295Y-70990542D01*
X204391390Y-70228638D02*
X204391390Y-70514352D01*
X204391390Y-70371495D02*
X203891390Y-70371495D01*
X203962819Y-70419114D01*
X204010438Y-70466733D01*
X204034247Y-70514352D01*
X204105676Y-69942923D02*
X204081866Y-69990542D01*
X204058057Y-70014352D01*
X204010438Y-70038161D01*
X203986628Y-70038161D01*
X203939009Y-70014352D01*
X203915200Y-69990542D01*
X203891390Y-69942923D01*
X203891390Y-69847685D01*
X203915200Y-69800066D01*
X203939009Y-69776257D01*
X203986628Y-69752447D01*
X204010438Y-69752447D01*
X204058057Y-69776257D01*
X204081866Y-69800066D01*
X204105676Y-69847685D01*
X204105676Y-69942923D01*
X204129485Y-69990542D01*
X204153295Y-70014352D01*
X204200914Y-70038161D01*
X204296152Y-70038161D01*
X204343771Y-70014352D01*
X204367580Y-69990542D01*
X204391390Y-69942923D01*
X204391390Y-69847685D01*
X204367580Y-69800066D01*
X204343771Y-69776257D01*
X204296152Y-69752447D01*
X204200914Y-69752447D01*
X204153295Y-69776257D01*
X204129485Y-69800066D01*
X204105676Y-69847685D01*
X204289790Y-72559028D02*
X204051695Y-72725695D01*
X204289790Y-72844742D02*
X203789790Y-72844742D01*
X203789790Y-72654266D01*
X203813600Y-72606647D01*
X203837409Y-72582838D01*
X203885028Y-72559028D01*
X203956457Y-72559028D01*
X204004076Y-72582838D01*
X204027885Y-72606647D01*
X204051695Y-72654266D01*
X204051695Y-72844742D01*
X204289790Y-72082838D02*
X204289790Y-72368552D01*
X204289790Y-72225695D02*
X203789790Y-72225695D01*
X203861219Y-72273314D01*
X203908838Y-72320933D01*
X203932647Y-72368552D01*
X204289790Y-71844742D02*
X204289790Y-71749504D01*
X204265980Y-71701885D01*
X204242171Y-71678076D01*
X204170742Y-71630457D01*
X204075504Y-71606647D01*
X203885028Y-71606647D01*
X203837409Y-71630457D01*
X203813600Y-71654266D01*
X203789790Y-71701885D01*
X203789790Y-71797123D01*
X203813600Y-71844742D01*
X203837409Y-71868552D01*
X203885028Y-71892361D01*
X204004076Y-71892361D01*
X204051695Y-71868552D01*
X204075504Y-71844742D01*
X204099314Y-71797123D01*
X204099314Y-71701885D01*
X204075504Y-71654266D01*
X204051695Y-71630457D01*
X204004076Y-71606647D01*
X219513171Y-87221190D02*
X219346504Y-86983095D01*
X219227457Y-87221190D02*
X219227457Y-86721190D01*
X219417933Y-86721190D01*
X219465552Y-86745000D01*
X219489361Y-86768809D01*
X219513171Y-86816428D01*
X219513171Y-86887857D01*
X219489361Y-86935476D01*
X219465552Y-86959285D01*
X219417933Y-86983095D01*
X219227457Y-86983095D01*
X219703647Y-86768809D02*
X219727457Y-86745000D01*
X219775076Y-86721190D01*
X219894123Y-86721190D01*
X219941742Y-86745000D01*
X219965552Y-86768809D01*
X219989361Y-86816428D01*
X219989361Y-86864047D01*
X219965552Y-86935476D01*
X219679838Y-87221190D01*
X219989361Y-87221190D01*
X220298885Y-86721190D02*
X220346504Y-86721190D01*
X220394123Y-86745000D01*
X220417933Y-86768809D01*
X220441742Y-86816428D01*
X220465552Y-86911666D01*
X220465552Y-87030714D01*
X220441742Y-87125952D01*
X220417933Y-87173571D01*
X220394123Y-87197380D01*
X220346504Y-87221190D01*
X220298885Y-87221190D01*
X220251266Y-87197380D01*
X220227457Y-87173571D01*
X220203647Y-87125952D01*
X220179838Y-87030714D01*
X220179838Y-86911666D01*
X220203647Y-86816428D01*
X220227457Y-86768809D01*
X220251266Y-86745000D01*
X220298885Y-86721190D01*
X223238190Y-86148028D02*
X223000095Y-86314695D01*
X223238190Y-86433742D02*
X222738190Y-86433742D01*
X222738190Y-86243266D01*
X222762000Y-86195647D01*
X222785809Y-86171838D01*
X222833428Y-86148028D01*
X222904857Y-86148028D01*
X222952476Y-86171838D01*
X222976285Y-86195647D01*
X223000095Y-86243266D01*
X223000095Y-86433742D01*
X222785809Y-85957552D02*
X222762000Y-85933742D01*
X222738190Y-85886123D01*
X222738190Y-85767076D01*
X222762000Y-85719457D01*
X222785809Y-85695647D01*
X222833428Y-85671838D01*
X222881047Y-85671838D01*
X222952476Y-85695647D01*
X223238190Y-85981361D01*
X223238190Y-85671838D01*
X223238190Y-85195647D02*
X223238190Y-85481361D01*
X223238190Y-85338504D02*
X222738190Y-85338504D01*
X222809619Y-85386123D01*
X222857238Y-85433742D01*
X222881047Y-85481361D01*
X218804456Y-67951225D02*
X218518246Y-67900717D01*
X218602425Y-68153255D02*
X218248872Y-67799702D01*
X218383559Y-67665015D01*
X218434067Y-67648179D01*
X218467738Y-67648179D01*
X218518246Y-67665015D01*
X218568754Y-67715522D01*
X218585590Y-67766030D01*
X218585590Y-67799702D01*
X218568754Y-67850209D01*
X218434067Y-67984896D01*
X218619261Y-67496656D02*
X218619261Y-67462984D01*
X218636097Y-67412477D01*
X218720277Y-67328297D01*
X218770784Y-67311461D01*
X218804456Y-67311461D01*
X218854964Y-67328297D01*
X218888635Y-67361969D01*
X218922307Y-67429312D01*
X218922307Y-67833374D01*
X219141174Y-67614507D01*
X219208517Y-67075759D02*
X219444219Y-67311461D01*
X218989651Y-67025251D02*
X219158009Y-67361969D01*
X219376876Y-67143103D01*
X210136380Y-71025141D02*
X210186888Y-70738931D01*
X209934350Y-70823110D02*
X210287903Y-70469557D01*
X210422590Y-70604244D01*
X210439426Y-70654752D01*
X210439426Y-70688423D01*
X210422590Y-70738931D01*
X210372083Y-70789439D01*
X210321575Y-70806275D01*
X210287903Y-70806275D01*
X210237396Y-70789439D01*
X210102709Y-70654752D01*
X210590949Y-70839946D02*
X210624621Y-70839946D01*
X210675128Y-70856782D01*
X210759308Y-70940962D01*
X210776144Y-70991469D01*
X210776144Y-71025141D01*
X210759308Y-71075649D01*
X210725636Y-71109320D01*
X210658293Y-71142992D01*
X210254231Y-71142992D01*
X210473098Y-71361859D01*
X211146533Y-71328187D02*
X210978174Y-71159828D01*
X210792980Y-71311351D01*
X210826651Y-71311351D01*
X210877159Y-71328187D01*
X210961338Y-71412366D01*
X210978174Y-71462874D01*
X210978174Y-71496546D01*
X210961338Y-71547053D01*
X210877159Y-71631233D01*
X210826651Y-71648068D01*
X210792980Y-71648068D01*
X210742472Y-71631233D01*
X210658293Y-71547053D01*
X210641457Y-71496546D01*
X210641457Y-71462874D01*
X213302975Y-72830656D02*
X213353483Y-72544446D01*
X213100945Y-72628625D02*
X213454498Y-72275072D01*
X213589185Y-72409759D01*
X213606021Y-72460267D01*
X213606021Y-72493938D01*
X213589185Y-72544446D01*
X213538678Y-72594954D01*
X213488170Y-72611790D01*
X213454498Y-72611790D01*
X213403991Y-72594954D01*
X213269304Y-72460267D01*
X213757544Y-72645461D02*
X213791216Y-72645461D01*
X213841723Y-72662297D01*
X213925903Y-72746477D01*
X213942739Y-72796984D01*
X213942739Y-72830656D01*
X213925903Y-72881164D01*
X213892231Y-72914835D01*
X213824888Y-72948507D01*
X213420826Y-72948507D01*
X213639693Y-73167374D01*
X214296292Y-73116866D02*
X214228949Y-73049522D01*
X214178441Y-73032687D01*
X214144769Y-73032687D01*
X214060590Y-73049522D01*
X213976410Y-73100030D01*
X213841723Y-73234717D01*
X213824888Y-73285225D01*
X213824888Y-73318896D01*
X213841723Y-73369404D01*
X213909067Y-73436748D01*
X213959575Y-73453583D01*
X213993246Y-73453583D01*
X214043754Y-73436748D01*
X214127933Y-73352568D01*
X214144769Y-73302061D01*
X214144769Y-73268389D01*
X214127933Y-73217881D01*
X214060590Y-73150538D01*
X214010082Y-73133702D01*
X213976410Y-73133702D01*
X213925903Y-73150538D01*
X203411971Y-80083790D02*
X203245304Y-79845695D01*
X203126257Y-80083790D02*
X203126257Y-79583790D01*
X203316733Y-79583790D01*
X203364352Y-79607600D01*
X203388161Y-79631409D01*
X203411971Y-79679028D01*
X203411971Y-79750457D01*
X203388161Y-79798076D01*
X203364352Y-79821885D01*
X203316733Y-79845695D01*
X203126257Y-79845695D01*
X203602447Y-79631409D02*
X203626257Y-79607600D01*
X203673876Y-79583790D01*
X203792923Y-79583790D01*
X203840542Y-79607600D01*
X203864352Y-79631409D01*
X203888161Y-79679028D01*
X203888161Y-79726647D01*
X203864352Y-79798076D01*
X203578638Y-80083790D01*
X203888161Y-80083790D01*
X204054828Y-79583790D02*
X204388161Y-79583790D01*
X204173876Y-80083790D01*
X206448790Y-65040628D02*
X206210695Y-65207295D01*
X206448790Y-65326342D02*
X205948790Y-65326342D01*
X205948790Y-65135866D01*
X205972600Y-65088247D01*
X205996409Y-65064438D01*
X206044028Y-65040628D01*
X206115457Y-65040628D01*
X206163076Y-65064438D01*
X206186885Y-65088247D01*
X206210695Y-65135866D01*
X206210695Y-65326342D01*
X205996409Y-64850152D02*
X205972600Y-64826342D01*
X205948790Y-64778723D01*
X205948790Y-64659676D01*
X205972600Y-64612057D01*
X205996409Y-64588247D01*
X206044028Y-64564438D01*
X206091647Y-64564438D01*
X206163076Y-64588247D01*
X206448790Y-64873961D01*
X206448790Y-64564438D01*
X206448790Y-64326342D02*
X206448790Y-64231104D01*
X206424980Y-64183485D01*
X206401171Y-64159676D01*
X206329742Y-64112057D01*
X206234504Y-64088247D01*
X206044028Y-64088247D01*
X205996409Y-64112057D01*
X205972600Y-64135866D01*
X205948790Y-64183485D01*
X205948790Y-64278723D01*
X205972600Y-64326342D01*
X205996409Y-64350152D01*
X206044028Y-64373961D01*
X206163076Y-64373961D01*
X206210695Y-64350152D01*
X206234504Y-64326342D01*
X206258314Y-64278723D01*
X206258314Y-64183485D01*
X206234504Y-64135866D01*
X206210695Y-64112057D01*
X206163076Y-64088247D01*
X196415790Y-62500628D02*
X196177695Y-62667295D01*
X196415790Y-62786342D02*
X195915790Y-62786342D01*
X195915790Y-62595866D01*
X195939600Y-62548247D01*
X195963409Y-62524438D01*
X196011028Y-62500628D01*
X196082457Y-62500628D01*
X196130076Y-62524438D01*
X196153885Y-62548247D01*
X196177695Y-62595866D01*
X196177695Y-62786342D01*
X195915790Y-62333961D02*
X195915790Y-62024438D01*
X196106266Y-62191104D01*
X196106266Y-62119676D01*
X196130076Y-62072057D01*
X196153885Y-62048247D01*
X196201504Y-62024438D01*
X196320552Y-62024438D01*
X196368171Y-62048247D01*
X196391980Y-62072057D01*
X196415790Y-62119676D01*
X196415790Y-62262533D01*
X196391980Y-62310152D01*
X196368171Y-62333961D01*
X195915790Y-61714914D02*
X195915790Y-61667295D01*
X195939600Y-61619676D01*
X195963409Y-61595866D01*
X196011028Y-61572057D01*
X196106266Y-61548247D01*
X196225314Y-61548247D01*
X196320552Y-61572057D01*
X196368171Y-61595866D01*
X196391980Y-61619676D01*
X196415790Y-61667295D01*
X196415790Y-61714914D01*
X196391980Y-61762533D01*
X196368171Y-61786342D01*
X196320552Y-61810152D01*
X196225314Y-61833961D01*
X196106266Y-61833961D01*
X196011028Y-61810152D01*
X195963409Y-61786342D01*
X195939600Y-61762533D01*
X195915790Y-61714914D01*
X197431790Y-62500628D02*
X197193695Y-62667295D01*
X197431790Y-62786342D02*
X196931790Y-62786342D01*
X196931790Y-62595866D01*
X196955600Y-62548247D01*
X196979409Y-62524438D01*
X197027028Y-62500628D01*
X197098457Y-62500628D01*
X197146076Y-62524438D01*
X197169885Y-62548247D01*
X197193695Y-62595866D01*
X197193695Y-62786342D01*
X196931790Y-62333961D02*
X196931790Y-62024438D01*
X197122266Y-62191104D01*
X197122266Y-62119676D01*
X197146076Y-62072057D01*
X197169885Y-62048247D01*
X197217504Y-62024438D01*
X197336552Y-62024438D01*
X197384171Y-62048247D01*
X197407980Y-62072057D01*
X197431790Y-62119676D01*
X197431790Y-62262533D01*
X197407980Y-62310152D01*
X197384171Y-62333961D01*
X197431790Y-61548247D02*
X197431790Y-61833961D01*
X197431790Y-61691104D02*
X196931790Y-61691104D01*
X197003219Y-61738723D01*
X197050838Y-61786342D01*
X197074647Y-61833961D01*
X204188190Y-74235428D02*
X203950095Y-74402095D01*
X204188190Y-74521142D02*
X203688190Y-74521142D01*
X203688190Y-74330666D01*
X203712000Y-74283047D01*
X203735809Y-74259238D01*
X203783428Y-74235428D01*
X203854857Y-74235428D01*
X203902476Y-74259238D01*
X203926285Y-74283047D01*
X203950095Y-74330666D01*
X203950095Y-74521142D01*
X203688190Y-74068761D02*
X203688190Y-73759238D01*
X203878666Y-73925904D01*
X203878666Y-73854476D01*
X203902476Y-73806857D01*
X203926285Y-73783047D01*
X203973904Y-73759238D01*
X204092952Y-73759238D01*
X204140571Y-73783047D01*
X204164380Y-73806857D01*
X204188190Y-73854476D01*
X204188190Y-73997333D01*
X204164380Y-74044952D01*
X204140571Y-74068761D01*
X203735809Y-73568761D02*
X203712000Y-73544952D01*
X203688190Y-73497333D01*
X203688190Y-73378285D01*
X203712000Y-73330666D01*
X203735809Y-73306857D01*
X203783428Y-73283047D01*
X203831047Y-73283047D01*
X203902476Y-73306857D01*
X204188190Y-73592571D01*
X204188190Y-73283047D01*
X204935971Y-71447790D02*
X204769304Y-71209695D01*
X204650257Y-71447790D02*
X204650257Y-70947790D01*
X204840733Y-70947790D01*
X204888352Y-70971600D01*
X204912161Y-70995409D01*
X204935971Y-71043028D01*
X204935971Y-71114457D01*
X204912161Y-71162076D01*
X204888352Y-71185885D01*
X204840733Y-71209695D01*
X204650257Y-71209695D01*
X205102638Y-70947790D02*
X205412161Y-70947790D01*
X205245495Y-71138266D01*
X205316923Y-71138266D01*
X205364542Y-71162076D01*
X205388352Y-71185885D01*
X205412161Y-71233504D01*
X205412161Y-71352552D01*
X205388352Y-71400171D01*
X205364542Y-71423980D01*
X205316923Y-71447790D01*
X205174066Y-71447790D01*
X205126447Y-71423980D01*
X205102638Y-71400171D01*
X205578828Y-70947790D02*
X205888352Y-70947790D01*
X205721685Y-71138266D01*
X205793114Y-71138266D01*
X205840733Y-71162076D01*
X205864542Y-71185885D01*
X205888352Y-71233504D01*
X205888352Y-71352552D01*
X205864542Y-71400171D01*
X205840733Y-71423980D01*
X205793114Y-71447790D01*
X205650257Y-71447790D01*
X205602638Y-71423980D01*
X205578828Y-71400171D01*
X208136371Y-78915390D02*
X207969704Y-78677295D01*
X207850657Y-78915390D02*
X207850657Y-78415390D01*
X208041133Y-78415390D01*
X208088752Y-78439200D01*
X208112561Y-78463009D01*
X208136371Y-78510628D01*
X208136371Y-78582057D01*
X208112561Y-78629676D01*
X208088752Y-78653485D01*
X208041133Y-78677295D01*
X207850657Y-78677295D01*
X208303038Y-78415390D02*
X208612561Y-78415390D01*
X208445895Y-78605866D01*
X208517323Y-78605866D01*
X208564942Y-78629676D01*
X208588752Y-78653485D01*
X208612561Y-78701104D01*
X208612561Y-78820152D01*
X208588752Y-78867771D01*
X208564942Y-78891580D01*
X208517323Y-78915390D01*
X208374466Y-78915390D01*
X208326847Y-78891580D01*
X208303038Y-78867771D01*
X209064942Y-78415390D02*
X208826847Y-78415390D01*
X208803038Y-78653485D01*
X208826847Y-78629676D01*
X208874466Y-78605866D01*
X208993514Y-78605866D01*
X209041133Y-78629676D01*
X209064942Y-78653485D01*
X209088752Y-78701104D01*
X209088752Y-78820152D01*
X209064942Y-78867771D01*
X209041133Y-78891580D01*
X208993514Y-78915390D01*
X208874466Y-78915390D01*
X208826847Y-78891580D01*
X208803038Y-78867771D01*
X206205971Y-78940790D02*
X206039304Y-78702695D01*
X205920257Y-78940790D02*
X205920257Y-78440790D01*
X206110733Y-78440790D01*
X206158352Y-78464600D01*
X206182161Y-78488409D01*
X206205971Y-78536028D01*
X206205971Y-78607457D01*
X206182161Y-78655076D01*
X206158352Y-78678885D01*
X206110733Y-78702695D01*
X205920257Y-78702695D01*
X206372638Y-78440790D02*
X206682161Y-78440790D01*
X206515495Y-78631266D01*
X206586923Y-78631266D01*
X206634542Y-78655076D01*
X206658352Y-78678885D01*
X206682161Y-78726504D01*
X206682161Y-78845552D01*
X206658352Y-78893171D01*
X206634542Y-78916980D01*
X206586923Y-78940790D01*
X206444066Y-78940790D01*
X206396447Y-78916980D01*
X206372638Y-78893171D01*
X207110733Y-78440790D02*
X207015495Y-78440790D01*
X206967876Y-78464600D01*
X206944066Y-78488409D01*
X206896447Y-78559838D01*
X206872638Y-78655076D01*
X206872638Y-78845552D01*
X206896447Y-78893171D01*
X206920257Y-78916980D01*
X206967876Y-78940790D01*
X207063114Y-78940790D01*
X207110733Y-78916980D01*
X207134542Y-78893171D01*
X207158352Y-78845552D01*
X207158352Y-78726504D01*
X207134542Y-78678885D01*
X207110733Y-78655076D01*
X207063114Y-78631266D01*
X206967876Y-78631266D01*
X206920257Y-78655076D01*
X206896447Y-78678885D01*
X206872638Y-78726504D01*
X208806005Y-68317144D02*
X208772333Y-68317144D01*
X208704990Y-68283472D01*
X208671318Y-68249801D01*
X208637646Y-68182457D01*
X208637646Y-68115113D01*
X208654482Y-68064606D01*
X208704990Y-67980426D01*
X208755497Y-67929919D01*
X208839677Y-67879411D01*
X208890184Y-67862575D01*
X208957528Y-67862575D01*
X209024871Y-67896247D01*
X209058543Y-67929919D01*
X209092215Y-67997262D01*
X209092215Y-68030934D01*
X208940692Y-68519175D02*
X209008035Y-68586518D01*
X209058543Y-68603354D01*
X209092215Y-68603354D01*
X209176394Y-68586518D01*
X209260574Y-68536010D01*
X209395261Y-68401323D01*
X209412096Y-68350816D01*
X209412096Y-68317144D01*
X209395261Y-68266636D01*
X209327917Y-68199293D01*
X209277409Y-68182457D01*
X209243738Y-68182457D01*
X209193230Y-68199293D01*
X209109051Y-68283472D01*
X209092215Y-68333980D01*
X209092215Y-68367652D01*
X209109051Y-68418159D01*
X209176394Y-68485503D01*
X209226902Y-68502339D01*
X209260574Y-68502339D01*
X209311081Y-68485503D01*
X202591171Y-76791333D02*
X202614980Y-76815142D01*
X202638790Y-76886571D01*
X202638790Y-76934190D01*
X202614980Y-77005619D01*
X202567361Y-77053238D01*
X202519742Y-77077047D01*
X202424504Y-77100857D01*
X202353076Y-77100857D01*
X202257838Y-77077047D01*
X202210219Y-77053238D01*
X202162600Y-77005619D01*
X202138790Y-76934190D01*
X202138790Y-76886571D01*
X202162600Y-76815142D01*
X202186409Y-76791333D01*
X202138790Y-76624666D02*
X202138790Y-76315142D01*
X202329266Y-76481809D01*
X202329266Y-76410380D01*
X202353076Y-76362761D01*
X202376885Y-76338952D01*
X202424504Y-76315142D01*
X202543552Y-76315142D01*
X202591171Y-76338952D01*
X202614980Y-76362761D01*
X202638790Y-76410380D01*
X202638790Y-76553238D01*
X202614980Y-76600857D01*
X202591171Y-76624666D01*
X211557371Y-87189428D02*
X211581180Y-87213238D01*
X211604990Y-87284666D01*
X211604990Y-87332285D01*
X211581180Y-87403714D01*
X211533561Y-87451333D01*
X211485942Y-87475142D01*
X211390704Y-87498952D01*
X211319276Y-87498952D01*
X211224038Y-87475142D01*
X211176419Y-87451333D01*
X211128800Y-87403714D01*
X211104990Y-87332285D01*
X211104990Y-87284666D01*
X211128800Y-87213238D01*
X211152609Y-87189428D01*
X211104990Y-87022761D02*
X211104990Y-86713238D01*
X211295466Y-86879904D01*
X211295466Y-86808476D01*
X211319276Y-86760857D01*
X211343085Y-86737047D01*
X211390704Y-86713238D01*
X211509752Y-86713238D01*
X211557371Y-86737047D01*
X211581180Y-86760857D01*
X211604990Y-86808476D01*
X211604990Y-86951333D01*
X211581180Y-86998952D01*
X211557371Y-87022761D01*
X211104990Y-86403714D02*
X211104990Y-86356095D01*
X211128800Y-86308476D01*
X211152609Y-86284666D01*
X211200228Y-86260857D01*
X211295466Y-86237047D01*
X211414514Y-86237047D01*
X211509752Y-86260857D01*
X211557371Y-86284666D01*
X211581180Y-86308476D01*
X211604990Y-86356095D01*
X211604990Y-86403714D01*
X211581180Y-86451333D01*
X211557371Y-86475142D01*
X211509752Y-86498952D01*
X211414514Y-86522761D01*
X211295466Y-86522761D01*
X211200228Y-86498952D01*
X211152609Y-86475142D01*
X211128800Y-86451333D01*
X211104990Y-86403714D01*
X218537671Y-80036171D02*
X218513861Y-80059980D01*
X218442433Y-80083790D01*
X218394814Y-80083790D01*
X218323385Y-80059980D01*
X218275766Y-80012361D01*
X218251957Y-79964742D01*
X218228147Y-79869504D01*
X218228147Y-79798076D01*
X218251957Y-79702838D01*
X218275766Y-79655219D01*
X218323385Y-79607600D01*
X218394814Y-79583790D01*
X218442433Y-79583790D01*
X218513861Y-79607600D01*
X218537671Y-79631409D01*
X219013861Y-80083790D02*
X218728147Y-80083790D01*
X218871004Y-80083790D02*
X218871004Y-79583790D01*
X218823385Y-79655219D01*
X218775766Y-79702838D01*
X218728147Y-79726647D01*
X219442433Y-79750457D02*
X219442433Y-80083790D01*
X219323385Y-79559980D02*
X219204338Y-79917123D01*
X219513861Y-79917123D01*
X217483571Y-84976471D02*
X217459761Y-85000280D01*
X217388333Y-85024090D01*
X217340714Y-85024090D01*
X217269285Y-85000280D01*
X217221666Y-84952661D01*
X217197857Y-84905042D01*
X217174047Y-84809804D01*
X217174047Y-84738376D01*
X217197857Y-84643138D01*
X217221666Y-84595519D01*
X217269285Y-84547900D01*
X217340714Y-84524090D01*
X217388333Y-84524090D01*
X217459761Y-84547900D01*
X217483571Y-84571709D01*
X217959761Y-85024090D02*
X217674047Y-85024090D01*
X217816904Y-85024090D02*
X217816904Y-84524090D01*
X217769285Y-84595519D01*
X217721666Y-84643138D01*
X217674047Y-84666947D01*
X218126428Y-84524090D02*
X218459761Y-84524090D01*
X218245476Y-85024090D01*
X201608571Y-67234571D02*
X201584761Y-67258380D01*
X201513333Y-67282190D01*
X201465714Y-67282190D01*
X201394285Y-67258380D01*
X201346666Y-67210761D01*
X201322857Y-67163142D01*
X201299047Y-67067904D01*
X201299047Y-66996476D01*
X201322857Y-66901238D01*
X201346666Y-66853619D01*
X201394285Y-66806000D01*
X201465714Y-66782190D01*
X201513333Y-66782190D01*
X201584761Y-66806000D01*
X201608571Y-66829809D01*
X202084761Y-67282190D02*
X201799047Y-67282190D01*
X201941904Y-67282190D02*
X201941904Y-66782190D01*
X201894285Y-66853619D01*
X201846666Y-66901238D01*
X201799047Y-66925047D01*
X202322857Y-67282190D02*
X202418095Y-67282190D01*
X202465714Y-67258380D01*
X202489523Y-67234571D01*
X202537142Y-67163142D01*
X202560952Y-67067904D01*
X202560952Y-66877428D01*
X202537142Y-66829809D01*
X202513333Y-66806000D01*
X202465714Y-66782190D01*
X202370476Y-66782190D01*
X202322857Y-66806000D01*
X202299047Y-66829809D01*
X202275238Y-66877428D01*
X202275238Y-66996476D01*
X202299047Y-67044095D01*
X202322857Y-67067904D01*
X202370476Y-67091714D01*
X202465714Y-67091714D01*
X202513333Y-67067904D01*
X202537142Y-67044095D01*
X202560952Y-66996476D01*
X202472171Y-58750971D02*
X202448361Y-58774780D01*
X202376933Y-58798590D01*
X202329314Y-58798590D01*
X202257885Y-58774780D01*
X202210266Y-58727161D01*
X202186457Y-58679542D01*
X202162647Y-58584304D01*
X202162647Y-58512876D01*
X202186457Y-58417638D01*
X202210266Y-58370019D01*
X202257885Y-58322400D01*
X202329314Y-58298590D01*
X202376933Y-58298590D01*
X202448361Y-58322400D01*
X202472171Y-58346209D01*
X202662647Y-58346209D02*
X202686457Y-58322400D01*
X202734076Y-58298590D01*
X202853123Y-58298590D01*
X202900742Y-58322400D01*
X202924552Y-58346209D01*
X202948361Y-58393828D01*
X202948361Y-58441447D01*
X202924552Y-58512876D01*
X202638838Y-58798590D01*
X202948361Y-58798590D01*
X203115028Y-58298590D02*
X203424552Y-58298590D01*
X203257885Y-58489066D01*
X203329314Y-58489066D01*
X203376933Y-58512876D01*
X203400742Y-58536685D01*
X203424552Y-58584304D01*
X203424552Y-58703352D01*
X203400742Y-58750971D01*
X203376933Y-58774780D01*
X203329314Y-58798590D01*
X203186457Y-58798590D01*
X203138838Y-58774780D01*
X203115028Y-58750971D01*
X211544671Y-76965928D02*
X211568480Y-76989738D01*
X211592290Y-77061166D01*
X211592290Y-77108785D01*
X211568480Y-77180214D01*
X211520861Y-77227833D01*
X211473242Y-77251642D01*
X211378004Y-77275452D01*
X211306576Y-77275452D01*
X211211338Y-77251642D01*
X211163719Y-77227833D01*
X211116100Y-77180214D01*
X211092290Y-77108785D01*
X211092290Y-77061166D01*
X211116100Y-76989738D01*
X211139909Y-76965928D01*
X211139909Y-76775452D02*
X211116100Y-76751642D01*
X211092290Y-76704023D01*
X211092290Y-76584976D01*
X211116100Y-76537357D01*
X211139909Y-76513547D01*
X211187528Y-76489738D01*
X211235147Y-76489738D01*
X211306576Y-76513547D01*
X211592290Y-76799261D01*
X211592290Y-76489738D01*
X211092290Y-76037357D02*
X211092290Y-76275452D01*
X211330385Y-76299261D01*
X211306576Y-76275452D01*
X211282766Y-76227833D01*
X211282766Y-76108785D01*
X211306576Y-76061166D01*
X211330385Y-76037357D01*
X211378004Y-76013547D01*
X211497052Y-76013547D01*
X211544671Y-76037357D01*
X211568480Y-76061166D01*
X211592290Y-76108785D01*
X211592290Y-76227833D01*
X211568480Y-76275452D01*
X211544671Y-76299261D01*
X207831571Y-71476371D02*
X207807761Y-71500180D01*
X207736333Y-71523990D01*
X207688714Y-71523990D01*
X207617285Y-71500180D01*
X207569666Y-71452561D01*
X207545857Y-71404942D01*
X207522047Y-71309704D01*
X207522047Y-71238276D01*
X207545857Y-71143038D01*
X207569666Y-71095419D01*
X207617285Y-71047800D01*
X207688714Y-71023990D01*
X207736333Y-71023990D01*
X207807761Y-71047800D01*
X207831571Y-71071609D01*
X208022047Y-71071609D02*
X208045857Y-71047800D01*
X208093476Y-71023990D01*
X208212523Y-71023990D01*
X208260142Y-71047800D01*
X208283952Y-71071609D01*
X208307761Y-71119228D01*
X208307761Y-71166847D01*
X208283952Y-71238276D01*
X207998238Y-71523990D01*
X208307761Y-71523990D01*
X208736333Y-71023990D02*
X208641095Y-71023990D01*
X208593476Y-71047800D01*
X208569666Y-71071609D01*
X208522047Y-71143038D01*
X208498238Y-71238276D01*
X208498238Y-71428752D01*
X208522047Y-71476371D01*
X208545857Y-71500180D01*
X208593476Y-71523990D01*
X208688714Y-71523990D01*
X208736333Y-71500180D01*
X208760142Y-71476371D01*
X208783952Y-71428752D01*
X208783952Y-71309704D01*
X208760142Y-71262085D01*
X208736333Y-71238276D01*
X208688714Y-71214466D01*
X208593476Y-71214466D01*
X208545857Y-71238276D01*
X208522047Y-71262085D01*
X208498238Y-71309704D01*
X204212071Y-78181971D02*
X204188261Y-78205780D01*
X204116833Y-78229590D01*
X204069214Y-78229590D01*
X203997785Y-78205780D01*
X203950166Y-78158161D01*
X203926357Y-78110542D01*
X203902547Y-78015304D01*
X203902547Y-77943876D01*
X203926357Y-77848638D01*
X203950166Y-77801019D01*
X203997785Y-77753400D01*
X204069214Y-77729590D01*
X204116833Y-77729590D01*
X204188261Y-77753400D01*
X204212071Y-77777209D01*
X204402547Y-77777209D02*
X204426357Y-77753400D01*
X204473976Y-77729590D01*
X204593023Y-77729590D01*
X204640642Y-77753400D01*
X204664452Y-77777209D01*
X204688261Y-77824828D01*
X204688261Y-77872447D01*
X204664452Y-77943876D01*
X204378738Y-78229590D01*
X204688261Y-78229590D01*
X204973976Y-77943876D02*
X204926357Y-77920066D01*
X204902547Y-77896257D01*
X204878738Y-77848638D01*
X204878738Y-77824828D01*
X204902547Y-77777209D01*
X204926357Y-77753400D01*
X204973976Y-77729590D01*
X205069214Y-77729590D01*
X205116833Y-77753400D01*
X205140642Y-77777209D01*
X205164452Y-77824828D01*
X205164452Y-77848638D01*
X205140642Y-77896257D01*
X205116833Y-77920066D01*
X205069214Y-77943876D01*
X204973976Y-77943876D01*
X204926357Y-77967685D01*
X204902547Y-77991495D01*
X204878738Y-78039114D01*
X204878738Y-78134352D01*
X204902547Y-78181971D01*
X204926357Y-78205780D01*
X204973976Y-78229590D01*
X205069214Y-78229590D01*
X205116833Y-78205780D01*
X205140642Y-78181971D01*
X205164452Y-78134352D01*
X205164452Y-78039114D01*
X205140642Y-77991495D01*
X205116833Y-77967685D01*
X205069214Y-77943876D01*
X204491471Y-79121771D02*
X204467661Y-79145580D01*
X204396233Y-79169390D01*
X204348614Y-79169390D01*
X204277185Y-79145580D01*
X204229566Y-79097961D01*
X204205757Y-79050342D01*
X204181947Y-78955104D01*
X204181947Y-78883676D01*
X204205757Y-78788438D01*
X204229566Y-78740819D01*
X204277185Y-78693200D01*
X204348614Y-78669390D01*
X204396233Y-78669390D01*
X204467661Y-78693200D01*
X204491471Y-78717009D01*
X204681947Y-78717009D02*
X204705757Y-78693200D01*
X204753376Y-78669390D01*
X204872423Y-78669390D01*
X204920042Y-78693200D01*
X204943852Y-78717009D01*
X204967661Y-78764628D01*
X204967661Y-78812247D01*
X204943852Y-78883676D01*
X204658138Y-79169390D01*
X204967661Y-79169390D01*
X205205757Y-79169390D02*
X205300995Y-79169390D01*
X205348614Y-79145580D01*
X205372423Y-79121771D01*
X205420042Y-79050342D01*
X205443852Y-78955104D01*
X205443852Y-78764628D01*
X205420042Y-78717009D01*
X205396233Y-78693200D01*
X205348614Y-78669390D01*
X205253376Y-78669390D01*
X205205757Y-78693200D01*
X205181947Y-78717009D01*
X205158138Y-78764628D01*
X205158138Y-78883676D01*
X205181947Y-78931295D01*
X205205757Y-78955104D01*
X205253376Y-78978914D01*
X205348614Y-78978914D01*
X205396233Y-78955104D01*
X205420042Y-78931295D01*
X205443852Y-78883676D01*
X224925771Y-59919371D02*
X224901961Y-59943180D01*
X224830533Y-59966990D01*
X224782914Y-59966990D01*
X224711485Y-59943180D01*
X224663866Y-59895561D01*
X224640057Y-59847942D01*
X224616247Y-59752704D01*
X224616247Y-59681276D01*
X224640057Y-59586038D01*
X224663866Y-59538419D01*
X224711485Y-59490800D01*
X224782914Y-59466990D01*
X224830533Y-59466990D01*
X224901961Y-59490800D01*
X224925771Y-59514609D01*
X225116247Y-59514609D02*
X225140057Y-59490800D01*
X225187676Y-59466990D01*
X225306723Y-59466990D01*
X225354342Y-59490800D01*
X225378152Y-59514609D01*
X225401961Y-59562228D01*
X225401961Y-59609847D01*
X225378152Y-59681276D01*
X225092438Y-59966990D01*
X225401961Y-59966990D01*
X225568628Y-59466990D02*
X225901961Y-59466990D01*
X225687676Y-59966990D01*
X198442228Y-68032257D02*
X197842228Y-68032257D01*
X197842228Y-67889400D01*
X197870800Y-67803685D01*
X197927942Y-67746542D01*
X197985085Y-67717971D01*
X198099371Y-67689400D01*
X198185085Y-67689400D01*
X198299371Y-67717971D01*
X198356514Y-67746542D01*
X198413657Y-67803685D01*
X198442228Y-67889400D01*
X198442228Y-68032257D01*
X197842228Y-67175114D02*
X197842228Y-67289400D01*
X197870800Y-67346542D01*
X197899371Y-67375114D01*
X197985085Y-67432257D01*
X198099371Y-67460828D01*
X198327942Y-67460828D01*
X198385085Y-67432257D01*
X198413657Y-67403685D01*
X198442228Y-67346542D01*
X198442228Y-67232257D01*
X198413657Y-67175114D01*
X198385085Y-67146542D01*
X198327942Y-67117971D01*
X198185085Y-67117971D01*
X198127942Y-67146542D01*
X198099371Y-67175114D01*
X198070800Y-67232257D01*
X198070800Y-67346542D01*
X198099371Y-67403685D01*
X198127942Y-67432257D01*
X198185085Y-67460828D01*
X219829028Y-77735057D02*
X219229028Y-77735057D01*
X219229028Y-77592200D01*
X219257600Y-77506485D01*
X219314742Y-77449342D01*
X219371885Y-77420771D01*
X219486171Y-77392200D01*
X219571885Y-77392200D01*
X219686171Y-77420771D01*
X219743314Y-77449342D01*
X219800457Y-77506485D01*
X219829028Y-77592200D01*
X219829028Y-77735057D01*
X219829028Y-77106485D02*
X219829028Y-76992200D01*
X219800457Y-76935057D01*
X219771885Y-76906485D01*
X219686171Y-76849342D01*
X219571885Y-76820771D01*
X219343314Y-76820771D01*
X219286171Y-76849342D01*
X219257600Y-76877914D01*
X219229028Y-76935057D01*
X219229028Y-77049342D01*
X219257600Y-77106485D01*
X219286171Y-77135057D01*
X219343314Y-77163628D01*
X219486171Y-77163628D01*
X219543314Y-77135057D01*
X219571885Y-77106485D01*
X219600457Y-77049342D01*
X219600457Y-76935057D01*
X219571885Y-76877914D01*
X219543314Y-76849342D01*
X219486171Y-76820771D01*
X223689828Y-79697171D02*
X223089828Y-79697171D01*
X223089828Y-79554314D01*
X223118400Y-79468600D01*
X223175542Y-79411457D01*
X223232685Y-79382885D01*
X223346971Y-79354314D01*
X223432685Y-79354314D01*
X223546971Y-79382885D01*
X223604114Y-79411457D01*
X223661257Y-79468600D01*
X223689828Y-79554314D01*
X223689828Y-79697171D01*
X223689828Y-78782885D02*
X223689828Y-79125742D01*
X223689828Y-78954314D02*
X223089828Y-78954314D01*
X223175542Y-79011457D01*
X223232685Y-79068600D01*
X223261257Y-79125742D01*
X223089828Y-78411457D02*
X223089828Y-78354314D01*
X223118400Y-78297171D01*
X223146971Y-78268600D01*
X223204114Y-78240028D01*
X223318400Y-78211457D01*
X223461257Y-78211457D01*
X223575542Y-78240028D01*
X223632685Y-78268600D01*
X223661257Y-78297171D01*
X223689828Y-78354314D01*
X223689828Y-78411457D01*
X223661257Y-78468600D01*
X223632685Y-78497171D01*
X223575542Y-78525742D01*
X223461257Y-78554314D01*
X223318400Y-78554314D01*
X223204114Y-78525742D01*
X223146971Y-78497171D01*
X223118400Y-78468600D01*
X223089828Y-78411457D01*
X194625933Y-82445990D02*
X194625933Y-82803133D01*
X194602123Y-82874561D01*
X194554504Y-82922180D01*
X194483076Y-82945990D01*
X194435457Y-82945990D01*
X194840219Y-82493609D02*
X194864028Y-82469800D01*
X194911647Y-82445990D01*
X195030695Y-82445990D01*
X195078314Y-82469800D01*
X195102123Y-82493609D01*
X195125933Y-82541228D01*
X195125933Y-82588847D01*
X195102123Y-82660276D01*
X194816409Y-82945990D01*
X195125933Y-82945990D01*
X217160504Y-71133495D02*
X217160504Y-71371590D01*
X216993838Y-70871590D02*
X217160504Y-71133495D01*
X217327171Y-70871590D01*
X217755742Y-71371590D02*
X217470028Y-71371590D01*
X217612885Y-71371590D02*
X217612885Y-70871590D01*
X217565266Y-70943019D01*
X217517647Y-70990638D01*
X217470028Y-71014447D01*
X188665685Y-61980714D02*
X188694257Y-62009285D01*
X188722828Y-62095000D01*
X188722828Y-62152142D01*
X188694257Y-62237857D01*
X188637114Y-62295000D01*
X188579971Y-62323571D01*
X188465685Y-62352142D01*
X188379971Y-62352142D01*
X188265685Y-62323571D01*
X188208542Y-62295000D01*
X188151400Y-62237857D01*
X188122828Y-62152142D01*
X188122828Y-62095000D01*
X188151400Y-62009285D01*
X188179971Y-61980714D01*
X188122828Y-61780714D02*
X188122828Y-61409285D01*
X188351400Y-61609285D01*
X188351400Y-61523571D01*
X188379971Y-61466428D01*
X188408542Y-61437857D01*
X188465685Y-61409285D01*
X188608542Y-61409285D01*
X188665685Y-61437857D01*
X188694257Y-61466428D01*
X188722828Y-61523571D01*
X188722828Y-61695000D01*
X188694257Y-61752142D01*
X188665685Y-61780714D01*
X188722828Y-60837857D02*
X188722828Y-61180714D01*
X188722828Y-61009285D02*
X188122828Y-61009285D01*
X188208542Y-61066428D01*
X188265685Y-61123571D01*
X188294257Y-61180714D01*
X220229085Y-66247914D02*
X220257657Y-66276485D01*
X220286228Y-66362200D01*
X220286228Y-66419342D01*
X220257657Y-66505057D01*
X220200514Y-66562200D01*
X220143371Y-66590771D01*
X220029085Y-66619342D01*
X219943371Y-66619342D01*
X219829085Y-66590771D01*
X219771942Y-66562200D01*
X219714800Y-66505057D01*
X219686228Y-66419342D01*
X219686228Y-66362200D01*
X219714800Y-66276485D01*
X219743371Y-66247914D01*
X219686228Y-66047914D02*
X219686228Y-65676485D01*
X219914800Y-65876485D01*
X219914800Y-65790771D01*
X219943371Y-65733628D01*
X219971942Y-65705057D01*
X220029085Y-65676485D01*
X220171942Y-65676485D01*
X220229085Y-65705057D01*
X220257657Y-65733628D01*
X220286228Y-65790771D01*
X220286228Y-65962200D01*
X220257657Y-66019342D01*
X220229085Y-66047914D01*
X219743371Y-65447914D02*
X219714800Y-65419342D01*
X219686228Y-65362200D01*
X219686228Y-65219342D01*
X219714800Y-65162200D01*
X219743371Y-65133628D01*
X219800514Y-65105057D01*
X219857657Y-65105057D01*
X219943371Y-65133628D01*
X220286228Y-65476485D01*
X220286228Y-65105057D01*
X200526657Y-77392171D02*
X200469514Y-77363600D01*
X200412371Y-77306457D01*
X200326657Y-77220742D01*
X200269514Y-77192171D01*
X200212371Y-77192171D01*
X200240942Y-77335028D02*
X200183800Y-77306457D01*
X200126657Y-77249314D01*
X200098085Y-77135028D01*
X200098085Y-76935028D01*
X200126657Y-76820742D01*
X200183800Y-76763600D01*
X200240942Y-76735028D01*
X200355228Y-76735028D01*
X200412371Y-76763600D01*
X200469514Y-76820742D01*
X200498085Y-76935028D01*
X200498085Y-77135028D01*
X200469514Y-77249314D01*
X200412371Y-77306457D01*
X200355228Y-77335028D01*
X200240942Y-77335028D01*
X201069514Y-77335028D02*
X200726657Y-77335028D01*
X200898085Y-77335028D02*
X200898085Y-76735028D01*
X200840942Y-76820742D01*
X200783800Y-76877885D01*
X200726657Y-76906457D01*
X210413657Y-84761428D02*
X210413657Y-85247142D01*
X210442228Y-85304285D01*
X210470800Y-85332857D01*
X210527942Y-85361428D01*
X210642228Y-85361428D01*
X210699371Y-85332857D01*
X210727942Y-85304285D01*
X210756514Y-85247142D01*
X210756514Y-84761428D01*
X210985085Y-84761428D02*
X211356514Y-84761428D01*
X211156514Y-84990000D01*
X211242228Y-84990000D01*
X211299371Y-85018571D01*
X211327942Y-85047142D01*
X211356514Y-85104285D01*
X211356514Y-85247142D01*
X211327942Y-85304285D01*
X211299371Y-85332857D01*
X211242228Y-85361428D01*
X211070800Y-85361428D01*
X211013657Y-85332857D01*
X210985085Y-85304285D01*
X197383457Y-60428228D02*
X197383457Y-60913942D01*
X197412028Y-60971085D01*
X197440600Y-60999657D01*
X197497742Y-61028228D01*
X197612028Y-61028228D01*
X197669171Y-60999657D01*
X197697742Y-60971085D01*
X197726314Y-60913942D01*
X197726314Y-60428228D01*
X198269171Y-60628228D02*
X198269171Y-61028228D01*
X198126314Y-60399657D02*
X197983457Y-60828228D01*
X198354885Y-60828228D01*
X191236657Y-64695428D02*
X191236657Y-65181142D01*
X191265228Y-65238285D01*
X191293800Y-65266857D01*
X191350942Y-65295428D01*
X191465228Y-65295428D01*
X191522371Y-65266857D01*
X191550942Y-65238285D01*
X191579514Y-65181142D01*
X191579514Y-64695428D01*
X192150942Y-64695428D02*
X191865228Y-64695428D01*
X191836657Y-64981142D01*
X191865228Y-64952571D01*
X191922371Y-64924000D01*
X192065228Y-64924000D01*
X192122371Y-64952571D01*
X192150942Y-64981142D01*
X192179514Y-65038285D01*
X192179514Y-65181142D01*
X192150942Y-65238285D01*
X192122371Y-65266857D01*
X192065228Y-65295428D01*
X191922371Y-65295428D01*
X191865228Y-65266857D01*
X191836657Y-65238285D01*
X200177457Y-68784828D02*
X200177457Y-69270542D01*
X200206028Y-69327685D01*
X200234600Y-69356257D01*
X200291742Y-69384828D01*
X200406028Y-69384828D01*
X200463171Y-69356257D01*
X200491742Y-69327685D01*
X200520314Y-69270542D01*
X200520314Y-68784828D01*
X200748885Y-68784828D02*
X201148885Y-68784828D01*
X200891742Y-69384828D01*
X220041828Y-62407742D02*
X220527542Y-62407742D01*
X220584685Y-62379171D01*
X220613257Y-62350600D01*
X220641828Y-62293457D01*
X220641828Y-62179171D01*
X220613257Y-62122028D01*
X220584685Y-62093457D01*
X220527542Y-62064885D01*
X220041828Y-62064885D01*
X220641828Y-61750600D02*
X220641828Y-61636314D01*
X220613257Y-61579171D01*
X220584685Y-61550600D01*
X220498971Y-61493457D01*
X220384685Y-61464885D01*
X220156114Y-61464885D01*
X220098971Y-61493457D01*
X220070400Y-61522028D01*
X220041828Y-61579171D01*
X220041828Y-61693457D01*
X220070400Y-61750600D01*
X220098971Y-61779171D01*
X220156114Y-61807742D01*
X220298971Y-61807742D01*
X220356114Y-61779171D01*
X220384685Y-61750600D01*
X220413257Y-61693457D01*
X220413257Y-61579171D01*
X220384685Y-61522028D01*
X220356114Y-61493457D01*
X220298971Y-61464885D01*
X194684742Y-56592828D02*
X194684742Y-57078542D01*
X194713314Y-57135685D01*
X194741885Y-57164257D01*
X194799028Y-57192828D01*
X194913314Y-57192828D01*
X194970457Y-57164257D01*
X194999028Y-57135685D01*
X195027600Y-57078542D01*
X195027600Y-56592828D01*
X195627600Y-57192828D02*
X195284742Y-57192828D01*
X195456171Y-57192828D02*
X195456171Y-56592828D01*
X195399028Y-56678542D01*
X195341885Y-56735685D01*
X195284742Y-56764257D01*
X195999028Y-56592828D02*
X196056171Y-56592828D01*
X196113314Y-56621400D01*
X196141885Y-56649971D01*
X196170457Y-56707114D01*
X196199028Y-56821400D01*
X196199028Y-56964257D01*
X196170457Y-57078542D01*
X196141885Y-57135685D01*
X196113314Y-57164257D01*
X196056171Y-57192828D01*
X195999028Y-57192828D01*
X195941885Y-57164257D01*
X195913314Y-57135685D01*
X195884742Y-57078542D01*
X195856171Y-56964257D01*
X195856171Y-56821400D01*
X195884742Y-56707114D01*
X195913314Y-56649971D01*
X195941885Y-56621400D01*
X195999028Y-56592828D01*
X222065942Y-55221228D02*
X222065942Y-55706942D01*
X222094514Y-55764085D01*
X222123085Y-55792657D01*
X222180228Y-55821228D01*
X222294514Y-55821228D01*
X222351657Y-55792657D01*
X222380228Y-55764085D01*
X222408800Y-55706942D01*
X222408800Y-55221228D01*
X223008800Y-55821228D02*
X222665942Y-55821228D01*
X222837371Y-55821228D02*
X222837371Y-55221228D01*
X222780228Y-55306942D01*
X222723085Y-55364085D01*
X222665942Y-55392657D01*
X223580228Y-55821228D02*
X223237371Y-55821228D01*
X223408800Y-55821228D02*
X223408800Y-55221228D01*
X223351657Y-55306942D01*
X223294514Y-55364085D01*
X223237371Y-55392657D01*
X217959000Y-57192828D02*
X217759000Y-56907114D01*
X217616142Y-57192828D02*
X217616142Y-56592828D01*
X217844714Y-56592828D01*
X217901857Y-56621400D01*
X217930428Y-56649971D01*
X217959000Y-56707114D01*
X217959000Y-56792828D01*
X217930428Y-56849971D01*
X217901857Y-56878542D01*
X217844714Y-56907114D01*
X217616142Y-56907114D01*
X218301857Y-56849971D02*
X218244714Y-56821400D01*
X218216142Y-56792828D01*
X218187571Y-56735685D01*
X218187571Y-56707114D01*
X218216142Y-56649971D01*
X218244714Y-56621400D01*
X218301857Y-56592828D01*
X218416142Y-56592828D01*
X218473285Y-56621400D01*
X218501857Y-56649971D01*
X218530428Y-56707114D01*
X218530428Y-56735685D01*
X218501857Y-56792828D01*
X218473285Y-56821400D01*
X218416142Y-56849971D01*
X218301857Y-56849971D01*
X218244714Y-56878542D01*
X218216142Y-56907114D01*
X218187571Y-56964257D01*
X218187571Y-57078542D01*
X218216142Y-57135685D01*
X218244714Y-57164257D01*
X218301857Y-57192828D01*
X218416142Y-57192828D01*
X218473285Y-57164257D01*
X218501857Y-57135685D01*
X218530428Y-57078542D01*
X218530428Y-56964257D01*
X218501857Y-56907114D01*
X218473285Y-56878542D01*
X218416142Y-56849971D01*
X217959000Y-58132628D02*
X217759000Y-57846914D01*
X217616142Y-58132628D02*
X217616142Y-57532628D01*
X217844714Y-57532628D01*
X217901857Y-57561200D01*
X217930428Y-57589771D01*
X217959000Y-57646914D01*
X217959000Y-57732628D01*
X217930428Y-57789771D01*
X217901857Y-57818342D01*
X217844714Y-57846914D01*
X217616142Y-57846914D01*
X218244714Y-58132628D02*
X218359000Y-58132628D01*
X218416142Y-58104057D01*
X218444714Y-58075485D01*
X218501857Y-57989771D01*
X218530428Y-57875485D01*
X218530428Y-57646914D01*
X218501857Y-57589771D01*
X218473285Y-57561200D01*
X218416142Y-57532628D01*
X218301857Y-57532628D01*
X218244714Y-57561200D01*
X218216142Y-57589771D01*
X218187571Y-57646914D01*
X218187571Y-57789771D01*
X218216142Y-57846914D01*
X218244714Y-57875485D01*
X218301857Y-57904057D01*
X218416142Y-57904057D01*
X218473285Y-57875485D01*
X218501857Y-57846914D01*
X218530428Y-57789771D01*
X225066990Y-70701647D02*
X224566990Y-70701647D01*
X224566990Y-70582600D01*
X224590800Y-70511171D01*
X224638419Y-70463552D01*
X224686038Y-70439742D01*
X224781276Y-70415933D01*
X224852704Y-70415933D01*
X224947942Y-70439742D01*
X224995561Y-70463552D01*
X225043180Y-70511171D01*
X225066990Y-70582600D01*
X225066990Y-70701647D01*
X225066990Y-69939742D02*
X225066990Y-70225457D01*
X225066990Y-70082600D02*
X224566990Y-70082600D01*
X224638419Y-70130219D01*
X224686038Y-70177838D01*
X224709847Y-70225457D01*
D11*
X227135980Y-72048285D02*
X227135980Y-72619714D01*
X227135980Y-72334000D02*
X226135980Y-72334000D01*
X226278838Y-72429238D01*
X226374076Y-72524476D01*
X226421695Y-72619714D01*
X210652564Y-67847739D02*
X210080144Y-68420159D01*
X210046472Y-68521174D01*
X210046472Y-68588518D01*
X210080144Y-68689533D01*
X210214831Y-68824220D01*
X210315846Y-68857892D01*
X210383190Y-68857892D01*
X210484205Y-68824220D01*
X211056625Y-68251800D01*
X211056625Y-69666014D02*
X210652564Y-69261953D01*
X210854594Y-69463983D02*
X211561701Y-68756877D01*
X211393342Y-68790548D01*
X211258655Y-68790548D01*
X211157640Y-68756877D01*
M02*
