G04 #@! TF.GenerationSoftware,KiCad,Pcbnew,(5.1.6)-1*
G04 #@! TF.CreationDate,2020-10-15T10:09:19+02:00*
G04 #@! TF.ProjectId,DynOSSAT-EDU-EPS,44796e4f-5353-4415-942d-4544552d4550,rev?*
G04 #@! TF.SameCoordinates,Original*
G04 #@! TF.FileFunction,Other,Fab,Bot*
%FSLAX46Y46*%
G04 Gerber Fmt 4.6, Leading zero omitted, Abs format (unit mm)*
G04 Created by KiCad (PCBNEW (5.1.6)-1) date 2020-10-15 10:09:19*
%MOMM*%
%LPD*%
G01*
G04 APERTURE LIST*
%ADD10C,0.100000*%
%ADD11C,0.150000*%
G04 APERTURE END LIST*
D10*
X210833400Y-83434000D02*
X208708400Y-83434000D01*
X210833400Y-88934000D02*
X210833400Y-83434000D01*
X209983400Y-88934000D02*
X210833400Y-88934000D01*
X209983400Y-88634000D02*
X209983400Y-88934000D01*
X208708400Y-88634000D02*
X209983400Y-88634000D01*
X206583400Y-83434000D02*
X208708400Y-83434000D01*
X206583400Y-88934000D02*
X206583400Y-83434000D01*
X207433400Y-88934000D02*
X206583400Y-88934000D01*
X207433400Y-88634000D02*
X207433400Y-88934000D01*
X208708400Y-88634000D02*
X207433400Y-88634000D01*
X208083400Y-87926893D02*
X208583400Y-88634000D01*
X207583400Y-88634000D02*
X208083400Y-87926893D01*
X195859400Y-51330000D02*
X195859400Y-53235000D01*
X195859400Y-53235000D02*
X196494400Y-53870000D01*
X196494400Y-53870000D02*
X221259400Y-53870000D01*
X221259400Y-53870000D02*
X221259400Y-51330000D01*
X221259400Y-51330000D02*
X195859400Y-51330000D01*
X196294400Y-50045000D02*
X196294400Y-51330000D01*
X196694400Y-51330000D02*
X196694400Y-50045000D01*
X196694400Y-50045000D02*
X196294400Y-50045000D01*
X196294400Y-53870000D02*
X196294400Y-55155000D01*
X196294400Y-55155000D02*
X196694400Y-55155000D01*
X196694400Y-55155000D02*
X196694400Y-53870000D01*
X197564400Y-50045000D02*
X197564400Y-51330000D01*
X197964400Y-51330000D02*
X197964400Y-50045000D01*
X197964400Y-50045000D02*
X197564400Y-50045000D01*
X197564400Y-53870000D02*
X197564400Y-55155000D01*
X197564400Y-55155000D02*
X197964400Y-55155000D01*
X197964400Y-55155000D02*
X197964400Y-53870000D01*
X198834400Y-50045000D02*
X198834400Y-51330000D01*
X199234400Y-51330000D02*
X199234400Y-50045000D01*
X199234400Y-50045000D02*
X198834400Y-50045000D01*
X198834400Y-53870000D02*
X198834400Y-55155000D01*
X198834400Y-55155000D02*
X199234400Y-55155000D01*
X199234400Y-55155000D02*
X199234400Y-53870000D01*
X200104400Y-50045000D02*
X200104400Y-51330000D01*
X200504400Y-51330000D02*
X200504400Y-50045000D01*
X200504400Y-50045000D02*
X200104400Y-50045000D01*
X200104400Y-53870000D02*
X200104400Y-55155000D01*
X200104400Y-55155000D02*
X200504400Y-55155000D01*
X200504400Y-55155000D02*
X200504400Y-53870000D01*
X201374400Y-50045000D02*
X201374400Y-51330000D01*
X201774400Y-51330000D02*
X201774400Y-50045000D01*
X201774400Y-50045000D02*
X201374400Y-50045000D01*
X201374400Y-53870000D02*
X201374400Y-55155000D01*
X201374400Y-55155000D02*
X201774400Y-55155000D01*
X201774400Y-55155000D02*
X201774400Y-53870000D01*
X202644400Y-50045000D02*
X202644400Y-51330000D01*
X203044400Y-51330000D02*
X203044400Y-50045000D01*
X203044400Y-50045000D02*
X202644400Y-50045000D01*
X202644400Y-53870000D02*
X202644400Y-55155000D01*
X202644400Y-55155000D02*
X203044400Y-55155000D01*
X203044400Y-55155000D02*
X203044400Y-53870000D01*
X203914400Y-50045000D02*
X203914400Y-51330000D01*
X204314400Y-51330000D02*
X204314400Y-50045000D01*
X204314400Y-50045000D02*
X203914400Y-50045000D01*
X203914400Y-53870000D02*
X203914400Y-55155000D01*
X203914400Y-55155000D02*
X204314400Y-55155000D01*
X204314400Y-55155000D02*
X204314400Y-53870000D01*
X205184400Y-50045000D02*
X205184400Y-51330000D01*
X205584400Y-51330000D02*
X205584400Y-50045000D01*
X205584400Y-50045000D02*
X205184400Y-50045000D01*
X205184400Y-53870000D02*
X205184400Y-55155000D01*
X205184400Y-55155000D02*
X205584400Y-55155000D01*
X205584400Y-55155000D02*
X205584400Y-53870000D01*
X206454400Y-50045000D02*
X206454400Y-51330000D01*
X206854400Y-51330000D02*
X206854400Y-50045000D01*
X206854400Y-50045000D02*
X206454400Y-50045000D01*
X206454400Y-53870000D02*
X206454400Y-55155000D01*
X206454400Y-55155000D02*
X206854400Y-55155000D01*
X206854400Y-55155000D02*
X206854400Y-53870000D01*
X207724400Y-50045000D02*
X207724400Y-51330000D01*
X208124400Y-51330000D02*
X208124400Y-50045000D01*
X208124400Y-50045000D02*
X207724400Y-50045000D01*
X207724400Y-53870000D02*
X207724400Y-55155000D01*
X207724400Y-55155000D02*
X208124400Y-55155000D01*
X208124400Y-55155000D02*
X208124400Y-53870000D01*
X208994400Y-50045000D02*
X208994400Y-51330000D01*
X209394400Y-51330000D02*
X209394400Y-50045000D01*
X209394400Y-50045000D02*
X208994400Y-50045000D01*
X208994400Y-53870000D02*
X208994400Y-55155000D01*
X208994400Y-55155000D02*
X209394400Y-55155000D01*
X209394400Y-55155000D02*
X209394400Y-53870000D01*
X210264400Y-50045000D02*
X210264400Y-51330000D01*
X210664400Y-51330000D02*
X210664400Y-50045000D01*
X210664400Y-50045000D02*
X210264400Y-50045000D01*
X210264400Y-53870000D02*
X210264400Y-55155000D01*
X210264400Y-55155000D02*
X210664400Y-55155000D01*
X210664400Y-55155000D02*
X210664400Y-53870000D01*
X211534400Y-50045000D02*
X211534400Y-51330000D01*
X211934400Y-51330000D02*
X211934400Y-50045000D01*
X211934400Y-50045000D02*
X211534400Y-50045000D01*
X211534400Y-53870000D02*
X211534400Y-55155000D01*
X211534400Y-55155000D02*
X211934400Y-55155000D01*
X211934400Y-55155000D02*
X211934400Y-53870000D01*
X212804400Y-50045000D02*
X212804400Y-51330000D01*
X213204400Y-51330000D02*
X213204400Y-50045000D01*
X213204400Y-50045000D02*
X212804400Y-50045000D01*
X212804400Y-53870000D02*
X212804400Y-55155000D01*
X212804400Y-55155000D02*
X213204400Y-55155000D01*
X213204400Y-55155000D02*
X213204400Y-53870000D01*
X214074400Y-50045000D02*
X214074400Y-51330000D01*
X214474400Y-51330000D02*
X214474400Y-50045000D01*
X214474400Y-50045000D02*
X214074400Y-50045000D01*
X214074400Y-53870000D02*
X214074400Y-55155000D01*
X214074400Y-55155000D02*
X214474400Y-55155000D01*
X214474400Y-55155000D02*
X214474400Y-53870000D01*
X215344400Y-50045000D02*
X215344400Y-51330000D01*
X215744400Y-51330000D02*
X215744400Y-50045000D01*
X215744400Y-50045000D02*
X215344400Y-50045000D01*
X215344400Y-53870000D02*
X215344400Y-55155000D01*
X215344400Y-55155000D02*
X215744400Y-55155000D01*
X215744400Y-55155000D02*
X215744400Y-53870000D01*
X216614400Y-50045000D02*
X216614400Y-51330000D01*
X217014400Y-51330000D02*
X217014400Y-50045000D01*
X217014400Y-50045000D02*
X216614400Y-50045000D01*
X216614400Y-53870000D02*
X216614400Y-55155000D01*
X216614400Y-55155000D02*
X217014400Y-55155000D01*
X217014400Y-55155000D02*
X217014400Y-53870000D01*
X217884400Y-50045000D02*
X217884400Y-51330000D01*
X218284400Y-51330000D02*
X218284400Y-50045000D01*
X218284400Y-50045000D02*
X217884400Y-50045000D01*
X217884400Y-53870000D02*
X217884400Y-55155000D01*
X217884400Y-55155000D02*
X218284400Y-55155000D01*
X218284400Y-55155000D02*
X218284400Y-53870000D01*
X219154400Y-50045000D02*
X219154400Y-51330000D01*
X219554400Y-51330000D02*
X219554400Y-50045000D01*
X219554400Y-50045000D02*
X219154400Y-50045000D01*
X219154400Y-53870000D02*
X219154400Y-55155000D01*
X219154400Y-55155000D02*
X219554400Y-55155000D01*
X219554400Y-55155000D02*
X219554400Y-53870000D01*
X220424400Y-50045000D02*
X220424400Y-51330000D01*
X220824400Y-51330000D02*
X220824400Y-50045000D01*
X220824400Y-50045000D02*
X220424400Y-50045000D01*
X220424400Y-53870000D02*
X220424400Y-55155000D01*
X220424400Y-55155000D02*
X220824400Y-55155000D01*
X220824400Y-55155000D02*
X220824400Y-53870000D01*
D11*
X210774828Y-82162571D02*
X210631971Y-82210190D01*
X210584352Y-82257809D01*
X210536733Y-82353047D01*
X210536733Y-82495904D01*
X210584352Y-82591142D01*
X210631971Y-82638761D01*
X210727209Y-82686380D01*
X211108161Y-82686380D01*
X211108161Y-81686380D01*
X210774828Y-81686380D01*
X210679590Y-81734000D01*
X210631971Y-81781619D01*
X210584352Y-81876857D01*
X210584352Y-81972095D01*
X210631971Y-82067333D01*
X210679590Y-82114952D01*
X210774828Y-82162571D01*
X211108161Y-82162571D01*
X209679590Y-82686380D02*
X209679590Y-82162571D01*
X209727209Y-82067333D01*
X209822447Y-82019714D01*
X210012923Y-82019714D01*
X210108161Y-82067333D01*
X209679590Y-82638761D02*
X209774828Y-82686380D01*
X210012923Y-82686380D01*
X210108161Y-82638761D01*
X210155780Y-82543523D01*
X210155780Y-82448285D01*
X210108161Y-82353047D01*
X210012923Y-82305428D01*
X209774828Y-82305428D01*
X209679590Y-82257809D01*
X209346257Y-82019714D02*
X208965304Y-82019714D01*
X209203400Y-81686380D02*
X209203400Y-82543523D01*
X209155780Y-82638761D01*
X209060542Y-82686380D01*
X208965304Y-82686380D01*
X208774828Y-82019714D02*
X208393876Y-82019714D01*
X208631971Y-81686380D02*
X208631971Y-82543523D01*
X208584352Y-82638761D01*
X208489114Y-82686380D01*
X208393876Y-82686380D01*
X207679590Y-82638761D02*
X207774828Y-82686380D01*
X207965304Y-82686380D01*
X208060542Y-82638761D01*
X208108161Y-82543523D01*
X208108161Y-82162571D01*
X208060542Y-82067333D01*
X207965304Y-82019714D01*
X207774828Y-82019714D01*
X207679590Y-82067333D01*
X207631971Y-82162571D01*
X207631971Y-82257809D01*
X208108161Y-82353047D01*
X207203400Y-82686380D02*
X207203400Y-82019714D01*
X207203400Y-82210190D02*
X207155780Y-82114952D01*
X207108161Y-82067333D01*
X207012923Y-82019714D01*
X206917685Y-82019714D01*
X206679590Y-82019714D02*
X206441495Y-82686380D01*
X206203400Y-82019714D02*
X206441495Y-82686380D01*
X206536733Y-82924476D01*
X206584352Y-82972095D01*
X206679590Y-83019714D01*
X209036733Y-83586380D02*
X209036733Y-84300666D01*
X209084352Y-84443523D01*
X209179590Y-84538761D01*
X209322447Y-84586380D01*
X209417685Y-84586380D01*
X208131971Y-83586380D02*
X208322447Y-83586380D01*
X208417685Y-83634000D01*
X208465304Y-83681619D01*
X208560542Y-83824476D01*
X208608161Y-84014952D01*
X208608161Y-84395904D01*
X208560542Y-84491142D01*
X208512923Y-84538761D01*
X208417685Y-84586380D01*
X208227209Y-84586380D01*
X208131971Y-84538761D01*
X208084352Y-84491142D01*
X208036733Y-84395904D01*
X208036733Y-84157809D01*
X208084352Y-84062571D01*
X208131971Y-84014952D01*
X208227209Y-83967333D01*
X208417685Y-83967333D01*
X208512923Y-84014952D01*
X208560542Y-84062571D01*
X208608161Y-84157809D01*
X223116542Y-44957142D02*
X223164161Y-44909523D01*
X223211780Y-44766666D01*
X223211780Y-44671428D01*
X223164161Y-44528571D01*
X223068923Y-44433333D01*
X222973685Y-44385714D01*
X222783209Y-44338095D01*
X222640352Y-44338095D01*
X222449876Y-44385714D01*
X222354638Y-44433333D01*
X222259400Y-44528571D01*
X222211780Y-44671428D01*
X222211780Y-44766666D01*
X222259400Y-44909523D01*
X222307019Y-44957142D01*
X223211780Y-45528571D02*
X223164161Y-45433333D01*
X223116542Y-45385714D01*
X223021304Y-45338095D01*
X222735590Y-45338095D01*
X222640352Y-45385714D01*
X222592733Y-45433333D01*
X222545114Y-45528571D01*
X222545114Y-45671428D01*
X222592733Y-45766666D01*
X222640352Y-45814285D01*
X222735590Y-45861904D01*
X223021304Y-45861904D01*
X223116542Y-45814285D01*
X223164161Y-45766666D01*
X223211780Y-45671428D01*
X223211780Y-45528571D01*
X222545114Y-46290476D02*
X223211780Y-46290476D01*
X222640352Y-46290476D02*
X222592733Y-46338095D01*
X222545114Y-46433333D01*
X222545114Y-46576190D01*
X222592733Y-46671428D01*
X222687971Y-46719047D01*
X223211780Y-46719047D01*
X222545114Y-47195238D02*
X223211780Y-47195238D01*
X222640352Y-47195238D02*
X222592733Y-47242857D01*
X222545114Y-47338095D01*
X222545114Y-47480952D01*
X222592733Y-47576190D01*
X222687971Y-47623809D01*
X223211780Y-47623809D01*
X223307019Y-47861904D02*
X223307019Y-48623809D01*
X222211780Y-49052380D02*
X222211780Y-49147619D01*
X222259400Y-49242857D01*
X222307019Y-49290476D01*
X222402257Y-49338095D01*
X222592733Y-49385714D01*
X222830828Y-49385714D01*
X223021304Y-49338095D01*
X223116542Y-49290476D01*
X223164161Y-49242857D01*
X223211780Y-49147619D01*
X223211780Y-49052380D01*
X223164161Y-48957142D01*
X223116542Y-48909523D01*
X223021304Y-48861904D01*
X222830828Y-48814285D01*
X222592733Y-48814285D01*
X222402257Y-48861904D01*
X222307019Y-48909523D01*
X222259400Y-48957142D01*
X222211780Y-49052380D01*
X222307019Y-49766666D02*
X222259400Y-49814285D01*
X222211780Y-49909523D01*
X222211780Y-50147619D01*
X222259400Y-50242857D01*
X222307019Y-50290476D01*
X222402257Y-50338095D01*
X222497495Y-50338095D01*
X222640352Y-50290476D01*
X223211780Y-49719047D01*
X223211780Y-50338095D01*
X223211780Y-50671428D02*
X222545114Y-51195238D01*
X222545114Y-50671428D02*
X223211780Y-51195238D01*
X222307019Y-51528571D02*
X222259400Y-51576190D01*
X222211780Y-51671428D01*
X222211780Y-51909523D01*
X222259400Y-52004761D01*
X222307019Y-52052380D01*
X222402257Y-52100000D01*
X222497495Y-52100000D01*
X222640352Y-52052380D01*
X223211780Y-51480952D01*
X223211780Y-52100000D01*
X222211780Y-52719047D02*
X222211780Y-52814285D01*
X222259400Y-52909523D01*
X222307019Y-52957142D01*
X222402257Y-53004761D01*
X222592733Y-53052380D01*
X222830828Y-53052380D01*
X223021304Y-53004761D01*
X223116542Y-52957142D01*
X223164161Y-52909523D01*
X223211780Y-52814285D01*
X223211780Y-52719047D01*
X223164161Y-52623809D01*
X223116542Y-52576190D01*
X223021304Y-52528571D01*
X222830828Y-52480952D01*
X222592733Y-52480952D01*
X222402257Y-52528571D01*
X222307019Y-52576190D01*
X222259400Y-52623809D01*
X222211780Y-52719047D01*
X223307019Y-53242857D02*
X223307019Y-54004761D01*
X222211780Y-54433333D02*
X222211780Y-54623809D01*
X222259400Y-54719047D01*
X222354638Y-54814285D01*
X222545114Y-54861904D01*
X222878447Y-54861904D01*
X223068923Y-54814285D01*
X223164161Y-54719047D01*
X223211780Y-54623809D01*
X223211780Y-54433333D01*
X223164161Y-54338095D01*
X223068923Y-54242857D01*
X222878447Y-54195238D01*
X222545114Y-54195238D01*
X222354638Y-54242857D01*
X222259400Y-54338095D01*
X222211780Y-54433333D01*
X223211780Y-55719047D02*
X222211780Y-55719047D01*
X223164161Y-55719047D02*
X223211780Y-55623809D01*
X223211780Y-55433333D01*
X223164161Y-55338095D01*
X223116542Y-55290476D01*
X223021304Y-55242857D01*
X222735590Y-55242857D01*
X222640352Y-55290476D01*
X222592733Y-55338095D01*
X222545114Y-55433333D01*
X222545114Y-55623809D01*
X222592733Y-55719047D01*
X223211780Y-56623809D02*
X222211780Y-56623809D01*
X223164161Y-56623809D02*
X223211780Y-56528571D01*
X223211780Y-56338095D01*
X223164161Y-56242857D01*
X223116542Y-56195238D01*
X223021304Y-56147619D01*
X222735590Y-56147619D01*
X222640352Y-56195238D01*
X222592733Y-56242857D01*
X222545114Y-56338095D01*
X222545114Y-56528571D01*
X222592733Y-56623809D01*
X223307019Y-56861904D02*
X223307019Y-57623809D01*
X222687971Y-57861904D02*
X222687971Y-58195238D01*
X223211780Y-58338095D02*
X223211780Y-57861904D01*
X222211780Y-57861904D01*
X222211780Y-58338095D01*
X222545114Y-58671428D02*
X223211780Y-58909523D01*
X222545114Y-59147619D01*
X223164161Y-59909523D02*
X223211780Y-59814285D01*
X223211780Y-59623809D01*
X223164161Y-59528571D01*
X223068923Y-59480952D01*
X222687971Y-59480952D01*
X222592733Y-59528571D01*
X222545114Y-59623809D01*
X222545114Y-59814285D01*
X222592733Y-59909523D01*
X222687971Y-59957142D01*
X222783209Y-59957142D01*
X222878447Y-59480952D01*
X222545114Y-60385714D02*
X223211780Y-60385714D01*
X222640352Y-60385714D02*
X222592733Y-60433333D01*
X222545114Y-60528571D01*
X222545114Y-60671428D01*
X222592733Y-60766666D01*
X222687971Y-60814285D01*
X223211780Y-60814285D01*
X208892733Y-52052380D02*
X208892733Y-52766666D01*
X208940352Y-52909523D01*
X209035590Y-53004761D01*
X209178447Y-53052380D01*
X209273685Y-53052380D01*
X208273685Y-52480952D02*
X208368923Y-52433333D01*
X208416542Y-52385714D01*
X208464161Y-52290476D01*
X208464161Y-52242857D01*
X208416542Y-52147619D01*
X208368923Y-52100000D01*
X208273685Y-52052380D01*
X208083209Y-52052380D01*
X207987971Y-52100000D01*
X207940352Y-52147619D01*
X207892733Y-52242857D01*
X207892733Y-52290476D01*
X207940352Y-52385714D01*
X207987971Y-52433333D01*
X208083209Y-52480952D01*
X208273685Y-52480952D01*
X208368923Y-52528571D01*
X208416542Y-52576190D01*
X208464161Y-52671428D01*
X208464161Y-52861904D01*
X208416542Y-52957142D01*
X208368923Y-53004761D01*
X208273685Y-53052380D01*
X208083209Y-53052380D01*
X207987971Y-53004761D01*
X207940352Y-52957142D01*
X207892733Y-52861904D01*
X207892733Y-52671428D01*
X207940352Y-52576190D01*
X207987971Y-52528571D01*
X208083209Y-52480952D01*
M02*
