G04 #@! TF.GenerationSoftware,KiCad,Pcbnew,(5.1.6)-1*
G04 #@! TF.CreationDate,2020-10-15T10:09:19+02:00*
G04 #@! TF.ProjectId,DynOSSAT-EDU-EPS,44796e4f-5353-4415-942d-4544552d4550,rev?*
G04 #@! TF.SameCoordinates,Original*
G04 #@! TF.FileFunction,Paste,Top*
G04 #@! TF.FilePolarity,Positive*
%FSLAX46Y46*%
G04 Gerber Fmt 4.6, Leading zero omitted, Abs format (unit mm)*
G04 Created by KiCad (PCBNEW (5.1.6)-1) date 2020-10-15 10:09:19*
%MOMM*%
%LPD*%
G01*
G04 APERTURE LIST*
%ADD10R,0.600000X0.450000*%
%ADD11R,1.500000X3.600000*%
%ADD12R,0.740000X2.400000*%
%ADD13R,0.900000X0.800000*%
%ADD14R,0.450000X0.600000*%
%ADD15R,1.200000X0.900000*%
%ADD16R,0.300000X1.150000*%
%ADD17R,1.000000X0.900000*%
%ADD18R,1.000000X1.450000*%
%ADD19R,0.600000X1.100000*%
%ADD20R,1.060000X0.650000*%
%ADD21C,0.100000*%
%ADD22R,1.100000X0.250000*%
%ADD23R,0.650000X1.060000*%
%ADD24R,0.850000X1.600000*%
G04 APERTURE END LIST*
G36*
G01*
X213779800Y-81090800D02*
X213779800Y-80890800D01*
G75*
G02*
X213879800Y-80790800I100000J0D01*
G01*
X215154800Y-80790800D01*
G75*
G02*
X215254800Y-80890800I0J-100000D01*
G01*
X215254800Y-81090800D01*
G75*
G02*
X215154800Y-81190800I-100000J0D01*
G01*
X213879800Y-81190800D01*
G75*
G02*
X213779800Y-81090800I0J100000D01*
G01*
G37*
G36*
G01*
X213779800Y-81740800D02*
X213779800Y-81540800D01*
G75*
G02*
X213879800Y-81440800I100000J0D01*
G01*
X215154800Y-81440800D01*
G75*
G02*
X215254800Y-81540800I0J-100000D01*
G01*
X215254800Y-81740800D01*
G75*
G02*
X215154800Y-81840800I-100000J0D01*
G01*
X213879800Y-81840800D01*
G75*
G02*
X213779800Y-81740800I0J100000D01*
G01*
G37*
G36*
G01*
X213779800Y-82390800D02*
X213779800Y-82190800D01*
G75*
G02*
X213879800Y-82090800I100000J0D01*
G01*
X215154800Y-82090800D01*
G75*
G02*
X215254800Y-82190800I0J-100000D01*
G01*
X215254800Y-82390800D01*
G75*
G02*
X215154800Y-82490800I-100000J0D01*
G01*
X213879800Y-82490800D01*
G75*
G02*
X213779800Y-82390800I0J100000D01*
G01*
G37*
G36*
G01*
X213779800Y-83040800D02*
X213779800Y-82840800D01*
G75*
G02*
X213879800Y-82740800I100000J0D01*
G01*
X215154800Y-82740800D01*
G75*
G02*
X215254800Y-82840800I0J-100000D01*
G01*
X215254800Y-83040800D01*
G75*
G02*
X215154800Y-83140800I-100000J0D01*
G01*
X213879800Y-83140800D01*
G75*
G02*
X213779800Y-83040800I0J100000D01*
G01*
G37*
G36*
G01*
X219504800Y-83040800D02*
X219504800Y-82840800D01*
G75*
G02*
X219604800Y-82740800I100000J0D01*
G01*
X220879800Y-82740800D01*
G75*
G02*
X220979800Y-82840800I0J-100000D01*
G01*
X220979800Y-83040800D01*
G75*
G02*
X220879800Y-83140800I-100000J0D01*
G01*
X219604800Y-83140800D01*
G75*
G02*
X219504800Y-83040800I0J100000D01*
G01*
G37*
G36*
G01*
X219504800Y-82390800D02*
X219504800Y-82190800D01*
G75*
G02*
X219604800Y-82090800I100000J0D01*
G01*
X220879800Y-82090800D01*
G75*
G02*
X220979800Y-82190800I0J-100000D01*
G01*
X220979800Y-82390800D01*
G75*
G02*
X220879800Y-82490800I-100000J0D01*
G01*
X219604800Y-82490800D01*
G75*
G02*
X219504800Y-82390800I0J100000D01*
G01*
G37*
G36*
G01*
X219504800Y-81740800D02*
X219504800Y-81540800D01*
G75*
G02*
X219604800Y-81440800I100000J0D01*
G01*
X220879800Y-81440800D01*
G75*
G02*
X220979800Y-81540800I0J-100000D01*
G01*
X220979800Y-81740800D01*
G75*
G02*
X220879800Y-81840800I-100000J0D01*
G01*
X219604800Y-81840800D01*
G75*
G02*
X219504800Y-81740800I0J100000D01*
G01*
G37*
G36*
G01*
X219504800Y-81090800D02*
X219504800Y-80890800D01*
G75*
G02*
X219604800Y-80790800I100000J0D01*
G01*
X220879800Y-80790800D01*
G75*
G02*
X220979800Y-80890800I0J-100000D01*
G01*
X220979800Y-81090800D01*
G75*
G02*
X220879800Y-81190800I-100000J0D01*
G01*
X219604800Y-81190800D01*
G75*
G02*
X219504800Y-81090800I0J100000D01*
G01*
G37*
G36*
G01*
X198255200Y-71107000D02*
X196105200Y-71107000D01*
G75*
G02*
X195855200Y-70857000I0J250000D01*
G01*
X195855200Y-70107000D01*
G75*
G02*
X196105200Y-69857000I250000J0D01*
G01*
X198255200Y-69857000D01*
G75*
G02*
X198505200Y-70107000I0J-250000D01*
G01*
X198505200Y-70857000D01*
G75*
G02*
X198255200Y-71107000I-250000J0D01*
G01*
G37*
G36*
G01*
X198255200Y-73907000D02*
X196105200Y-73907000D01*
G75*
G02*
X195855200Y-73657000I0J250000D01*
G01*
X195855200Y-72907000D01*
G75*
G02*
X196105200Y-72657000I250000J0D01*
G01*
X198255200Y-72657000D01*
G75*
G02*
X198505200Y-72907000I0J-250000D01*
G01*
X198505200Y-73657000D01*
G75*
G02*
X198255200Y-73907000I-250000J0D01*
G01*
G37*
G36*
G01*
X204249600Y-62547200D02*
X202099600Y-62547200D01*
G75*
G02*
X201849600Y-62297200I0J250000D01*
G01*
X201849600Y-61547200D01*
G75*
G02*
X202099600Y-61297200I250000J0D01*
G01*
X204249600Y-61297200D01*
G75*
G02*
X204499600Y-61547200I0J-250000D01*
G01*
X204499600Y-62297200D01*
G75*
G02*
X204249600Y-62547200I-250000J0D01*
G01*
G37*
G36*
G01*
X204249600Y-65347200D02*
X202099600Y-65347200D01*
G75*
G02*
X201849600Y-65097200I0J250000D01*
G01*
X201849600Y-64347200D01*
G75*
G02*
X202099600Y-64097200I250000J0D01*
G01*
X204249600Y-64097200D01*
G75*
G02*
X204499600Y-64347200I0J-250000D01*
G01*
X204499600Y-65097200D01*
G75*
G02*
X204249600Y-65347200I-250000J0D01*
G01*
G37*
D10*
X202726000Y-59994800D03*
X200626000Y-59994800D03*
G36*
G01*
X220364600Y-75414850D02*
X220364600Y-74902350D01*
G75*
G02*
X220583350Y-74683600I218750J0D01*
G01*
X221020850Y-74683600D01*
G75*
G02*
X221239600Y-74902350I0J-218750D01*
G01*
X221239600Y-75414850D01*
G75*
G02*
X221020850Y-75633600I-218750J0D01*
G01*
X220583350Y-75633600D01*
G75*
G02*
X220364600Y-75414850I0J218750D01*
G01*
G37*
G36*
G01*
X221939600Y-75414850D02*
X221939600Y-74902350D01*
G75*
G02*
X222158350Y-74683600I218750J0D01*
G01*
X222595850Y-74683600D01*
G75*
G02*
X222814600Y-74902350I0J-218750D01*
G01*
X222814600Y-75414850D01*
G75*
G02*
X222595850Y-75633600I-218750J0D01*
G01*
X222158350Y-75633600D01*
G75*
G02*
X221939600Y-75414850I0J218750D01*
G01*
G37*
G36*
G01*
X202316800Y-73606950D02*
X202316800Y-74119450D01*
G75*
G02*
X202098050Y-74338200I-218750J0D01*
G01*
X201660550Y-74338200D01*
G75*
G02*
X201441800Y-74119450I0J218750D01*
G01*
X201441800Y-73606950D01*
G75*
G02*
X201660550Y-73388200I218750J0D01*
G01*
X202098050Y-73388200D01*
G75*
G02*
X202316800Y-73606950I0J-218750D01*
G01*
G37*
G36*
G01*
X200741800Y-73606950D02*
X200741800Y-74119450D01*
G75*
G02*
X200523050Y-74338200I-218750J0D01*
G01*
X200085550Y-74338200D01*
G75*
G02*
X199866800Y-74119450I0J218750D01*
G01*
X199866800Y-73606950D01*
G75*
G02*
X200085550Y-73388200I218750J0D01*
G01*
X200523050Y-73388200D01*
G75*
G02*
X200741800Y-73606950I0J-218750D01*
G01*
G37*
G36*
G01*
X199319400Y-65529750D02*
X199319400Y-66042250D01*
G75*
G02*
X199100650Y-66261000I-218750J0D01*
G01*
X198663150Y-66261000D01*
G75*
G02*
X198444400Y-66042250I0J218750D01*
G01*
X198444400Y-65529750D01*
G75*
G02*
X198663150Y-65311000I218750J0D01*
G01*
X199100650Y-65311000D01*
G75*
G02*
X199319400Y-65529750I0J-218750D01*
G01*
G37*
G36*
G01*
X200894400Y-65529750D02*
X200894400Y-66042250D01*
G75*
G02*
X200675650Y-66261000I-218750J0D01*
G01*
X200238150Y-66261000D01*
G75*
G02*
X200019400Y-66042250I0J218750D01*
G01*
X200019400Y-65529750D01*
G75*
G02*
X200238150Y-65311000I218750J0D01*
G01*
X200675650Y-65311000D01*
G75*
G02*
X200894400Y-65529750I0J-218750D01*
G01*
G37*
G36*
G01*
X216363000Y-88338950D02*
X216363000Y-88851450D01*
G75*
G02*
X216144250Y-89070200I-218750J0D01*
G01*
X215706750Y-89070200D01*
G75*
G02*
X215488000Y-88851450I0J218750D01*
G01*
X215488000Y-88338950D01*
G75*
G02*
X215706750Y-88120200I218750J0D01*
G01*
X216144250Y-88120200D01*
G75*
G02*
X216363000Y-88338950I0J-218750D01*
G01*
G37*
G36*
G01*
X214788000Y-88338950D02*
X214788000Y-88851450D01*
G75*
G02*
X214569250Y-89070200I-218750J0D01*
G01*
X214131750Y-89070200D01*
G75*
G02*
X213913000Y-88851450I0J218750D01*
G01*
X213913000Y-88338950D01*
G75*
G02*
X214131750Y-88120200I218750J0D01*
G01*
X214569250Y-88120200D01*
G75*
G02*
X214788000Y-88338950I0J-218750D01*
G01*
G37*
G36*
G01*
X207664800Y-80621850D02*
X207664800Y-80109350D01*
G75*
G02*
X207883550Y-79890600I218750J0D01*
G01*
X208321050Y-79890600D01*
G75*
G02*
X208539800Y-80109350I0J-218750D01*
G01*
X208539800Y-80621850D01*
G75*
G02*
X208321050Y-80840600I-218750J0D01*
G01*
X207883550Y-80840600D01*
G75*
G02*
X207664800Y-80621850I0J218750D01*
G01*
G37*
G36*
G01*
X206089800Y-80621850D02*
X206089800Y-80109350D01*
G75*
G02*
X206308550Y-79890600I218750J0D01*
G01*
X206746050Y-79890600D01*
G75*
G02*
X206964800Y-80109350I0J-218750D01*
G01*
X206964800Y-80621850D01*
G75*
G02*
X206746050Y-80840600I-218750J0D01*
G01*
X206308550Y-80840600D01*
G75*
G02*
X206089800Y-80621850I0J218750D01*
G01*
G37*
G36*
G01*
X212778050Y-85197400D02*
X212265550Y-85197400D01*
G75*
G02*
X212046800Y-84978650I0J218750D01*
G01*
X212046800Y-84541150D01*
G75*
G02*
X212265550Y-84322400I218750J0D01*
G01*
X212778050Y-84322400D01*
G75*
G02*
X212996800Y-84541150I0J-218750D01*
G01*
X212996800Y-84978650D01*
G75*
G02*
X212778050Y-85197400I-218750J0D01*
G01*
G37*
G36*
G01*
X212778050Y-83622400D02*
X212265550Y-83622400D01*
G75*
G02*
X212046800Y-83403650I0J218750D01*
G01*
X212046800Y-82966150D01*
G75*
G02*
X212265550Y-82747400I218750J0D01*
G01*
X212778050Y-82747400D01*
G75*
G02*
X212996800Y-82966150I0J-218750D01*
G01*
X212996800Y-83403650D01*
G75*
G02*
X212778050Y-83622400I-218750J0D01*
G01*
G37*
G36*
G01*
X209918000Y-85468750D02*
X209918000Y-85981250D01*
G75*
G02*
X209699250Y-86200000I-218750J0D01*
G01*
X209261750Y-86200000D01*
G75*
G02*
X209043000Y-85981250I0J218750D01*
G01*
X209043000Y-85468750D01*
G75*
G02*
X209261750Y-85250000I218750J0D01*
G01*
X209699250Y-85250000D01*
G75*
G02*
X209918000Y-85468750I0J-218750D01*
G01*
G37*
G36*
G01*
X208343000Y-85468750D02*
X208343000Y-85981250D01*
G75*
G02*
X208124250Y-86200000I-218750J0D01*
G01*
X207686750Y-86200000D01*
G75*
G02*
X207468000Y-85981250I0J218750D01*
G01*
X207468000Y-85468750D01*
G75*
G02*
X207686750Y-85250000I218750J0D01*
G01*
X208124250Y-85250000D01*
G75*
G02*
X208343000Y-85468750I0J-218750D01*
G01*
G37*
G36*
G01*
X194510950Y-71470000D02*
X195023450Y-71470000D01*
G75*
G02*
X195242200Y-71688750I0J-218750D01*
G01*
X195242200Y-72126250D01*
G75*
G02*
X195023450Y-72345000I-218750J0D01*
G01*
X194510950Y-72345000D01*
G75*
G02*
X194292200Y-72126250I0J218750D01*
G01*
X194292200Y-71688750D01*
G75*
G02*
X194510950Y-71470000I218750J0D01*
G01*
G37*
G36*
G01*
X194510950Y-69895000D02*
X195023450Y-69895000D01*
G75*
G02*
X195242200Y-70113750I0J-218750D01*
G01*
X195242200Y-70551250D01*
G75*
G02*
X195023450Y-70770000I-218750J0D01*
G01*
X194510950Y-70770000D01*
G75*
G02*
X194292200Y-70551250I0J218750D01*
G01*
X194292200Y-70113750D01*
G75*
G02*
X194510950Y-69895000I218750J0D01*
G01*
G37*
G36*
G01*
X193012350Y-69895000D02*
X193524850Y-69895000D01*
G75*
G02*
X193743600Y-70113750I0J-218750D01*
G01*
X193743600Y-70551250D01*
G75*
G02*
X193524850Y-70770000I-218750J0D01*
G01*
X193012350Y-70770000D01*
G75*
G02*
X192793600Y-70551250I0J218750D01*
G01*
X192793600Y-70113750D01*
G75*
G02*
X193012350Y-69895000I218750J0D01*
G01*
G37*
G36*
G01*
X193012350Y-71470000D02*
X193524850Y-71470000D01*
G75*
G02*
X193743600Y-71688750I0J-218750D01*
G01*
X193743600Y-72126250D01*
G75*
G02*
X193524850Y-72345000I-218750J0D01*
G01*
X193012350Y-72345000D01*
G75*
G02*
X192793600Y-72126250I0J218750D01*
G01*
X192793600Y-71688750D01*
G75*
G02*
X193012350Y-71470000I218750J0D01*
G01*
G37*
D11*
X213689200Y-77724000D03*
X216739200Y-77724000D03*
G36*
G01*
X213995800Y-84965250D02*
X213995800Y-84452750D01*
G75*
G02*
X214214550Y-84234000I218750J0D01*
G01*
X214652050Y-84234000D01*
G75*
G02*
X214870800Y-84452750I0J-218750D01*
G01*
X214870800Y-84965250D01*
G75*
G02*
X214652050Y-85184000I-218750J0D01*
G01*
X214214550Y-85184000D01*
G75*
G02*
X213995800Y-84965250I0J218750D01*
G01*
G37*
G36*
G01*
X215570800Y-84965250D02*
X215570800Y-84452750D01*
G75*
G02*
X215789550Y-84234000I218750J0D01*
G01*
X216227050Y-84234000D01*
G75*
G02*
X216445800Y-84452750I0J-218750D01*
G01*
X216445800Y-84965250D01*
G75*
G02*
X216227050Y-85184000I-218750J0D01*
G01*
X215789550Y-85184000D01*
G75*
G02*
X215570800Y-84965250I0J218750D01*
G01*
G37*
G36*
G01*
X205898200Y-88338950D02*
X205898200Y-88851450D01*
G75*
G02*
X205679450Y-89070200I-218750J0D01*
G01*
X205241950Y-89070200D01*
G75*
G02*
X205023200Y-88851450I0J218750D01*
G01*
X205023200Y-88338950D01*
G75*
G02*
X205241950Y-88120200I218750J0D01*
G01*
X205679450Y-88120200D01*
G75*
G02*
X205898200Y-88338950I0J-218750D01*
G01*
G37*
G36*
G01*
X204323200Y-88338950D02*
X204323200Y-88851450D01*
G75*
G02*
X204104450Y-89070200I-218750J0D01*
G01*
X203666950Y-89070200D01*
G75*
G02*
X203448200Y-88851450I0J218750D01*
G01*
X203448200Y-88338950D01*
G75*
G02*
X203666950Y-88120200I218750J0D01*
G01*
X204104450Y-88120200D01*
G75*
G02*
X204323200Y-88338950I0J-218750D01*
G01*
G37*
D10*
X214164200Y-86537800D03*
X216264200Y-86537800D03*
D12*
X196494400Y-54547600D03*
X196494400Y-50647600D03*
X197764400Y-54547600D03*
X197764400Y-50647600D03*
X199034400Y-54547600D03*
X199034400Y-50647600D03*
X200304400Y-54547600D03*
X200304400Y-50647600D03*
X201574400Y-54547600D03*
X201574400Y-50647600D03*
X202844400Y-54547600D03*
X202844400Y-50647600D03*
X204114400Y-54547600D03*
X204114400Y-50647600D03*
X205384400Y-54547600D03*
X205384400Y-50647600D03*
X206654400Y-54547600D03*
X206654400Y-50647600D03*
X207924400Y-54547600D03*
X207924400Y-50647600D03*
X209194400Y-54547600D03*
X209194400Y-50647600D03*
X210464400Y-54547600D03*
X210464400Y-50647600D03*
X211734400Y-54547600D03*
X211734400Y-50647600D03*
X213004400Y-54547600D03*
X213004400Y-50647600D03*
X214274400Y-54547600D03*
X214274400Y-50647600D03*
X215544400Y-54547600D03*
X215544400Y-50647600D03*
X216814400Y-54547600D03*
X216814400Y-50647600D03*
X218084400Y-54547600D03*
X218084400Y-50647600D03*
X219354400Y-54547600D03*
X219354400Y-50647600D03*
X220624400Y-54547600D03*
X220624400Y-50647600D03*
G36*
G01*
X200789800Y-80969900D02*
X200789800Y-80624900D01*
G75*
G02*
X200937300Y-80477400I147500J0D01*
G01*
X201232300Y-80477400D01*
G75*
G02*
X201379800Y-80624900I0J-147500D01*
G01*
X201379800Y-80969900D01*
G75*
G02*
X201232300Y-81117400I-147500J0D01*
G01*
X200937300Y-81117400D01*
G75*
G02*
X200789800Y-80969900I0J147500D01*
G01*
G37*
G36*
G01*
X199819800Y-80969900D02*
X199819800Y-80624900D01*
G75*
G02*
X199967300Y-80477400I147500J0D01*
G01*
X200262300Y-80477400D01*
G75*
G02*
X200409800Y-80624900I0J-147500D01*
G01*
X200409800Y-80969900D01*
G75*
G02*
X200262300Y-81117400I-147500J0D01*
G01*
X199967300Y-81117400D01*
G75*
G02*
X199819800Y-80969900I0J147500D01*
G01*
G37*
G36*
G01*
X195944200Y-80624900D02*
X195944200Y-80969900D01*
G75*
G02*
X195796700Y-81117400I-147500J0D01*
G01*
X195501700Y-81117400D01*
G75*
G02*
X195354200Y-80969900I0J147500D01*
G01*
X195354200Y-80624900D01*
G75*
G02*
X195501700Y-80477400I147500J0D01*
G01*
X195796700Y-80477400D01*
G75*
G02*
X195944200Y-80624900I0J-147500D01*
G01*
G37*
G36*
G01*
X194974200Y-80624900D02*
X194974200Y-80969900D01*
G75*
G02*
X194826700Y-81117400I-147500J0D01*
G01*
X194531700Y-81117400D01*
G75*
G02*
X194384200Y-80969900I0J147500D01*
G01*
X194384200Y-80624900D01*
G75*
G02*
X194531700Y-80477400I147500J0D01*
G01*
X194826700Y-80477400D01*
G75*
G02*
X194974200Y-80624900I0J-147500D01*
G01*
G37*
G36*
G01*
X199493850Y-60457800D02*
X198981350Y-60457800D01*
G75*
G02*
X198762600Y-60239050I0J218750D01*
G01*
X198762600Y-59801550D01*
G75*
G02*
X198981350Y-59582800I218750J0D01*
G01*
X199493850Y-59582800D01*
G75*
G02*
X199712600Y-59801550I0J-218750D01*
G01*
X199712600Y-60239050D01*
G75*
G02*
X199493850Y-60457800I-218750J0D01*
G01*
G37*
G36*
G01*
X199493850Y-58882800D02*
X198981350Y-58882800D01*
G75*
G02*
X198762600Y-58664050I0J218750D01*
G01*
X198762600Y-58226550D01*
G75*
G02*
X198981350Y-58007800I218750J0D01*
G01*
X199493850Y-58007800D01*
G75*
G02*
X199712600Y-58226550I0J-218750D01*
G01*
X199712600Y-58664050D01*
G75*
G02*
X199493850Y-58882800I-218750J0D01*
G01*
G37*
D13*
X194065400Y-67879000D03*
X194065400Y-65979000D03*
X192065400Y-66929000D03*
D10*
X199068400Y-75361800D03*
X196968400Y-75361800D03*
D14*
X195072000Y-77029600D03*
X195072000Y-79129600D03*
G36*
G01*
X214711500Y-72681600D02*
X215056500Y-72681600D01*
G75*
G02*
X215204000Y-72829100I0J-147500D01*
G01*
X215204000Y-73124100D01*
G75*
G02*
X215056500Y-73271600I-147500J0D01*
G01*
X214711500Y-73271600D01*
G75*
G02*
X214564000Y-73124100I0J147500D01*
G01*
X214564000Y-72829100D01*
G75*
G02*
X214711500Y-72681600I147500J0D01*
G01*
G37*
G36*
G01*
X214711500Y-71711600D02*
X215056500Y-71711600D01*
G75*
G02*
X215204000Y-71859100I0J-147500D01*
G01*
X215204000Y-72154100D01*
G75*
G02*
X215056500Y-72301600I-147500J0D01*
G01*
X214711500Y-72301600D01*
G75*
G02*
X214564000Y-72154100I0J147500D01*
G01*
X214564000Y-71859100D01*
G75*
G02*
X214711500Y-71711600I147500J0D01*
G01*
G37*
G36*
G01*
X218521500Y-72681600D02*
X218866500Y-72681600D01*
G75*
G02*
X219014000Y-72829100I0J-147500D01*
G01*
X219014000Y-73124100D01*
G75*
G02*
X218866500Y-73271600I-147500J0D01*
G01*
X218521500Y-73271600D01*
G75*
G02*
X218374000Y-73124100I0J147500D01*
G01*
X218374000Y-72829100D01*
G75*
G02*
X218521500Y-72681600I147500J0D01*
G01*
G37*
G36*
G01*
X218521500Y-71711600D02*
X218866500Y-71711600D01*
G75*
G02*
X219014000Y-71859100I0J-147500D01*
G01*
X219014000Y-72154100D01*
G75*
G02*
X218866500Y-72301600I-147500J0D01*
G01*
X218521500Y-72301600D01*
G75*
G02*
X218374000Y-72154100I0J147500D01*
G01*
X218374000Y-71859100D01*
G75*
G02*
X218521500Y-71711600I147500J0D01*
G01*
G37*
G36*
G01*
X210655225Y-68272874D02*
X210411273Y-68516825D01*
G75*
G02*
X210202677Y-68516825I-104298J104298D01*
G01*
X209994081Y-68308229D01*
G75*
G02*
X209994081Y-68099633I104298J104298D01*
G01*
X210238033Y-67855681D01*
G75*
G02*
X210446629Y-67855681I104298J-104298D01*
G01*
X210655225Y-68064277D01*
G75*
G02*
X210655225Y-68272873I-104298J-104298D01*
G01*
G37*
G36*
G01*
X211341119Y-68958768D02*
X211097167Y-69202719D01*
G75*
G02*
X210888571Y-69202719I-104298J104298D01*
G01*
X210679975Y-68994123D01*
G75*
G02*
X210679975Y-68785527I104298J104298D01*
G01*
X210923927Y-68541575D01*
G75*
G02*
X211132523Y-68541575I104298J-104298D01*
G01*
X211341119Y-68750171D01*
G75*
G02*
X211341119Y-68958767I-104298J-104298D01*
G01*
G37*
G36*
G01*
X218707119Y-62380168D02*
X218463167Y-62624119D01*
G75*
G02*
X218254571Y-62624119I-104298J104298D01*
G01*
X218045975Y-62415523D01*
G75*
G02*
X218045975Y-62206927I104298J104298D01*
G01*
X218289927Y-61962975D01*
G75*
G02*
X218498523Y-61962975I104298J-104298D01*
G01*
X218707119Y-62171571D01*
G75*
G02*
X218707119Y-62380167I-104298J-104298D01*
G01*
G37*
G36*
G01*
X218021225Y-61694274D02*
X217777273Y-61938225D01*
G75*
G02*
X217568677Y-61938225I-104298J104298D01*
G01*
X217360081Y-61729629D01*
G75*
G02*
X217360081Y-61521033I104298J104298D01*
G01*
X217604033Y-61277081D01*
G75*
G02*
X217812629Y-61277081I104298J-104298D01*
G01*
X218021225Y-61485677D01*
G75*
G02*
X218021225Y-61694273I-104298J-104298D01*
G01*
G37*
G36*
G01*
X217142274Y-68897175D02*
X217386225Y-69141127D01*
G75*
G02*
X217386225Y-69349723I-104298J-104298D01*
G01*
X217177629Y-69558319D01*
G75*
G02*
X216969033Y-69558319I-104298J104298D01*
G01*
X216725081Y-69314367D01*
G75*
G02*
X216725081Y-69105771I104298J104298D01*
G01*
X216933677Y-68897175D01*
G75*
G02*
X217142273Y-68897175I104298J-104298D01*
G01*
G37*
G36*
G01*
X217828168Y-68211281D02*
X218072119Y-68455233D01*
G75*
G02*
X218072119Y-68663829I-104298J-104298D01*
G01*
X217863523Y-68872425D01*
G75*
G02*
X217654927Y-68872425I-104298J104298D01*
G01*
X217410975Y-68628473D01*
G75*
G02*
X217410975Y-68419877I104298J104298D01*
G01*
X217619571Y-68211281D01*
G75*
G02*
X217828167Y-68211281I104298J-104298D01*
G01*
G37*
G36*
G01*
X207962081Y-66067632D02*
X208206033Y-65823681D01*
G75*
G02*
X208414629Y-65823681I104298J-104298D01*
G01*
X208623225Y-66032277D01*
G75*
G02*
X208623225Y-66240873I-104298J-104298D01*
G01*
X208379273Y-66484825D01*
G75*
G02*
X208170677Y-66484825I-104298J104298D01*
G01*
X207962081Y-66276229D01*
G75*
G02*
X207962081Y-66067633I104298J104298D01*
G01*
G37*
G36*
G01*
X208647975Y-66753526D02*
X208891927Y-66509575D01*
G75*
G02*
X209100523Y-66509575I104298J-104298D01*
G01*
X209309119Y-66718171D01*
G75*
G02*
X209309119Y-66926767I-104298J-104298D01*
G01*
X209065167Y-67170719D01*
G75*
G02*
X208856571Y-67170719I-104298J104298D01*
G01*
X208647975Y-66962123D01*
G75*
G02*
X208647975Y-66753527I104298J104298D01*
G01*
G37*
G36*
G01*
X208636019Y-63370768D02*
X208392067Y-63614719D01*
G75*
G02*
X208183471Y-63614719I-104298J104298D01*
G01*
X207974875Y-63406123D01*
G75*
G02*
X207974875Y-63197527I104298J104298D01*
G01*
X208218827Y-62953575D01*
G75*
G02*
X208427423Y-62953575I104298J-104298D01*
G01*
X208636019Y-63162171D01*
G75*
G02*
X208636019Y-63370767I-104298J-104298D01*
G01*
G37*
G36*
G01*
X207950125Y-62684874D02*
X207706173Y-62928825D01*
G75*
G02*
X207497577Y-62928825I-104298J104298D01*
G01*
X207288981Y-62720229D01*
G75*
G02*
X207288981Y-62511633I104298J104298D01*
G01*
X207532933Y-62267681D01*
G75*
G02*
X207741529Y-62267681I104298J-104298D01*
G01*
X207950125Y-62476277D01*
G75*
G02*
X207950125Y-62684873I-104298J-104298D01*
G01*
G37*
G36*
G01*
X220398126Y-68821625D02*
X220154175Y-68577673D01*
G75*
G02*
X220154175Y-68369077I104298J104298D01*
G01*
X220362771Y-68160481D01*
G75*
G02*
X220571367Y-68160481I104298J-104298D01*
G01*
X220815319Y-68404433D01*
G75*
G02*
X220815319Y-68613029I-104298J-104298D01*
G01*
X220606723Y-68821625D01*
G75*
G02*
X220398127Y-68821625I-104298J104298D01*
G01*
G37*
G36*
G01*
X219712232Y-69507519D02*
X219468281Y-69263567D01*
G75*
G02*
X219468281Y-69054971I104298J104298D01*
G01*
X219676877Y-68846375D01*
G75*
G02*
X219885473Y-68846375I104298J-104298D01*
G01*
X220129425Y-69090327D01*
G75*
G02*
X220129425Y-69298923I-104298J-104298D01*
G01*
X219920829Y-69507519D01*
G75*
G02*
X219712233Y-69507519I-104298J104298D01*
G01*
G37*
G36*
G01*
X196209700Y-60139800D02*
X195864700Y-60139800D01*
G75*
G02*
X195717200Y-59992300I0J147500D01*
G01*
X195717200Y-59697300D01*
G75*
G02*
X195864700Y-59549800I147500J0D01*
G01*
X196209700Y-59549800D01*
G75*
G02*
X196357200Y-59697300I0J-147500D01*
G01*
X196357200Y-59992300D01*
G75*
G02*
X196209700Y-60139800I-147500J0D01*
G01*
G37*
G36*
G01*
X196209700Y-59169800D02*
X195864700Y-59169800D01*
G75*
G02*
X195717200Y-59022300I0J147500D01*
G01*
X195717200Y-58727300D01*
G75*
G02*
X195864700Y-58579800I147500J0D01*
G01*
X196209700Y-58579800D01*
G75*
G02*
X196357200Y-58727300I0J-147500D01*
G01*
X196357200Y-59022300D01*
G75*
G02*
X196209700Y-59169800I-147500J0D01*
G01*
G37*
G36*
G01*
X212407081Y-70512632D02*
X212651033Y-70268681D01*
G75*
G02*
X212859629Y-70268681I104298J-104298D01*
G01*
X213068225Y-70477277D01*
G75*
G02*
X213068225Y-70685873I-104298J-104298D01*
G01*
X212824273Y-70929825D01*
G75*
G02*
X212615677Y-70929825I-104298J104298D01*
G01*
X212407081Y-70721229D01*
G75*
G02*
X212407081Y-70512633I104298J104298D01*
G01*
G37*
G36*
G01*
X213092975Y-71198526D02*
X213336927Y-70954575D01*
G75*
G02*
X213545523Y-70954575I104298J-104298D01*
G01*
X213754119Y-71163171D01*
G75*
G02*
X213754119Y-71371767I-104298J-104298D01*
G01*
X213510167Y-71615719D01*
G75*
G02*
X213301571Y-71615719I-104298J104298D01*
G01*
X213092975Y-71407123D01*
G75*
G02*
X213092975Y-71198527I104298J104298D01*
G01*
G37*
G36*
G01*
X221899700Y-81058800D02*
X222244700Y-81058800D01*
G75*
G02*
X222392200Y-81206300I0J-147500D01*
G01*
X222392200Y-81501300D01*
G75*
G02*
X222244700Y-81648800I-147500J0D01*
G01*
X221899700Y-81648800D01*
G75*
G02*
X221752200Y-81501300I0J147500D01*
G01*
X221752200Y-81206300D01*
G75*
G02*
X221899700Y-81058800I147500J0D01*
G01*
G37*
G36*
G01*
X221899700Y-82028800D02*
X222244700Y-82028800D01*
G75*
G02*
X222392200Y-82176300I0J-147500D01*
G01*
X222392200Y-82471300D01*
G75*
G02*
X222244700Y-82618800I-147500J0D01*
G01*
X221899700Y-82618800D01*
G75*
G02*
X221752200Y-82471300I0J147500D01*
G01*
X221752200Y-82176300D01*
G75*
G02*
X221899700Y-82028800I147500J0D01*
G01*
G37*
G36*
G01*
X218782575Y-61495726D02*
X219026527Y-61251775D01*
G75*
G02*
X219235123Y-61251775I104298J-104298D01*
G01*
X219443719Y-61460371D01*
G75*
G02*
X219443719Y-61668967I-104298J-104298D01*
G01*
X219199767Y-61912919D01*
G75*
G02*
X218991171Y-61912919I-104298J104298D01*
G01*
X218782575Y-61704323D01*
G75*
G02*
X218782575Y-61495727I104298J104298D01*
G01*
G37*
G36*
G01*
X218096681Y-60809832D02*
X218340633Y-60565881D01*
G75*
G02*
X218549229Y-60565881I104298J-104298D01*
G01*
X218757825Y-60774477D01*
G75*
G02*
X218757825Y-60983073I-104298J-104298D01*
G01*
X218513873Y-61227025D01*
G75*
G02*
X218305277Y-61227025I-104298J104298D01*
G01*
X218096681Y-61018429D01*
G75*
G02*
X218096681Y-60809833I104298J104298D01*
G01*
G37*
G36*
G01*
X223893600Y-64013300D02*
X223893600Y-64358300D01*
G75*
G02*
X223746100Y-64505800I-147500J0D01*
G01*
X223451100Y-64505800D01*
G75*
G02*
X223303600Y-64358300I0J147500D01*
G01*
X223303600Y-64013300D01*
G75*
G02*
X223451100Y-63865800I147500J0D01*
G01*
X223746100Y-63865800D01*
G75*
G02*
X223893600Y-64013300I0J-147500D01*
G01*
G37*
G36*
G01*
X222923600Y-64013300D02*
X222923600Y-64358300D01*
G75*
G02*
X222776100Y-64505800I-147500J0D01*
G01*
X222481100Y-64505800D01*
G75*
G02*
X222333600Y-64358300I0J147500D01*
G01*
X222333600Y-64013300D01*
G75*
G02*
X222481100Y-63865800I147500J0D01*
G01*
X222776100Y-63865800D01*
G75*
G02*
X222923600Y-64013300I0J-147500D01*
G01*
G37*
G36*
G01*
X225150900Y-62801000D02*
X225495900Y-62801000D01*
G75*
G02*
X225643400Y-62948500I0J-147500D01*
G01*
X225643400Y-63243500D01*
G75*
G02*
X225495900Y-63391000I-147500J0D01*
G01*
X225150900Y-63391000D01*
G75*
G02*
X225003400Y-63243500I0J147500D01*
G01*
X225003400Y-62948500D01*
G75*
G02*
X225150900Y-62801000I147500J0D01*
G01*
G37*
G36*
G01*
X225150900Y-61831000D02*
X225495900Y-61831000D01*
G75*
G02*
X225643400Y-61978500I0J-147500D01*
G01*
X225643400Y-62273500D01*
G75*
G02*
X225495900Y-62421000I-147500J0D01*
G01*
X225150900Y-62421000D01*
G75*
G02*
X225003400Y-62273500I0J147500D01*
G01*
X225003400Y-61978500D01*
G75*
G02*
X225150900Y-61831000I147500J0D01*
G01*
G37*
G36*
G01*
X224744500Y-68185800D02*
X225089500Y-68185800D01*
G75*
G02*
X225237000Y-68333300I0J-147500D01*
G01*
X225237000Y-68628300D01*
G75*
G02*
X225089500Y-68775800I-147500J0D01*
G01*
X224744500Y-68775800D01*
G75*
G02*
X224597000Y-68628300I0J147500D01*
G01*
X224597000Y-68333300D01*
G75*
G02*
X224744500Y-68185800I147500J0D01*
G01*
G37*
G36*
G01*
X224744500Y-67215800D02*
X225089500Y-67215800D01*
G75*
G02*
X225237000Y-67363300I0J-147500D01*
G01*
X225237000Y-67658300D01*
G75*
G02*
X225089500Y-67805800I-147500J0D01*
G01*
X224744500Y-67805800D01*
G75*
G02*
X224597000Y-67658300I0J147500D01*
G01*
X224597000Y-67363300D01*
G75*
G02*
X224744500Y-67215800I147500J0D01*
G01*
G37*
G36*
G01*
X210984600Y-80792100D02*
X210984600Y-80447100D01*
G75*
G02*
X211132100Y-80299600I147500J0D01*
G01*
X211427100Y-80299600D01*
G75*
G02*
X211574600Y-80447100I0J-147500D01*
G01*
X211574600Y-80792100D01*
G75*
G02*
X211427100Y-80939600I-147500J0D01*
G01*
X211132100Y-80939600D01*
G75*
G02*
X210984600Y-80792100I0J147500D01*
G01*
G37*
G36*
G01*
X210014600Y-80792100D02*
X210014600Y-80447100D01*
G75*
G02*
X210162100Y-80299600I147500J0D01*
G01*
X210457100Y-80299600D01*
G75*
G02*
X210604600Y-80447100I0J-147500D01*
G01*
X210604600Y-80792100D01*
G75*
G02*
X210457100Y-80939600I-147500J0D01*
G01*
X210162100Y-80939600D01*
G75*
G02*
X210014600Y-80792100I0J147500D01*
G01*
G37*
G36*
G01*
X210014600Y-79801500D02*
X210014600Y-79456500D01*
G75*
G02*
X210162100Y-79309000I147500J0D01*
G01*
X210457100Y-79309000D01*
G75*
G02*
X210604600Y-79456500I0J-147500D01*
G01*
X210604600Y-79801500D01*
G75*
G02*
X210457100Y-79949000I-147500J0D01*
G01*
X210162100Y-79949000D01*
G75*
G02*
X210014600Y-79801500I0J147500D01*
G01*
G37*
G36*
G01*
X210984600Y-79801500D02*
X210984600Y-79456500D01*
G75*
G02*
X211132100Y-79309000I147500J0D01*
G01*
X211427100Y-79309000D01*
G75*
G02*
X211574600Y-79456500I0J-147500D01*
G01*
X211574600Y-79801500D01*
G75*
G02*
X211427100Y-79949000I-147500J0D01*
G01*
X211132100Y-79949000D01*
G75*
G02*
X210984600Y-79801500I0J147500D01*
G01*
G37*
G36*
G01*
X220571274Y-69532175D02*
X220815225Y-69776127D01*
G75*
G02*
X220815225Y-69984723I-104298J-104298D01*
G01*
X220606629Y-70193319D01*
G75*
G02*
X220398033Y-70193319I-104298J104298D01*
G01*
X220154081Y-69949367D01*
G75*
G02*
X220154081Y-69740771I104298J104298D01*
G01*
X220362677Y-69532175D01*
G75*
G02*
X220571273Y-69532175I104298J-104298D01*
G01*
G37*
G36*
G01*
X221257168Y-68846281D02*
X221501119Y-69090233D01*
G75*
G02*
X221501119Y-69298829I-104298J-104298D01*
G01*
X221292523Y-69507425D01*
G75*
G02*
X221083927Y-69507425I-104298J104298D01*
G01*
X220839975Y-69263473D01*
G75*
G02*
X220839975Y-69054877I104298J104298D01*
G01*
X221048571Y-68846281D01*
G75*
G02*
X221257167Y-68846281I104298J-104298D01*
G01*
G37*
G36*
G01*
X189008800Y-73121300D02*
X189008800Y-72776300D01*
G75*
G02*
X189156300Y-72628800I147500J0D01*
G01*
X189451300Y-72628800D01*
G75*
G02*
X189598800Y-72776300I0J-147500D01*
G01*
X189598800Y-73121300D01*
G75*
G02*
X189451300Y-73268800I-147500J0D01*
G01*
X189156300Y-73268800D01*
G75*
G02*
X189008800Y-73121300I0J147500D01*
G01*
G37*
G36*
G01*
X189978800Y-73121300D02*
X189978800Y-72776300D01*
G75*
G02*
X190126300Y-72628800I147500J0D01*
G01*
X190421300Y-72628800D01*
G75*
G02*
X190568800Y-72776300I0J-147500D01*
G01*
X190568800Y-73121300D01*
G75*
G02*
X190421300Y-73268800I-147500J0D01*
G01*
X190126300Y-73268800D01*
G75*
G02*
X189978800Y-73121300I0J147500D01*
G01*
G37*
G36*
G01*
X212458800Y-88676700D02*
X212458800Y-89021700D01*
G75*
G02*
X212311300Y-89169200I-147500J0D01*
G01*
X212016300Y-89169200D01*
G75*
G02*
X211868800Y-89021700I0J147500D01*
G01*
X211868800Y-88676700D01*
G75*
G02*
X212016300Y-88529200I147500J0D01*
G01*
X212311300Y-88529200D01*
G75*
G02*
X212458800Y-88676700I0J-147500D01*
G01*
G37*
G36*
G01*
X213428800Y-88676700D02*
X213428800Y-89021700D01*
G75*
G02*
X213281300Y-89169200I-147500J0D01*
G01*
X212986300Y-89169200D01*
G75*
G02*
X212838800Y-89021700I0J147500D01*
G01*
X212838800Y-88676700D01*
G75*
G02*
X212986300Y-88529200I147500J0D01*
G01*
X213281300Y-88529200D01*
G75*
G02*
X213428800Y-88676700I0J-147500D01*
G01*
G37*
G36*
G01*
X204350400Y-87345300D02*
X204350400Y-87000300D01*
G75*
G02*
X204497900Y-86852800I147500J0D01*
G01*
X204792900Y-86852800D01*
G75*
G02*
X204940400Y-87000300I0J-147500D01*
G01*
X204940400Y-87345300D01*
G75*
G02*
X204792900Y-87492800I-147500J0D01*
G01*
X204497900Y-87492800D01*
G75*
G02*
X204350400Y-87345300I0J147500D01*
G01*
G37*
G36*
G01*
X205320400Y-87345300D02*
X205320400Y-87000300D01*
G75*
G02*
X205467900Y-86852800I147500J0D01*
G01*
X205762900Y-86852800D01*
G75*
G02*
X205910400Y-87000300I0J-147500D01*
G01*
X205910400Y-87345300D01*
G75*
G02*
X205762900Y-87492800I-147500J0D01*
G01*
X205467900Y-87492800D01*
G75*
G02*
X205320400Y-87345300I0J147500D01*
G01*
G37*
G36*
G01*
X219044300Y-76802200D02*
X218699300Y-76802200D01*
G75*
G02*
X218551800Y-76654700I0J147500D01*
G01*
X218551800Y-76359700D01*
G75*
G02*
X218699300Y-76212200I147500J0D01*
G01*
X219044300Y-76212200D01*
G75*
G02*
X219191800Y-76359700I0J-147500D01*
G01*
X219191800Y-76654700D01*
G75*
G02*
X219044300Y-76802200I-147500J0D01*
G01*
G37*
G36*
G01*
X219044300Y-75832200D02*
X218699300Y-75832200D01*
G75*
G02*
X218551800Y-75684700I0J147500D01*
G01*
X218551800Y-75389700D01*
G75*
G02*
X218699300Y-75242200I147500J0D01*
G01*
X219044300Y-75242200D01*
G75*
G02*
X219191800Y-75389700I0J-147500D01*
G01*
X219191800Y-75684700D01*
G75*
G02*
X219044300Y-75832200I-147500J0D01*
G01*
G37*
G36*
G01*
X222244700Y-84600000D02*
X221899700Y-84600000D01*
G75*
G02*
X221752200Y-84452500I0J147500D01*
G01*
X221752200Y-84157500D01*
G75*
G02*
X221899700Y-84010000I147500J0D01*
G01*
X222244700Y-84010000D01*
G75*
G02*
X222392200Y-84157500I0J-147500D01*
G01*
X222392200Y-84452500D01*
G75*
G02*
X222244700Y-84600000I-147500J0D01*
G01*
G37*
G36*
G01*
X222244700Y-83630000D02*
X221899700Y-83630000D01*
G75*
G02*
X221752200Y-83482500I0J147500D01*
G01*
X221752200Y-83187500D01*
G75*
G02*
X221899700Y-83040000I147500J0D01*
G01*
X222244700Y-83040000D01*
G75*
G02*
X222392200Y-83187500I0J-147500D01*
G01*
X222392200Y-83482500D01*
G75*
G02*
X222244700Y-83630000I-147500J0D01*
G01*
G37*
G36*
G01*
X217691200Y-85933500D02*
X217691200Y-86278500D01*
G75*
G02*
X217543700Y-86426000I-147500J0D01*
G01*
X217248700Y-86426000D01*
G75*
G02*
X217101200Y-86278500I0J147500D01*
G01*
X217101200Y-85933500D01*
G75*
G02*
X217248700Y-85786000I147500J0D01*
G01*
X217543700Y-85786000D01*
G75*
G02*
X217691200Y-85933500I0J-147500D01*
G01*
G37*
G36*
G01*
X218661200Y-85933500D02*
X218661200Y-86278500D01*
G75*
G02*
X218513700Y-86426000I-147500J0D01*
G01*
X218218700Y-86426000D01*
G75*
G02*
X218071200Y-86278500I0J147500D01*
G01*
X218071200Y-85933500D01*
G75*
G02*
X218218700Y-85786000I147500J0D01*
G01*
X218513700Y-85786000D01*
G75*
G02*
X218661200Y-85933500I0J-147500D01*
G01*
G37*
G36*
G01*
X203423300Y-70193400D02*
X203078300Y-70193400D01*
G75*
G02*
X202930800Y-70045900I0J147500D01*
G01*
X202930800Y-69750900D01*
G75*
G02*
X203078300Y-69603400I147500J0D01*
G01*
X203423300Y-69603400D01*
G75*
G02*
X203570800Y-69750900I0J-147500D01*
G01*
X203570800Y-70045900D01*
G75*
G02*
X203423300Y-70193400I-147500J0D01*
G01*
G37*
G36*
G01*
X203423300Y-71163400D02*
X203078300Y-71163400D01*
G75*
G02*
X202930800Y-71015900I0J147500D01*
G01*
X202930800Y-70720900D01*
G75*
G02*
X203078300Y-70573400I147500J0D01*
G01*
X203423300Y-70573400D01*
G75*
G02*
X203570800Y-70720900I0J-147500D01*
G01*
X203570800Y-71015900D01*
G75*
G02*
X203423300Y-71163400I-147500J0D01*
G01*
G37*
G36*
G01*
X203423300Y-73043000D02*
X203078300Y-73043000D01*
G75*
G02*
X202930800Y-72895500I0J147500D01*
G01*
X202930800Y-72600500D01*
G75*
G02*
X203078300Y-72453000I147500J0D01*
G01*
X203423300Y-72453000D01*
G75*
G02*
X203570800Y-72600500I0J-147500D01*
G01*
X203570800Y-72895500D01*
G75*
G02*
X203423300Y-73043000I-147500J0D01*
G01*
G37*
G36*
G01*
X203423300Y-72073000D02*
X203078300Y-72073000D01*
G75*
G02*
X202930800Y-71925500I0J147500D01*
G01*
X202930800Y-71630500D01*
G75*
G02*
X203078300Y-71483000I147500J0D01*
G01*
X203423300Y-71483000D01*
G75*
G02*
X203570800Y-71630500I0J-147500D01*
G01*
X203570800Y-71925500D01*
G75*
G02*
X203423300Y-72073000I-147500J0D01*
G01*
G37*
G36*
G01*
X220614600Y-85933500D02*
X220614600Y-86278500D01*
G75*
G02*
X220467100Y-86426000I-147500J0D01*
G01*
X220172100Y-86426000D01*
G75*
G02*
X220024600Y-86278500I0J147500D01*
G01*
X220024600Y-85933500D01*
G75*
G02*
X220172100Y-85786000I147500J0D01*
G01*
X220467100Y-85786000D01*
G75*
G02*
X220614600Y-85933500I0J-147500D01*
G01*
G37*
G36*
G01*
X219644600Y-85933500D02*
X219644600Y-86278500D01*
G75*
G02*
X219497100Y-86426000I-147500J0D01*
G01*
X219202100Y-86426000D01*
G75*
G02*
X219054600Y-86278500I0J147500D01*
G01*
X219054600Y-85933500D01*
G75*
G02*
X219202100Y-85786000I147500J0D01*
G01*
X219497100Y-85786000D01*
G75*
G02*
X219644600Y-85933500I0J-147500D01*
G01*
G37*
G36*
G01*
X222244700Y-85611200D02*
X221899700Y-85611200D01*
G75*
G02*
X221752200Y-85463700I0J147500D01*
G01*
X221752200Y-85168700D01*
G75*
G02*
X221899700Y-85021200I147500J0D01*
G01*
X222244700Y-85021200D01*
G75*
G02*
X222392200Y-85168700I0J-147500D01*
G01*
X222392200Y-85463700D01*
G75*
G02*
X222244700Y-85611200I-147500J0D01*
G01*
G37*
G36*
G01*
X222244700Y-86581200D02*
X221899700Y-86581200D01*
G75*
G02*
X221752200Y-86433700I0J147500D01*
G01*
X221752200Y-86138700D01*
G75*
G02*
X221899700Y-85991200I147500J0D01*
G01*
X222244700Y-85991200D01*
G75*
G02*
X222392200Y-86138700I0J-147500D01*
G01*
X222392200Y-86433700D01*
G75*
G02*
X222244700Y-86581200I-147500J0D01*
G01*
G37*
G36*
G01*
X219026432Y-68821719D02*
X218782481Y-68577767D01*
G75*
G02*
X218782481Y-68369171I104298J104298D01*
G01*
X218991077Y-68160575D01*
G75*
G02*
X219199673Y-68160575I104298J-104298D01*
G01*
X219443625Y-68404527D01*
G75*
G02*
X219443625Y-68613123I-104298J-104298D01*
G01*
X219235029Y-68821719D01*
G75*
G02*
X219026433Y-68821719I-104298J104298D01*
G01*
G37*
G36*
G01*
X219712326Y-68135825D02*
X219468375Y-67891873D01*
G75*
G02*
X219468375Y-67683277I104298J104298D01*
G01*
X219676971Y-67474681D01*
G75*
G02*
X219885567Y-67474681I104298J-104298D01*
G01*
X220129519Y-67718633D01*
G75*
G02*
X220129519Y-67927229I-104298J-104298D01*
G01*
X219920923Y-68135825D01*
G75*
G02*
X219712327Y-68135825I-104298J104298D01*
G01*
G37*
G36*
G01*
X212382519Y-72743368D02*
X212138567Y-72987319D01*
G75*
G02*
X211929971Y-72987319I-104298J104298D01*
G01*
X211721375Y-72778723D01*
G75*
G02*
X211721375Y-72570127I104298J104298D01*
G01*
X211965327Y-72326175D01*
G75*
G02*
X212173923Y-72326175I104298J-104298D01*
G01*
X212382519Y-72534771D01*
G75*
G02*
X212382519Y-72743367I-104298J-104298D01*
G01*
G37*
G36*
G01*
X211696625Y-72057474D02*
X211452673Y-72301425D01*
G75*
G02*
X211244077Y-72301425I-104298J104298D01*
G01*
X211035481Y-72092829D01*
G75*
G02*
X211035481Y-71884233I104298J104298D01*
G01*
X211279433Y-71640281D01*
G75*
G02*
X211488029Y-71640281I104298J-104298D01*
G01*
X211696625Y-71848877D01*
G75*
G02*
X211696625Y-72057473I-104298J-104298D01*
G01*
G37*
G36*
G01*
X212407175Y-71884326D02*
X212651127Y-71640375D01*
G75*
G02*
X212859723Y-71640375I104298J-104298D01*
G01*
X213068319Y-71848971D01*
G75*
G02*
X213068319Y-72057567I-104298J-104298D01*
G01*
X212824367Y-72301519D01*
G75*
G02*
X212615771Y-72301519I-104298J104298D01*
G01*
X212407175Y-72092923D01*
G75*
G02*
X212407175Y-71884327I104298J104298D01*
G01*
G37*
G36*
G01*
X211721281Y-71198432D02*
X211965233Y-70954481D01*
G75*
G02*
X212173829Y-70954481I104298J-104298D01*
G01*
X212382425Y-71163077D01*
G75*
G02*
X212382425Y-71371673I-104298J-104298D01*
G01*
X212138473Y-71615625D01*
G75*
G02*
X211929877Y-71615625I-104298J104298D01*
G01*
X211721281Y-71407029D01*
G75*
G02*
X211721281Y-71198433I104298J104298D01*
G01*
G37*
G36*
G01*
X203923400Y-80969900D02*
X203923400Y-80624900D01*
G75*
G02*
X204070900Y-80477400I147500J0D01*
G01*
X204365900Y-80477400D01*
G75*
G02*
X204513400Y-80624900I0J-147500D01*
G01*
X204513400Y-80969900D01*
G75*
G02*
X204365900Y-81117400I-147500J0D01*
G01*
X204070900Y-81117400D01*
G75*
G02*
X203923400Y-80969900I0J147500D01*
G01*
G37*
G36*
G01*
X202953400Y-80969900D02*
X202953400Y-80624900D01*
G75*
G02*
X203100900Y-80477400I147500J0D01*
G01*
X203395900Y-80477400D01*
G75*
G02*
X203543400Y-80624900I0J-147500D01*
G01*
X203543400Y-80969900D01*
G75*
G02*
X203395900Y-81117400I-147500J0D01*
G01*
X203100900Y-81117400D01*
G75*
G02*
X202953400Y-80969900I0J147500D01*
G01*
G37*
G36*
G01*
X205480700Y-64478400D02*
X205135700Y-64478400D01*
G75*
G02*
X204988200Y-64330900I0J147500D01*
G01*
X204988200Y-64035900D01*
G75*
G02*
X205135700Y-63888400I147500J0D01*
G01*
X205480700Y-63888400D01*
G75*
G02*
X205628200Y-64035900I0J-147500D01*
G01*
X205628200Y-64330900D01*
G75*
G02*
X205480700Y-64478400I-147500J0D01*
G01*
G37*
G36*
G01*
X205480700Y-65448400D02*
X205135700Y-65448400D01*
G75*
G02*
X204988200Y-65300900I0J147500D01*
G01*
X204988200Y-65005900D01*
G75*
G02*
X205135700Y-64858400I147500J0D01*
G01*
X205480700Y-64858400D01*
G75*
G02*
X205628200Y-65005900I0J-147500D01*
G01*
X205628200Y-65300900D01*
G75*
G02*
X205480700Y-65448400I-147500J0D01*
G01*
G37*
G36*
G01*
X195966300Y-64045600D02*
X196311300Y-64045600D01*
G75*
G02*
X196458800Y-64193100I0J-147500D01*
G01*
X196458800Y-64488100D01*
G75*
G02*
X196311300Y-64635600I-147500J0D01*
G01*
X195966300Y-64635600D01*
G75*
G02*
X195818800Y-64488100I0J147500D01*
G01*
X195818800Y-64193100D01*
G75*
G02*
X195966300Y-64045600I147500J0D01*
G01*
G37*
G36*
G01*
X195966300Y-63075600D02*
X196311300Y-63075600D01*
G75*
G02*
X196458800Y-63223100I0J-147500D01*
G01*
X196458800Y-63518100D01*
G75*
G02*
X196311300Y-63665600I-147500J0D01*
G01*
X195966300Y-63665600D01*
G75*
G02*
X195818800Y-63518100I0J147500D01*
G01*
X195818800Y-63223100D01*
G75*
G02*
X195966300Y-63075600I147500J0D01*
G01*
G37*
G36*
G01*
X197352700Y-64635600D02*
X197007700Y-64635600D01*
G75*
G02*
X196860200Y-64488100I0J147500D01*
G01*
X196860200Y-64193100D01*
G75*
G02*
X197007700Y-64045600I147500J0D01*
G01*
X197352700Y-64045600D01*
G75*
G02*
X197500200Y-64193100I0J-147500D01*
G01*
X197500200Y-64488100D01*
G75*
G02*
X197352700Y-64635600I-147500J0D01*
G01*
G37*
G36*
G01*
X197352700Y-63665600D02*
X197007700Y-63665600D01*
G75*
G02*
X196860200Y-63518100I0J147500D01*
G01*
X196860200Y-63223100D01*
G75*
G02*
X197007700Y-63075600I147500J0D01*
G01*
X197352700Y-63075600D01*
G75*
G02*
X197500200Y-63223100I0J-147500D01*
G01*
X197500200Y-63518100D01*
G75*
G02*
X197352700Y-63665600I-147500J0D01*
G01*
G37*
G36*
G01*
X204972700Y-73444600D02*
X204627700Y-73444600D01*
G75*
G02*
X204480200Y-73297100I0J147500D01*
G01*
X204480200Y-73002100D01*
G75*
G02*
X204627700Y-72854600I147500J0D01*
G01*
X204972700Y-72854600D01*
G75*
G02*
X205120200Y-73002100I0J-147500D01*
G01*
X205120200Y-73297100D01*
G75*
G02*
X204972700Y-73444600I-147500J0D01*
G01*
G37*
G36*
G01*
X204972700Y-74414600D02*
X204627700Y-74414600D01*
G75*
G02*
X204480200Y-74267100I0J147500D01*
G01*
X204480200Y-73972100D01*
G75*
G02*
X204627700Y-73824600I147500J0D01*
G01*
X204972700Y-73824600D01*
G75*
G02*
X205120200Y-73972100I0J-147500D01*
G01*
X205120200Y-74267100D01*
G75*
G02*
X204972700Y-74414600I-147500J0D01*
G01*
G37*
G36*
G01*
X206037400Y-71938100D02*
X206037400Y-72283100D01*
G75*
G02*
X205889900Y-72430600I-147500J0D01*
G01*
X205594900Y-72430600D01*
G75*
G02*
X205447400Y-72283100I0J147500D01*
G01*
X205447400Y-71938100D01*
G75*
G02*
X205594900Y-71790600I147500J0D01*
G01*
X205889900Y-71790600D01*
G75*
G02*
X206037400Y-71938100I0J-147500D01*
G01*
G37*
G36*
G01*
X205067400Y-71938100D02*
X205067400Y-72283100D01*
G75*
G02*
X204919900Y-72430600I-147500J0D01*
G01*
X204624900Y-72430600D01*
G75*
G02*
X204477400Y-72283100I0J147500D01*
G01*
X204477400Y-71938100D01*
G75*
G02*
X204624900Y-71790600I147500J0D01*
G01*
X204919900Y-71790600D01*
G75*
G02*
X205067400Y-71938100I0J-147500D01*
G01*
G37*
G36*
G01*
X207654800Y-77921900D02*
X207654800Y-77576900D01*
G75*
G02*
X207802300Y-77429400I147500J0D01*
G01*
X208097300Y-77429400D01*
G75*
G02*
X208244800Y-77576900I0J-147500D01*
G01*
X208244800Y-77921900D01*
G75*
G02*
X208097300Y-78069400I-147500J0D01*
G01*
X207802300Y-78069400D01*
G75*
G02*
X207654800Y-77921900I0J147500D01*
G01*
G37*
G36*
G01*
X208624800Y-77921900D02*
X208624800Y-77576900D01*
G75*
G02*
X208772300Y-77429400I147500J0D01*
G01*
X209067300Y-77429400D01*
G75*
G02*
X209214800Y-77576900I0J-147500D01*
G01*
X209214800Y-77921900D01*
G75*
G02*
X209067300Y-78069400I-147500J0D01*
G01*
X208772300Y-78069400D01*
G75*
G02*
X208624800Y-77921900I0J147500D01*
G01*
G37*
G36*
G01*
X206337400Y-77576900D02*
X206337400Y-77921900D01*
G75*
G02*
X206189900Y-78069400I-147500J0D01*
G01*
X205894900Y-78069400D01*
G75*
G02*
X205747400Y-77921900I0J147500D01*
G01*
X205747400Y-77576900D01*
G75*
G02*
X205894900Y-77429400I147500J0D01*
G01*
X206189900Y-77429400D01*
G75*
G02*
X206337400Y-77576900I0J-147500D01*
G01*
G37*
G36*
G01*
X207307400Y-77576900D02*
X207307400Y-77921900D01*
G75*
G02*
X207159900Y-78069400I-147500J0D01*
G01*
X206864900Y-78069400D01*
G75*
G02*
X206717400Y-77921900I0J147500D01*
G01*
X206717400Y-77576900D01*
G75*
G02*
X206864900Y-77429400I147500J0D01*
G01*
X207159900Y-77429400D01*
G75*
G02*
X207307400Y-77576900I0J-147500D01*
G01*
G37*
G36*
G01*
X210655319Y-69644568D02*
X210411367Y-69888519D01*
G75*
G02*
X210202771Y-69888519I-104298J104298D01*
G01*
X209994175Y-69679923D01*
G75*
G02*
X209994175Y-69471327I104298J104298D01*
G01*
X210238127Y-69227375D01*
G75*
G02*
X210446723Y-69227375I104298J-104298D01*
G01*
X210655319Y-69435971D01*
G75*
G02*
X210655319Y-69644567I-104298J-104298D01*
G01*
G37*
G36*
G01*
X209969425Y-68958674D02*
X209725473Y-69202625D01*
G75*
G02*
X209516877Y-69202625I-104298J104298D01*
G01*
X209308281Y-68994029D01*
G75*
G02*
X209308281Y-68785433I104298J104298D01*
G01*
X209552233Y-68541481D01*
G75*
G02*
X209760829Y-68541481I104298J-104298D01*
G01*
X209969425Y-68750077D01*
G75*
G02*
X209969425Y-68958673I-104298J-104298D01*
G01*
G37*
G36*
G01*
X203078300Y-75900200D02*
X203423300Y-75900200D01*
G75*
G02*
X203570800Y-76047700I0J-147500D01*
G01*
X203570800Y-76342700D01*
G75*
G02*
X203423300Y-76490200I-147500J0D01*
G01*
X203078300Y-76490200D01*
G75*
G02*
X202930800Y-76342700I0J147500D01*
G01*
X202930800Y-76047700D01*
G75*
G02*
X203078300Y-75900200I147500J0D01*
G01*
G37*
G36*
G01*
X203078300Y-76870200D02*
X203423300Y-76870200D01*
G75*
G02*
X203570800Y-77017700I0J-147500D01*
G01*
X203570800Y-77312700D01*
G75*
G02*
X203423300Y-77460200I-147500J0D01*
G01*
X203078300Y-77460200D01*
G75*
G02*
X202930800Y-77312700I0J147500D01*
G01*
X202930800Y-77017700D01*
G75*
G02*
X203078300Y-76870200I147500J0D01*
G01*
G37*
G36*
G01*
X212265550Y-85643000D02*
X212778050Y-85643000D01*
G75*
G02*
X212996800Y-85861750I0J-218750D01*
G01*
X212996800Y-86299250D01*
G75*
G02*
X212778050Y-86518000I-218750J0D01*
G01*
X212265550Y-86518000D01*
G75*
G02*
X212046800Y-86299250I0J218750D01*
G01*
X212046800Y-85861750D01*
G75*
G02*
X212265550Y-85643000I218750J0D01*
G01*
G37*
G36*
G01*
X212265550Y-87218000D02*
X212778050Y-87218000D01*
G75*
G02*
X212996800Y-87436750I0J-218750D01*
G01*
X212996800Y-87874250D01*
G75*
G02*
X212778050Y-88093000I-218750J0D01*
G01*
X212265550Y-88093000D01*
G75*
G02*
X212046800Y-87874250I0J218750D01*
G01*
X212046800Y-87436750D01*
G75*
G02*
X212265550Y-87218000I218750J0D01*
G01*
G37*
G36*
G01*
X218699300Y-77782200D02*
X219044300Y-77782200D01*
G75*
G02*
X219191800Y-77929700I0J-147500D01*
G01*
X219191800Y-78224700D01*
G75*
G02*
X219044300Y-78372200I-147500J0D01*
G01*
X218699300Y-78372200D01*
G75*
G02*
X218551800Y-78224700I0J147500D01*
G01*
X218551800Y-77929700D01*
G75*
G02*
X218699300Y-77782200I147500J0D01*
G01*
G37*
G36*
G01*
X218699300Y-78752200D02*
X219044300Y-78752200D01*
G75*
G02*
X219191800Y-78899700I0J-147500D01*
G01*
X219191800Y-79194700D01*
G75*
G02*
X219044300Y-79342200I-147500J0D01*
G01*
X218699300Y-79342200D01*
G75*
G02*
X218551800Y-79194700I0J147500D01*
G01*
X218551800Y-78899700D01*
G75*
G02*
X218699300Y-78752200I147500J0D01*
G01*
G37*
G36*
G01*
X219348800Y-84561900D02*
X219348800Y-84906900D01*
G75*
G02*
X219201300Y-85054400I-147500J0D01*
G01*
X218906300Y-85054400D01*
G75*
G02*
X218758800Y-84906900I0J147500D01*
G01*
X218758800Y-84561900D01*
G75*
G02*
X218906300Y-84414400I147500J0D01*
G01*
X219201300Y-84414400D01*
G75*
G02*
X219348800Y-84561900I0J-147500D01*
G01*
G37*
G36*
G01*
X220318800Y-84561900D02*
X220318800Y-84906900D01*
G75*
G02*
X220171300Y-85054400I-147500J0D01*
G01*
X219876300Y-85054400D01*
G75*
G02*
X219728800Y-84906900I0J147500D01*
G01*
X219728800Y-84561900D01*
G75*
G02*
X219876300Y-84414400I147500J0D01*
G01*
X220171300Y-84414400D01*
G75*
G02*
X220318800Y-84561900I0J-147500D01*
G01*
G37*
G36*
G01*
X200830400Y-66908900D02*
X200830400Y-67253900D01*
G75*
G02*
X200682900Y-67401400I-147500J0D01*
G01*
X200387900Y-67401400D01*
G75*
G02*
X200240400Y-67253900I0J147500D01*
G01*
X200240400Y-66908900D01*
G75*
G02*
X200387900Y-66761400I147500J0D01*
G01*
X200682900Y-66761400D01*
G75*
G02*
X200830400Y-66908900I0J-147500D01*
G01*
G37*
G36*
G01*
X199860400Y-66908900D02*
X199860400Y-67253900D01*
G75*
G02*
X199712900Y-67401400I-147500J0D01*
G01*
X199417900Y-67401400D01*
G75*
G02*
X199270400Y-67253900I0J147500D01*
G01*
X199270400Y-66908900D01*
G75*
G02*
X199417900Y-66761400I147500J0D01*
G01*
X199712900Y-66761400D01*
G75*
G02*
X199860400Y-66908900I0J-147500D01*
G01*
G37*
G36*
G01*
X201281800Y-58694100D02*
X201281800Y-58349100D01*
G75*
G02*
X201429300Y-58201600I147500J0D01*
G01*
X201724300Y-58201600D01*
G75*
G02*
X201871800Y-58349100I0J-147500D01*
G01*
X201871800Y-58694100D01*
G75*
G02*
X201724300Y-58841600I-147500J0D01*
G01*
X201429300Y-58841600D01*
G75*
G02*
X201281800Y-58694100I0J147500D01*
G01*
G37*
G36*
G01*
X200311800Y-58694100D02*
X200311800Y-58349100D01*
G75*
G02*
X200459300Y-58201600I147500J0D01*
G01*
X200754300Y-58201600D01*
G75*
G02*
X200901800Y-58349100I0J-147500D01*
G01*
X200901800Y-58694100D01*
G75*
G02*
X200754300Y-58841600I-147500J0D01*
G01*
X200459300Y-58841600D01*
G75*
G02*
X200311800Y-58694100I0J147500D01*
G01*
G37*
G36*
G01*
X210241100Y-75851800D02*
X210586100Y-75851800D01*
G75*
G02*
X210733600Y-75999300I0J-147500D01*
G01*
X210733600Y-76294300D01*
G75*
G02*
X210586100Y-76441800I-147500J0D01*
G01*
X210241100Y-76441800D01*
G75*
G02*
X210093600Y-76294300I0J147500D01*
G01*
X210093600Y-75999300D01*
G75*
G02*
X210241100Y-75851800I147500J0D01*
G01*
G37*
G36*
G01*
X210241100Y-76821800D02*
X210586100Y-76821800D01*
G75*
G02*
X210733600Y-76969300I0J-147500D01*
G01*
X210733600Y-77264300D01*
G75*
G02*
X210586100Y-77411800I-147500J0D01*
G01*
X210241100Y-77411800D01*
G75*
G02*
X210093600Y-77264300I0J147500D01*
G01*
X210093600Y-76969300D01*
G75*
G02*
X210241100Y-76821800I147500J0D01*
G01*
G37*
G36*
G01*
X207963000Y-71988900D02*
X207963000Y-72333900D01*
G75*
G02*
X207815500Y-72481400I-147500J0D01*
G01*
X207520500Y-72481400D01*
G75*
G02*
X207373000Y-72333900I0J147500D01*
G01*
X207373000Y-71988900D01*
G75*
G02*
X207520500Y-71841400I147500J0D01*
G01*
X207815500Y-71841400D01*
G75*
G02*
X207963000Y-71988900I0J-147500D01*
G01*
G37*
G36*
G01*
X208933000Y-71988900D02*
X208933000Y-72333900D01*
G75*
G02*
X208785500Y-72481400I-147500J0D01*
G01*
X208490500Y-72481400D01*
G75*
G02*
X208343000Y-72333900I0J147500D01*
G01*
X208343000Y-71988900D01*
G75*
G02*
X208490500Y-71841400I147500J0D01*
G01*
X208785500Y-71841400D01*
G75*
G02*
X208933000Y-71988900I0J-147500D01*
G01*
G37*
G36*
G01*
X204289950Y-74873400D02*
X204802450Y-74873400D01*
G75*
G02*
X205021200Y-75092150I0J-218750D01*
G01*
X205021200Y-75529650D01*
G75*
G02*
X204802450Y-75748400I-218750J0D01*
G01*
X204289950Y-75748400D01*
G75*
G02*
X204071200Y-75529650I0J218750D01*
G01*
X204071200Y-75092150D01*
G75*
G02*
X204289950Y-74873400I218750J0D01*
G01*
G37*
G36*
G01*
X204289950Y-76448400D02*
X204802450Y-76448400D01*
G75*
G02*
X205021200Y-76667150I0J-218750D01*
G01*
X205021200Y-77104650D01*
G75*
G02*
X204802450Y-77323400I-218750J0D01*
G01*
X204289950Y-77323400D01*
G75*
G02*
X204071200Y-77104650I0J218750D01*
G01*
X204071200Y-76667150D01*
G75*
G02*
X204289950Y-76448400I218750J0D01*
G01*
G37*
G36*
G01*
X205417200Y-81056700D02*
X205072200Y-81056700D01*
G75*
G02*
X204924700Y-80909200I0J147500D01*
G01*
X204924700Y-80614200D01*
G75*
G02*
X205072200Y-80466700I147500J0D01*
G01*
X205417200Y-80466700D01*
G75*
G02*
X205564700Y-80614200I0J-147500D01*
G01*
X205564700Y-80909200D01*
G75*
G02*
X205417200Y-81056700I-147500J0D01*
G01*
G37*
G36*
G01*
X205417200Y-80086700D02*
X205072200Y-80086700D01*
G75*
G02*
X204924700Y-79939200I0J147500D01*
G01*
X204924700Y-79644200D01*
G75*
G02*
X205072200Y-79496700I147500J0D01*
G01*
X205417200Y-79496700D01*
G75*
G02*
X205564700Y-79644200I0J-147500D01*
G01*
X205564700Y-79939200D01*
G75*
G02*
X205417200Y-80086700I-147500J0D01*
G01*
G37*
G36*
G01*
X225368900Y-59098400D02*
X225023900Y-59098400D01*
G75*
G02*
X224876400Y-58950900I0J147500D01*
G01*
X224876400Y-58655900D01*
G75*
G02*
X225023900Y-58508400I147500J0D01*
G01*
X225368900Y-58508400D01*
G75*
G02*
X225516400Y-58655900I0J-147500D01*
G01*
X225516400Y-58950900D01*
G75*
G02*
X225368900Y-59098400I-147500J0D01*
G01*
G37*
G36*
G01*
X225368900Y-58128400D02*
X225023900Y-58128400D01*
G75*
G02*
X224876400Y-57980900I0J147500D01*
G01*
X224876400Y-57685900D01*
G75*
G02*
X225023900Y-57538400I147500J0D01*
G01*
X225368900Y-57538400D01*
G75*
G02*
X225516400Y-57685900I0J-147500D01*
G01*
X225516400Y-57980900D01*
G75*
G02*
X225368900Y-58128400I-147500J0D01*
G01*
G37*
D15*
X196469000Y-65533000D03*
X196469000Y-68833000D03*
D10*
X220463400Y-77012800D03*
X222563400Y-77012800D03*
X222563400Y-79222600D03*
X220463400Y-79222600D03*
D16*
X201191100Y-82219800D03*
X201491100Y-82219800D03*
X200392600Y-82219800D03*
X200692600Y-82219800D03*
X199892600Y-82219800D03*
X199392600Y-82219800D03*
X198892600Y-82219800D03*
X198392600Y-82219800D03*
X197892600Y-82219800D03*
X197392600Y-82219800D03*
X196892600Y-82219800D03*
X196392600Y-82219800D03*
X195592600Y-82219800D03*
X195892600Y-82219800D03*
X195092600Y-82219800D03*
X194792600Y-82219800D03*
D17*
X226669600Y-63085400D03*
X226669600Y-58885400D03*
D18*
X228769600Y-57585400D03*
X228769600Y-64385400D03*
D19*
X216089000Y-72491600D03*
X217489000Y-72491600D03*
G36*
G01*
X190896400Y-60820000D02*
X189646400Y-60820000D01*
G75*
G02*
X189396400Y-60570000I0J250000D01*
G01*
X189396400Y-59820000D01*
G75*
G02*
X189646400Y-59570000I250000J0D01*
G01*
X190896400Y-59570000D01*
G75*
G02*
X191146400Y-59820000I0J-250000D01*
G01*
X191146400Y-60570000D01*
G75*
G02*
X190896400Y-60820000I-250000J0D01*
G01*
G37*
G36*
G01*
X190896400Y-63620000D02*
X189646400Y-63620000D01*
G75*
G02*
X189396400Y-63370000I0J250000D01*
G01*
X189396400Y-62620000D01*
G75*
G02*
X189646400Y-62370000I250000J0D01*
G01*
X190896400Y-62370000D01*
G75*
G02*
X191146400Y-62620000I0J-250000D01*
G01*
X191146400Y-63370000D01*
G75*
G02*
X190896400Y-63620000I-250000J0D01*
G01*
G37*
G36*
G01*
X220656800Y-66512600D02*
X220656800Y-65262600D01*
G75*
G02*
X220906800Y-65012600I250000J0D01*
G01*
X221656800Y-65012600D01*
G75*
G02*
X221906800Y-65262600I0J-250000D01*
G01*
X221906800Y-66512600D01*
G75*
G02*
X221656800Y-66762600I-250000J0D01*
G01*
X220906800Y-66762600D01*
G75*
G02*
X220656800Y-66512600I0J250000D01*
G01*
G37*
G36*
G01*
X223456800Y-66512600D02*
X223456800Y-65262600D01*
G75*
G02*
X223706800Y-65012600I250000J0D01*
G01*
X224456800Y-65012600D01*
G75*
G02*
X224706800Y-65262600I0J-250000D01*
G01*
X224706800Y-66512600D01*
G75*
G02*
X224456800Y-66762600I-250000J0D01*
G01*
X223706800Y-66762600D01*
G75*
G02*
X223456800Y-66512600I0J250000D01*
G01*
G37*
D20*
X199118400Y-78079600D03*
X199118400Y-77129600D03*
X199118400Y-79029600D03*
X196918400Y-79029600D03*
X196918400Y-78079600D03*
X196918400Y-77129600D03*
D21*
G36*
X211397224Y-60415761D02*
G01*
X211574000Y-60592537D01*
X211149736Y-61016801D01*
X210972960Y-60840025D01*
X211397224Y-60415761D01*
G37*
G36*
X209417325Y-62395660D02*
G01*
X209594101Y-62572436D01*
X209169837Y-62996700D01*
X208993061Y-62819924D01*
X209417325Y-62395660D01*
G37*
G36*
X210831538Y-59850075D02*
G01*
X211008314Y-60026851D01*
X210584050Y-60451115D01*
X210407274Y-60274339D01*
X210831538Y-59850075D01*
G37*
G36*
X210265853Y-59284390D02*
G01*
X210442629Y-59461166D01*
X210018365Y-59885430D01*
X209841589Y-59708654D01*
X210265853Y-59284390D01*
G37*
G36*
X209700167Y-58718704D02*
G01*
X209876943Y-58895480D01*
X209452679Y-59319744D01*
X209275903Y-59142968D01*
X209700167Y-58718704D01*
G37*
G36*
X208851639Y-61829974D02*
G01*
X209028415Y-62006750D01*
X208604151Y-62431014D01*
X208427375Y-62254238D01*
X208851639Y-61829974D01*
G37*
G36*
X208285954Y-61264289D02*
G01*
X208462730Y-61441065D01*
X208038466Y-61865329D01*
X207861690Y-61688553D01*
X208285954Y-61264289D01*
G37*
G36*
X207720268Y-60698603D02*
G01*
X207897044Y-60875379D01*
X207472780Y-61299643D01*
X207296004Y-61122867D01*
X207720268Y-60698603D01*
G37*
G36*
X208643042Y-59924321D02*
G01*
X209208727Y-60490006D01*
X209067306Y-60631427D01*
X208501621Y-60065742D01*
X208643042Y-59924321D01*
G37*
G36*
X209756594Y-61037873D02*
G01*
X210322279Y-61603558D01*
X210180858Y-61744979D01*
X209615173Y-61179294D01*
X209756594Y-61037873D01*
G37*
D22*
X210938000Y-83981800D03*
X210938000Y-83481800D03*
X210938000Y-82981800D03*
X210938000Y-82481800D03*
X210938000Y-81981800D03*
X206638000Y-81981800D03*
X206638000Y-82481800D03*
X206638000Y-82981800D03*
X206638000Y-83481800D03*
X206638000Y-83981800D03*
D23*
X199694800Y-64041200D03*
X200644800Y-64041200D03*
X198744800Y-64041200D03*
X198744800Y-61841200D03*
X199694800Y-61841200D03*
X200644800Y-61841200D03*
X193395600Y-61765000D03*
X192445600Y-61765000D03*
X194345600Y-61765000D03*
X194345600Y-63965000D03*
X193395600Y-63965000D03*
X192445600Y-63965000D03*
D20*
X199610800Y-70322400D03*
X199610800Y-71272400D03*
X199610800Y-72222400D03*
X201810800Y-72222400D03*
X201810800Y-70322400D03*
G36*
G01*
X209393000Y-75769900D02*
X209393000Y-75894900D01*
G75*
G02*
X209330500Y-75957400I-62500J0D01*
G01*
X208580500Y-75957400D01*
G75*
G02*
X208518000Y-75894900I0J62500D01*
G01*
X208518000Y-75769900D01*
G75*
G02*
X208580500Y-75707400I62500J0D01*
G01*
X209330500Y-75707400D01*
G75*
G02*
X209393000Y-75769900I0J-62500D01*
G01*
G37*
G36*
G01*
X209393000Y-75269900D02*
X209393000Y-75394900D01*
G75*
G02*
X209330500Y-75457400I-62500J0D01*
G01*
X208580500Y-75457400D01*
G75*
G02*
X208518000Y-75394900I0J62500D01*
G01*
X208518000Y-75269900D01*
G75*
G02*
X208580500Y-75207400I62500J0D01*
G01*
X209330500Y-75207400D01*
G75*
G02*
X209393000Y-75269900I0J-62500D01*
G01*
G37*
G36*
G01*
X209393000Y-74769900D02*
X209393000Y-74894900D01*
G75*
G02*
X209330500Y-74957400I-62500J0D01*
G01*
X208580500Y-74957400D01*
G75*
G02*
X208518000Y-74894900I0J62500D01*
G01*
X208518000Y-74769900D01*
G75*
G02*
X208580500Y-74707400I62500J0D01*
G01*
X209330500Y-74707400D01*
G75*
G02*
X209393000Y-74769900I0J-62500D01*
G01*
G37*
G36*
G01*
X209393000Y-74269900D02*
X209393000Y-74394900D01*
G75*
G02*
X209330500Y-74457400I-62500J0D01*
G01*
X208580500Y-74457400D01*
G75*
G02*
X208518000Y-74394900I0J62500D01*
G01*
X208518000Y-74269900D01*
G75*
G02*
X208580500Y-74207400I62500J0D01*
G01*
X209330500Y-74207400D01*
G75*
G02*
X209393000Y-74269900I0J-62500D01*
G01*
G37*
G36*
G01*
X208393000Y-73269900D02*
X208393000Y-74019900D01*
G75*
G02*
X208330500Y-74082400I-62500J0D01*
G01*
X208205500Y-74082400D01*
G75*
G02*
X208143000Y-74019900I0J62500D01*
G01*
X208143000Y-73269900D01*
G75*
G02*
X208205500Y-73207400I62500J0D01*
G01*
X208330500Y-73207400D01*
G75*
G02*
X208393000Y-73269900I0J-62500D01*
G01*
G37*
G36*
G01*
X207893000Y-73269900D02*
X207893000Y-74019900D01*
G75*
G02*
X207830500Y-74082400I-62500J0D01*
G01*
X207705500Y-74082400D01*
G75*
G02*
X207643000Y-74019900I0J62500D01*
G01*
X207643000Y-73269900D01*
G75*
G02*
X207705500Y-73207400I62500J0D01*
G01*
X207830500Y-73207400D01*
G75*
G02*
X207893000Y-73269900I0J-62500D01*
G01*
G37*
G36*
G01*
X207393000Y-73269900D02*
X207393000Y-74019900D01*
G75*
G02*
X207330500Y-74082400I-62500J0D01*
G01*
X207205500Y-74082400D01*
G75*
G02*
X207143000Y-74019900I0J62500D01*
G01*
X207143000Y-73269900D01*
G75*
G02*
X207205500Y-73207400I62500J0D01*
G01*
X207330500Y-73207400D01*
G75*
G02*
X207393000Y-73269900I0J-62500D01*
G01*
G37*
G36*
G01*
X206893000Y-73269900D02*
X206893000Y-74019900D01*
G75*
G02*
X206830500Y-74082400I-62500J0D01*
G01*
X206705500Y-74082400D01*
G75*
G02*
X206643000Y-74019900I0J62500D01*
G01*
X206643000Y-73269900D01*
G75*
G02*
X206705500Y-73207400I62500J0D01*
G01*
X206830500Y-73207400D01*
G75*
G02*
X206893000Y-73269900I0J-62500D01*
G01*
G37*
G36*
G01*
X206518000Y-74269900D02*
X206518000Y-74394900D01*
G75*
G02*
X206455500Y-74457400I-62500J0D01*
G01*
X205705500Y-74457400D01*
G75*
G02*
X205643000Y-74394900I0J62500D01*
G01*
X205643000Y-74269900D01*
G75*
G02*
X205705500Y-74207400I62500J0D01*
G01*
X206455500Y-74207400D01*
G75*
G02*
X206518000Y-74269900I0J-62500D01*
G01*
G37*
G36*
G01*
X206518000Y-74769900D02*
X206518000Y-74894900D01*
G75*
G02*
X206455500Y-74957400I-62500J0D01*
G01*
X205705500Y-74957400D01*
G75*
G02*
X205643000Y-74894900I0J62500D01*
G01*
X205643000Y-74769900D01*
G75*
G02*
X205705500Y-74707400I62500J0D01*
G01*
X206455500Y-74707400D01*
G75*
G02*
X206518000Y-74769900I0J-62500D01*
G01*
G37*
G36*
G01*
X206518000Y-75269900D02*
X206518000Y-75394900D01*
G75*
G02*
X206455500Y-75457400I-62500J0D01*
G01*
X205705500Y-75457400D01*
G75*
G02*
X205643000Y-75394900I0J62500D01*
G01*
X205643000Y-75269900D01*
G75*
G02*
X205705500Y-75207400I62500J0D01*
G01*
X206455500Y-75207400D01*
G75*
G02*
X206518000Y-75269900I0J-62500D01*
G01*
G37*
G36*
G01*
X206518000Y-75769900D02*
X206518000Y-75894900D01*
G75*
G02*
X206455500Y-75957400I-62500J0D01*
G01*
X205705500Y-75957400D01*
G75*
G02*
X205643000Y-75894900I0J62500D01*
G01*
X205643000Y-75769900D01*
G75*
G02*
X205705500Y-75707400I62500J0D01*
G01*
X206455500Y-75707400D01*
G75*
G02*
X206518000Y-75769900I0J-62500D01*
G01*
G37*
G36*
G01*
X206893000Y-76144900D02*
X206893000Y-76894900D01*
G75*
G02*
X206830500Y-76957400I-62500J0D01*
G01*
X206705500Y-76957400D01*
G75*
G02*
X206643000Y-76894900I0J62500D01*
G01*
X206643000Y-76144900D01*
G75*
G02*
X206705500Y-76082400I62500J0D01*
G01*
X206830500Y-76082400D01*
G75*
G02*
X206893000Y-76144900I0J-62500D01*
G01*
G37*
G36*
G01*
X207393000Y-76144900D02*
X207393000Y-76894900D01*
G75*
G02*
X207330500Y-76957400I-62500J0D01*
G01*
X207205500Y-76957400D01*
G75*
G02*
X207143000Y-76894900I0J62500D01*
G01*
X207143000Y-76144900D01*
G75*
G02*
X207205500Y-76082400I62500J0D01*
G01*
X207330500Y-76082400D01*
G75*
G02*
X207393000Y-76144900I0J-62500D01*
G01*
G37*
G36*
G01*
X207893000Y-76144900D02*
X207893000Y-76894900D01*
G75*
G02*
X207830500Y-76957400I-62500J0D01*
G01*
X207705500Y-76957400D01*
G75*
G02*
X207643000Y-76894900I0J62500D01*
G01*
X207643000Y-76144900D01*
G75*
G02*
X207705500Y-76082400I62500J0D01*
G01*
X207830500Y-76082400D01*
G75*
G02*
X207893000Y-76144900I0J-62500D01*
G01*
G37*
G36*
G01*
X208393000Y-76144900D02*
X208393000Y-76894900D01*
G75*
G02*
X208330500Y-76957400I-62500J0D01*
G01*
X208205500Y-76957400D01*
G75*
G02*
X208143000Y-76894900I0J62500D01*
G01*
X208143000Y-76144900D01*
G75*
G02*
X208205500Y-76082400I62500J0D01*
G01*
X208330500Y-76082400D01*
G75*
G02*
X208393000Y-76144900I0J-62500D01*
G01*
G37*
G36*
G01*
X208168000Y-75297400D02*
X208168000Y-75587400D01*
G75*
G02*
X208023000Y-75732400I-145000J0D01*
G01*
X207733000Y-75732400D01*
G75*
G02*
X207588000Y-75587400I0J145000D01*
G01*
X207588000Y-75297400D01*
G75*
G02*
X207733000Y-75152400I145000J0D01*
G01*
X208023000Y-75152400D01*
G75*
G02*
X208168000Y-75297400I0J-145000D01*
G01*
G37*
G36*
G01*
X208168000Y-74577400D02*
X208168000Y-74867400D01*
G75*
G02*
X208023000Y-75012400I-145000J0D01*
G01*
X207733000Y-75012400D01*
G75*
G02*
X207588000Y-74867400I0J145000D01*
G01*
X207588000Y-74577400D01*
G75*
G02*
X207733000Y-74432400I145000J0D01*
G01*
X208023000Y-74432400D01*
G75*
G02*
X208168000Y-74577400I0J-145000D01*
G01*
G37*
G36*
G01*
X207448000Y-75297400D02*
X207448000Y-75587400D01*
G75*
G02*
X207303000Y-75732400I-145000J0D01*
G01*
X207013000Y-75732400D01*
G75*
G02*
X206868000Y-75587400I0J145000D01*
G01*
X206868000Y-75297400D01*
G75*
G02*
X207013000Y-75152400I145000J0D01*
G01*
X207303000Y-75152400D01*
G75*
G02*
X207448000Y-75297400I0J-145000D01*
G01*
G37*
G36*
G01*
X207448000Y-74577400D02*
X207448000Y-74867400D01*
G75*
G02*
X207303000Y-75012400I-145000J0D01*
G01*
X207013000Y-75012400D01*
G75*
G02*
X206868000Y-74867400I0J145000D01*
G01*
X206868000Y-74577400D01*
G75*
G02*
X207013000Y-74432400I145000J0D01*
G01*
X207303000Y-74432400D01*
G75*
G02*
X207448000Y-74577400I0J-145000D01*
G01*
G37*
D23*
X221706400Y-62847400D03*
X222656400Y-62847400D03*
X223606400Y-62847400D03*
X223606400Y-60647400D03*
X221706400Y-60647400D03*
X222656400Y-60647400D03*
D20*
X194622600Y-59852600D03*
X194622600Y-58902600D03*
X194622600Y-57952600D03*
X192422600Y-57952600D03*
X192422600Y-59852600D03*
X192422600Y-58902600D03*
X223781800Y-58811200D03*
X223781800Y-57861200D03*
X223781800Y-56911200D03*
X221581800Y-56911200D03*
X221581800Y-58811200D03*
X221581800Y-57861200D03*
G36*
G01*
X220464600Y-56723500D02*
X220464600Y-57068500D01*
G75*
G02*
X220317100Y-57216000I-147500J0D01*
G01*
X220022100Y-57216000D01*
G75*
G02*
X219874600Y-57068500I0J147500D01*
G01*
X219874600Y-56723500D01*
G75*
G02*
X220022100Y-56576000I147500J0D01*
G01*
X220317100Y-56576000D01*
G75*
G02*
X220464600Y-56723500I0J-147500D01*
G01*
G37*
G36*
G01*
X219494600Y-56723500D02*
X219494600Y-57068500D01*
G75*
G02*
X219347100Y-57216000I-147500J0D01*
G01*
X219052100Y-57216000D01*
G75*
G02*
X218904600Y-57068500I0J147500D01*
G01*
X218904600Y-56723500D01*
G75*
G02*
X219052100Y-56576000I147500J0D01*
G01*
X219347100Y-56576000D01*
G75*
G02*
X219494600Y-56723500I0J-147500D01*
G01*
G37*
G36*
G01*
X219494600Y-57714100D02*
X219494600Y-58059100D01*
G75*
G02*
X219347100Y-58206600I-147500J0D01*
G01*
X219052100Y-58206600D01*
G75*
G02*
X218904600Y-58059100I0J147500D01*
G01*
X218904600Y-57714100D01*
G75*
G02*
X219052100Y-57566600I147500J0D01*
G01*
X219347100Y-57566600D01*
G75*
G02*
X219494600Y-57714100I0J-147500D01*
G01*
G37*
G36*
G01*
X220464600Y-57714100D02*
X220464600Y-58059100D01*
G75*
G02*
X220317100Y-58206600I-147500J0D01*
G01*
X220022100Y-58206600D01*
G75*
G02*
X219874600Y-58059100I0J147500D01*
G01*
X219874600Y-57714100D01*
G75*
G02*
X220022100Y-57566600I147500J0D01*
G01*
X220317100Y-57566600D01*
G75*
G02*
X220464600Y-57714100I0J-147500D01*
G01*
G37*
D24*
X226683600Y-70584000D03*
X228433600Y-70584000D03*
X226683600Y-67084000D03*
X228433600Y-67084000D03*
G36*
G01*
X215020212Y-70002311D02*
X214931823Y-70090699D01*
G75*
G02*
X214843435Y-70090699I-44194J44194D01*
G01*
X214366138Y-69613402D01*
G75*
G02*
X214366138Y-69525014I44194J44194D01*
G01*
X214454527Y-69436625D01*
G75*
G02*
X214542915Y-69436625I44194J-44194D01*
G01*
X215020212Y-69913922D01*
G75*
G02*
X215020212Y-70002310I-44194J-44194D01*
G01*
G37*
G36*
G01*
X215373765Y-69648758D02*
X215285376Y-69737146D01*
G75*
G02*
X215196988Y-69737146I-44194J44194D01*
G01*
X214719691Y-69259849D01*
G75*
G02*
X214719691Y-69171461I44194J44194D01*
G01*
X214808080Y-69083072D01*
G75*
G02*
X214896468Y-69083072I44194J-44194D01*
G01*
X215373765Y-69560369D01*
G75*
G02*
X215373765Y-69648757I-44194J-44194D01*
G01*
G37*
G36*
G01*
X215727319Y-69295204D02*
X215638930Y-69383592D01*
G75*
G02*
X215550542Y-69383592I-44194J44194D01*
G01*
X215073245Y-68906295D01*
G75*
G02*
X215073245Y-68817907I44194J44194D01*
G01*
X215161634Y-68729518D01*
G75*
G02*
X215250022Y-68729518I44194J-44194D01*
G01*
X215727319Y-69206815D01*
G75*
G02*
X215727319Y-69295203I-44194J-44194D01*
G01*
G37*
G36*
G01*
X216080872Y-68941651D02*
X215992483Y-69030039D01*
G75*
G02*
X215904095Y-69030039I-44194J44194D01*
G01*
X215426798Y-68552742D01*
G75*
G02*
X215426798Y-68464354I44194J44194D01*
G01*
X215515187Y-68375965D01*
G75*
G02*
X215603575Y-68375965I44194J-44194D01*
G01*
X216080872Y-68853262D01*
G75*
G02*
X216080872Y-68941650I-44194J-44194D01*
G01*
G37*
G36*
G01*
X216434425Y-68588097D02*
X216346036Y-68676485D01*
G75*
G02*
X216257648Y-68676485I-44194J44194D01*
G01*
X215780351Y-68199188D01*
G75*
G02*
X215780351Y-68110800I44194J44194D01*
G01*
X215868740Y-68022411D01*
G75*
G02*
X215957128Y-68022411I44194J-44194D01*
G01*
X216434425Y-68499708D01*
G75*
G02*
X216434425Y-68588096I-44194J-44194D01*
G01*
G37*
G36*
G01*
X216787979Y-68234544D02*
X216699590Y-68322932D01*
G75*
G02*
X216611202Y-68322932I-44194J44194D01*
G01*
X216133905Y-67845635D01*
G75*
G02*
X216133905Y-67757247I44194J44194D01*
G01*
X216222294Y-67668858D01*
G75*
G02*
X216310682Y-67668858I44194J-44194D01*
G01*
X216787979Y-68146155D01*
G75*
G02*
X216787979Y-68234543I-44194J-44194D01*
G01*
G37*
G36*
G01*
X217141532Y-67880991D02*
X217053143Y-67969379D01*
G75*
G02*
X216964755Y-67969379I-44194J44194D01*
G01*
X216487458Y-67492082D01*
G75*
G02*
X216487458Y-67403694I44194J44194D01*
G01*
X216575847Y-67315305D01*
G75*
G02*
X216664235Y-67315305I44194J-44194D01*
G01*
X217141532Y-67792602D01*
G75*
G02*
X217141532Y-67880990I-44194J-44194D01*
G01*
G37*
G36*
G01*
X217495085Y-67527437D02*
X217406696Y-67615825D01*
G75*
G02*
X217318308Y-67615825I-44194J44194D01*
G01*
X216841011Y-67138528D01*
G75*
G02*
X216841011Y-67050140I44194J44194D01*
G01*
X216929400Y-66961751D01*
G75*
G02*
X217017788Y-66961751I44194J-44194D01*
G01*
X217495085Y-67439048D01*
G75*
G02*
X217495085Y-67527436I-44194J-44194D01*
G01*
G37*
G36*
G01*
X217848639Y-67173884D02*
X217760250Y-67262272D01*
G75*
G02*
X217671862Y-67262272I-44194J44194D01*
G01*
X217194565Y-66784975D01*
G75*
G02*
X217194565Y-66696587I44194J44194D01*
G01*
X217282954Y-66608198D01*
G75*
G02*
X217371342Y-66608198I44194J-44194D01*
G01*
X217848639Y-67085495D01*
G75*
G02*
X217848639Y-67173883I-44194J-44194D01*
G01*
G37*
G36*
G01*
X218202192Y-66820331D02*
X218113803Y-66908719D01*
G75*
G02*
X218025415Y-66908719I-44194J44194D01*
G01*
X217548118Y-66431422D01*
G75*
G02*
X217548118Y-66343034I44194J44194D01*
G01*
X217636507Y-66254645D01*
G75*
G02*
X217724895Y-66254645I44194J-44194D01*
G01*
X218202192Y-66731942D01*
G75*
G02*
X218202192Y-66820330I-44194J-44194D01*
G01*
G37*
G36*
G01*
X218555746Y-66466777D02*
X218467357Y-66555165D01*
G75*
G02*
X218378969Y-66555165I-44194J44194D01*
G01*
X217901672Y-66077868D01*
G75*
G02*
X217901672Y-65989480I44194J44194D01*
G01*
X217990061Y-65901091D01*
G75*
G02*
X218078449Y-65901091I44194J-44194D01*
G01*
X218555746Y-66378388D01*
G75*
G02*
X218555746Y-66466776I-44194J-44194D01*
G01*
G37*
G36*
G01*
X218909299Y-66113224D02*
X218820910Y-66201612D01*
G75*
G02*
X218732522Y-66201612I-44194J44194D01*
G01*
X218255225Y-65724315D01*
G75*
G02*
X218255225Y-65635927I44194J44194D01*
G01*
X218343614Y-65547538D01*
G75*
G02*
X218432002Y-65547538I44194J-44194D01*
G01*
X218909299Y-66024835D01*
G75*
G02*
X218909299Y-66113223I-44194J-44194D01*
G01*
G37*
G36*
G01*
X218909299Y-64734365D02*
X218432002Y-65211662D01*
G75*
G02*
X218343614Y-65211662I-44194J44194D01*
G01*
X218255225Y-65123273D01*
G75*
G02*
X218255225Y-65034885I44194J44194D01*
G01*
X218732522Y-64557588D01*
G75*
G02*
X218820910Y-64557588I44194J-44194D01*
G01*
X218909299Y-64645977D01*
G75*
G02*
X218909299Y-64734365I-44194J-44194D01*
G01*
G37*
G36*
G01*
X218555746Y-64380812D02*
X218078449Y-64858109D01*
G75*
G02*
X217990061Y-64858109I-44194J44194D01*
G01*
X217901672Y-64769720D01*
G75*
G02*
X217901672Y-64681332I44194J44194D01*
G01*
X218378969Y-64204035D01*
G75*
G02*
X218467357Y-64204035I44194J-44194D01*
G01*
X218555746Y-64292424D01*
G75*
G02*
X218555746Y-64380812I-44194J-44194D01*
G01*
G37*
G36*
G01*
X218202192Y-64027258D02*
X217724895Y-64504555D01*
G75*
G02*
X217636507Y-64504555I-44194J44194D01*
G01*
X217548118Y-64416166D01*
G75*
G02*
X217548118Y-64327778I44194J44194D01*
G01*
X218025415Y-63850481D01*
G75*
G02*
X218113803Y-63850481I44194J-44194D01*
G01*
X218202192Y-63938870D01*
G75*
G02*
X218202192Y-64027258I-44194J-44194D01*
G01*
G37*
G36*
G01*
X217848639Y-63673705D02*
X217371342Y-64151002D01*
G75*
G02*
X217282954Y-64151002I-44194J44194D01*
G01*
X217194565Y-64062613D01*
G75*
G02*
X217194565Y-63974225I44194J44194D01*
G01*
X217671862Y-63496928D01*
G75*
G02*
X217760250Y-63496928I44194J-44194D01*
G01*
X217848639Y-63585317D01*
G75*
G02*
X217848639Y-63673705I-44194J-44194D01*
G01*
G37*
G36*
G01*
X217495085Y-63320152D02*
X217017788Y-63797449D01*
G75*
G02*
X216929400Y-63797449I-44194J44194D01*
G01*
X216841011Y-63709060D01*
G75*
G02*
X216841011Y-63620672I44194J44194D01*
G01*
X217318308Y-63143375D01*
G75*
G02*
X217406696Y-63143375I44194J-44194D01*
G01*
X217495085Y-63231764D01*
G75*
G02*
X217495085Y-63320152I-44194J-44194D01*
G01*
G37*
G36*
G01*
X217141532Y-62966598D02*
X216664235Y-63443895D01*
G75*
G02*
X216575847Y-63443895I-44194J44194D01*
G01*
X216487458Y-63355506D01*
G75*
G02*
X216487458Y-63267118I44194J44194D01*
G01*
X216964755Y-62789821D01*
G75*
G02*
X217053143Y-62789821I44194J-44194D01*
G01*
X217141532Y-62878210D01*
G75*
G02*
X217141532Y-62966598I-44194J-44194D01*
G01*
G37*
G36*
G01*
X216787979Y-62613045D02*
X216310682Y-63090342D01*
G75*
G02*
X216222294Y-63090342I-44194J44194D01*
G01*
X216133905Y-63001953D01*
G75*
G02*
X216133905Y-62913565I44194J44194D01*
G01*
X216611202Y-62436268D01*
G75*
G02*
X216699590Y-62436268I44194J-44194D01*
G01*
X216787979Y-62524657D01*
G75*
G02*
X216787979Y-62613045I-44194J-44194D01*
G01*
G37*
G36*
G01*
X216434425Y-62259492D02*
X215957128Y-62736789D01*
G75*
G02*
X215868740Y-62736789I-44194J44194D01*
G01*
X215780351Y-62648400D01*
G75*
G02*
X215780351Y-62560012I44194J44194D01*
G01*
X216257648Y-62082715D01*
G75*
G02*
X216346036Y-62082715I44194J-44194D01*
G01*
X216434425Y-62171104D01*
G75*
G02*
X216434425Y-62259492I-44194J-44194D01*
G01*
G37*
G36*
G01*
X216080872Y-61905938D02*
X215603575Y-62383235D01*
G75*
G02*
X215515187Y-62383235I-44194J44194D01*
G01*
X215426798Y-62294846D01*
G75*
G02*
X215426798Y-62206458I44194J44194D01*
G01*
X215904095Y-61729161D01*
G75*
G02*
X215992483Y-61729161I44194J-44194D01*
G01*
X216080872Y-61817550D01*
G75*
G02*
X216080872Y-61905938I-44194J-44194D01*
G01*
G37*
G36*
G01*
X215727319Y-61552385D02*
X215250022Y-62029682D01*
G75*
G02*
X215161634Y-62029682I-44194J44194D01*
G01*
X215073245Y-61941293D01*
G75*
G02*
X215073245Y-61852905I44194J44194D01*
G01*
X215550542Y-61375608D01*
G75*
G02*
X215638930Y-61375608I44194J-44194D01*
G01*
X215727319Y-61463997D01*
G75*
G02*
X215727319Y-61552385I-44194J-44194D01*
G01*
G37*
G36*
G01*
X215373765Y-61198831D02*
X214896468Y-61676128D01*
G75*
G02*
X214808080Y-61676128I-44194J44194D01*
G01*
X214719691Y-61587739D01*
G75*
G02*
X214719691Y-61499351I44194J44194D01*
G01*
X215196988Y-61022054D01*
G75*
G02*
X215285376Y-61022054I44194J-44194D01*
G01*
X215373765Y-61110443D01*
G75*
G02*
X215373765Y-61198831I-44194J-44194D01*
G01*
G37*
G36*
G01*
X215020212Y-60845278D02*
X214542915Y-61322575D01*
G75*
G02*
X214454527Y-61322575I-44194J44194D01*
G01*
X214366138Y-61234186D01*
G75*
G02*
X214366138Y-61145798I44194J44194D01*
G01*
X214843435Y-60668501D01*
G75*
G02*
X214931823Y-60668501I44194J-44194D01*
G01*
X215020212Y-60756890D01*
G75*
G02*
X215020212Y-60845278I-44194J-44194D01*
G01*
G37*
G36*
G01*
X214030262Y-61234187D02*
X213941873Y-61322575D01*
G75*
G02*
X213853485Y-61322575I-44194J44194D01*
G01*
X213376188Y-60845278D01*
G75*
G02*
X213376188Y-60756890I44194J44194D01*
G01*
X213464577Y-60668501D01*
G75*
G02*
X213552965Y-60668501I44194J-44194D01*
G01*
X214030262Y-61145798D01*
G75*
G02*
X214030262Y-61234186I-44194J-44194D01*
G01*
G37*
G36*
G01*
X213676709Y-61587740D02*
X213588320Y-61676128D01*
G75*
G02*
X213499932Y-61676128I-44194J44194D01*
G01*
X213022635Y-61198831D01*
G75*
G02*
X213022635Y-61110443I44194J44194D01*
G01*
X213111024Y-61022054D01*
G75*
G02*
X213199412Y-61022054I44194J-44194D01*
G01*
X213676709Y-61499351D01*
G75*
G02*
X213676709Y-61587739I-44194J-44194D01*
G01*
G37*
G36*
G01*
X213323155Y-61941294D02*
X213234766Y-62029682D01*
G75*
G02*
X213146378Y-62029682I-44194J44194D01*
G01*
X212669081Y-61552385D01*
G75*
G02*
X212669081Y-61463997I44194J44194D01*
G01*
X212757470Y-61375608D01*
G75*
G02*
X212845858Y-61375608I44194J-44194D01*
G01*
X213323155Y-61852905D01*
G75*
G02*
X213323155Y-61941293I-44194J-44194D01*
G01*
G37*
G36*
G01*
X212969602Y-62294847D02*
X212881213Y-62383235D01*
G75*
G02*
X212792825Y-62383235I-44194J44194D01*
G01*
X212315528Y-61905938D01*
G75*
G02*
X212315528Y-61817550I44194J44194D01*
G01*
X212403917Y-61729161D01*
G75*
G02*
X212492305Y-61729161I44194J-44194D01*
G01*
X212969602Y-62206458D01*
G75*
G02*
X212969602Y-62294846I-44194J-44194D01*
G01*
G37*
G36*
G01*
X212616049Y-62648401D02*
X212527660Y-62736789D01*
G75*
G02*
X212439272Y-62736789I-44194J44194D01*
G01*
X211961975Y-62259492D01*
G75*
G02*
X211961975Y-62171104I44194J44194D01*
G01*
X212050364Y-62082715D01*
G75*
G02*
X212138752Y-62082715I44194J-44194D01*
G01*
X212616049Y-62560012D01*
G75*
G02*
X212616049Y-62648400I-44194J-44194D01*
G01*
G37*
G36*
G01*
X212262495Y-63001954D02*
X212174106Y-63090342D01*
G75*
G02*
X212085718Y-63090342I-44194J44194D01*
G01*
X211608421Y-62613045D01*
G75*
G02*
X211608421Y-62524657I44194J44194D01*
G01*
X211696810Y-62436268D01*
G75*
G02*
X211785198Y-62436268I44194J-44194D01*
G01*
X212262495Y-62913565D01*
G75*
G02*
X212262495Y-63001953I-44194J-44194D01*
G01*
G37*
G36*
G01*
X211908942Y-63355507D02*
X211820553Y-63443895D01*
G75*
G02*
X211732165Y-63443895I-44194J44194D01*
G01*
X211254868Y-62966598D01*
G75*
G02*
X211254868Y-62878210I44194J44194D01*
G01*
X211343257Y-62789821D01*
G75*
G02*
X211431645Y-62789821I44194J-44194D01*
G01*
X211908942Y-63267118D01*
G75*
G02*
X211908942Y-63355506I-44194J-44194D01*
G01*
G37*
G36*
G01*
X211555389Y-63709061D02*
X211467000Y-63797449D01*
G75*
G02*
X211378612Y-63797449I-44194J44194D01*
G01*
X210901315Y-63320152D01*
G75*
G02*
X210901315Y-63231764I44194J44194D01*
G01*
X210989704Y-63143375D01*
G75*
G02*
X211078092Y-63143375I44194J-44194D01*
G01*
X211555389Y-63620672D01*
G75*
G02*
X211555389Y-63709060I-44194J-44194D01*
G01*
G37*
G36*
G01*
X211201835Y-64062614D02*
X211113446Y-64151002D01*
G75*
G02*
X211025058Y-64151002I-44194J44194D01*
G01*
X210547761Y-63673705D01*
G75*
G02*
X210547761Y-63585317I44194J44194D01*
G01*
X210636150Y-63496928D01*
G75*
G02*
X210724538Y-63496928I44194J-44194D01*
G01*
X211201835Y-63974225D01*
G75*
G02*
X211201835Y-64062613I-44194J-44194D01*
G01*
G37*
G36*
G01*
X210848282Y-64416167D02*
X210759893Y-64504555D01*
G75*
G02*
X210671505Y-64504555I-44194J44194D01*
G01*
X210194208Y-64027258D01*
G75*
G02*
X210194208Y-63938870I44194J44194D01*
G01*
X210282597Y-63850481D01*
G75*
G02*
X210370985Y-63850481I44194J-44194D01*
G01*
X210848282Y-64327778D01*
G75*
G02*
X210848282Y-64416166I-44194J-44194D01*
G01*
G37*
G36*
G01*
X210494728Y-64769721D02*
X210406339Y-64858109D01*
G75*
G02*
X210317951Y-64858109I-44194J44194D01*
G01*
X209840654Y-64380812D01*
G75*
G02*
X209840654Y-64292424I44194J44194D01*
G01*
X209929043Y-64204035D01*
G75*
G02*
X210017431Y-64204035I44194J-44194D01*
G01*
X210494728Y-64681332D01*
G75*
G02*
X210494728Y-64769720I-44194J-44194D01*
G01*
G37*
G36*
G01*
X210141175Y-65123274D02*
X210052786Y-65211662D01*
G75*
G02*
X209964398Y-65211662I-44194J44194D01*
G01*
X209487101Y-64734365D01*
G75*
G02*
X209487101Y-64645977I44194J44194D01*
G01*
X209575490Y-64557588D01*
G75*
G02*
X209663878Y-64557588I44194J-44194D01*
G01*
X210141175Y-65034885D01*
G75*
G02*
X210141175Y-65123273I-44194J-44194D01*
G01*
G37*
G36*
G01*
X210141175Y-65724315D02*
X209663878Y-66201612D01*
G75*
G02*
X209575490Y-66201612I-44194J44194D01*
G01*
X209487101Y-66113223D01*
G75*
G02*
X209487101Y-66024835I44194J44194D01*
G01*
X209964398Y-65547538D01*
G75*
G02*
X210052786Y-65547538I44194J-44194D01*
G01*
X210141175Y-65635927D01*
G75*
G02*
X210141175Y-65724315I-44194J-44194D01*
G01*
G37*
G36*
G01*
X210494728Y-66077868D02*
X210017431Y-66555165D01*
G75*
G02*
X209929043Y-66555165I-44194J44194D01*
G01*
X209840654Y-66466776D01*
G75*
G02*
X209840654Y-66378388I44194J44194D01*
G01*
X210317951Y-65901091D01*
G75*
G02*
X210406339Y-65901091I44194J-44194D01*
G01*
X210494728Y-65989480D01*
G75*
G02*
X210494728Y-66077868I-44194J-44194D01*
G01*
G37*
G36*
G01*
X210848282Y-66431422D02*
X210370985Y-66908719D01*
G75*
G02*
X210282597Y-66908719I-44194J44194D01*
G01*
X210194208Y-66820330D01*
G75*
G02*
X210194208Y-66731942I44194J44194D01*
G01*
X210671505Y-66254645D01*
G75*
G02*
X210759893Y-66254645I44194J-44194D01*
G01*
X210848282Y-66343034D01*
G75*
G02*
X210848282Y-66431422I-44194J-44194D01*
G01*
G37*
G36*
G01*
X211201835Y-66784975D02*
X210724538Y-67262272D01*
G75*
G02*
X210636150Y-67262272I-44194J44194D01*
G01*
X210547761Y-67173883D01*
G75*
G02*
X210547761Y-67085495I44194J44194D01*
G01*
X211025058Y-66608198D01*
G75*
G02*
X211113446Y-66608198I44194J-44194D01*
G01*
X211201835Y-66696587D01*
G75*
G02*
X211201835Y-66784975I-44194J-44194D01*
G01*
G37*
G36*
G01*
X211555389Y-67138528D02*
X211078092Y-67615825D01*
G75*
G02*
X210989704Y-67615825I-44194J44194D01*
G01*
X210901315Y-67527436D01*
G75*
G02*
X210901315Y-67439048I44194J44194D01*
G01*
X211378612Y-66961751D01*
G75*
G02*
X211467000Y-66961751I44194J-44194D01*
G01*
X211555389Y-67050140D01*
G75*
G02*
X211555389Y-67138528I-44194J-44194D01*
G01*
G37*
G36*
G01*
X211908942Y-67492082D02*
X211431645Y-67969379D01*
G75*
G02*
X211343257Y-67969379I-44194J44194D01*
G01*
X211254868Y-67880990D01*
G75*
G02*
X211254868Y-67792602I44194J44194D01*
G01*
X211732165Y-67315305D01*
G75*
G02*
X211820553Y-67315305I44194J-44194D01*
G01*
X211908942Y-67403694D01*
G75*
G02*
X211908942Y-67492082I-44194J-44194D01*
G01*
G37*
G36*
G01*
X212262495Y-67845635D02*
X211785198Y-68322932D01*
G75*
G02*
X211696810Y-68322932I-44194J44194D01*
G01*
X211608421Y-68234543D01*
G75*
G02*
X211608421Y-68146155I44194J44194D01*
G01*
X212085718Y-67668858D01*
G75*
G02*
X212174106Y-67668858I44194J-44194D01*
G01*
X212262495Y-67757247D01*
G75*
G02*
X212262495Y-67845635I-44194J-44194D01*
G01*
G37*
G36*
G01*
X212616049Y-68199188D02*
X212138752Y-68676485D01*
G75*
G02*
X212050364Y-68676485I-44194J44194D01*
G01*
X211961975Y-68588096D01*
G75*
G02*
X211961975Y-68499708I44194J44194D01*
G01*
X212439272Y-68022411D01*
G75*
G02*
X212527660Y-68022411I44194J-44194D01*
G01*
X212616049Y-68110800D01*
G75*
G02*
X212616049Y-68199188I-44194J-44194D01*
G01*
G37*
G36*
G01*
X212969602Y-68552742D02*
X212492305Y-69030039D01*
G75*
G02*
X212403917Y-69030039I-44194J44194D01*
G01*
X212315528Y-68941650D01*
G75*
G02*
X212315528Y-68853262I44194J44194D01*
G01*
X212792825Y-68375965D01*
G75*
G02*
X212881213Y-68375965I44194J-44194D01*
G01*
X212969602Y-68464354D01*
G75*
G02*
X212969602Y-68552742I-44194J-44194D01*
G01*
G37*
G36*
G01*
X213323155Y-68906295D02*
X212845858Y-69383592D01*
G75*
G02*
X212757470Y-69383592I-44194J44194D01*
G01*
X212669081Y-69295203D01*
G75*
G02*
X212669081Y-69206815I44194J44194D01*
G01*
X213146378Y-68729518D01*
G75*
G02*
X213234766Y-68729518I44194J-44194D01*
G01*
X213323155Y-68817907D01*
G75*
G02*
X213323155Y-68906295I-44194J-44194D01*
G01*
G37*
G36*
G01*
X213676709Y-69259849D02*
X213199412Y-69737146D01*
G75*
G02*
X213111024Y-69737146I-44194J44194D01*
G01*
X213022635Y-69648757D01*
G75*
G02*
X213022635Y-69560369I44194J44194D01*
G01*
X213499932Y-69083072D01*
G75*
G02*
X213588320Y-69083072I44194J-44194D01*
G01*
X213676709Y-69171461D01*
G75*
G02*
X213676709Y-69259849I-44194J-44194D01*
G01*
G37*
G36*
G01*
X214030262Y-69613402D02*
X213552965Y-70090699D01*
G75*
G02*
X213464577Y-70090699I-44194J44194D01*
G01*
X213376188Y-70002310D01*
G75*
G02*
X213376188Y-69913922I44194J44194D01*
G01*
X213853485Y-69436625D01*
G75*
G02*
X213941873Y-69436625I44194J-44194D01*
G01*
X214030262Y-69525014D01*
G75*
G02*
X214030262Y-69613402I-44194J-44194D01*
G01*
G37*
G36*
G01*
X214778028Y-68356520D02*
X214374977Y-68759571D01*
G75*
G02*
X214021423Y-68759571I-176777J176777D01*
G01*
X213618372Y-68356520D01*
G75*
G02*
X213618372Y-68002966I176777J176777D01*
G01*
X214021423Y-67599915D01*
G75*
G02*
X214374977Y-67599915I176777J-176777D01*
G01*
X214778028Y-68002966D01*
G75*
G02*
X214778028Y-68356520I-176777J-176777D01*
G01*
G37*
G36*
G01*
X215711409Y-67423139D02*
X215308358Y-67826190D01*
G75*
G02*
X214954804Y-67826190I-176777J176777D01*
G01*
X214551753Y-67423139D01*
G75*
G02*
X214551753Y-67069585I176777J176777D01*
G01*
X214954804Y-66666534D01*
G75*
G02*
X215308358Y-66666534I176777J-176777D01*
G01*
X215711409Y-67069585D01*
G75*
G02*
X215711409Y-67423139I-176777J-176777D01*
G01*
G37*
G36*
G01*
X216644790Y-66489758D02*
X216241739Y-66892809D01*
G75*
G02*
X215888185Y-66892809I-176777J176777D01*
G01*
X215485134Y-66489758D01*
G75*
G02*
X215485134Y-66136204I176777J176777D01*
G01*
X215888185Y-65733153D01*
G75*
G02*
X216241739Y-65733153I176777J-176777D01*
G01*
X216644790Y-66136204D01*
G75*
G02*
X216644790Y-66489758I-176777J-176777D01*
G01*
G37*
G36*
G01*
X217578171Y-65556377D02*
X217175120Y-65959428D01*
G75*
G02*
X216821566Y-65959428I-176777J176777D01*
G01*
X216418515Y-65556377D01*
G75*
G02*
X216418515Y-65202823I176777J176777D01*
G01*
X216821566Y-64799772D01*
G75*
G02*
X217175120Y-64799772I176777J-176777D01*
G01*
X217578171Y-65202823D01*
G75*
G02*
X217578171Y-65556377I-176777J-176777D01*
G01*
G37*
G36*
G01*
X213844647Y-67423139D02*
X213441596Y-67826190D01*
G75*
G02*
X213088042Y-67826190I-176777J176777D01*
G01*
X212684991Y-67423139D01*
G75*
G02*
X212684991Y-67069585I176777J176777D01*
G01*
X213088042Y-66666534D01*
G75*
G02*
X213441596Y-66666534I176777J-176777D01*
G01*
X213844647Y-67069585D01*
G75*
G02*
X213844647Y-67423139I-176777J-176777D01*
G01*
G37*
G36*
G01*
X214778028Y-66489758D02*
X214374977Y-66892809D01*
G75*
G02*
X214021423Y-66892809I-176777J176777D01*
G01*
X213618372Y-66489758D01*
G75*
G02*
X213618372Y-66136204I176777J176777D01*
G01*
X214021423Y-65733153D01*
G75*
G02*
X214374977Y-65733153I176777J-176777D01*
G01*
X214778028Y-66136204D01*
G75*
G02*
X214778028Y-66489758I-176777J-176777D01*
G01*
G37*
G36*
G01*
X215711409Y-65556377D02*
X215308358Y-65959428D01*
G75*
G02*
X214954804Y-65959428I-176777J176777D01*
G01*
X214551753Y-65556377D01*
G75*
G02*
X214551753Y-65202823I176777J176777D01*
G01*
X214954804Y-64799772D01*
G75*
G02*
X215308358Y-64799772I176777J-176777D01*
G01*
X215711409Y-65202823D01*
G75*
G02*
X215711409Y-65556377I-176777J-176777D01*
G01*
G37*
G36*
G01*
X216644790Y-64622996D02*
X216241739Y-65026047D01*
G75*
G02*
X215888185Y-65026047I-176777J176777D01*
G01*
X215485134Y-64622996D01*
G75*
G02*
X215485134Y-64269442I176777J176777D01*
G01*
X215888185Y-63866391D01*
G75*
G02*
X216241739Y-63866391I176777J-176777D01*
G01*
X216644790Y-64269442D01*
G75*
G02*
X216644790Y-64622996I-176777J-176777D01*
G01*
G37*
G36*
G01*
X212911266Y-66489758D02*
X212508215Y-66892809D01*
G75*
G02*
X212154661Y-66892809I-176777J176777D01*
G01*
X211751610Y-66489758D01*
G75*
G02*
X211751610Y-66136204I176777J176777D01*
G01*
X212154661Y-65733153D01*
G75*
G02*
X212508215Y-65733153I176777J-176777D01*
G01*
X212911266Y-66136204D01*
G75*
G02*
X212911266Y-66489758I-176777J-176777D01*
G01*
G37*
G36*
G01*
X213844647Y-65556377D02*
X213441596Y-65959428D01*
G75*
G02*
X213088042Y-65959428I-176777J176777D01*
G01*
X212684991Y-65556377D01*
G75*
G02*
X212684991Y-65202823I176777J176777D01*
G01*
X213088042Y-64799772D01*
G75*
G02*
X213441596Y-64799772I176777J-176777D01*
G01*
X213844647Y-65202823D01*
G75*
G02*
X213844647Y-65556377I-176777J-176777D01*
G01*
G37*
G36*
G01*
X214778028Y-64622996D02*
X214374977Y-65026047D01*
G75*
G02*
X214021423Y-65026047I-176777J176777D01*
G01*
X213618372Y-64622996D01*
G75*
G02*
X213618372Y-64269442I176777J176777D01*
G01*
X214021423Y-63866391D01*
G75*
G02*
X214374977Y-63866391I176777J-176777D01*
G01*
X214778028Y-64269442D01*
G75*
G02*
X214778028Y-64622996I-176777J-176777D01*
G01*
G37*
G36*
G01*
X215711409Y-63689615D02*
X215308358Y-64092666D01*
G75*
G02*
X214954804Y-64092666I-176777J176777D01*
G01*
X214551753Y-63689615D01*
G75*
G02*
X214551753Y-63336061I176777J176777D01*
G01*
X214954804Y-62933010D01*
G75*
G02*
X215308358Y-62933010I176777J-176777D01*
G01*
X215711409Y-63336061D01*
G75*
G02*
X215711409Y-63689615I-176777J-176777D01*
G01*
G37*
G36*
G01*
X211977885Y-65556377D02*
X211574834Y-65959428D01*
G75*
G02*
X211221280Y-65959428I-176777J176777D01*
G01*
X210818229Y-65556377D01*
G75*
G02*
X210818229Y-65202823I176777J176777D01*
G01*
X211221280Y-64799772D01*
G75*
G02*
X211574834Y-64799772I176777J-176777D01*
G01*
X211977885Y-65202823D01*
G75*
G02*
X211977885Y-65556377I-176777J-176777D01*
G01*
G37*
G36*
G01*
X212911266Y-64622996D02*
X212508215Y-65026047D01*
G75*
G02*
X212154661Y-65026047I-176777J176777D01*
G01*
X211751610Y-64622996D01*
G75*
G02*
X211751610Y-64269442I176777J176777D01*
G01*
X212154661Y-63866391D01*
G75*
G02*
X212508215Y-63866391I176777J-176777D01*
G01*
X212911266Y-64269442D01*
G75*
G02*
X212911266Y-64622996I-176777J-176777D01*
G01*
G37*
G36*
G01*
X213844647Y-63689615D02*
X213441596Y-64092666D01*
G75*
G02*
X213088042Y-64092666I-176777J176777D01*
G01*
X212684991Y-63689615D01*
G75*
G02*
X212684991Y-63336061I176777J176777D01*
G01*
X213088042Y-62933010D01*
G75*
G02*
X213441596Y-62933010I176777J-176777D01*
G01*
X213844647Y-63336061D01*
G75*
G02*
X213844647Y-63689615I-176777J-176777D01*
G01*
G37*
G36*
G01*
X214778028Y-62756234D02*
X214374977Y-63159285D01*
G75*
G02*
X214021423Y-63159285I-176777J176777D01*
G01*
X213618372Y-62756234D01*
G75*
G02*
X213618372Y-62402680I176777J176777D01*
G01*
X214021423Y-61999629D01*
G75*
G02*
X214374977Y-61999629I176777J-176777D01*
G01*
X214778028Y-62402680D01*
G75*
G02*
X214778028Y-62756234I-176777J-176777D01*
G01*
G37*
M02*
