G04 #@! TF.GenerationSoftware,KiCad,Pcbnew,(5.1.6)-1*
G04 #@! TF.CreationDate,2020-11-06T20:37:42+01:00*
G04 #@! TF.ProjectId,DynOSSAT-EDU-EPS,44796e4f-5353-4415-942d-4544552d4550,rev?*
G04 #@! TF.SameCoordinates,Original*
G04 #@! TF.FileFunction,Paste,Bot*
G04 #@! TF.FilePolarity,Positive*
%FSLAX46Y46*%
G04 Gerber Fmt 4.6, Leading zero omitted, Abs format (unit mm)*
G04 Created by KiCad (PCBNEW (5.1.6)-1) date 2020-11-06 20:37:42*
%MOMM*%
%LPD*%
G01*
G04 APERTURE LIST*
%ADD10R,0.750000X2.100000*%
G04 APERTURE END LIST*
D10*
X196494400Y-54400000D03*
X196494400Y-50800000D03*
X197764400Y-54400000D03*
X197764400Y-50800000D03*
X199034400Y-54400000D03*
X199034400Y-50800000D03*
X200304400Y-54400000D03*
X200304400Y-50800000D03*
X201574400Y-54400000D03*
X201574400Y-50800000D03*
X202844400Y-54400000D03*
X202844400Y-50800000D03*
X204114400Y-54400000D03*
X204114400Y-50800000D03*
X205384400Y-54400000D03*
X205384400Y-50800000D03*
X206654400Y-54400000D03*
X206654400Y-50800000D03*
X207924400Y-54400000D03*
X207924400Y-50800000D03*
X209194400Y-54400000D03*
X209194400Y-50800000D03*
X210464400Y-54400000D03*
X210464400Y-50800000D03*
X211734400Y-54400000D03*
X211734400Y-50800000D03*
X213004400Y-54400000D03*
X213004400Y-50800000D03*
X214274400Y-54400000D03*
X214274400Y-50800000D03*
X215544400Y-54400000D03*
X215544400Y-50800000D03*
X216814400Y-54400000D03*
X216814400Y-50800000D03*
X218084400Y-54400000D03*
X218084400Y-50800000D03*
X219354400Y-54400000D03*
X219354400Y-50800000D03*
X220624400Y-54400000D03*
X220624400Y-50800000D03*
M02*
